<svg xmlns="http://www.w3.org/2000/svg" width="67" height="82.067" viewBox="0 0 67 82.067">
  <g id="_15" data-name="15" transform="translate(0)">
    <path id="Trazado_114043" data-name="Trazado 114043" d="M51.034,64H13.206A3.206,3.206,0,0,0,10,67.206V131a3.206,3.206,0,0,0,3.206,3.206H61.933A3.206,3.206,0,0,0,65.139,131V78.105Zm0,0" transform="translate(-8.397 -53.742)" fill="#ff9500"/>
    <path id="Trazado_114044" data-name="Trazado 114044" d="M105.034,10H67.206A3.206,3.206,0,0,0,64,13.206V77a3.206,3.206,0,0,0,3.206,3.206h48.727A3.206,3.206,0,0,0,119.139,77V24.105Zm0,0" transform="translate(-53.742 -8.397)" fill="#fff"/>
    <path id="Trazado_114045" data-name="Trazado 114045" d="M105.034,10H67.206A3.206,3.206,0,0,0,64,13.206V77a3.206,3.206,0,0,0,3.206,3.206h48.727A3.206,3.206,0,0,0,119.139,77V24.105Zm0,0" transform="translate(-53.742 -8.397)" fill="#fff"/>
    <path id="Trazado_114046" data-name="Trazado 114046" d="M127.543,64h34.622V74.258H127.543Zm0,0" transform="translate(-107.1 -53.742)" fill="#0ca4ca"/>
    <path id="Trazado_114047" data-name="Trazado 114047" d="M334.105,24.105h-9.7A4.408,4.408,0,0,1,320,19.7V10Zm0,0" transform="translate(-268.708 -8.397)" fill="#ff9500"/>
    <path id="Trazado_114048" data-name="Trazado 114048" d="M66.53,14.575,52.425.47A1.6,1.6,0,0,0,51.292,0H13.464A4.814,4.814,0,0,0,8.655,4.809V8.656H4.808A4.814,4.814,0,0,0,0,13.464V77.259a4.814,4.814,0,0,0,4.809,4.809H53.536a4.814,4.814,0,0,0,4.809-4.809V73.412h3.847A4.814,4.814,0,0,0,67,68.6V50.17a1.6,1.6,0,1,0-3.206,0V68.6a1.6,1.6,0,0,1-1.6,1.6H13.464a1.6,1.6,0,0,1-1.6-1.6V4.809a1.6,1.6,0,0,1,1.6-1.6H49.689v5.45H20.443a1.6,1.6,0,0,0-1.6,1.6V20.517a1.6,1.6,0,0,0,1.6,1.6H55.065a1.6,1.6,0,0,0,1.6-1.6V17.311h7.126V37.134a1.6,1.6,0,0,0,3.206,0V15.708a1.6,1.6,0,0,0-.47-1.133ZM13.464,73.412H55.139v3.847a1.6,1.6,0,0,1-1.6,1.6H4.808a1.6,1.6,0,0,1-1.6-1.6V13.464a1.6,1.6,0,0,1,1.6-1.6H8.655V68.6A4.814,4.814,0,0,0,13.464,73.412Zm8.582-54.5V11.861h27.67a6.024,6.024,0,0,0,3.747,5.017v2.036ZM55.7,14.105A2.808,2.808,0,0,1,52.895,11.3V5.473l4.316,4.316,4.316,4.316Zm0,0" transform="translate(0 0)"/>
    <path id="Trazado_114049" data-name="Trazado 114049" d="M399.6,262a1.6,1.6,0,1,0,1.133.47A1.615,1.615,0,0,0,399.6,262Zm0,0" transform="translate(-334.206 -220.005)"/>
    <path id="Trazado_114050" data-name="Trazado 114050" d="M119.142,169.206a1.6,1.6,0,1,0-1.133-.47A1.615,1.615,0,0,0,119.142,169.206Zm0,0" transform="translate(-98.699 -139.392)"/>
    <path id="Trazado_114051" data-name="Trazado 114051" d="M153.768,214H119.146a1.6,1.6,0,0,0,0,3.206h34.622a1.6,1.6,0,0,0,0-3.206Zm0,0" transform="translate(-98.703 -179.698)"/>
    <path id="Trazado_114052" data-name="Trazado 114052" d="M153.768,262H119.146a1.6,1.6,0,1,0,0,3.206h34.622a1.6,1.6,0,0,0,0-3.206Zm0,0" transform="translate(-98.703 -220.005)"/>
    <path id="Trazado_114053" data-name="Trazado 114053" d="M153.768,310H119.146a1.6,1.6,0,1,0,0,3.206h34.622a1.6,1.6,0,0,0,0-3.206Zm0,0" transform="translate(-98.703 -260.311)"/>
    <path id="Trazado_114054" data-name="Trazado 114054" d="M153.768,358H119.146a1.6,1.6,0,0,0,0,3.206h34.622a1.6,1.6,0,0,0,0-3.206Zm0,0" transform="translate(-98.703 -300.617)"/>
    <path id="Trazado_114055" data-name="Trazado 114055" d="M187.868,166H159.755a1.6,1.6,0,1,0,0,3.206h28.113a1.6,1.6,0,1,0,0-3.206Zm0,0" transform="translate(-132.802 -139.392)"/>
  </g>
</svg>
