<svg xmlns="http://www.w3.org/2000/svg" xmlns:xlink="http://www.w3.org/1999/xlink" version="1.1" id="Capa_1" x="0px" y="0px" viewBox="0 0 642 402" style="enable-background:new 0 0 642 402;" xml:space="preserve">
<style type="text/css">
	.st0{opacity:0.95;fill:#FFFFFF;enable-background:new    ;}
	.st1{fill:#FF9500;stroke:#FFFFFF;stroke-width:2;stroke-linecap:round;}
	.st2{opacity:0.35;fill:#FF9500;stroke:#BC3200;stroke-width:2;stroke-linecap:round;enable-background:new    ;}
	.st3{opacity:0.15;fill:#FF9500;stroke:#FF9500;stroke-width:2;stroke-linecap:round;enable-background:new    ;}
	.st4{fill:#12263F;}
</style>
<path id="Imagen_2" class="st0" d="M19,0h604c10.5,0,19,8.5,19,19v364c0,10.5-8.5,19-19,19H19c-10.5,0-19-8.5-19-19V19  C0,8.5,8.5,0,19,0z"/>
<path id="Trazado_114113" class="st1" d="M75.9,38h141.6c6,0,10.9,4.9,10.9,10.9v43.6c0,6-4.9,10.9-10.9,10.9H75.9  c-6,0-10.9-4.9-10.9-10.9c0,0,0,0,0,0V48.9C65,42.9,69.9,38,75.9,38z"/>
<path id="Trazado_114114" class="st1" d="M391.8,103.4H250.2c-6,0-10.9-4.9-10.9-10.9V48.9c0-6,4.9-10.9,10.9-10.9h141.6  c6,0,10.9,4.9,10.9,10.9c0,0,0,0,0,0v43.6C402.7,98.5,397.8,103.4,391.8,103.4z"/>
<path id="Trazado_114115" class="st1" d="M424.5,38h141.6c6,0,10.9,4.9,10.9,10.9v43.6c0,6-4.9,10.9-10.9,10.9H424.5  c-6,0-10.9-4.9-10.9-10.9c0,0,0,0,0,0V48.9C413.6,42.9,418.5,38,424.5,38z"/>
<path id="Trazado_114116" class="st2" d="M391.8,168.3H250.2c-6,0-10.9-4.9-10.9-10.9v-32.7c0-6,4.9-10.9,10.9-10.9h141.6  c6,0,10.9,4.9,10.9,10.9c0,0,0,0,0,0v32.7C402.7,163.5,397.8,168.3,391.8,168.3z"/>
<path id="Trazado_114117" class="st2" d="M424.5,113.9h141.6c6,0,10.9,4.9,10.9,10.9v32.7c0,6-4.9,10.9-10.9,10.9H424.5  c-6,0-10.9-4.9-10.9-10.9c0,0,0,0,0,0v-32.7C413.6,118.7,418.5,113.9,424.5,113.9z"/>
<path id="Trazado_114118" class="st2" d="M76.1,114.1h141.6c6,0,10.9,4.9,10.9,10.9v98c0,6-4.9,10.9-10.9,10.9H76.1  c-6,0-10.9-4.9-10.9-10.9c0,0,0,0,0,0v-98C65.2,118.9,70.1,114.1,76.1,114.1z"/>
<path id="Trazado_114119" class="st3" d="M391.8,233.6H250.2c-6,0-10.9-4.9-10.9-10.9V190c0-6,4.9-10.9,10.9-10.9h141.6  c6,0,10.9,4.9,10.9,10.9c0,0,0,0,0,0v32.7C402.7,228.7,397.8,233.6,391.8,233.6z"/>
<path id="Trazado_114120" class="st3" d="M424.5,179.1h141.6c6,0,10.9,4.9,10.9,10.9v32.7c0,6-4.9,10.9-10.9,10.9H424.5  c-6,0-10.9-4.9-10.9-10.9c0,0,0,0,0,0V190C413.6,184,418.5,179.1,424.5,179.1z"/>
<path id="Trazado_114121" class="st2" d="M76.1,244.8h141.6c6,0,10.9,4.9,10.9,10.9v98c0,6-4.9,10.9-10.9,10.9H76.1  c-6,0-10.9-4.9-10.9-10.9c0,0,0,0,0,0v-98C65.2,249.7,70.1,244.8,76.1,244.8z"/>
<path id="Trazado_114122" class="st2" d="M391.8,299.4H250.2c-6,0-10.9-4.9-10.9-10.9v-32.7c0-6,4.9-10.9,10.9-10.9h141.6  c6,0,10.9,4.9,10.9,10.9c0,0,0,0,0,0v32.7C402.7,294.6,397.8,299.4,391.8,299.4z"/>
<path id="Trazado_114123" class="st2" d="M424.5,245h141.6c6,0,10.9,4.9,10.9,10.9v32.7c0,6-4.9,10.9-10.9,10.9H424.5  c-6,0-10.9-4.9-10.9-10.9c0,0,0,0,0,0v-32.7C413.6,249.9,418.5,245,424.5,245z"/>
<path id="Trazado_114124" class="st3" d="M391.8,364.3H250.2c-6,0-10.9-4.9-10.9-10.9v-32.7c0-6,4.9-10.9,10.9-10.9h141.6  c6,0,10.9,4.9,10.9,10.9c0,0,0,0,0,0v32.7C402.7,359.4,397.8,364.3,391.8,364.3z"/>
<path id="Trazado_114125" class="st3" d="M424.5,310.3h141.6c6,0,10.9,4.9,10.9,10.9v32.7c0,6-4.9,10.9-10.9,10.9H424.5  c-6,0-10.9-4.9-10.9-10.9c0,0,0,0,0,0v-32.7C413.6,315.2,418.5,310.3,424.5,310.3z"/>
<path id="Trazado_114126" class="st4" d="M106.6,61.2c0-0.4-0.2-0.8-0.5-1.1c-0.5-0.4-1.1-0.6-1.8-0.8c-0.7-0.2-1.4-0.5-2.1-0.8  c-1.8-0.9-2.6-2-2.6-3.6c0-0.7,0.2-1.4,0.7-2c0.5-0.6,1.1-1.1,1.9-1.3c0.9-0.3,1.8-0.5,2.7-0.5c0.9,0,1.8,0.2,2.6,0.5  c0.7,0.3,1.4,0.8,1.8,1.5c0.4,0.7,0.7,1.4,0.6,2.2h-3.3c0-0.5-0.2-1-0.5-1.3c-0.4-0.3-0.9-0.5-1.4-0.5c-0.5,0-1,0.1-1.4,0.4  c-0.3,0.2-0.5,0.6-0.5,1c0,0.4,0.2,0.7,0.6,0.9c0.6,0.4,1.3,0.7,2,0.9c0.8,0.2,1.6,0.6,2.3,1c1.3,0.6,2.2,2,2.2,3.5  c0,1.1-0.5,2.1-1.3,2.8c-1.1,0.7-2.4,1.1-3.7,1c-1,0-2-0.2-3-0.6c-0.8-0.3-1.5-0.9-2-1.6c-0.5-0.7-0.7-1.5-0.7-2.4h3.3  c-0.1,0.6,0.2,1.2,0.6,1.6c0.5,0.4,1.2,0.6,1.8,0.5c0.5,0,0.9-0.1,1.3-0.3C106.4,62,106.6,61.6,106.6,61.2z M114.7,64.8h-3.1V54.7  h3.1V64.8z M111.4,52.1c0-0.4,0.2-0.8,0.5-1.1c0.4-0.3,0.8-0.4,1.3-0.4c0.5,0,0.9,0.1,1.3,0.4c0.3,0.3,0.5,0.7,0.5,1.1  c0,0.4-0.2,0.8-0.5,1.1c-0.4,0.3-0.8,0.4-1.3,0.4c-0.5,0-0.9-0.1-1.3-0.4C111.5,53,111.4,52.6,111.4,52.1L111.4,52.1z M121.9,62  c0-0.3-0.2-0.5-0.4-0.6c-0.5-0.2-1-0.4-1.6-0.5c-0.7-0.1-1.3-0.4-1.9-0.7c-0.5-0.2-0.9-0.6-1.2-1c-0.3-0.4-0.4-0.9-0.4-1.4  c0-0.9,0.4-1.8,1.1-2.3c0.9-0.6,1.9-1,3-0.9c1.1-0.1,2.3,0.3,3.2,0.9c0.8,0.5,1.2,1.4,1.2,2.4h-3.1c0-0.8-0.4-1.2-1.3-1.2  c-0.3,0-0.6,0.1-0.8,0.3c-0.2,0.2-0.3,0.4-0.3,0.7c0,0.3,0.2,0.5,0.4,0.7c0.4,0.2,0.8,0.4,1.3,0.4c0.5,0.1,1.1,0.2,1.6,0.4  c1.3,0.3,2.3,1.4,2.3,2.8c0,0.9-0.5,1.8-1.2,2.2c-0.9,0.6-2,0.9-3.2,0.9c-0.8,0-1.6-0.1-2.3-0.5c-0.6-0.3-1.2-0.7-1.6-1.3  c-0.4-0.5-0.6-1.1-0.6-1.7h2.9c0,0.4,0.2,0.8,0.5,1c0.3,0.2,0.7,0.3,1.1,0.3c0.3,0,0.7-0.1,1-0.3C121.8,62.5,121.9,62.2,121.9,62z   M130,52.2v2.5h1.7v2.2H130v4.6c0,0.3,0,0.6,0.2,0.8c0.2,0.2,0.5,0.3,0.8,0.2c0.3,0,0.5,0,0.8-0.1v2.2c-0.6,0.2-1.2,0.3-1.8,0.3  c-0.9,0.1-1.7-0.2-2.4-0.8c-0.6-0.6-0.8-1.5-0.8-2.3v-5h-1.3v-2.2h1.3v-2.5L130,52.2z M137.8,65c-1.4,0.1-2.7-0.4-3.8-1.4  c-1-0.9-1.5-2.3-1.4-3.6v-0.3c0-0.9,0.2-1.9,0.6-2.7c0.4-0.8,0.9-1.4,1.7-1.8c0.8-0.4,1.7-0.7,2.6-0.6c1.3-0.1,2.5,0.4,3.3,1.3  c0.9,1,1.3,2.3,1.2,3.7v1.2h-6.2c0.1,0.5,0.3,1,0.7,1.3c0.4,0.3,0.9,0.5,1.5,0.5c0.9,0,1.8-0.3,2.3-1l1.4,1.7c-0.4,0.6-1,1-1.7,1.3  C139.4,64.8,138.6,65,137.8,65z M137.5,57c-0.9,0-1.5,0.6-1.6,1.8h3.2v-0.2c0-0.4-0.1-0.8-0.4-1.2C138.3,57.1,137.9,56.9,137.5,57  L137.5,57z M146.3,54.7l0.1,1.2c0.7-0.9,1.8-1.4,2.9-1.4c1.1-0.1,2.1,0.5,2.6,1.5c0.6-1,1.8-1.6,3-1.5c2,0,3.1,1.2,3.1,3.7v6.6h-3.1  v-6.4c0-0.4-0.1-0.8-0.3-1.1c-0.2-0.3-0.6-0.4-0.9-0.4c-0.6,0-1.1,0.3-1.4,0.8l0,0.1v6.9h-3.1v-6.3c0-0.4-0.1-0.8-0.3-1.1  c-0.2-0.3-0.6-0.4-1-0.4c-0.6,0-1.1,0.3-1.4,0.8v7h-3.1V54.7H146.3z M165.4,64.8c-0.1-0.3-0.2-0.6-0.3-0.9c-0.6,0.7-1.5,1.1-2.4,1.1  c-0.9,0-1.7-0.3-2.4-0.9c-0.6-0.5-1-1.3-1-2.2c-0.1-1,0.4-1.9,1.2-2.5c1.1-0.6,2.3-0.9,3.5-0.8h1v-0.5c0-0.9-0.4-1.4-1.2-1.4  c-0.5-0.1-1,0.3-1.1,0.8c0,0.1,0,0.2,0,0.3h-3.1c0-0.9,0.5-1.8,1.2-2.4c0.9-0.6,2-1,3.2-0.9c1.1-0.1,2.2,0.3,3,0.9  c0.8,0.6,1.2,1.6,1.1,2.6v4.5c0,0.7,0.1,1.5,0.4,2.1v0.2H165.4z M163.4,62.8c0.3,0,0.7-0.1,1-0.3c0.2-0.1,0.4-0.3,0.6-0.6v-1.6h-0.9  c-1.1,0-1.6,0.5-1.6,1.5c0,0.3,0.1,0.5,0.3,0.7C162.9,62.7,163.2,62.8,163.4,62.8z M174.2,59.7c-0.1-1.3,0.3-2.7,1-3.8  c0.7-0.9,1.8-1.4,2.9-1.4c0.9,0,1.7,0.4,2.3,1.1v-5.1h3.1v14.3h-2.8l-0.2-1.1c-0.6,0.8-1.5,1.3-2.5,1.3c-1.1,0-2.2-0.5-2.8-1.4  C174.5,62.5,174.1,61.1,174.2,59.7z M177.3,59.9c0,1.8,0.5,2.7,1.6,2.7c0.6,0,1.2-0.3,1.5-0.9v-3.8c-0.3-0.6-0.8-0.9-1.5-0.9  c-1,0-1.5,0.8-1.6,2.3L177.3,59.9z M190.2,65c-1.4,0.1-2.7-0.4-3.8-1.4c-1-0.9-1.5-2.3-1.4-3.6v-0.3c0-0.9,0.2-1.9,0.6-2.7  c0.4-0.8,0.9-1.4,1.7-1.8c0.8-0.4,1.7-0.7,2.6-0.6c1.3-0.1,2.5,0.4,3.4,1.3c0.9,1,1.3,2.3,1.2,3.7v1.2h-6.2c0.1,0.5,0.3,1,0.7,1.3  c0.4,0.3,0.9,0.5,1.5,0.5c0.9,0,1.8-0.3,2.3-1l1.4,1.7c-0.4,0.6-1,1-1.7,1.3C191.8,64.8,191,65,190.2,65z M189.8,57  c-0.9,0-1.5,0.6-1.6,1.8h3.2v-0.2c0-0.4-0.1-0.8-0.4-1.2C190.7,57.1,190.3,56.9,189.8,57L189.8,57z M114.4,86.6  c-0.6,0.8-1.6,1.3-2.7,1.3c-0.9,0.1-1.9-0.3-2.5-1c-0.6-0.8-0.9-1.8-0.9-2.8v-6.5h3.1v6.5c-0.1,0.6,0.3,1.2,0.9,1.3  c0.1,0,0.2,0,0.3,0c0.6,0.1,1.2-0.2,1.5-0.8v-7.1h3.2v10.1h-2.9L114.4,86.6z M122,77.6l0.1,1.2c0.7-0.9,1.8-1.4,2.9-1.4  c0.9-0.1,1.8,0.3,2.3,0.9c0.6,0.8,0.9,1.8,0.8,2.8v6.5H125v-6.4c0-0.4-0.1-0.8-0.3-1.1c-0.3-0.3-0.7-0.4-1.1-0.4  c-0.6,0-1.1,0.2-1.4,0.7v7.1H119V77.6L122,77.6z M133.2,87.7H130V77.6h3.1V87.7z M129.8,75c0-0.4,0.2-0.8,0.5-1.1  c0.4-0.3,0.8-0.4,1.3-0.4c0.5,0,0.9,0.1,1.3,0.4c0.3,0.3,0.5,0.7,0.5,1.1c0,0.4-0.2,0.8-0.5,1.1c-0.4,0.3-0.8,0.4-1.3,0.4  c-0.5,0-0.9-0.1-1.3-0.4C130,75.8,129.8,75.4,129.8,75L129.8,75z M134.7,82.6c-0.1-1.3,0.3-2.7,1-3.8c0.7-0.9,1.8-1.4,2.9-1.4  c0.9,0,1.7,0.4,2.3,1.1v-5.1h3.1v14.3h-2.8l-0.2-1.1c-0.6,0.8-1.5,1.3-2.5,1.3c-1.1,0-2.2-0.5-2.8-1.4C135,85.3,134.6,84,134.7,82.6  z M137.8,82.8c0,1.8,0.5,2.7,1.6,2.7c0.6,0,1.2-0.3,1.5-0.9v-3.8c-0.3-0.6-0.8-0.9-1.5-0.9c-1,0-1.5,0.8-1.6,2.3L137.8,82.8z   M151.5,87.7c-0.1-0.3-0.2-0.6-0.3-0.9c-0.6,0.7-1.5,1.1-2.4,1.1c-0.9,0-1.7-0.3-2.4-0.9c-0.6-0.5-1-1.3-1-2.2  c-0.1-1,0.4-1.9,1.2-2.5c1.1-0.6,2.3-0.9,3.5-0.8h1V81c0-0.9-0.4-1.4-1.2-1.4c-0.5-0.1-1,0.3-1.1,0.8c0,0.1,0,0.2,0,0.3h-3.1  c0-0.9,0.5-1.8,1.2-2.4c0.9-0.6,2-1,3.2-0.9c1.1-0.1,2.2,0.3,3,0.9c0.8,0.6,1.2,1.6,1.1,2.6v4.5c0,0.7,0.1,1.5,0.4,2.1v0.2  L151.5,87.7z M149.5,85.6c0.3,0,0.7-0.1,1-0.3c0.2-0.1,0.4-0.3,0.6-0.6v-1.6h-0.9c-1.1,0-1.6,0.5-1.6,1.5c0,0.3,0.1,0.5,0.3,0.7  C149,85.6,149.3,85.7,149.5,85.6z M155.5,82.6c-0.1-1.3,0.3-2.7,1-3.8c0.7-0.9,1.8-1.4,2.9-1.4c0.9,0,1.7,0.4,2.3,1.1v-5.1h3.1v14.3  h-2.8l-0.2-1.1c-0.6,0.8-1.5,1.3-2.5,1.3c-1.1,0-2.2-0.5-2.8-1.4C155.8,85.3,155.5,84,155.5,82.6L155.5,82.6z M158.7,82.8  c0,1.8,0.5,2.7,1.6,2.7c0.6,0,1.2-0.3,1.5-0.9v-3.8c-0.3-0.6-0.8-0.9-1.5-0.9c-1,0-1.5,0.8-1.6,2.3L158.7,82.8z M171.5,87.9  c-1.4,0.1-2.7-0.4-3.8-1.4c-1-0.9-1.5-2.3-1.4-3.6v-0.3c0-0.9,0.2-1.9,0.6-2.7c0.4-0.8,0.9-1.4,1.7-1.8c0.8-0.4,1.7-0.7,2.6-0.6  c1.3-0.1,2.5,0.4,3.4,1.3c0.9,1,1.3,2.3,1.2,3.7v1.2h-6.2c0.1,0.5,0.3,1,0.7,1.3c0.4,0.3,0.9,0.5,1.5,0.5c0.9,0,1.8-0.3,2.3-1  l1.4,1.7c-0.4,0.6-1,1-1.7,1.3C173.1,87.7,172.3,87.9,171.5,87.9L171.5,87.9z M171.2,79.9c-0.9,0-1.5,0.6-1.6,1.8h3.2v-0.2  c0-0.4-0.1-0.8-0.4-1.2C172,80,171.6,79.8,171.2,79.9L171.2,79.9z M182.3,84.9c0-0.3-0.2-0.5-0.4-0.7c-0.5-0.2-1-0.4-1.6-0.5  c-0.7-0.1-1.3-0.4-1.9-0.7c-0.5-0.2-0.9-0.6-1.2-1c-0.3-0.4-0.4-0.9-0.4-1.4c0-0.9,0.4-1.8,1.1-2.3c0.9-0.6,1.9-1,3-0.9  c1.1-0.1,2.3,0.3,3.2,0.9c0.8,0.5,1.2,1.4,1.2,2.4h-3.1c0-0.8-0.4-1.2-1.3-1.2c-0.3,0-0.6,0.1-0.8,0.3c-0.2,0.2-0.3,0.4-0.3,0.7  c0,0.3,0.2,0.5,0.4,0.7c0.4,0.2,0.8,0.4,1.3,0.4c0.5,0.1,1.1,0.2,1.6,0.4c1.3,0.3,2.3,1.4,2.3,2.8c0,0.9-0.5,1.8-1.2,2.3  c-0.9,0.6-2,0.9-3.2,0.9c-0.8,0-1.6-0.1-2.3-0.5c-0.6-0.3-1.2-0.7-1.6-1.3c-0.4-0.5-0.6-1.1-0.6-1.7h2.9c0,0.4,0.2,0.8,0.5,1  c0.3,0.2,0.7,0.3,1.1,0.3c0.3,0,0.7-0.1,1-0.3C182.2,85.4,182.3,85.1,182.3,84.9L182.3,84.9z"/>
<path id="Trazado_114127" class="st4" d="M302.5,62.7v8.9c0,0.9-0.2,1.8-0.6,2.6c-0.4,0.7-1.1,1.3-1.8,1.7c-0.9,0.4-1.9,0.6-2.8,0.6  c-1.4,0.1-2.8-0.4-3.9-1.3c-1-0.9-1.5-2.2-1.5-3.5v-8.9h3.3v9c0,1.5,0.7,2.2,2.1,2.2c0.6,0,1.1-0.2,1.5-0.6c0.4-0.5,0.6-1.2,0.5-1.8  v-8.9L302.5,62.7z M307.3,66.2l0.1,1.2c0.7-0.9,1.8-1.4,2.9-1.4c0.9-0.1,1.8,0.3,2.4,0.9c0.6,0.8,0.9,1.8,0.8,2.8v6.5h-3.2v-6.4  c0-0.4-0.1-0.8-0.3-1.1c-0.3-0.3-0.7-0.4-1.1-0.4c-0.6,0-1.1,0.2-1.4,0.7v7.1h-3.1V66.2H307.3z M318.5,76.3h-3.1V66.2h3.1V76.3z   M315.2,63.6c0-0.4,0.2-0.8,0.5-1.1c0.3-0.3,0.8-0.4,1.3-0.4c0.5,0,0.9,0.1,1.3,0.4c0.3,0.3,0.5,0.7,0.5,1.1c0,0.4-0.2,0.8-0.5,1.1  c-0.4,0.3-0.8,0.4-1.3,0.4c-0.5,0-0.9-0.1-1.3-0.4C315.3,64.4,315.2,64,315.2,63.6z M320,71.1c-0.1-1.3,0.3-2.7,1-3.8  c0.7-0.9,1.8-1.4,2.9-1.4c0.9,0,1.7,0.4,2.3,1.1V62h3.1v14.3h-2.8l-0.2-1.1c-0.6,0.8-1.5,1.3-2.5,1.3c-1.1,0-2.2-0.5-2.8-1.4  C320.3,73.9,319.9,72.5,320,71.1z M323.2,71.3c0,1.8,0.5,2.7,1.6,2.7c0.6,0,1.2-0.3,1.5-0.9v-3.8c-0.3-0.6-0.8-0.9-1.5-0.9  c-1,0-1.5,0.8-1.6,2.3L323.2,71.3z M336.8,76.3c-0.1-0.3-0.2-0.6-0.3-0.9c-0.6,0.7-1.5,1.1-2.4,1.1c-0.9,0-1.7-0.3-2.4-0.9  c-0.6-0.5-1-1.3-1-2.2c-0.1-1,0.4-1.9,1.2-2.5c1.1-0.6,2.3-0.9,3.5-0.8h1v-0.5c0-0.9-0.4-1.4-1.2-1.4c-0.5-0.1-1,0.3-1.1,0.8  c0,0.1,0,0.2,0,0.3h-3.1c0-0.9,0.5-1.8,1.2-2.4c0.9-0.6,2-1,3.2-0.9c1.1-0.1,2.2,0.3,3,0.9c0.8,0.6,1.2,1.6,1.1,2.6V74  c0,0.7,0.1,1.5,0.4,2.1v0.2H336.8z M334.9,74.2c0.3,0,0.7-0.1,1-0.3c0.2-0.1,0.4-0.3,0.6-0.6v-1.6h-0.9c-1.1,0-1.6,0.5-1.6,1.5  c0,0.3,0.1,0.5,0.3,0.7C334.3,74.1,334.6,74.2,334.9,74.2z M340.9,71.1c-0.1-1.3,0.3-2.7,1-3.8c0.7-0.9,1.8-1.4,2.9-1.4  c0.9,0,1.7,0.4,2.3,1.1V62h3.1v14.3h-2.8l-0.2-1.1c-0.6,0.8-1.5,1.3-2.5,1.3c-1.1,0-2.2-0.5-2.8-1.4  C341.2,73.9,340.8,72.5,340.9,71.1z M344,71.3c0,1.8,0.5,2.7,1.6,2.7c0.6,0,1.2-0.3,1.5-0.9v-3.8c-0.3-0.6-0.8-0.9-1.5-0.9  c-1,0-1.5,0.8-1.6,2.3L344,71.3z"/>
<path id="Trazado_114128" class="st4" d="M437.5,59.1h-5.1v3.2h6.1v2.5h-9.3V51.3h9.4v2.5h-6.1v2.9h5.1V59.1z M439,59.7  c-0.1-1.3,0.3-2.7,1-3.8c0.7-0.9,1.8-1.4,2.9-1.4c1,0,1.9,0.5,2.5,1.3l0.2-1.1h2.7v13.9h-3.1V64c-0.6,0.7-1.4,1-2.3,1  c-1.1,0-2.2-0.5-2.8-1.4C439.3,62.5,438.9,61.1,439,59.7L439,59.7z M442.1,59.9c0,1.8,0.5,2.7,1.6,2.7c0.6,0.1,1.2-0.3,1.5-0.8v-4  c-0.3-0.5-0.9-0.9-1.5-0.8c-1,0-1.5,0.8-1.6,2.3L442.1,59.9z M456.1,63.7c-0.6,0.8-1.6,1.3-2.7,1.3c-0.9,0.1-1.9-0.3-2.5-1  c-0.6-0.8-0.9-1.8-0.9-2.8v-6.5h3.1v6.5c-0.1,0.6,0.3,1.2,0.9,1.3c0.1,0,0.2,0,0.3,0c0.6,0.1,1.2-0.2,1.5-0.8v-7.1h3.2v10.1h-2.9  L456.1,63.7z M464.2,64.8H461V54.7h3.1V64.8z M460.8,52.1c0-0.4,0.2-0.8,0.5-1.1c0.4-0.3,0.8-0.4,1.3-0.4c0.5,0,0.9,0.1,1.3,0.4  c0.3,0.3,0.5,0.7,0.5,1.1c0,0.4-0.2,0.8-0.5,1.1c-0.4,0.3-0.8,0.4-1.3,0.4c-0.5,0-0.9-0.1-1.3-0.4C461,53,460.8,52.6,460.8,52.1z   M470.1,61.1l1.6-6.3h3.3l-3.3,10.1h-3.2l-3.3-10.1h3.3L470.1,61.1z M481.5,64.8c-0.1-0.3-0.2-0.6-0.3-0.9c-0.6,0.7-1.5,1.1-2.4,1.1  c-0.9,0-1.7-0.3-2.4-0.9c-0.6-0.5-1-1.3-1-2.2c-0.1-1,0.4-1.9,1.2-2.5c1.1-0.6,2.3-0.9,3.5-0.8h1v-0.5c0-0.9-0.4-1.4-1.2-1.4  c-0.5-0.1-1,0.3-1.1,0.8c0,0.1,0,0.2,0,0.3h-3.1c0-0.9,0.5-1.8,1.2-2.4c0.9-0.6,2-1,3.2-0.9c1.1-0.1,2.2,0.3,3,0.9  c0.8,0.6,1.2,1.6,1.1,2.6v4.5c0,0.7,0.1,1.5,0.4,2.1v0.2H481.5z M479.5,62.8c0.3,0,0.7-0.1,1-0.3c0.2-0.1,0.4-0.3,0.6-0.6v-1.6h-0.9  c-1.1,0-1.6,0.5-1.6,1.5c0,0.3,0.1,0.5,0.3,0.7C479,62.7,479.3,62.8,479.5,62.8z M489.2,64.8h-3.1V50.5h3.1L489.2,64.8z M496,65  c-1.4,0.1-2.7-0.4-3.7-1.4c-1-0.9-1.5-2.3-1.4-3.6v-0.3c0-0.9,0.2-1.9,0.6-2.7c0.4-0.8,0.9-1.4,1.7-1.8c0.8-0.4,1.7-0.7,2.6-0.6  c1.3-0.1,2.5,0.4,3.4,1.3c0.9,1,1.3,2.3,1.2,3.7v1.2h-6.2c0.1,0.5,0.3,1,0.7,1.3c0.4,0.3,0.9,0.5,1.5,0.5c0.9,0,1.8-0.3,2.3-1  l1.4,1.7c-0.4,0.6-1,1-1.7,1.3C497.6,64.8,496.8,65,496,65L496,65z M495.7,57c-0.9,0-1.5,0.6-1.6,1.8h3.2v-0.2  c0-0.4-0.1-0.8-0.4-1.2C496.5,57.1,496.1,56.9,495.7,57z M504.4,54.7l0.1,1.2c0.7-0.9,1.8-1.4,2.9-1.4c0.9-0.1,1.8,0.3,2.4,0.9  c0.6,0.8,0.9,1.8,0.8,2.8v6.5h-3.1v-6.4c0-0.4-0.1-0.8-0.3-1.1c-0.3-0.3-0.7-0.4-1.1-0.4c-0.6,0-1.1,0.2-1.4,0.7v7.1h-3.1V54.7  H504.4z M516.6,62.6c0.4,0,0.7-0.1,1-0.4c0.3-0.3,0.4-0.6,0.4-1h2.9c0,1-0.4,2-1.2,2.7c-0.8,0.7-1.9,1.1-3.1,1.1  c-1.3,0.1-2.6-0.4-3.5-1.4c-0.9-1.1-1.3-2.4-1.3-3.8v-0.1c0-0.9,0.2-1.9,0.6-2.7c0.3-0.7,0.9-1.4,1.6-1.8c0.8-0.4,1.6-0.7,2.5-0.6  c1.1-0.1,2.3,0.3,3.1,1.1c0.8,0.8,1.2,1.8,1.2,3h-2.9c0-0.4-0.1-0.9-0.4-1.2c-0.3-0.3-0.6-0.4-1-0.4c-0.8,0-1.3,0.5-1.4,1.6  c0,0.5-0.1,0.9-0.1,1.4c-0.1,0.7,0.1,1.4,0.4,2.1C515.7,62.4,516.1,62.6,516.6,62.6z M525.5,64.8h-3.1V54.7h3.1V64.8z M522.2,52.1  c0-0.4,0.2-0.8,0.5-1.1c0.4-0.3,0.8-0.4,1.3-0.4c0.5,0,0.9,0.1,1.3,0.4c0.3,0.3,0.5,0.7,0.5,1.1c0,0.4-0.2,0.8-0.5,1.1  c-0.4,0.3-0.8,0.4-1.3,0.4c-0.5,0-0.9-0.1-1.3-0.4C522.4,53,522.2,52.6,522.2,52.1z M533.1,64.8c-0.1-0.3-0.2-0.6-0.3-0.9  c-0.6,0.7-1.5,1.1-2.4,1.1c-0.9,0-1.7-0.3-2.4-0.9c-0.6-0.5-1-1.3-1-2.2c-0.1-1,0.4-1.9,1.2-2.5c1.1-0.6,2.3-0.9,3.5-0.8h1v-0.5  c0-0.9-0.4-1.4-1.2-1.4c-0.5-0.1-1,0.3-1.1,0.8c0,0.1,0,0.2,0,0.3h-3.1c0-0.9,0.5-1.8,1.2-2.4c0.9-0.6,2-1,3.2-0.9  c1.1-0.1,2.2,0.3,3,0.9c0.8,0.6,1.2,1.6,1.1,2.6v4.5c0,0.7,0.1,1.5,0.4,2.1v0.2H533.1z M531.2,62.8c0.3,0,0.7-0.1,1-0.3  c0.2-0.1,0.4-0.3,0.6-0.6v-1.6h-0.9c-1.1,0-1.6,0.5-1.6,1.5c0,0.3,0.1,0.5,0.3,0.7C530.6,62.7,530.9,62.8,531.2,62.8z M547.2,65  c-1.4,0.1-2.7-0.4-3.8-1.4c-1-0.9-1.5-2.3-1.4-3.6v-0.3c0-0.9,0.2-1.9,0.6-2.7c0.4-0.8,0.9-1.4,1.7-1.8c0.8-0.4,1.7-0.7,2.6-0.6  c1.3-0.1,2.5,0.4,3.4,1.3c0.9,1,1.3,2.3,1.2,3.7v1.2h-6.2c0.1,0.5,0.3,1,0.7,1.3c0.4,0.3,0.9,0.5,1.5,0.5c0.9,0,1.8-0.3,2.3-1  l1.4,1.7c-0.4,0.6-1,1-1.7,1.3C548.8,64.8,548,65,547.2,65z M546.8,57c-0.9,0-1.5,0.6-1.6,1.8h3.2v-0.2c0-0.4-0.1-0.8-0.4-1.2  C547.7,57.1,547.3,56.9,546.8,57L546.8,57z M555.6,54.7l0.1,1.2c0.7-0.9,1.8-1.4,2.9-1.4c0.9-0.1,1.8,0.3,2.4,0.9  c0.6,0.8,0.9,1.8,0.8,2.8v6.5h-3.1v-6.4c0-0.4-0.1-0.8-0.3-1.1c-0.3-0.3-0.7-0.4-1.1-0.4c-0.6,0-1.1,0.2-1.4,0.7v7.1h-3.1V54.7  H555.6z M487.3,85.5c0.4,0,0.7-0.1,1-0.4c0.3-0.3,0.4-0.6,0.4-1h2.9c0,1-0.4,2-1.2,2.7c-0.8,0.7-1.9,1.1-3.1,1.1  c-1.3,0.1-2.6-0.4-3.5-1.4c-0.9-1.1-1.3-2.4-1.3-3.8v-0.1c0-0.9,0.2-1.9,0.6-2.7c0.3-0.7,0.9-1.4,1.6-1.8c0.8-0.4,1.6-0.7,2.5-0.6  c1.1-0.1,2.3,0.3,3.1,1.1c0.8,0.8,1.2,1.8,1.2,3h-2.9c0-0.4-0.1-0.9-0.4-1.2c-0.3-0.3-0.6-0.4-1-0.4c-0.8,0-1.3,0.5-1.4,1.6  c0,0.5-0.1,0.9-0.1,1.4c-0.1,0.7,0.1,1.4,0.4,2.1C486.4,85.3,486.8,85.5,487.3,85.5L487.3,85.5z M495.9,77.6l0.1,1.2  c0.7-0.9,1.8-1.4,2.9-1.4c1.1-0.1,2.1,0.5,2.6,1.5c0.6-1,1.8-1.6,3-1.5c2,0,3.1,1.2,3.1,3.7v6.6h-3.1v-6.4c0-0.4-0.1-0.8-0.3-1.1  c-0.2-0.3-0.6-0.4-0.9-0.4c-0.6,0-1.1,0.3-1.4,0.8l0,0.1v6.9h-3.1v-6.3c0-0.4-0.1-0.8-0.3-1.1c-0.2-0.3-0.6-0.4-1-0.4  c-0.6,0-1.1,0.3-1.4,0.8v7h-3.1V77.6H495.9z"/>
<path id="Trazado_114129" class="st4" d="M120.3,164.8c0-0.5-0.2-1-0.6-1.4c-0.7-0.4-1.5-0.8-2.3-1c-0.9-0.3-1.8-0.6-2.6-1.1  c-1.1-0.6-1.8-1.8-1.9-3c0-1.1,0.5-2.1,1.3-2.7c1-0.7,2.2-1.1,3.5-1.1c0.9,0,1.7,0.2,2.5,0.5c0.7,0.3,1.3,0.8,1.7,1.5  c0.4,0.6,0.6,1.4,0.6,2.1h-2.3c0-0.6-0.2-1.2-0.7-1.7c-0.5-0.4-1.2-0.6-1.9-0.6c-0.6,0-1.3,0.1-1.8,0.5c-0.4,0.3-0.7,0.8-0.6,1.4  c0,0.5,0.3,1,0.7,1.2c0.7,0.4,1.5,0.8,2.3,1c0.9,0.2,1.7,0.6,2.5,1.1c0.6,0.3,1.1,0.8,1.4,1.4c0.3,0.6,0.5,1.2,0.4,1.8  c0,1.1-0.5,2.1-1.3,2.7c-1,0.7-2.3,1.1-3.5,1c-0.9,0-1.8-0.2-2.7-0.5c-0.8-0.3-1.4-0.8-1.9-1.5c-0.5-0.7-0.7-1.4-0.7-2.2h2.4  c0,0.7,0.2,1.3,0.8,1.8c0.6,0.5,1.4,0.7,2.2,0.6c0.7,0,1.3-0.1,1.8-0.5C120.1,165.8,120.3,165.3,120.3,164.8z M126.9,168.3h-2.3  v-10.1h2.3V168.3z M124.5,155.6c0-0.3,0.1-0.6,0.3-0.9c0.3-0.2,0.6-0.4,0.9-0.3c0.4,0,0.7,0.1,0.9,0.3c0.2,0.2,0.3,0.5,0.3,0.9  c0,0.3-0.1,0.6-0.3,0.9c-0.3,0.2-0.6,0.4-0.9,0.3c-0.3,0-0.7-0.1-0.9-0.3C124.6,156.2,124.5,155.9,124.5,155.6L124.5,155.6z   M135,165.6c0-0.4-0.2-0.7-0.5-0.9c-0.5-0.3-1.1-0.5-1.7-0.6c-0.7-0.1-1.3-0.3-1.9-0.6c-1-0.4-1.7-1.3-1.7-2.4  c0-0.9,0.4-1.7,1.1-2.2c0.8-0.6,1.8-0.9,2.8-0.9c1,0,2.1,0.3,2.9,0.9c0.7,0.5,1.1,1.4,1.1,2.3h-2.3c0-0.4-0.2-0.8-0.5-1.1  c-0.4-0.3-0.8-0.5-1.3-0.4c-0.4,0-0.9,0.1-1.2,0.3c-0.3,0.2-0.5,0.6-0.5,0.9c0,0.3,0.2,0.6,0.4,0.8c0.6,0.3,1.2,0.5,1.8,0.6  c0.7,0.1,1.4,0.4,2.1,0.7c0.5,0.2,0.8,0.6,1.1,1c0.3,0.4,0.4,0.9,0.4,1.4c0,0.9-0.4,1.7-1.1,2.2c-0.9,0.6-1.9,0.9-3,0.8  c-0.8,0-1.5-0.1-2.2-0.4c-0.6-0.3-1.1-0.7-1.5-1.2c-0.4-0.5-0.5-1.1-0.5-1.7h2.2c0,0.5,0.2,0.9,0.6,1.2c0.4,0.3,1,0.5,1.5,0.4  c0.5,0,1-0.1,1.4-0.3C134.9,166.3,135,165.9,135,165.6L135,165.6z M142.1,155.8v2.4h1.8v1.7h-1.8v5.6c0,0.3,0.1,0.6,0.2,0.8  c0.2,0.2,0.5,0.3,0.8,0.3c0.3,0,0.5,0,0.8-0.1v1.8c-0.5,0.1-1,0.2-1.5,0.2c-1.7,0-2.6-1-2.6-2.9v-5.7h-1.7v-1.7h1.7v-2.4  L142.1,155.8z M150,168.5c-1.3,0.1-2.6-0.4-3.5-1.4c-0.9-1-1.4-2.3-1.3-3.6v-0.3c0-0.9,0.2-1.9,0.6-2.7c0.4-0.8,0.9-1.4,1.6-1.9  c0.7-0.4,1.5-0.7,2.3-0.7c1.2-0.1,2.4,0.4,3.2,1.3c0.8,1.1,1.2,2.4,1.1,3.7v0.9h-6.6c0,0.7,0.3,1.4,0.8,2c0.5,0.5,1.2,0.7,1.8,0.7  c1,0,1.9-0.5,2.5-1.3l1.2,1.2c-0.4,0.6-1,1.1-1.6,1.4C151.6,168.3,150.8,168.5,150,168.5z M149.7,159.9c-0.6,0-1.1,0.2-1.5,0.7  c-0.4,0.5-0.7,1.2-0.7,1.8h4.3v-0.2c0-0.6-0.2-1.2-0.6-1.7C150.8,160,150.3,159.8,149.7,159.9L149.7,159.9z M157.9,158.2l0.1,1.1  c0.7-0.8,1.8-1.3,2.9-1.2c1.2-0.1,2.3,0.5,2.8,1.5c0.7-1,1.9-1.6,3.1-1.5c0.9-0.1,1.8,0.3,2.5,0.9c0.6,0.8,0.9,1.7,0.8,2.7v6.6h-2.3  v-6.6c0-0.5-0.1-1-0.4-1.4c-0.4-0.3-0.9-0.5-1.4-0.4c-0.5,0-0.9,0.1-1.3,0.4c-0.3,0.3-0.6,0.7-0.7,1.1l0,6.9h-2.3v-6.6  c0.1-0.9-0.5-1.7-1.4-1.8c-0.1,0-0.3,0-0.4,0c-0.8-0.1-1.6,0.4-1.9,1.1v7.3h-2.3v-10.1H157.9z M178.4,168.3  c-0.1-0.3-0.2-0.6-0.3-0.9c-0.7,0.7-1.6,1.1-2.6,1.1c-0.9,0-1.8-0.3-2.5-0.9c-0.6-0.5-1-1.3-1-2.1c0-1,0.4-1.9,1.2-2.5  c1-0.6,2.2-0.9,3.4-0.9h1.4v-0.7c0-0.5-0.1-0.9-0.4-1.3c-0.4-0.3-0.8-0.5-1.3-0.5c-0.5,0-0.9,0.1-1.3,0.4c-0.3,0.2-0.5,0.6-0.5,1  h-2.3c0-0.6,0.2-1.1,0.5-1.6c0.4-0.5,0.9-0.9,1.5-1.1c0.7-0.3,1.4-0.4,2.1-0.4c1-0.1,2,0.3,2.8,0.9c0.7,0.6,1.1,1.5,1.1,2.5v4.5  c0,0.7,0.1,1.5,0.4,2.2v0.2H178.4z M175.9,166.7c0.4,0,0.9-0.1,1.3-0.3c0.4-0.2,0.7-0.5,0.9-0.9v-1.9h-1.2c-0.7,0-1.3,0.1-1.9,0.4  c-0.4,0.3-0.7,0.7-0.6,1.2c0,0.4,0.1,0.8,0.4,1C175.1,166.6,175.5,166.7,175.9,166.7z M94.7,191.2h-2.3v-13.6h2.3V191.2z   M99.5,181.1l0.1,1.2c0.7-0.9,1.8-1.4,2.9-1.4c2.1,0,3.2,1.2,3.2,3.6v6.7h-2.3v-6.5c0-0.5-0.1-1-0.4-1.4c-0.4-0.3-0.9-0.5-1.4-0.5  c-0.9,0-1.7,0.5-2,1.2v7.2h-2.3v-10.1H99.5z M110.9,178.7v2.4h1.8v1.7h-1.8v5.6c0,0.3,0.1,0.6,0.2,0.8c0.2,0.2,0.5,0.3,0.8,0.3  c0.3,0,0.5,0,0.8-0.1v1.8c-0.5,0.1-1,0.2-1.5,0.2c-1.7,0-2.6-1-2.6-2.9v-5.7h-1.7v-1.7h1.7v-2.4L110.9,178.7z M118.8,191.4  c-1.3,0.1-2.6-0.4-3.5-1.3c-0.9-1-1.4-2.3-1.3-3.6v-0.3c0-0.9,0.2-1.9,0.6-2.7c0.4-0.8,0.9-1.4,1.6-1.8c0.7-0.4,1.5-0.7,2.3-0.7  c1.2-0.1,2.4,0.4,3.2,1.3c0.8,1.1,1.2,2.4,1.1,3.7v0.9h-6.6c0,0.7,0.3,1.4,0.8,2c0.5,0.5,1.2,0.7,1.8,0.7c1,0,1.9-0.4,2.5-1.3  l1.2,1.2c-0.4,0.6-1,1.1-1.6,1.4C120.4,191.2,119.6,191.4,118.8,191.4L118.8,191.4z M118.5,182.7c-0.6,0-1.1,0.2-1.5,0.7  c-0.4,0.5-0.7,1.2-0.7,1.8h4.3V185c0-0.6-0.2-1.2-0.6-1.7C119.6,182.9,119.1,182.7,118.5,182.7L118.5,182.7z M129.9,183.2  c-0.3-0.1-0.6-0.1-0.9-0.1c-0.9-0.1-1.7,0.4-2.1,1.2v6.9h-2.3v-10.1h2.2l0.1,1.1c0.5-0.8,1.3-1.3,2.3-1.3c0.3,0,0.5,0,0.8,0.1  L129.9,183.2z M133.4,181.1l0.1,1.2c0.7-0.9,1.8-1.4,2.9-1.3c2.1,0,3.2,1.2,3.2,3.6v6.7h-2.3v-6.5c0-0.5-0.1-1-0.4-1.4  c-0.4-0.3-0.9-0.5-1.4-0.5c-0.9,0-1.7,0.5-2,1.2v7.2h-2.3v-10.1L133.4,181.1z M147.9,191.2c-0.1-0.3-0.2-0.6-0.3-0.9  c-0.7,0.7-1.6,1.1-2.6,1.1c-0.9,0-1.8-0.3-2.5-0.9c-0.6-0.5-1-1.3-1-2.1c0-1,0.4-1.9,1.2-2.5c1-0.6,2.2-0.9,3.4-0.9h1.4v-0.7  c0-0.5-0.1-0.9-0.4-1.3c-0.4-0.3-0.8-0.5-1.3-0.5c-0.5,0-0.9,0.1-1.3,0.4c-0.3,0.2-0.5,0.6-0.5,1h-2.3c0-0.6,0.2-1.1,0.5-1.6  c0.4-0.5,0.9-0.9,1.5-1.1c0.7-0.3,1.4-0.4,2.1-0.4c1-0.1,2,0.3,2.8,0.9c0.7,0.6,1.1,1.5,1.1,2.5v4.5c0,0.7,0.1,1.5,0.4,2.2v0.2  H147.9z M145.4,189.6c0.4,0,0.9-0.1,1.3-0.3c0.4-0.2,0.7-0.5,0.9-0.9v-1.9h-1.2c-0.7,0-1.3,0.1-1.9,0.4c-0.4,0.3-0.7,0.7-0.6,1.2  c0,0.4,0.1,0.8,0.4,1C144.6,189.4,145,189.6,145.4,189.6z M156.3,189.6c0.5,0,1-0.2,1.4-0.5c0.4-0.3,0.6-0.7,0.6-1.2h2.1  c0,0.6-0.2,1.2-0.6,1.8c-0.4,0.6-0.9,1-1.5,1.3c-0.6,0.3-1.3,0.5-2,0.5c-1.3,0.1-2.5-0.4-3.4-1.4c-0.9-1.1-1.3-2.4-1.2-3.8V186  c-0.1-1.3,0.4-2.7,1.2-3.7c0.9-0.9,2.1-1.4,3.4-1.4c1.1,0,2.1,0.3,2.9,1c0.8,0.7,1.2,1.7,1.2,2.8h-2.1c0-0.5-0.2-1-0.6-1.4  c-0.4-0.4-0.9-0.6-1.4-0.6c-0.7,0-1.3,0.3-1.7,0.8c-0.4,0.7-0.7,1.6-0.6,2.4v0.4c-0.1,0.9,0.1,1.7,0.6,2.4  C155,189.3,155.7,189.6,156.3,189.6z M164.6,191.2h-2.3v-10.1h2.3V191.2z M162.2,178.5c0-0.3,0.1-0.6,0.3-0.9  c0.3-0.2,0.6-0.4,0.9-0.3c0.4,0,0.7,0.1,0.9,0.3c0.2,0.2,0.3,0.5,0.3,0.9c0,0.3-0.1,0.6-0.3,0.9c-0.3,0.2-0.6,0.4-0.9,0.3  c-0.3,0-0.7-0.1-0.9-0.3C162.3,179.1,162.2,178.8,162.2,178.5L162.2,178.5z M166.6,186.1c0-0.9,0.2-1.8,0.6-2.7  c0.4-0.8,0.9-1.4,1.6-1.8c0.7-0.4,1.6-0.7,2.4-0.6c1.2,0,2.4,0.4,3.3,1.3c0.9,0.9,1.4,2.2,1.4,3.5l0,0.5c0,0.9-0.2,1.8-0.6,2.7  c-0.4,0.8-0.9,1.4-1.6,1.8c-0.7,0.4-1.6,0.7-2.5,0.6c-1.3,0.1-2.5-0.5-3.4-1.4c-0.9-1.1-1.3-2.4-1.3-3.8V186.1z M168.9,186.3  c0,0.9,0.2,1.7,0.6,2.4c0.4,0.6,1.1,0.9,1.8,0.9c0.7,0,1.4-0.3,1.8-0.9c0.5-0.8,0.7-1.7,0.6-2.6c0-0.9-0.2-1.7-0.7-2.4  c-0.7-1-2.1-1.2-3.1-0.5c-0.2,0.1-0.3,0.3-0.4,0.4C169.1,184.4,168.8,185.3,168.9,186.3L168.9,186.3z M180,181.1l0.1,1.2  c0.7-0.9,1.8-1.4,2.9-1.4c2.1,0,3.2,1.2,3.2,3.6v6.7h-2.3v-6.5c0-0.5-0.1-1-0.4-1.4c-0.4-0.3-0.9-0.5-1.4-0.5c-0.9,0-1.7,0.5-2,1.2  v7.2h-2.3v-10.1H180z M194.5,191.2c-0.1-0.3-0.2-0.6-0.3-0.9c-1.4,1.4-3.6,1.5-5.1,0.3c-0.6-0.5-1-1.3-1-2.1c0-1,0.4-1.9,1.2-2.5  c1-0.6,2.2-0.9,3.4-0.9h1.4v-0.7c0-0.5-0.1-0.9-0.4-1.3c-0.4-0.3-0.8-0.5-1.3-0.5c-0.5,0-0.9,0.1-1.3,0.4c-0.3,0.2-0.5,0.6-0.5,1  h-2.3c0-0.6,0.2-1.1,0.5-1.5c0.4-0.5,0.9-0.9,1.5-1.1c0.7-0.3,1.4-0.4,2.1-0.4c1-0.1,2,0.3,2.8,0.9c0.7,0.6,1.1,1.5,1.1,2.5v4.5  c0,0.7,0.1,1.5,0.4,2.2v0.2L194.5,191.2z M192,189.6c0.4,0,0.9-0.1,1.3-0.3c0.4-0.2,0.7-0.5,0.9-0.9v-1.9H193  c-0.7,0-1.3,0.1-1.9,0.4c-0.4,0.3-0.7,0.7-0.6,1.2c0,0.4,0.1,0.8,0.4,1C191.2,189.4,191.6,189.6,192,189.6z M201.2,191.2H199v-14.3  h2.3L201.2,191.2z"/>
<path id="Trazado_114131" class="st4" d="M497,147.1h-2.3v-10.9l-3.3,1.1v-1.9l5.3-1.9h0.3L497,147.1z"/>
<path id="Trazado_114132" class="st4" d="M295.2,212.4h-2.3v-10.9l-3.3,1.1v-1.9l5.3-1.9h0.3V212.4z M306.9,202.3l0.1,1.1  c0.7-0.8,1.8-1.3,2.9-1.2c1.2-0.1,2.3,0.5,2.8,1.5c0.7-1,1.9-1.6,3.1-1.5c0.9-0.1,1.8,0.3,2.5,0.9c0.6,0.8,0.9,1.7,0.8,2.7v6.6h-2.3  v-6.6c0-0.5-0.1-1-0.4-1.4c-0.4-0.3-0.9-0.5-1.4-0.4c-0.5,0-0.9,0.1-1.3,0.4c-0.3,0.3-0.6,0.7-0.7,1.1l0,6.9h-2.3v-6.6  c0.1-0.9-0.5-1.7-1.4-1.8c-0.1,0-0.3,0-0.4,0c-0.8-0.1-1.6,0.4-1.9,1.1v7.3h-2.3v-10.1H306.9z M325.8,212.6  c-1.3,0.1-2.6-0.4-3.5-1.4c-0.9-1-1.4-2.3-1.3-3.6v-0.3c0-0.9,0.2-1.9,0.6-2.7c0.4-0.8,0.9-1.4,1.6-1.9c0.7-0.4,1.5-0.7,2.3-0.7  c1.2-0.1,2.4,0.4,3.2,1.3c0.8,1.1,1.2,2.4,1.1,3.7v0.9h-6.6c0,0.7,0.3,1.4,0.8,2c0.5,0.5,1.2,0.7,1.8,0.7c1,0,1.9-0.4,2.5-1.3  l1.2,1.2c-0.4,0.6-1,1.1-1.6,1.4C327.3,212.4,326.6,212.6,325.8,212.6z M325.5,204c-0.6,0-1.1,0.2-1.5,0.7c-0.4,0.5-0.7,1.2-0.7,1.8  h4.3v-0.2c0-0.6-0.2-1.2-0.6-1.7C326.6,204.2,326.1,203.9,325.5,204z M334.4,199.9v2.4h1.8v1.7h-1.8v5.6c0,0.3,0.1,0.6,0.2,0.8  c0.2,0.2,0.5,0.3,0.8,0.3c0.3,0,0.5,0,0.8-0.1v1.8c-0.5,0.1-1,0.2-1.5,0.2c-1.7,0-2.6-1-2.6-2.9V204h-1.7v-1.7h1.7v-2.4H334.4z   M343.2,204.4c-0.3-0.1-0.6-0.1-0.9-0.1c-0.9-0.1-1.7,0.4-2.1,1.2v6.9h-2.3v-10.1h2.2l0.1,1.1c0.5-0.8,1.3-1.3,2.3-1.3  c0.3,0,0.5,0,0.8,0.1L343.2,204.4z M343.9,207.3c0-0.9,0.2-1.8,0.6-2.7c0.4-0.8,0.9-1.4,1.7-1.8c0.7-0.4,1.6-0.7,2.4-0.6  c1.2,0,2.4,0.4,3.3,1.3c0.9,0.9,1.4,2.2,1.4,3.5l0,0.5c0,0.9-0.2,1.8-0.6,2.7c-0.4,0.8-0.9,1.4-1.6,1.8c-0.7,0.4-1.6,0.7-2.5,0.6  c-1.3,0.1-2.5-0.5-3.4-1.4c-0.9-1.1-1.3-2.4-1.3-3.8L343.9,207.3z M346.1,207.5c0,0.9,0.2,1.7,0.6,2.4c0.4,0.6,1.1,0.9,1.8,0.9  c0.7,0,1.4-0.3,1.8-0.9c0.5-0.8,0.7-1.7,0.6-2.6c0-0.9-0.2-1.7-0.7-2.4c-0.4-0.6-1.1-0.9-1.8-0.9c-0.7,0-1.4,0.3-1.8,0.9  C346.3,205.6,346.1,206.6,346.1,207.5L346.1,207.5z"/>
<path id="Trazado_114133" class="st4" d="M486.2,212.4h-2.3v-10.9l-3.3,1.1v-1.9l5.3-1.9h0.3L486.2,212.4z M499.7,206.7  c0.1,1.5-0.3,3.1-1.1,4.4c-0.8,1-2,1.6-3.3,1.5c-1.3,0.1-2.5-0.5-3.3-1.4c-0.8-1.3-1.2-2.8-1.1-4.3v-2.3c-0.1-1.5,0.3-3.1,1.1-4.4  c0.8-1,2.1-1.6,3.3-1.5c1.3-0.1,2.5,0.4,3.3,1.4c0.8,1.3,1.2,2.8,1.1,4.3V206.7z M497.5,204.2c0.1-1-0.1-1.9-0.5-2.8  c-0.3-0.6-1-0.9-1.7-0.9c-0.7,0-1.3,0.3-1.6,0.8c-0.4,0.8-0.6,1.7-0.5,2.6v3.1c-0.1,1,0.1,1.9,0.5,2.8c0.3,0.6,1,1,1.7,0.9  c0.7,0,1.3-0.3,1.6-0.9c0.4-0.8,0.6-1.8,0.5-2.7L497.5,204.2z M510.6,206.7c0.1,1.5-0.3,3.1-1.1,4.4c-0.8,1-2,1.6-3.3,1.5  c-1.3,0.1-2.5-0.5-3.3-1.4c-0.8-1.3-1.2-2.8-1.1-4.3v-2.3c-0.1-1.5,0.3-3.1,1.1-4.4c0.8-1,2.1-1.6,3.3-1.5c1.3-0.1,2.5,0.4,3.3,1.4  c0.8,1.3,1.2,2.8,1.1,4.3L510.6,206.7z M508.3,204.2c0.1-1-0.1-1.9-0.5-2.8c-0.3-0.6-1-0.9-1.7-0.9c-0.7,0-1.3,0.3-1.6,0.8  c-0.4,0.8-0.6,1.7-0.5,2.6v3.1c-0.1,1,0.1,1.9,0.5,2.8c0.3,0.6,1,1,1.7,0.9c0.7,0,1.3-0.3,1.6-0.9c0.4-0.8,0.6-1.8,0.5-2.7V204.2z"/>
<path id="Trazado_114134" class="st4" d="M92.1,307c0-0.5-0.2-1-0.6-1.4c-0.7-0.4-1.5-0.8-2.3-1c-0.9-0.3-1.8-0.6-2.6-1.1  c-1.1-0.6-1.8-1.8-1.9-3c0-1.1,0.5-2.1,1.3-2.7c1-0.7,2.2-1.1,3.5-1.1c0.9,0,1.7,0.2,2.5,0.5c0.7,0.3,1.3,0.8,1.7,1.5  c0.4,0.6,0.6,1.4,0.6,2.1h-2.3c0-0.6-0.2-1.2-0.7-1.7c-0.5-0.4-1.2-0.6-1.9-0.6c-0.6,0-1.3,0.1-1.8,0.5c-0.4,0.3-0.7,0.8-0.6,1.4  c0,0.5,0.3,1,0.7,1.2c0.7,0.4,1.5,0.8,2.3,1c0.9,0.2,1.7,0.6,2.5,1.1c0.6,0.3,1.1,0.8,1.4,1.4c0.3,0.6,0.5,1.2,0.4,1.8  c0,1.1-0.5,2.1-1.3,2.7c-1,0.7-2.3,1.1-3.5,1c-0.9,0-1.8-0.2-2.7-0.5c-0.8-0.3-1.4-0.8-1.9-1.5c-0.5-0.7-0.7-1.4-0.7-2.2h2.4  c0,0.7,0.2,1.3,0.8,1.8c0.6,0.5,1.4,0.7,2.2,0.6c0.7,0,1.3-0.1,1.8-0.5C91.9,308,92.1,307.5,92.1,307z M98.7,310.5h-2.3v-10.1h2.3  V310.5z M96.3,297.8c0-0.3,0.1-0.6,0.3-0.9c0.3-0.2,0.6-0.4,0.9-0.3c0.4,0,0.7,0.1,0.9,0.3c0.2,0.2,0.3,0.5,0.3,0.9  c0,0.3-0.1,0.6-0.3,0.9c-0.3,0.2-0.6,0.4-0.9,0.3c-0.3,0-0.7-0.1-0.9-0.3C96.4,298.4,96.3,298.1,96.3,297.8L96.3,297.8z   M106.8,307.7c0-0.4-0.2-0.7-0.5-0.9c-0.5-0.3-1.1-0.5-1.7-0.6c-0.7-0.1-1.3-0.3-1.9-0.6c-1-0.4-1.7-1.3-1.7-2.4  c0-0.9,0.4-1.7,1.1-2.2c0.8-0.6,1.8-0.9,2.8-0.9c1,0,2.1,0.3,2.9,0.9c0.7,0.6,1.1,1.4,1.1,2.3h-2.3c0-0.4-0.2-0.8-0.5-1.1  c-0.4-0.3-0.8-0.5-1.3-0.4c-0.4,0-0.9,0.1-1.2,0.3c-0.3,0.2-0.5,0.6-0.5,0.9c0,0.3,0.2,0.6,0.4,0.8c0.6,0.3,1.2,0.5,1.8,0.6  c0.7,0.1,1.4,0.4,2.1,0.7c0.5,0.2,0.8,0.6,1.1,1c0.3,0.4,0.4,0.9,0.4,1.4c0,0.9-0.4,1.7-1.1,2.2c-0.9,0.6-1.9,0.9-3,0.8  c-0.8,0-1.5-0.1-2.2-0.4c-0.6-0.3-1.1-0.7-1.5-1.2c-0.4-0.5-0.5-1.1-0.5-1.7h2.2c0,0.5,0.2,0.9,0.6,1.2c0.4,0.3,1,0.5,1.5,0.4  c0.5,0,1-0.1,1.4-0.3C106.6,308.4,106.8,308.1,106.8,307.7z M113.8,297.9v2.4h1.8v1.7h-1.8v5.6c0,0.3,0.1,0.6,0.2,0.8  c0.2,0.2,0.5,0.3,0.8,0.3c0.3,0,0.5,0,0.8-0.1v1.8c-0.5,0.1-1,0.2-1.5,0.2c-1.7,0-2.6-1-2.6-2.9v-5.7h-1.7v-1.7h1.7v-2.4H113.8z   M121.8,310.6c-1.3,0.1-2.6-0.4-3.5-1.4c-0.9-1-1.4-2.3-1.3-3.6v-0.3c0-0.9,0.2-1.9,0.6-2.7c0.4-0.8,0.9-1.4,1.6-1.9  c0.7-0.4,1.5-0.7,2.3-0.7c1.2-0.1,2.4,0.4,3.2,1.3c0.8,1.1,1.2,2.4,1.1,3.7v0.9h-6.6c0,0.7,0.3,1.4,0.8,2c0.5,0.5,1.2,0.8,1.8,0.7  c1,0,1.9-0.5,2.5-1.3l1.2,1.2c-0.4,0.6-1,1.1-1.6,1.4C123.3,310.5,122.6,310.7,121.8,310.6z M121.5,302c-0.6,0-1.1,0.2-1.5,0.7  c-0.4,0.5-0.7,1.2-0.7,1.8h4.3v-0.2c0-0.6-0.2-1.2-0.6-1.7C122.6,302.2,122.1,302,121.5,302L121.5,302z M129.7,300.4l0.1,1.1  c0.7-0.8,1.8-1.3,2.9-1.2c1.2-0.1,2.3,0.5,2.8,1.5c0.7-1,1.9-1.6,3.1-1.5c0.9-0.1,1.8,0.3,2.5,0.9c0.6,0.8,0.9,1.7,0.8,2.7v6.6h-2.3  v-6.6c0-0.5-0.1-1-0.4-1.4c-0.4-0.3-0.9-0.5-1.4-0.4c-0.5,0-0.9,0.1-1.3,0.4c-0.3,0.3-0.6,0.7-0.7,1.1l0,6.9h-2.3v-6.6  c0.1-0.9-0.5-1.7-1.4-1.8c-0.1,0-0.3,0-0.4,0c-0.8-0.1-1.6,0.4-1.9,1.1v7.3h-2.3v-10.1H129.7z M150.2,310.5  c-0.1-0.3-0.2-0.6-0.3-0.9c-0.7,0.7-1.6,1.1-2.6,1.1c-0.9,0-1.8-0.3-2.5-0.9c-0.6-0.5-1-1.3-1-2.1c0-1,0.4-1.9,1.2-2.5  c1-0.6,2.2-0.9,3.4-0.9h1.4v-0.7c0-0.5-0.1-0.9-0.4-1.3c-0.4-0.3-0.8-0.5-1.3-0.5c-0.5,0-0.9,0.1-1.3,0.4c-0.3,0.2-0.5,0.6-0.5,1  H144c0-0.6,0.2-1.1,0.5-1.5c0.4-0.5,0.9-0.9,1.5-1.1c0.7-0.3,1.4-0.4,2.1-0.4c1-0.1,2,0.3,2.8,0.9c0.7,0.6,1.1,1.5,1.1,2.5v4.5  c0,0.7,0.1,1.5,0.4,2.2v0.2H150.2z M147.7,308.8c0.4,0,0.9-0.1,1.3-0.3c0.4-0.2,0.7-0.5,0.9-0.9v-1.9h-1.2c-0.7,0-1.3,0.1-1.9,0.4  c-0.4,0.3-0.7,0.7-0.6,1.2c0,0.4,0.1,0.8,0.4,1C146.8,308.7,147.3,308.9,147.7,308.8z M161.9,310.5h-2.3v-13.6h2.3V310.5z   M166.7,300.4l0.1,1.2c0.7-0.9,1.8-1.4,2.9-1.4c2.1,0,3.2,1.2,3.2,3.6v6.7h-2.3v-6.5c0-0.5-0.1-1-0.4-1.4c-0.4-0.3-0.9-0.5-1.4-0.5  c-0.9,0-1.7,0.5-2,1.2v7.2h-2.3v-10.1H166.7z M174.8,305.4c-0.1-1.3,0.3-2.7,1.1-3.7c0.7-0.9,1.8-1.4,2.9-1.4c1,0,2,0.4,2.7,1.2  l0.1-1h2v9.8c0.1,1.2-0.4,2.3-1.2,3.1c-0.9,0.8-2.1,1.2-3.3,1.1c-0.7,0-1.5-0.2-2.2-0.5c-0.6-0.3-1.2-0.7-1.6-1.2l1.1-1.4  c0.6,0.8,1.6,1.2,2.6,1.2c0.6,0,1.3-0.2,1.8-0.6c0.5-0.5,0.7-1.1,0.7-1.8v-0.7c-0.7,0.7-1.6,1.1-2.6,1.1c-1.1,0-2.2-0.5-2.9-1.4  C175.1,308.1,174.7,306.7,174.8,305.4z M177.1,305.6c0,0.8,0.2,1.7,0.6,2.4c0.4,0.6,1,0.9,1.7,0.9c0.8,0,1.6-0.4,2-1.2v-4.4  c-0.4-0.7-1.2-1.2-2-1.1c-0.7,0-1.3,0.3-1.7,0.9C177.2,303.7,177,304.6,177.1,305.6L177.1,305.6z M188.4,310.5h-2.3v-14.3h2.3V310.5  z M195.3,310.6c-1.3,0.1-2.6-0.4-3.5-1.4c-0.9-1-1.4-2.3-1.3-3.6v-0.3c0-0.9,0.2-1.9,0.6-2.7c0.4-0.8,0.9-1.4,1.6-1.9  c0.7-0.4,1.5-0.7,2.3-0.7c1.2-0.1,2.4,0.4,3.2,1.3c0.8,1.1,1.2,2.4,1.1,3.7v0.9h-6.6c0,0.7,0.3,1.4,0.8,2c0.5,0.5,1.2,0.7,1.8,0.7  c1,0,1.9-0.5,2.5-1.3l1.2,1.2c-0.4,0.6-1,1.1-1.6,1.4C196.9,310.5,196.1,310.7,195.3,310.6L195.3,310.6z M195,302  c-0.6,0-1.1,0.2-1.5,0.7c-0.4,0.5-0.7,1.2-0.7,1.8h4.3v-0.2c0-0.6-0.2-1.2-0.6-1.7C196.1,302.2,195.6,302,195,302L195,302z   M195.6,296.2h2.6l-2.6,2.8h-1.8L195.6,296.2z M206.8,307.7c0-0.4-0.2-0.7-0.5-0.9c-0.5-0.3-1.1-0.5-1.7-0.6  c-0.7-0.1-1.3-0.3-1.9-0.6c-1-0.4-1.7-1.3-1.7-2.4c0-0.9,0.4-1.7,1.1-2.2c0.8-0.6,1.8-0.9,2.8-0.9c1,0,2.1,0.3,2.9,0.9  c0.7,0.6,1.1,1.4,1.1,2.3h-2.3c0-0.4-0.2-0.8-0.5-1.1c-0.4-0.3-0.8-0.5-1.3-0.4c-0.4,0-0.9,0.1-1.2,0.3c-0.3,0.2-0.5,0.6-0.5,0.9  c0,0.3,0.2,0.6,0.4,0.8c0.6,0.3,1.2,0.5,1.8,0.6c0.7,0.1,1.4,0.4,2.1,0.7c0.5,0.2,0.8,0.6,1.1,1c0.3,0.4,0.4,0.9,0.4,1.4  c0,0.9-0.4,1.7-1.1,2.2c-0.9,0.6-1.9,0.9-3,0.8c-0.8,0-1.5-0.1-2.2-0.4c-0.6-0.3-1.1-0.7-1.5-1.2c-0.4-0.5-0.5-1.1-0.5-1.7h2.2  c0,0.5,0.2,0.9,0.6,1.2c0.4,0.3,1,0.5,1.5,0.4c0.5,0,1-0.1,1.4-0.3C206.6,308.4,206.8,308.1,206.8,307.7L206.8,307.7z"/>
<path id="Trazado_114135" class="st4" d="M286.2,277.8h-2.3v-10.9l-3.3,1.1v-1.9l5.3-1.9h0.3L286.2,277.8z M304.6,272.8  c0.1,1.3-0.3,2.6-1.1,3.7c-0.7,0.9-1.7,1.4-2.8,1.4c-1,0-2-0.4-2.7-1.1v4.8h-2.3v-13.9h2.1l0.1,1c0.7-0.8,1.7-1.3,2.7-1.2  c1.1,0,2.2,0.5,2.9,1.4c0.8,1.1,1.1,2.5,1,3.8L304.6,272.8z M302.3,272.6c0-0.8-0.2-1.7-0.6-2.4c-0.4-0.6-1-0.9-1.7-0.9  c-0.8-0.1-1.6,0.4-2,1.1v4.5c0.4,0.8,1.2,1.2,2,1.2c0.7,0,1.3-0.3,1.7-0.9C302.2,274.5,302.4,273.6,302.3,272.6L302.3,272.6z   M312.6,276.8c-0.7,0.8-1.8,1.2-2.8,1.2c-0.9,0.1-1.8-0.3-2.5-1c-0.6-0.8-0.9-1.8-0.8-2.8v-6.5h2.3v6.5c0,1.3,0.5,1.9,1.6,1.9  c0.9,0.1,1.8-0.4,2.2-1.2v-7.2h2.3v10.1h-2.1L312.6,276.8z M319.5,277.8h-2.3v-14.3h2.3L319.5,277.8z M321.6,272.7  c-0.1-1.3,0.3-2.7,1.1-3.7c0.7-0.9,1.8-1.4,2.9-1.4c1,0,2,0.4,2.7,1.2l0.1-1h2v9.8c0.1,1.2-0.4,2.3-1.2,3.1  c-0.9,0.8-2.1,1.2-3.3,1.1c-0.7,0-1.5-0.2-2.2-0.5c-0.6-0.3-1.2-0.7-1.6-1.2l1.1-1.4c0.6,0.8,1.6,1.2,2.6,1.2c0.6,0,1.3-0.2,1.8-0.6  c0.5-0.5,0.7-1.1,0.7-1.8v-0.7c-0.7,0.7-1.6,1.1-2.6,1.1c-1.1,0-2.2-0.5-2.9-1.4C321.9,275.4,321.5,274.1,321.6,272.7z M323.8,272.9  c0,0.8,0.2,1.7,0.6,2.4c0.4,0.6,1,0.9,1.7,0.9c0.8,0,1.6-0.4,2-1.2v-4.4c-0.4-0.7-1.2-1.2-2-1.1c-0.7,0-1.3,0.3-1.7,0.9  C324,271,323.7,272,323.8,272.9L323.8,272.9z M338.8,277.8c-0.1-0.3-0.2-0.6-0.3-0.9c-0.7,0.7-1.6,1.1-2.6,1.1  c-0.9,0-1.8-0.3-2.5-0.9c-0.6-0.5-1-1.3-1-2.1c0-1,0.4-1.9,1.2-2.5c1-0.6,2.2-0.9,3.4-0.9h1.4V271c0-0.5-0.1-0.9-0.4-1.3  c-0.4-0.3-0.8-0.5-1.3-0.5c-0.5,0-0.9,0.1-1.3,0.4c-0.3,0.2-0.5,0.6-0.5,1h-2.3c0-0.6,0.2-1.1,0.5-1.5c0.4-0.5,0.9-0.9,1.5-1.1  c0.7-0.3,1.4-0.4,2.1-0.4c1-0.1,2,0.3,2.8,0.9c0.7,0.6,1.1,1.5,1.1,2.5v4.5c0,0.7,0.1,1.5,0.4,2.2v0.2H338.8z M336.3,276.2  c0.4,0,0.9-0.1,1.3-0.3c0.4-0.2,0.7-0.5,0.9-0.9v-1.9h-1.2c-0.7,0-1.3,0.1-1.9,0.4c-0.4,0.3-0.7,0.7-0.6,1.2c0,0.4,0.1,0.8,0.4,1  C335.5,276,335.9,276.2,336.3,276.2z M342.6,272.7c-0.1-1.3,0.3-2.6,1.1-3.7c0.7-0.9,1.8-1.4,2.9-1.4c1,0,1.9,0.4,2.6,1.1v-5.2h2.3  v14.3h-2l-0.1-1c-0.7,0.8-1.7,1.3-2.7,1.2c-1.1,0-2.2-0.5-2.9-1.4C343,275.4,342.6,274,342.6,272.7z M344.9,272.9  c0,0.8,0.2,1.7,0.6,2.4c0.4,0.6,1,0.9,1.7,0.9c0.9,0,1.7-0.5,2-1.2v-4.3c-0.4-0.8-1.2-1.2-2-1.2c-0.7,0-1.3,0.3-1.7,0.9  C345.1,271,344.8,272,344.9,272.9L344.9,272.9z M359.8,277.8c-0.1-0.3-0.2-0.6-0.3-0.9c-0.7,0.7-1.6,1.1-2.6,1.1  c-0.9,0-1.8-0.3-2.5-0.9c-0.6-0.5-1-1.3-1-2.1c0-1,0.4-1.9,1.2-2.5c1-0.6,2.2-0.9,3.4-0.9h1.4V271c0-0.5-0.1-0.9-0.4-1.3  c-0.4-0.3-0.8-0.5-1.3-0.5c-0.5,0-0.9,0.1-1.3,0.4c-0.3,0.2-0.5,0.6-0.5,1h-2.3c0-0.6,0.2-1.1,0.5-1.6c0.4-0.5,0.9-0.9,1.5-1.1  c0.7-0.3,1.4-0.4,2.1-0.4c1-0.1,2,0.3,2.8,0.9c0.7,0.6,1.1,1.5,1.1,2.5v4.5c0,0.7,0.1,1.5,0.4,2.2v0.2H359.8z M357.4,276.2  c0.4,0,0.9-0.1,1.3-0.3c0.4-0.2,0.7-0.5,0.9-0.9v-1.9h-1.2c-0.7,0-1.3,0.1-1.9,0.4c-0.4,0.3-0.7,0.7-0.6,1.2c0,0.4,0.1,0.8,0.4,1  C356.5,276,356.9,276.2,357.4,276.2z"/>
<path id="Trazado_114136" class="st4" d="M486.5,277.8h-9.1v-1.6l4.5-4.9c0.5-0.6,1-1.2,1.4-1.8c0.3-0.4,0.4-0.9,0.4-1.5  c0-0.6-0.2-1.1-0.5-1.6c-0.4-0.4-0.9-0.6-1.5-0.6c-0.6,0-1.3,0.2-1.7,0.7c-0.4,0.5-0.6,1.2-0.6,1.8h-2.3c0-0.8,0.2-1.5,0.6-2.2  c0.4-0.7,0.9-1.2,1.6-1.5c0.7-0.4,1.6-0.6,2.4-0.5c1.1-0.1,2.2,0.3,3.1,1c0.8,0.7,1.2,1.7,1.1,2.7c0,0.7-0.2,1.5-0.6,2.1  c-0.5,0.9-1.1,1.8-1.9,2.5l-3.3,3.5h6.3V277.8z M489.8,275.4c0.4,0,0.7,0.1,1,0.4c0.2,0.2,0.4,0.6,0.3,0.9c0,0.3-0.1,0.6-0.3,0.9  c-0.3,0.2-0.6,0.4-1,0.3c-0.4,0-0.7-0.1-1-0.3c-0.2-0.2-0.4-0.6-0.4-0.9c0-0.3,0.1-0.7,0.3-0.9C489.1,275.5,489.4,275.4,489.8,275.4  L489.8,275.4z M494.2,271.1l0.7-6.8h7.3v2h-5.4l-0.4,3.2c0.6-0.4,1.4-0.6,2.1-0.5c1.1-0.1,2.2,0.4,3,1.2c0.8,0.9,1.1,2.1,1.1,3.3  c0.1,1.2-0.4,2.4-1.2,3.3c-0.9,0.8-2.1,1.3-3.3,1.2c-1.1,0-2.2-0.3-3.1-1.1c-0.8-0.7-1.3-1.7-1.3-2.8h2.2c0,0.6,0.3,1.1,0.7,1.5  c0.4,0.4,1,0.6,1.5,0.5c0.6,0,1.2-0.2,1.6-0.7c0.4-0.6,0.6-1.3,0.6-2c0-0.7-0.2-1.4-0.6-2c-0.5-0.5-1.1-0.8-1.8-0.7  c-0.4,0-0.7,0-1,0.2c-0.3,0.2-0.7,0.4-0.9,0.6L494.2,271.1z M512,273h1.7v1.8H512v3h-2.3v-3h-5.9l-0.1-1.4l5.8-9.2h2.3L512,273z   M506.2,273h3.5v-5.7l-0.2,0.3L506.2,273z"/>
<path id="Trazado_114137" class="st4" d="M309.8,343.7h-2.3v-10.9l-3.3,1.1v-1.9l5.3-1.9h0.3V343.7z M323.5,338.8  c0.1,1.3-0.3,2.6-1.1,3.7c-0.7,0.9-1.7,1.4-2.8,1.4c-1,0-2-0.4-2.7-1.1v4.8h-2.3v-13.9h2.1l0.1,1c0.7-0.8,1.7-1.3,2.7-1.2  c1.1,0,2.2,0.5,2.9,1.4c0.8,1.1,1.1,2.5,1,3.8V338.8z M321.2,338.6c0-0.8-0.2-1.7-0.6-2.4c-0.4-0.6-1-0.9-1.7-0.9  c-0.8-0.1-1.6,0.4-2,1.1v4.5c0.4,0.8,1.2,1.2,2,1.2c0.7,0,1.3-0.3,1.7-0.9C321.1,340.4,321.3,339.5,321.2,338.6L321.2,338.6z   M327.8,343.7h-2.3v-10.1h2.3V343.7z M325.4,331c0-0.3,0.1-0.6,0.3-0.9c0.3-0.2,0.6-0.4,0.9-0.3c0.4,0,0.7,0.1,0.9,0.3  c0.2,0.2,0.3,0.5,0.3,0.9c0,0.3-0.1,0.6-0.3,0.9c-0.3,0.2-0.6,0.4-0.9,0.3c-0.3,0-0.7-0.1-0.9-0.3  C325.5,331.7,325.4,331.4,325.4,331z M334.7,343.9c-1.3,0.1-2.6-0.4-3.5-1.4c-0.9-1-1.4-2.3-1.3-3.6v-0.3c0-0.9,0.2-1.9,0.6-2.7  c0.4-0.8,0.9-1.4,1.6-1.9c0.7-0.4,1.5-0.7,2.3-0.7c1.2-0.1,2.4,0.4,3.2,1.3c0.8,1.1,1.2,2.4,1.1,3.7v0.9h-6.6c0,0.7,0.3,1.4,0.8,2  c0.5,0.5,1.2,0.7,1.8,0.7c1,0,1.9-0.4,2.5-1.3l1.2,1.2c-0.4,0.6-1,1.1-1.6,1.4C336.3,343.8,335.5,343.9,334.7,343.9z M334.4,335.3  c-0.6,0-1.1,0.2-1.5,0.7c-0.4,0.5-0.7,1.2-0.7,1.8h4.3v-0.2c0-0.6-0.2-1.2-0.6-1.7C335.5,335.5,335,335.3,334.4,335.3L334.4,335.3z"/>
<path id="Trazado_114138" class="st4" d="M474.6,335.3h1.4c0.6,0,1.2-0.2,1.7-0.5c0.4-0.4,0.6-1,0.6-1.5c0-0.5-0.1-1.1-0.5-1.5  c-0.4-0.4-1-0.6-1.6-0.5c-0.5,0-1.1,0.2-1.5,0.5c-0.4,0.3-0.6,0.9-0.6,1.4h-2.3c0-0.7,0.2-1.3,0.6-1.9c0.4-0.6,0.9-1,1.5-1.3  c0.7-0.3,1.5-0.5,2.2-0.5c1.2-0.1,2.3,0.3,3.2,1c0.8,0.7,1.2,1.8,1.2,2.8c0,0.6-0.2,1.2-0.6,1.7c-0.4,0.5-0.9,1-1.5,1.2  c0.7,0.2,1.3,0.6,1.7,1.2c0.4,0.6,0.6,1.3,0.6,2c0,1.1-0.4,2.2-1.3,2.9c-0.9,0.8-2.1,1.1-3.3,1.1c-1.2,0-2.3-0.3-3.2-1  c-0.8-0.7-1.3-1.7-1.3-2.8h2.3c0,0.5,0.2,1.1,0.6,1.5c0.4,0.4,1,0.6,1.6,0.6c0.6,0,1.2-0.2,1.7-0.6c0.4-0.4,0.6-1,0.6-1.6  c0-0.6-0.2-1.2-0.6-1.6c-0.5-0.4-1.2-0.6-1.9-0.6h-1.3V335.3z M491.7,337.4c0.1,1.5-0.3,3.1-1.1,4.4c-0.8,1-2,1.6-3.3,1.5  c-1.3,0.1-2.5-0.5-3.3-1.4c-0.8-1.3-1.2-2.8-1.1-4.3v-2.3c-0.1-1.5,0.3-3.1,1.1-4.4c0.8-1,2.1-1.6,3.3-1.5c1.3-0.1,2.5,0.4,3.3,1.4  c0.8,1.3,1.2,2.8,1.1,4.3L491.7,337.4z M489.4,334.9c0.1-1-0.1-1.9-0.5-2.8c-0.3-0.6-1-0.9-1.7-0.9c-0.7,0-1.3,0.3-1.6,0.8  c-0.4,0.8-0.6,1.7-0.5,2.6v3.1c-0.1,1,0.1,1.9,0.5,2.8c0.3,0.6,1,1,1.7,0.9c0.7,0,1.3-0.3,1.6-0.9c0.4-0.8,0.6-1.8,0.5-2.7V334.9z   M495.2,340.8c0.4,0,0.7,0.1,1,0.4c0.2,0.2,0.4,0.6,0.3,0.9c0,0.3-0.1,0.6-0.3,0.9c-0.3,0.2-0.6,0.4-1,0.3c-0.4,0-0.7-0.1-1-0.3  c-0.2-0.2-0.4-0.6-0.4-0.9c0-0.3,0.1-0.7,0.3-0.9C494.5,340.9,494.8,340.7,495.2,340.8z M506.6,338.3h1.7v1.8h-1.7v3h-2.3v-3h-5.9  l-0.1-1.4l5.8-9.2h2.3V338.3z M500.8,338.3h3.5v-5.7l-0.2,0.3L500.8,338.3z M518.3,333.2c0,0.6-0.2,1.2-0.5,1.8  c-0.3,0.5-0.8,0.9-1.4,1.2c0.7,0.3,1.2,0.8,1.6,1.4c0.4,0.6,0.6,1.2,0.6,1.9c0,1.1-0.4,2.1-1.2,2.8c-0.9,0.7-2.1,1.1-3.2,1.1  c-1.2,0.1-2.3-0.3-3.2-1.1c-0.8-0.7-1.3-1.8-1.2-2.8c0-0.7,0.2-1.4,0.6-2c0.4-0.6,1-1.1,1.6-1.3c-0.6-0.3-1-0.7-1.4-1.2  c-0.3-0.5-0.5-1.1-0.5-1.8c0-1,0.4-2,1.1-2.7c0.8-0.7,1.9-1.1,3-1c1.1-0.1,2.2,0.3,3,1C518,331.1,518.4,332.1,518.3,333.2z   M516.4,339.3c0-0.6-0.2-1.2-0.6-1.6c-0.4-0.4-1-0.6-1.6-0.6c-0.6,0-1.2,0.2-1.6,0.6c-0.4,0.4-0.6,1-0.6,1.6c0,0.6,0.2,1.2,0.6,1.6  c0.4,0.4,1,0.6,1.6,0.6c0.6,0,1.2-0.2,1.6-0.6C516.2,340.5,516.4,339.9,516.4,339.3z M516.1,333.2c0-0.5-0.2-1.1-0.5-1.5  c-0.4-0.4-0.9-0.6-1.4-0.6c-0.5,0-1,0.2-1.4,0.5c-0.4,0.4-0.5,0.9-0.5,1.5c0,0.5,0.2,1.1,0.5,1.5c0.4,0.4,0.9,0.6,1.4,0.5  c0.5,0,1-0.2,1.4-0.5C515.9,334.3,516.1,333.8,516.1,333.2z"/>
<path class="st4" d="M275.6,146.1h-2.2v-10.7l-3.3,1.1v-1.9l5.2-1.9h0.3V146.1z"/>
<path class="st4" d="M289.2,144.5c0.6,0,1-0.2,1.4-0.5c0.4-0.3,0.6-0.7,0.6-1.2h2.1c0,0.6-0.2,1.2-0.6,1.7c-0.4,0.5-0.9,1-1.5,1.3  s-1.3,0.5-2,0.5c-1.4,0-2.5-0.4-3.3-1.3c-0.8-0.9-1.2-2.1-1.2-3.7V141c0-1.5,0.4-2.7,1.2-3.6c0.8-0.9,1.9-1.4,3.3-1.4  c1.2,0,2.1,0.3,2.9,1s1.1,1.6,1.2,2.7h-2.1c0-0.6-0.2-1-0.6-1.4c-0.4-0.4-0.8-0.6-1.4-0.6c-0.7,0-1.3,0.3-1.7,0.8  c-0.4,0.5-0.6,1.3-0.6,2.4v0.4c0,1.1,0.2,1.9,0.6,2.4C287.9,144.3,288.4,144.5,289.2,144.5z"/>
<path class="st4" d="M299.3,146.3c-1.4,0-2.6-0.4-3.4-1.3c-0.9-0.9-1.3-2.1-1.3-3.6v-0.3c0-1,0.2-1.9,0.6-2.7  c0.4-0.8,0.9-1.4,1.6-1.8c0.7-0.4,1.5-0.7,2.3-0.7c1.4,0,2.4,0.4,3.1,1.3c0.7,0.9,1.1,2.1,1.1,3.7v0.9h-6.5c0.1,0.8,0.3,1.5,0.8,1.9  s1.1,0.7,1.8,0.7c1,0,1.9-0.4,2.5-1.2l1.2,1.1c-0.4,0.6-0.9,1.1-1.6,1.4C300.9,146.1,300.1,146.3,299.3,146.3z M299,137.8  c-0.6,0-1.1,0.2-1.5,0.6c-0.4,0.4-0.6,1-0.7,1.8h4.3v-0.2c0-0.7-0.2-1.3-0.6-1.7C300.1,138,299.7,137.8,299,137.8z"/>
<path class="st4" d="M307.1,136.2l0.1,1.1c0.7-0.9,1.7-1.3,2.9-1.3c2.1,0,3.1,1.2,3.2,3.6v6.6H311v-6.4c0-0.6-0.1-1.1-0.4-1.4  c-0.3-0.3-0.7-0.5-1.3-0.5c-0.9,0-1.6,0.4-2,1.2v7.1H305v-9.9H307.1z"/>
<path class="st4" d="M318.3,133.8v2.4h1.8v1.7h-1.8v5.5c0,0.4,0.1,0.7,0.2,0.8c0.1,0.2,0.4,0.3,0.8,0.3c0.3,0,0.5,0,0.8-0.1v1.7  c-0.5,0.1-1,0.2-1.5,0.2c-1.7,0-2.6-0.9-2.6-2.8v-5.6h-1.6v-1.7h1.6v-2.4H318.3z"/>
<path class="st4" d="M324.1,146.1h-2.2v-9.9h2.2V146.1z M323.7,132.1h2.5l-2.5,2.8l-1.8,0L323.7,132.1z"/>
<path class="st4" d="M328.8,136.2l0.1,1c0.7-0.8,1.7-1.2,2.9-1.2c1.3,0,2.2,0.5,2.7,1.5c0.7-1,1.7-1.5,3-1.5c1.1,0,1.9,0.3,2.4,0.9  c0.5,0.6,0.8,1.5,0.8,2.7v6.5h-2.2v-6.5c0-0.6-0.1-1.1-0.4-1.4c-0.3-0.3-0.7-0.4-1.4-0.4c-0.5,0-0.9,0.1-1.2,0.4s-0.5,0.6-0.7,1.1  l0,6.8h-2.2v-6.5c0-1.2-0.6-1.8-1.8-1.8c-0.9,0-1.5,0.4-1.9,1.1v7.2h-2.2v-9.9H328.8z"/>
<path class="st4" d="M347.4,146.3c-1.4,0-2.6-0.4-3.4-1.3c-0.9-0.9-1.3-2.1-1.3-3.6v-0.3c0-1,0.2-1.9,0.6-2.7  c0.4-0.8,0.9-1.4,1.6-1.8c0.7-0.4,1.5-0.7,2.3-0.7c1.4,0,2.4,0.4,3.1,1.3c0.7,0.9,1.1,2.1,1.1,3.7v0.9h-6.5c0.1,0.8,0.3,1.5,0.8,1.9  s1.1,0.7,1.8,0.7c1,0,1.9-0.4,2.5-1.2l1.2,1.1c-0.4,0.6-0.9,1.1-1.6,1.4C349,146.1,348.2,146.3,347.4,146.3z M347.1,137.8  c-0.6,0-1.1,0.2-1.5,0.6c-0.4,0.4-0.6,1-0.7,1.8h4.3v-0.2c0-0.7-0.2-1.3-0.6-1.7C348.2,138,347.8,137.8,347.1,137.8z"/>
<path class="st4" d="M355.9,133.8v2.4h1.8v1.7h-1.8v5.5c0,0.4,0.1,0.7,0.2,0.8c0.2,0.2,0.4,0.3,0.8,0.3c0.3,0,0.5,0,0.8-0.1v1.7  c-0.5,0.1-1,0.2-1.5,0.2c-1.7,0-2.6-0.9-2.6-2.8v-5.6H352v-1.7h1.6v-2.4H355.9z"/>
<path class="st4" d="M364.6,138.2c-0.3,0-0.6-0.1-0.9-0.1c-1,0-1.7,0.4-2.1,1.2v6.8h-2.2v-9.9h2.1l0.1,1.1c0.5-0.9,1.3-1.3,2.2-1.3  c0.3,0,0.6,0,0.8,0.1L364.6,138.2z"/>
<path class="st4" d="M365.2,141.1c0-1,0.2-1.8,0.6-2.6s0.9-1.4,1.6-1.8c0.7-0.4,1.5-0.6,2.4-0.6c1.3,0,2.4,0.4,3.3,1.3  c0.8,0.9,1.3,2,1.4,3.4l0,0.5c0,1-0.2,1.9-0.6,2.6c-0.4,0.8-0.9,1.4-1.6,1.8s-1.5,0.6-2.4,0.6c-1.4,0-2.5-0.5-3.4-1.4  c-0.8-0.9-1.3-2.2-1.3-3.7V141.1z M367.5,141.3c0,1,0.2,1.8,0.6,2.4c0.4,0.6,1,0.9,1.8,0.9s1.3-0.3,1.8-0.9c0.4-0.6,0.6-1.4,0.6-2.6  c0-1-0.2-1.8-0.6-2.4s-1-0.9-1.8-0.9c-0.7,0-1.3,0.3-1.7,0.9C367.7,139.2,367.5,140.1,367.5,141.3z"/>
</svg>
