<svg xmlns="http://www.w3.org/2000/svg" width="642" height="402" viewBox="0 0 642 402">
  <g id="_2" data-name="2" transform="translate(-723 -676.843)">
    <rect id="Imagen_2" data-name="Imagen 2" width="642" height="402" rx="19" transform="translate(723 676.843)" fill="#fff" opacity="0.95"/>
    <path id="Trazado_114113" data-name="Trazado 114113" d="M10.894,0H152.511A10.894,10.894,0,0,1,163.4,10.894V54.468a10.894,10.894,0,0,1-10.894,10.894H10.894A10.894,10.894,0,0,1,0,54.468V10.894A10.894,10.894,0,0,1,10.894,0Z" transform="translate(788 714.843)" fill="#ff9500" stroke="#fff" stroke-linecap="round" stroke-width="2"/>
    <path id="Trazado_114114" data-name="Trazado 114114" d="M10.894,0H152.511A10.894,10.894,0,0,1,163.4,10.894V54.468a10.894,10.894,0,0,1-10.894,10.894H10.894A10.894,10.894,0,0,1,0,54.468V10.894A10.894,10.894,0,0,1,10.894,0Z" transform="translate(1125.702 780.204) rotate(180)" fill="#ff9500" stroke="#fff" stroke-linecap="round" stroke-width="2"/>
    <path id="Trazado_114115" data-name="Trazado 114115" d="M10.894,0H152.511A10.894,10.894,0,0,1,163.4,10.894V54.468a10.894,10.894,0,0,1-10.894,10.894H10.894A10.894,10.894,0,0,1,0,54.468V10.894A10.894,10.894,0,0,1,10.894,0Z" transform="translate(1136.596 714.843)" fill="#ff9500" stroke="#fff" stroke-linecap="round" stroke-width="2"/>
    <path id="Trazado_114116" data-name="Trazado 114116" d="M10.894,0H152.511A10.894,10.894,0,0,1,163.4,10.894V43.574a10.894,10.894,0,0,1-10.894,10.894H10.894A10.894,10.894,0,0,1,0,43.574V10.894A10.894,10.894,0,0,1,10.894,0Z" transform="translate(1125.702 845.176) rotate(180)" fill="#ff9500" stroke="#bc3200" stroke-linecap="round" stroke-width="2" opacity="0.35"/>
    <path id="Trazado_114117" data-name="Trazado 114117" d="M10.894,0H152.511A10.894,10.894,0,0,1,163.4,10.894V43.574a10.894,10.894,0,0,1-10.894,10.894H10.894A10.894,10.894,0,0,1,0,43.574V10.894A10.894,10.894,0,0,1,10.894,0Z" transform="translate(1136.596 790.708)" fill="#ff9500" stroke="#bc3200" stroke-linecap="round" stroke-width="2" opacity="0.35"/>
    <path id="Trazado_114118" data-name="Trazado 114118" d="M10.894,0H152.511A10.894,10.894,0,0,1,163.4,10.894v98.043a10.894,10.894,0,0,1-10.894,10.894H10.894A10.894,10.894,0,0,1,0,108.936V10.894A10.894,10.894,0,0,1,10.894,0Z" transform="translate(788.195 790.903)" fill="#ff9500" stroke="#bc3200" stroke-linecap="round" stroke-width="2" opacity="0.35"/>
    <path id="Trazado_114119" data-name="Trazado 114119" d="M10.894,0H152.511A10.894,10.894,0,0,1,163.4,10.894V43.574a10.894,10.894,0,0,1-10.894,10.894H10.894A10.894,10.894,0,0,1,0,43.574V10.894A10.894,10.894,0,0,1,10.894,0Z" transform="translate(1125.702 910.429) rotate(180)" fill="#ff9500" stroke="#ff9500" stroke-linecap="round" stroke-width="2" opacity="0.15"/>
    <path id="Trazado_114120" data-name="Trazado 114120" d="M10.894,0H152.511A10.894,10.894,0,0,1,163.4,10.894V43.574a10.894,10.894,0,0,1-10.894,10.894H10.894A10.894,10.894,0,0,1,0,43.574V10.894A10.894,10.894,0,0,1,10.894,0Z" transform="translate(1136.596 855.96)" fill="#ff9500" stroke="#ff9500" stroke-linecap="round" stroke-width="2" opacity="0.15"/>
    <path id="Trazado_114121" data-name="Trazado 114121" d="M10.894,0H152.511A10.894,10.894,0,0,1,163.4,10.894v98.043a10.894,10.894,0,0,1-10.894,10.894H10.894A10.894,10.894,0,0,1,0,108.936V10.894A10.894,10.894,0,0,1,10.894,0Z" transform="translate(788.195 921.626)" fill="#ff9500" stroke="#bc3200" stroke-linecap="round" stroke-width="2" opacity="0.35"/>
    <path id="Trazado_114122" data-name="Trazado 114122" d="M10.894,0H152.511A10.894,10.894,0,0,1,163.4,10.894V43.574a10.894,10.894,0,0,1-10.894,10.894H10.894A10.894,10.894,0,0,1,0,43.574V10.894A10.894,10.894,0,0,1,10.894,0Z" transform="translate(1125.702 976.29) rotate(180)" fill="#ff9500" stroke="#bc3200" stroke-linecap="round" stroke-width="2" opacity="0.35"/>
    <path id="Trazado_114123" data-name="Trazado 114123" d="M10.894,0H152.511A10.894,10.894,0,0,1,163.4,10.894V43.574a10.894,10.894,0,0,1-10.894,10.894H10.894A10.894,10.894,0,0,1,0,43.574V10.894A10.894,10.894,0,0,1,10.894,0Z" transform="translate(1136.596 921.821)" fill="#ff9500" stroke="#bc3200" stroke-linecap="round" stroke-width="2" opacity="0.35"/>
    <path id="Trazado_114124" data-name="Trazado 114124" d="M10.894,0H152.511A10.894,10.894,0,0,1,163.4,10.894V43.574a10.894,10.894,0,0,1-10.894,10.894H10.894A10.894,10.894,0,0,1,0,43.574V10.894A10.894,10.894,0,0,1,10.894,0Z" transform="translate(1125.702 1041.151) rotate(180)" fill="#ff9500" stroke="#ff9500" stroke-linecap="round" stroke-width="2" opacity="0.15"/>
    <path id="Trazado_114125" data-name="Trazado 114125" d="M10.894,0H152.511A10.894,10.894,0,0,1,163.4,10.894V43.574a10.894,10.894,0,0,1-10.894,10.894H10.894A10.894,10.894,0,0,1,0,43.574V10.894A10.894,10.894,0,0,1,10.894,0Z" transform="translate(1136.596 987.184)" fill="#ff9500" stroke="#ff9500" stroke-linecap="round" stroke-width="2" opacity="0.15"/>
    <path id="Trazado_114126" data-name="Trazado 114126" d="M-40.11-3.6a1.342,1.342,0,0,0-.507-1.117A6.305,6.305,0,0,0-42.4-5.548a17.1,17.1,0,0,1-2.085-.828Q-47.12-7.67-47.12-9.932a3.189,3.189,0,0,1,.656-1.987,4.245,4.245,0,0,1,1.857-1.34,7.227,7.227,0,0,1,2.7-.479,6.321,6.321,0,0,1,2.62.521,4.149,4.149,0,0,1,1.8,1.485,3.877,3.877,0,0,1,.642,2.2H-40.1a1.638,1.638,0,0,0-.507-1.285,1.977,1.977,0,0,0-1.373-.456,2.23,2.23,0,0,0-1.382.386,1.185,1.185,0,0,0-.507.982,1.193,1.193,0,0,0,.559.945,7.043,7.043,0,0,0,1.964.875,12.032,12.032,0,0,1,2.309.973,3.879,3.879,0,0,1,2.2,3.491,3.309,3.309,0,0,1-1.34,2.793A5.962,5.962,0,0,1-41.86.186,7.3,7.3,0,0,1-44.844-.4a4.5,4.5,0,0,1-2.011-1.62,4.22,4.22,0,0,1-.675-2.369h3.277a2.079,2.079,0,0,0,.563,1.606,2.662,2.662,0,0,0,1.829.517,2.1,2.1,0,0,0,1.28-.349A1.152,1.152,0,0,0-40.11-3.6ZM-32,0h-3.146V-10.072H-32Zm-3.332-12.669a1.4,1.4,0,0,1,.484-1.1,1.826,1.826,0,0,1,1.257-.428,1.826,1.826,0,0,1,1.257.428,1.4,1.4,0,0,1,.484,1.1,1.4,1.4,0,0,1-.484,1.1,1.826,1.826,0,0,1-1.257.428,1.826,1.826,0,0,1-1.257-.428A1.4,1.4,0,0,1-35.335-12.669ZM-24.8-2.83a.725.725,0,0,0-.419-.642,6.372,6.372,0,0,0-1.592-.5,7.258,7.258,0,0,1-1.936-.684,3.243,3.243,0,0,1-1.164-1.029,2.456,2.456,0,0,1-.4-1.387A2.784,2.784,0,0,1-29.164-9.36a4.716,4.716,0,0,1,3-.9,5.226,5.226,0,0,1,3.2.9,2.824,2.824,0,0,1,1.21,2.374H-24.9q0-1.21-1.275-1.21A1.264,1.264,0,0,0-27-7.917a.85.85,0,0,0-.335.684.78.78,0,0,0,.41.68,3.87,3.87,0,0,0,1.308.428,11.3,11.3,0,0,1,1.578.4,2.866,2.866,0,0,1,2.271,2.8A2.638,2.638,0,0,1-23-.68a5.368,5.368,0,0,1-3.17.866,5.478,5.478,0,0,1-2.309-.465,3.86,3.86,0,0,1-1.582-1.266,2.867,2.867,0,0,1-.568-1.685h2.932a1.212,1.212,0,0,0,.465,1.019,1.914,1.914,0,0,0,1.145.321,1.506,1.506,0,0,0,.963-.261A.834.834,0,0,0-24.8-2.83Zm8.145-9.746v2.5H-15v2.178h-1.657v4.608a1.176,1.176,0,0,0,.2.791,1.1,1.1,0,0,0,.81.223,4.6,4.6,0,0,0,.782-.056V-.084a5.789,5.789,0,0,1-1.769.27,3.286,3.286,0,0,1-2.392-.763,3.129,3.129,0,0,1-.773-2.318v-5h-1.285v-2.178h1.285v-2.5ZM-8.89.186A5.177,5.177,0,0,1-12.641-1.2a4.773,4.773,0,0,1-1.434-3.6v-.261A6.185,6.185,0,0,1-13.5-7.782a4.189,4.189,0,0,1,1.671-1.829,5.044,5.044,0,0,1,2.606-.647A4.36,4.36,0,0,1-5.874-8.941,5.176,5.176,0,0,1-4.645-5.269v1.219h-6.237a2.261,2.261,0,0,0,.735,1.331,2.188,2.188,0,0,0,1.471.484A2.819,2.819,0,0,0-6.348-3.277l1.434,1.694A4.007,4.007,0,0,1-6.576-.293,5.615,5.615,0,0,1-8.89.186Zm-.354-8.024q-1.378,0-1.638,1.824h3.165v-.242A1.554,1.554,0,0,0-8.1-7.424,1.519,1.519,0,0,0-9.243-7.838Zm8.824-2.234.1,1.182A3.463,3.463,0,0,1,2.56-10.258,2.549,2.549,0,0,1,5.138-8.741,3.352,3.352,0,0,1,8.1-10.258q3.062,0,3.146,3.7V0H8.1V-6.358a1.92,1.92,0,0,0-.261-1.126,1.11,1.11,0,0,0-.949-.354A1.486,1.486,0,0,0,5.5-7.009l.009.13V0H2.364V-6.339a2.018,2.018,0,0,0-.251-1.145,1.106,1.106,0,0,0-.959-.354,1.5,1.5,0,0,0-1.378.828V0H-3.36V-10.072ZM18.71,0a3.542,3.542,0,0,1-.3-.9A2.917,2.917,0,0,1,15.992.186a3.574,3.574,0,0,1-2.42-.861,2.741,2.741,0,0,1-1-2.164,2.817,2.817,0,0,1,1.21-2.476A6.165,6.165,0,0,1,17.3-6.153h.968v-.533q0-1.394-1.2-1.394a.982.982,0,0,0-1.117,1.1H12.818a2.812,2.812,0,0,1,1.243-2.371,5.222,5.222,0,0,1,3.17-.911,4.579,4.579,0,0,1,3.044.94,3.269,3.269,0,0,1,1.145,2.578v4.459a4.566,4.566,0,0,0,.428,2.122V0ZM16.746-2.048a1.75,1.75,0,0,0,.973-.251,1.575,1.575,0,0,0,.554-.568v-1.61H17.36q-1.638,0-1.638,1.471a.9.9,0,0,0,.289.693A1.044,1.044,0,0,0,16.746-2.048ZM27.507-5.11A6.152,6.152,0,0,1,28.54-8.88a3.4,3.4,0,0,1,2.886-1.378A2.893,2.893,0,0,1,33.7-9.2v-5.1h3.146V0h-2.82l-.158-1.08A2.97,2.97,0,0,1,31.407.186a3.4,3.4,0,0,1-2.848-1.378A6.348,6.348,0,0,1,27.507-5.11Zm3.137.2q0,2.681,1.564,2.681A1.544,1.544,0,0,0,33.7-3.109V-6.944a1.5,1.5,0,0,0-1.471-.894q-1.452,0-1.573,2.346ZM43.5.186A5.177,5.177,0,0,1,39.747-1.2a4.773,4.773,0,0,1-1.434-3.6v-.261a6.185,6.185,0,0,1,.572-2.727,4.189,4.189,0,0,1,1.671-1.829,5.044,5.044,0,0,1,2.606-.647,4.36,4.36,0,0,1,3.351,1.317,5.176,5.176,0,0,1,1.229,3.672v1.219H41.507a2.261,2.261,0,0,0,.735,1.331,2.188,2.188,0,0,0,1.471.484A2.819,2.819,0,0,0,46.04-3.277l1.434,1.694A4.007,4.007,0,0,1,45.812-.293,5.615,5.615,0,0,1,43.5.186Zm-.354-8.024q-1.378,0-1.638,1.824h3.165v-.242a1.554,1.554,0,0,0-.382-1.168A1.519,1.519,0,0,0,43.145-7.838ZM-32.347,21.788a3.234,3.234,0,0,1-2.69,1.275,3.172,3.172,0,0,1-2.509-.963A4.052,4.052,0,0,1-38.4,19.33V12.8h3.137v6.544A1.127,1.127,0,0,0-34,20.643a1.639,1.639,0,0,0,1.536-.773V12.8h3.156V22.877h-2.941Zm7.633-8.983.1,1.182a3.416,3.416,0,0,1,2.876-1.368,2.874,2.874,0,0,1,2.35.94,4.476,4.476,0,0,1,.805,2.83v6.488h-3.146V16.519a1.7,1.7,0,0,0-.307-1.122,1.421,1.421,0,0,0-1.117-.358,1.5,1.5,0,0,0-1.368.726v7.112h-3.137V12.8Zm11.18,10.072h-3.146V12.8h3.146Zm-3.332-12.669a1.4,1.4,0,0,1,.484-1.1,1.826,1.826,0,0,1,1.257-.428,1.826,1.826,0,0,1,1.257.428,1.4,1.4,0,0,1,.484,1.1,1.4,1.4,0,0,1-.484,1.1,1.826,1.826,0,0,1-1.257.428,1.826,1.826,0,0,1-1.257-.428A1.4,1.4,0,0,1-16.867,10.208ZM-12,17.766A6.152,6.152,0,0,1-10.965,14,3.4,3.4,0,0,1-8.08,12.619,2.893,2.893,0,0,1-5.809,13.68v-5.1h3.146v14.3h-2.82l-.158-1.08A2.97,2.97,0,0,1-8.1,23.063a3.4,3.4,0,0,1-2.848-1.378A6.348,6.348,0,0,1-12,17.766Zm3.137.2q0,2.681,1.564,2.681a1.544,1.544,0,0,0,1.489-.875V15.932a1.5,1.5,0,0,0-1.471-.894q-1.452,0-1.573,2.346ZM4.794,22.877a3.542,3.542,0,0,1-.3-.9,2.917,2.917,0,0,1-2.42,1.089A3.574,3.574,0,0,1-.344,22.2a2.741,2.741,0,0,1-1-2.164A2.817,2.817,0,0,1-.13,17.561a6.165,6.165,0,0,1,3.519-.838h.968V16.19q0-1.394-1.2-1.394a.982.982,0,0,0-1.117,1.1H-1.1A2.812,2.812,0,0,1,.144,13.53a5.222,5.222,0,0,1,3.17-.911,4.579,4.579,0,0,1,3.044.94A3.269,3.269,0,0,1,7.5,16.137V20.6a4.566,4.566,0,0,0,.428,2.122v.158ZM2.83,20.829a1.75,1.75,0,0,0,.973-.251,1.575,1.575,0,0,0,.554-.568V18.4H3.444q-1.638,0-1.638,1.471a.9.9,0,0,0,.289.693A1.044,1.044,0,0,0,2.83,20.829Zm6.013-3.062A6.152,6.152,0,0,1,9.876,14a3.4,3.4,0,0,1,2.886-1.378,2.893,2.893,0,0,1,2.271,1.061v-5.1H18.18v14.3h-2.82L15.2,21.8a2.97,2.97,0,0,1-2.457,1.266,3.4,3.4,0,0,1-2.848-1.378A6.348,6.348,0,0,1,8.843,17.766Zm3.137.2q0,2.681,1.564,2.681a1.544,1.544,0,0,0,1.489-.875V15.932a1.5,1.5,0,0,0-1.471-.894q-1.452,0-1.573,2.346Zm12.855,5.1a5.177,5.177,0,0,1-3.751-1.382,4.773,4.773,0,0,1-1.434-3.6v-.261a6.185,6.185,0,0,1,.572-2.727,4.189,4.189,0,0,1,1.671-1.829,5.044,5.044,0,0,1,2.606-.647,4.36,4.36,0,0,1,3.351,1.317,5.176,5.176,0,0,1,1.229,3.672v1.219H22.843a2.261,2.261,0,0,0,.735,1.331,2.188,2.188,0,0,0,1.471.484A2.819,2.819,0,0,0,27.376,19.6l1.434,1.694a4.007,4.007,0,0,1-1.662,1.289A5.615,5.615,0,0,1,24.835,23.063Zm-.354-8.024q-1.378,0-1.638,1.824h3.165v-.242a1.554,1.554,0,0,0-.382-1.168A1.519,1.519,0,0,0,24.481,15.039Zm11.133,5.008A.725.725,0,0,0,35.2,19.4a6.372,6.372,0,0,0-1.592-.5,7.258,7.258,0,0,1-1.936-.684A3.243,3.243,0,0,1,30.5,17.189a2.456,2.456,0,0,1-.4-1.387,2.784,2.784,0,0,1,1.145-2.285,4.716,4.716,0,0,1,3-.9,5.226,5.226,0,0,1,3.2.9,2.824,2.824,0,0,1,1.21,2.374H35.512q0-1.21-1.275-1.21a1.264,1.264,0,0,0-.828.275.85.85,0,0,0-.335.684.78.78,0,0,0,.41.68,3.87,3.87,0,0,0,1.308.428,11.3,11.3,0,0,1,1.578.4,2.866,2.866,0,0,1,2.271,2.8A2.638,2.638,0,0,1,37.416,22.2a5.368,5.368,0,0,1-3.17.866,5.478,5.478,0,0,1-2.309-.465,3.86,3.86,0,0,1-1.582-1.266,2.867,2.867,0,0,1-.568-1.685h2.932a1.212,1.212,0,0,0,.465,1.019,1.914,1.914,0,0,0,1.145.321,1.506,1.506,0,0,0,.963-.261A.834.834,0,0,0,35.614,20.047Z" transform="translate(869.702 741.655)" fill="#12263f"/>
    <path id="Trazado_114127" data-name="Trazado 114127" d="M-18.459-13.553v8.871A5.1,5.1,0,0,1-19.1-2.071a4.161,4.161,0,0,1-1.843,1.68,6.493,6.493,0,0,1-2.839.577,5.609,5.609,0,0,1-3.9-1.285,4.581,4.581,0,0,1-1.452-3.519v-8.936h3.286v9q.056,2.225,2.066,2.225a2,2,0,0,0,1.536-.559A2.611,2.611,0,0,0-21.726-4.7v-8.852Zm4.775,3.481.1,1.182A3.416,3.416,0,0,1-10.7-10.258a2.874,2.874,0,0,1,2.35.94,4.476,4.476,0,0,1,.805,2.83V0H-10.7V-6.358A1.7,1.7,0,0,0-11-7.479a1.421,1.421,0,0,0-1.117-.358,1.5,1.5,0,0,0-1.368.726V0h-3.137V-10.072ZM-2.5,0H-5.65V-10.072H-2.5ZM-5.836-12.669a1.4,1.4,0,0,1,.484-1.1A1.826,1.826,0,0,1-4.1-14.2a1.826,1.826,0,0,1,1.257.428,1.4,1.4,0,0,1,.484,1.1,1.4,1.4,0,0,1-.484,1.1,1.826,1.826,0,0,1-1.257.428,1.826,1.826,0,0,1-1.257-.428A1.4,1.4,0,0,1-5.836-12.669ZM-.968-5.11A6.152,6.152,0,0,1,.065-8.88a3.4,3.4,0,0,1,2.886-1.378A2.893,2.893,0,0,1,5.222-9.2v-5.1H8.368V0H5.548L5.39-1.08A2.97,2.97,0,0,1,2.932.186,3.4,3.4,0,0,1,.084-1.191,6.348,6.348,0,0,1-.968-5.11Zm3.137.2q0,2.681,1.564,2.681a1.544,1.544,0,0,0,1.489-.875V-6.944a1.5,1.5,0,0,0-1.471-.894q-1.452,0-1.573,2.346ZM15.824,0a3.542,3.542,0,0,1-.3-.9A2.917,2.917,0,0,1,13.106.186a3.574,3.574,0,0,1-2.42-.861,2.741,2.741,0,0,1-1-2.164A2.817,2.817,0,0,1,10.9-5.315a6.165,6.165,0,0,1,3.519-.838h.968v-.533q0-1.394-1.2-1.394a.982.982,0,0,0-1.117,1.1H9.932a2.812,2.812,0,0,1,1.243-2.371,5.222,5.222,0,0,1,3.17-.911,4.579,4.579,0,0,1,3.044.94,3.269,3.269,0,0,1,1.145,2.578v4.459a4.566,4.566,0,0,0,.428,2.122V0ZM13.86-2.048a1.75,1.75,0,0,0,.973-.251,1.575,1.575,0,0,0,.554-.568v-1.61h-.912q-1.638,0-1.638,1.471a.9.9,0,0,0,.289.693A1.044,1.044,0,0,0,13.86-2.048ZM19.874-5.11a6.152,6.152,0,0,1,1.033-3.77,3.4,3.4,0,0,1,2.886-1.378A2.893,2.893,0,0,1,26.064-9.2v-5.1H29.21V0H26.39l-.158-1.08A2.97,2.97,0,0,1,23.774.186a3.4,3.4,0,0,1-2.848-1.378A6.348,6.348,0,0,1,19.874-5.11Zm3.137.2q0,2.681,1.564,2.681a1.544,1.544,0,0,0,1.489-.875V-6.944a1.5,1.5,0,0,0-1.471-.894q-1.452,0-1.573,2.346Z" transform="translate(1044 753.094)" fill="#12263f"/>
    <path id="Trazado_114128" data-name="Trazado 114128" d="M-57.838-5.753h-5.138v3.239h6.069V0h-9.336V-13.553h9.355v2.523h-6.088v2.858h5.138Zm1.545.614A6.046,6.046,0,0,1-55.251-8.9a3.424,3.424,0,0,1,2.876-1.359A2.924,2.924,0,0,1-49.9-8.992l.223-1.08h2.718V3.872H-50.1V-.838A2.92,2.92,0,0,1-52.393.186,3.394,3.394,0,0,1-55.237-1.2,6.383,6.383,0,0,1-56.293-5.138Zm3.137.2q0,2.709,1.564,2.709A1.514,1.514,0,0,0-50.1-3.053V-7.037a1.482,1.482,0,0,0-1.471-.8q-1.461,0-1.573,2.336Zm13.972,3.854A3.234,3.234,0,0,1-41.874.186a3.172,3.172,0,0,1-2.509-.963,4.052,4.052,0,0,1-.852-2.769v-6.525H-42.1v6.544a1.127,1.127,0,0,0,1.257,1.294,1.639,1.639,0,0,0,1.536-.773v-7.065h3.156V0h-2.941ZM-31.123,0h-3.146V-10.072h3.146Zm-3.332-12.669a1.4,1.4,0,0,1,.484-1.1,1.826,1.826,0,0,1,1.257-.428,1.826,1.826,0,0,1,1.257.428,1.4,1.4,0,0,1,.484,1.1,1.4,1.4,0,0,1-.484,1.1,1.826,1.826,0,0,1-1.257.428,1.826,1.826,0,0,1-1.257-.428A1.4,1.4,0,0,1-34.455-12.669Zm9.281,8.936,1.592-6.339h3.3L-23.564,0h-3.2l-3.286-10.072h3.314ZM-13.809,0a3.542,3.542,0,0,1-.3-.9A2.917,2.917,0,0,1-16.527.186a3.574,3.574,0,0,1-2.42-.861,2.741,2.741,0,0,1-1-2.164,2.817,2.817,0,0,1,1.21-2.476,6.165,6.165,0,0,1,3.519-.838h.968v-.533q0-1.394-1.2-1.394a.982.982,0,0,0-1.117,1.1H-19.7a2.812,2.812,0,0,1,1.243-2.371,5.222,5.222,0,0,1,3.17-.911,4.579,4.579,0,0,1,3.044.94A3.269,3.269,0,0,1-11.1-6.739v4.459a4.566,4.566,0,0,0,.428,2.122V0Zm-1.964-2.048A1.75,1.75,0,0,0-14.8-2.3a1.575,1.575,0,0,0,.554-.568v-1.61h-.912q-1.638,0-1.638,1.471a.9.9,0,0,0,.289.693A1.044,1.044,0,0,0-15.773-2.048ZM-6.055,0H-9.2V-14.3h3.146Zm6.8.186A5.177,5.177,0,0,1-3-1.2a4.773,4.773,0,0,1-1.434-3.6v-.261a6.185,6.185,0,0,1,.572-2.727A4.189,4.189,0,0,1-2.192-9.611a5.044,5.044,0,0,1,2.606-.647A4.36,4.36,0,0,1,3.765-8.941,5.176,5.176,0,0,1,4.994-5.269v1.219H-1.243A2.261,2.261,0,0,0-.507-2.718a2.188,2.188,0,0,0,1.471.484A2.819,2.819,0,0,0,3.291-3.277L4.724-1.582A4.007,4.007,0,0,1,3.063-.293,5.615,5.615,0,0,1,.749.186ZM.4-7.838q-1.378,0-1.638,1.824H1.922v-.242a1.554,1.554,0,0,0-.382-1.168A1.519,1.519,0,0,0,.4-7.838Zm8.741-2.234.1,1.182a3.416,3.416,0,0,1,2.876-1.368,2.874,2.874,0,0,1,2.35.94,4.476,4.476,0,0,1,.805,2.83V0H12.124V-6.358a1.7,1.7,0,0,0-.307-1.122A1.421,1.421,0,0,0,10.7-7.838a1.5,1.5,0,0,0-1.368.726V0H6.195V-10.072ZM21.265-2.234a1.4,1.4,0,0,0,1.024-.358,1.314,1.314,0,0,0,.354-1h2.941A3.482,3.482,0,0,1,24.4-.875,4.415,4.415,0,0,1,21.34.186a4.47,4.47,0,0,1-3.463-1.378,5.428,5.428,0,0,1-1.266-3.816v-.13a6.135,6.135,0,0,1,.563-2.695A4.1,4.1,0,0,1,18.8-9.63a4.843,4.843,0,0,1,2.513-.628A4.359,4.359,0,0,1,24.43-9.169a3.863,3.863,0,0,1,1.154,2.951H22.643a1.722,1.722,0,0,0-.382-1.2,1.317,1.317,0,0,0-1.024-.419q-1.219,0-1.424,1.555a10.969,10.969,0,0,0-.065,1.359,4.308,4.308,0,0,0,.363,2.1A1.257,1.257,0,0,0,21.265-2.234ZM30.22,0H27.074V-10.072H30.22ZM26.888-12.669a1.4,1.4,0,0,1,.484-1.1,1.826,1.826,0,0,1,1.257-.428,1.826,1.826,0,0,1,1.257.428,1.4,1.4,0,0,1,.484,1.1,1.4,1.4,0,0,1-.484,1.1,1.826,1.826,0,0,1-1.257.428,1.826,1.826,0,0,1-1.257-.428A1.4,1.4,0,0,1,26.888-12.669ZM37.825,0a3.542,3.542,0,0,1-.3-.9A2.917,2.917,0,0,1,35.107.186a3.574,3.574,0,0,1-2.42-.861,2.741,2.741,0,0,1-1-2.164A2.817,2.817,0,0,1,32.9-5.315a6.165,6.165,0,0,1,3.519-.838h.968v-.533q0-1.394-1.2-1.394a.982.982,0,0,0-1.117,1.1H31.933a2.812,2.812,0,0,1,1.243-2.371,5.222,5.222,0,0,1,3.17-.911,4.579,4.579,0,0,1,3.044.94,3.269,3.269,0,0,1,1.145,2.578v4.459a4.566,4.566,0,0,0,.428,2.122V0ZM35.861-2.048a1.75,1.75,0,0,0,.973-.251,1.575,1.575,0,0,0,.554-.568v-1.61h-.912q-1.638,0-1.638,1.471a.9.9,0,0,0,.289.693A1.044,1.044,0,0,0,35.861-2.048ZM51.89.186A5.177,5.177,0,0,1,48.139-1.2a4.773,4.773,0,0,1-1.434-3.6v-.261a6.185,6.185,0,0,1,.572-2.727,4.189,4.189,0,0,1,1.671-1.829,5.044,5.044,0,0,1,2.606-.647,4.36,4.36,0,0,1,3.351,1.317,5.176,5.176,0,0,1,1.229,3.672v1.219H49.9a2.261,2.261,0,0,0,.735,1.331,2.188,2.188,0,0,0,1.471.484,2.819,2.819,0,0,0,2.327-1.043l1.434,1.694A4.007,4.007,0,0,1,54.2-.293,5.615,5.615,0,0,1,51.89.186Zm-.354-8.024q-1.378,0-1.638,1.824h3.165v-.242a1.554,1.554,0,0,0-.382-1.168A1.519,1.519,0,0,0,51.537-7.838Zm8.741-2.234.1,1.182a3.416,3.416,0,0,1,2.876-1.368,2.874,2.874,0,0,1,2.35.94,4.476,4.476,0,0,1,.805,2.83V0H63.265V-6.358a1.7,1.7,0,0,0-.307-1.122,1.421,1.421,0,0,0-1.117-.358,1.5,1.5,0,0,0-1.368.726V0H57.336V-10.072Zm-68.3,30.714A1.4,1.4,0,0,0-7,20.284a1.314,1.314,0,0,0,.354-1H-3.7A3.482,3.482,0,0,1-4.892,22a4.415,4.415,0,0,1-3.058,1.061,4.47,4.47,0,0,1-3.463-1.378,5.428,5.428,0,0,1-1.266-3.816v-.13a6.135,6.135,0,0,1,.563-2.695,4.1,4.1,0,0,1,1.624-1.8,4.843,4.843,0,0,1,2.513-.628,4.359,4.359,0,0,1,3.118,1.089A3.863,3.863,0,0,1-3.7,16.659H-6.646a1.722,1.722,0,0,0-.382-1.2,1.317,1.317,0,0,0-1.024-.419q-1.219,0-1.424,1.555a10.969,10.969,0,0,0-.065,1.359,4.308,4.308,0,0,0,.363,2.1A1.257,1.257,0,0,0-8.024,20.643ZM.586,12.8l.1,1.182a3.463,3.463,0,0,1,2.876-1.368,2.549,2.549,0,0,1,2.578,1.517A3.352,3.352,0,0,1,9.1,12.619q3.062,0,3.146,3.7v6.553H9.1V16.519a1.92,1.92,0,0,0-.261-1.126,1.11,1.11,0,0,0-.949-.354,1.486,1.486,0,0,0-1.387.828l.009.13v6.879H3.37V16.538a2.018,2.018,0,0,0-.251-1.145,1.106,1.106,0,0,0-.959-.354,1.5,1.5,0,0,0-1.378.828v7.009H-2.355V12.8Z" transform="translate(1218.298 741.655)" fill="#12263f"/>
    <path id="Trazado_114129" data-name="Trazado 114129" d="M-26.38-3.491a1.637,1.637,0,0,0-.628-1.378,7.56,7.56,0,0,0-2.267-.977,10.945,10.945,0,0,1-2.606-1.1,3.478,3.478,0,0,1-1.852-3.035,3.3,3.3,0,0,1,1.336-2.7,5.406,5.406,0,0,1,3.467-1.061,5.857,5.857,0,0,1,2.523.521,4.14,4.14,0,0,1,1.741,1.485A3.808,3.808,0,0,1-24.035-9.6H-26.38a2.124,2.124,0,0,0-.666-1.662,2.747,2.747,0,0,0-1.9-.6,2.869,2.869,0,0,0-1.792.493,1.643,1.643,0,0,0-.638,1.378,1.486,1.486,0,0,0,.689,1.243,7.936,7.936,0,0,0,2.271.968,10.448,10.448,0,0,1,2.541,1.07,4.042,4.042,0,0,1,1.406,1.378,3.588,3.588,0,0,1,.447,1.82,3.225,3.225,0,0,1-1.3,2.695,5.632,5.632,0,0,1-3.523,1,6.621,6.621,0,0,1-2.7-.545,4.542,4.542,0,0,1-1.918-1.5A3.746,3.746,0,0,1-34.153-4.1H-31.8a2.192,2.192,0,0,0,.763,1.787,3.343,3.343,0,0,0,2.188.633A2.9,2.9,0,0,0-27-2.174,1.607,1.607,0,0,0-26.38-3.491ZM-19.771,0h-2.262V-10.072h2.262Zm-2.4-12.687a1.2,1.2,0,0,1,.33-.866A1.248,1.248,0,0,1-20.9-13.9a1.264,1.264,0,0,1,.949.344,1.191,1.191,0,0,1,.335.866,1.164,1.164,0,0,1-.335.852,1.274,1.274,0,0,1-.949.34,1.258,1.258,0,0,1-.945-.34A1.173,1.173,0,0,1-22.173-12.687Zm10.509,9.951a1.025,1.025,0,0,0-.5-.922,5.3,5.3,0,0,0-1.652-.559,8.494,8.494,0,0,1-1.927-.614A2.572,2.572,0,0,1-17.435-7.2a2.681,2.681,0,0,1,1.1-2.178,4.342,4.342,0,0,1,2.793-.875,4.518,4.518,0,0,1,2.918.894A2.836,2.836,0,0,1-9.513-7.047h-2.262a1.394,1.394,0,0,0-.484-1.084,1.855,1.855,0,0,0-1.285-.433,2,2,0,0,0-1.215.344,1.086,1.086,0,0,0-.47.922.917.917,0,0,0,.438.81,6.016,6.016,0,0,0,1.769.582,8.372,8.372,0,0,1,2.09.7,2.959,2.959,0,0,1,1.126.973,2.481,2.481,0,0,1,.368,1.378,2.624,2.624,0,0,1-1.126,2.2,4.8,4.8,0,0,1-2.951.842,5.208,5.208,0,0,1-2.206-.447A3.631,3.631,0,0,1-17.23-1.489a2.908,2.908,0,0,1-.54-1.685h2.2a1.594,1.594,0,0,0,.605,1.233,2.351,2.351,0,0,0,1.48.433,2.287,2.287,0,0,0,1.359-.34A1.052,1.052,0,0,0-11.664-2.737Zm7.028-9.783v2.448h1.778V-8.4H-4.636v5.622a1.238,1.238,0,0,0,.228.833,1.057,1.057,0,0,0,.814.256A3.484,3.484,0,0,0-2.8-1.778v1.75A5.571,5.571,0,0,1-4.291.186Q-6.9.186-6.9-2.69V-8.4H-8.555v-1.676H-6.9V-12.52ZM3.3.186A4.68,4.68,0,0,1-.182-1.168,4.913,4.913,0,0,1-1.517-4.775v-.279A6.044,6.044,0,0,1-.936-7.749,4.428,4.428,0,0,1,.7-9.6a4.319,4.319,0,0,1,2.346-.661A3.953,3.953,0,0,1,6.223-8.945,5.55,5.55,0,0,1,7.344-5.231v.912H.763A3.025,3.025,0,0,0,1.6-2.346a2.5,2.5,0,0,0,1.838.726A3.063,3.063,0,0,0,5.967-2.876L7.186-1.713a4.072,4.072,0,0,1-1.615,1.4A5.056,5.056,0,0,1,3.3.186Zm-.27-8.629a1.9,1.9,0,0,0-1.5.652A3.377,3.377,0,0,0,.8-5.976H5.11v-.168a2.749,2.749,0,0,0-.605-1.717A1.89,1.89,0,0,0,3.035-8.443Zm8.191-1.629.065,1.052a3.624,3.624,0,0,1,2.9-1.238A2.784,2.784,0,0,1,16.96-8.713a3.572,3.572,0,0,1,3.09-1.545,3.14,3.14,0,0,1,2.481.922,4.057,4.057,0,0,1,.833,2.718V0H21.1V-6.553a2,2,0,0,0-.419-1.406A1.834,1.834,0,0,0,19.3-8.406a1.883,1.883,0,0,0-1.261.414,2.185,2.185,0,0,0-.684,1.084L17.36,0H15.1V-6.628a1.614,1.614,0,0,0-1.815-1.778A1.991,1.991,0,0,0,11.356-7.3V0H9.094V-10.072ZM31.7,0a3.491,3.491,0,0,1-.261-.94A3.521,3.521,0,0,1,28.8.186,3.553,3.553,0,0,1,26.324-.68a2.77,2.77,0,0,1-.959-2.141,2.86,2.86,0,0,1,1.2-2.471,5.8,5.8,0,0,1,3.421-.861H31.37v-.661a1.764,1.764,0,0,0-.437-1.252,1.734,1.734,0,0,0-1.331-.47,1.992,1.992,0,0,0-1.266.386,1.2,1.2,0,0,0-.493.982H25.58a2.51,2.51,0,0,1,.549-1.55,3.659,3.659,0,0,1,1.494-1.131,5.248,5.248,0,0,1,2.108-.41,4.226,4.226,0,0,1,2.82.889,3.17,3.17,0,0,1,1.08,2.5v4.543a5.148,5.148,0,0,0,.382,2.169V0ZM29.219-1.629a2.573,2.573,0,0,0,1.261-.326,2.177,2.177,0,0,0,.889-.875v-1.9H30.15a3.334,3.334,0,0,0-1.89.438,1.417,1.417,0,0,0-.633,1.238,1.322,1.322,0,0,0,.433,1.038A1.676,1.676,0,0,0,29.219-1.629ZM-51.965,22.877h-2.346V9.323h2.346ZM-47.189,12.8l.065,1.164a3.621,3.621,0,0,1,2.932-1.35q3.146,0,3.2,3.6v6.656h-2.262V16.351a2.074,2.074,0,0,0-.414-1.42,1.742,1.742,0,0,0-1.354-.461,2.18,2.18,0,0,0-2.039,1.238v7.168h-2.262V12.8Zm11.338-2.448V12.8h1.778V14.48h-1.778V20.1a1.238,1.238,0,0,0,.228.833,1.057,1.057,0,0,0,.814.256,3.485,3.485,0,0,0,.791-.093v1.75a5.571,5.571,0,0,1-1.489.214q-2.606,0-2.606-2.876V14.48h-1.657V12.8h1.657V10.357Zm7.94,12.706A4.68,4.68,0,0,1-31.4,21.708,4.913,4.913,0,0,1-32.733,18.1v-.279a6.044,6.044,0,0,1,.582-2.695,4.428,4.428,0,0,1,1.634-1.848,4.319,4.319,0,0,1,2.346-.661,3.953,3.953,0,0,1,3.179,1.313,5.55,5.55,0,0,1,1.122,3.714v.912h-6.581a3.025,3.025,0,0,0,.833,1.973,2.5,2.5,0,0,0,1.838.726A3.063,3.063,0,0,0-25.249,20l1.219,1.164a4.072,4.072,0,0,1-1.615,1.4A5.056,5.056,0,0,1-27.912,23.063Zm-.27-8.629a1.9,1.9,0,0,0-1.5.652,3.377,3.377,0,0,0-.731,1.815h4.31v-.168a2.749,2.749,0,0,0-.605-1.717A1.89,1.89,0,0,0-28.182,14.434Zm11.338.438a5.6,5.6,0,0,0-.922-.074,2.075,2.075,0,0,0-2.094,1.191v6.888h-2.262V12.8h2.16l.056,1.126a2.549,2.549,0,0,1,2.271-1.312,2.118,2.118,0,0,1,.8.13Zm3.528-2.066.065,1.164a3.621,3.621,0,0,1,2.932-1.35q3.146,0,3.2,3.6v6.656H-9.378V16.351a2.074,2.074,0,0,0-.414-1.42,1.742,1.742,0,0,0-1.354-.461,2.18,2.18,0,0,0-2.039,1.238v7.168h-2.262V12.8ZM1.205,22.877a3.491,3.491,0,0,1-.261-.94A3.521,3.521,0,0,1-1.7,23.063,3.553,3.553,0,0,1-4.175,22.2a2.77,2.77,0,0,1-.959-2.141,2.86,2.86,0,0,1,1.2-2.471,5.8,5.8,0,0,1,3.421-.861H.87v-.661a1.764,1.764,0,0,0-.438-1.252A1.734,1.734,0,0,0-.9,14.341a1.992,1.992,0,0,0-1.266.386,1.2,1.2,0,0,0-.493.982H-4.92a2.51,2.51,0,0,1,.549-1.55,3.659,3.659,0,0,1,1.494-1.131,5.248,5.248,0,0,1,2.108-.41,4.226,4.226,0,0,1,2.82.889,3.17,3.17,0,0,1,1.08,2.5v4.543a5.148,5.148,0,0,0,.382,2.169v.158ZM-1.28,21.248a2.573,2.573,0,0,0,1.261-.326,2.177,2.177,0,0,0,.889-.875v-1.9H-.349a3.334,3.334,0,0,0-1.89.438,1.417,1.417,0,0,0-.633,1.238,1.322,1.322,0,0,0,.433,1.038A1.676,1.676,0,0,0-1.28,21.248Zm10.919.009a2.045,2.045,0,0,0,1.406-.493,1.685,1.685,0,0,0,.6-1.219h2.132a3.322,3.322,0,0,1-.586,1.755A3.847,3.847,0,0,1,11.7,22.588a4.438,4.438,0,0,1-2.029.475,4.294,4.294,0,0,1-3.351-1.368,5.427,5.427,0,0,1-1.238-3.779v-.233A5.337,5.337,0,0,1,6.307,14a4.255,4.255,0,0,1,3.351-1.382,4.138,4.138,0,0,1,2.928,1.047,3.751,3.751,0,0,1,1.187,2.751H11.64a2.071,2.071,0,0,0-.591-1.424,1.9,1.9,0,0,0-1.41-.559,1.991,1.991,0,0,0-1.694.8,4.061,4.061,0,0,0-.605,2.416v.363a4.128,4.128,0,0,0,.591,2.443A1.989,1.989,0,0,0,9.639,21.257Zm8.247,1.62H15.624V12.8h2.262Zm-2.4-12.687a1.2,1.2,0,0,1,.33-.866,1.248,1.248,0,0,1,.945-.344,1.264,1.264,0,0,1,.949.344,1.191,1.191,0,0,1,.335.866,1.164,1.164,0,0,1-.335.852,1.274,1.274,0,0,1-.949.34,1.258,1.258,0,0,1-.945-.34A1.173,1.173,0,0,1,15.485,10.189Zm4.44,7.559a5.939,5.939,0,0,1,.586-2.667,4.283,4.283,0,0,1,1.648-1.824,4.642,4.642,0,0,1,2.439-.638,4.4,4.4,0,0,1,3.309,1.313,5.162,5.162,0,0,1,1.373,3.481l.009.531a5.992,5.992,0,0,1-.572,2.662,4.231,4.231,0,0,1-1.638,1.815,4.676,4.676,0,0,1-2.462.642,4.369,4.369,0,0,1-3.412-1.42,5.437,5.437,0,0,1-1.28-3.784Zm2.262.2a4.058,4.058,0,0,0,.642,2.434,2.088,2.088,0,0,0,1.787.88,2.065,2.065,0,0,0,1.783-.894,4.483,4.483,0,0,0,.638-2.616,4.006,4.006,0,0,0-.656-2.42,2.212,2.212,0,0,0-3.542-.014A4.4,4.4,0,0,0,22.187,17.943ZM33.3,12.8l.065,1.164a3.621,3.621,0,0,1,2.932-1.35q3.146,0,3.2,3.6v6.656H37.239V16.351a2.074,2.074,0,0,0-.414-1.42,1.742,1.742,0,0,0-1.354-.461,2.18,2.18,0,0,0-2.039,1.238v7.168H31.17V12.8ZM47.822,22.877a3.491,3.491,0,0,1-.261-.94,3.805,3.805,0,0,1-5.12.261,2.77,2.77,0,0,1-.959-2.141,2.86,2.86,0,0,1,1.2-2.471,5.8,5.8,0,0,1,3.421-.861h1.387v-.661a1.764,1.764,0,0,0-.437-1.252,1.734,1.734,0,0,0-1.331-.47,1.992,1.992,0,0,0-1.266.386,1.2,1.2,0,0,0-.493.982H41.7a2.51,2.51,0,0,1,.549-1.55,3.659,3.659,0,0,1,1.494-1.131,5.248,5.248,0,0,1,2.108-.41,4.226,4.226,0,0,1,2.82.889,3.17,3.17,0,0,1,1.08,2.5v4.543a5.148,5.148,0,0,0,.382,2.169v.158Zm-2.485-1.629a2.573,2.573,0,0,0,1.261-.326,2.177,2.177,0,0,0,.889-.875v-1.9H46.268a3.334,3.334,0,0,0-1.89.438,1.417,1.417,0,0,0-.633,1.238,1.322,1.322,0,0,0,.433,1.038A1.676,1.676,0,0,0,45.337,21.248Zm9.187,1.629H52.263V8.579h2.262Z" transform="translate(869.702 845.146)" fill="#12263f"/>
    <path id="Trazado_114130" data-name="Trazado 114130" d="M-46.85,0H-49.1V-10.888l-3.323,1.133v-1.9l5.287-1.945h.289ZM-33.11-1.62A2.045,2.045,0,0,0-31.7-2.113a1.685,1.685,0,0,0,.6-1.219h2.132a3.322,3.322,0,0,1-.586,1.755A3.847,3.847,0,0,1-31.053-.289a4.438,4.438,0,0,1-2.029.475,4.294,4.294,0,0,1-3.351-1.368,5.427,5.427,0,0,1-1.238-3.779v-.233a5.337,5.337,0,0,1,1.229-3.682,4.255,4.255,0,0,1,3.351-1.382,4.138,4.138,0,0,1,2.928,1.047A3.751,3.751,0,0,1-28.977-6.46h-2.132A2.071,2.071,0,0,0-31.7-7.884a1.9,1.9,0,0,0-1.41-.559,1.991,1.991,0,0,0-1.694.8,4.061,4.061,0,0,0-.605,2.416v.363a4.128,4.128,0,0,0,.591,2.443A1.989,1.989,0,0,0-33.11-1.62ZM-22.834.186A4.68,4.68,0,0,1-26.32-1.168a4.913,4.913,0,0,1-1.336-3.607v-.279a6.044,6.044,0,0,1,.582-2.695A4.428,4.428,0,0,1-25.44-9.6a4.319,4.319,0,0,1,2.346-.661,3.953,3.953,0,0,1,3.179,1.312,5.55,5.55,0,0,1,1.122,3.714v.912h-6.581a3.025,3.025,0,0,0,.833,1.973A2.5,2.5,0,0,0-22.7-1.62a3.063,3.063,0,0,0,2.532-1.257l1.219,1.164a4.072,4.072,0,0,1-1.615,1.4A5.056,5.056,0,0,1-22.834.186Zm-.27-8.629a1.9,1.9,0,0,0-1.5.652,3.377,3.377,0,0,0-.731,1.815h4.31v-.168a2.749,2.749,0,0,0-.605-1.717A1.89,1.89,0,0,0-23.1-8.443Zm8.164-1.629.065,1.164a3.621,3.621,0,0,1,2.932-1.35q3.146,0,3.2,3.6V0H-11V-6.525a2.074,2.074,0,0,0-.414-1.42,1.742,1.742,0,0,0-1.354-.461A2.18,2.18,0,0,0-14.81-7.168V0h-2.262V-10.072ZM-3.6-12.52v2.448h1.778V-8.4H-3.6v5.622a1.238,1.238,0,0,0,.228.833,1.057,1.057,0,0,0,.814.256,3.484,3.484,0,0,0,.791-.093v1.75A5.571,5.571,0,0,1-3.258.186q-2.606,0-2.606-2.876V-8.4H-7.521v-1.676h1.657V-12.52ZM2.309,0H.047V-10.072H2.309Zm-2.4-12.687a1.2,1.2,0,0,1,.33-.866,1.248,1.248,0,0,1,.945-.344,1.264,1.264,0,0,1,.949.344,1.191,1.191,0,0,1,.335.866,1.164,1.164,0,0,1-.335.852,1.274,1.274,0,0,1-.949.34,1.258,1.258,0,0,1-.945-.34A1.173,1.173,0,0,1-.093-12.687ZM6.9-10.072,6.963-9.02a3.624,3.624,0,0,1,2.9-1.238,2.784,2.784,0,0,1,2.765,1.545,3.572,3.572,0,0,1,3.09-1.545,3.14,3.14,0,0,1,2.481.922,4.057,4.057,0,0,1,.833,2.718V0H16.774V-6.553a2,2,0,0,0-.419-1.406,1.834,1.834,0,0,0-1.387-.447,1.883,1.883,0,0,0-1.261.414,2.185,2.185,0,0,0-.684,1.084L13.032,0H10.77V-6.628A1.614,1.614,0,0,0,8.955-8.406,1.991,1.991,0,0,0,7.028-7.3V0H4.766V-10.072ZM25.794.186a4.68,4.68,0,0,1-3.486-1.354,4.913,4.913,0,0,1-1.336-3.607v-.279a6.044,6.044,0,0,1,.582-2.695A4.428,4.428,0,0,1,23.187-9.6a4.319,4.319,0,0,1,2.346-.661,3.953,3.953,0,0,1,3.179,1.312,5.55,5.55,0,0,1,1.122,3.714v.912H23.253a3.025,3.025,0,0,0,.833,1.973,2.5,2.5,0,0,0,1.838.726,3.063,3.063,0,0,0,2.532-1.257l1.219,1.164a4.072,4.072,0,0,1-1.615,1.4A5.056,5.056,0,0,1,25.794.186Zm-.27-8.629a1.9,1.9,0,0,0-1.5.652,3.377,3.377,0,0,0-.731,1.815H27.6v-.168a2.749,2.749,0,0,0-.605-1.717A1.89,1.89,0,0,0,25.524-8.443Zm8.9-4.077v2.448H36.2V-8.4H34.423v5.622a1.238,1.238,0,0,0,.228.833,1.057,1.057,0,0,0,.814.256,3.485,3.485,0,0,0,.791-.093v1.75a5.571,5.571,0,0,1-1.489.214q-2.606,0-2.606-2.876V-8.4H30.5v-1.676h1.657V-12.52ZM43.2-8.005a5.6,5.6,0,0,0-.922-.074,2.075,2.075,0,0,0-2.094,1.191V0H37.923V-10.072h2.16l.056,1.126a2.549,2.549,0,0,1,2.271-1.312,2.118,2.118,0,0,1,.8.13Zm.67,2.876A5.939,5.939,0,0,1,44.457-7.8,4.283,4.283,0,0,1,46.105-9.62a4.642,4.642,0,0,1,2.439-.638,4.4,4.4,0,0,1,3.309,1.312,5.162,5.162,0,0,1,1.373,3.481l.009.531a5.992,5.992,0,0,1-.572,2.662A4.232,4.232,0,0,1,51.025-.456a4.676,4.676,0,0,1-2.462.642,4.369,4.369,0,0,1-3.412-1.42,5.437,5.437,0,0,1-1.28-3.784Zm2.262.2A4.058,4.058,0,0,0,46.775-2.5a2.088,2.088,0,0,0,1.787.88,2.065,2.065,0,0,0,1.783-.894,4.482,4.482,0,0,0,.638-2.616,4.006,4.006,0,0,0-.656-2.42,2.1,2.1,0,0,0-1.783-.894,2.076,2.076,0,0,0-1.759.88A4.4,4.4,0,0,0,46.133-4.934Z" transform="translate(1044 823.902)" fill="#12263f"/>
    <path id="Trazado_114131" data-name="Trazado 114131" d="M1.722,0H-.531V-10.888L-3.854-9.755v-1.9L1.434-13.6h.289Z" transform="translate(1218.298 823.902)" fill="#12263f"/>
    <path id="Trazado_114132" data-name="Trazado 114132" d="M-25.84,0h-2.253V-10.888l-3.323,1.133v-1.9l5.287-1.945h.289Zm11.729-10.072.065,1.052a3.624,3.624,0,0,1,2.9-1.238A2.784,2.784,0,0,1-8.378-8.713a3.572,3.572,0,0,1,3.09-1.545,3.14,3.14,0,0,1,2.481.922,4.057,4.057,0,0,1,.833,2.718V0H-4.235V-6.553a2,2,0,0,0-.419-1.406,1.834,1.834,0,0,0-1.387-.447A1.883,1.883,0,0,0-7.3-7.991a2.185,2.185,0,0,0-.684,1.084L-7.977,0h-2.262V-6.628a1.614,1.614,0,0,0-1.815-1.778A1.991,1.991,0,0,0-13.981-7.3V0h-2.262V-10.072ZM4.785.186A4.68,4.68,0,0,1,1.3-1.168,4.913,4.913,0,0,1-.037-4.775v-.279A6.044,6.044,0,0,1,.545-7.749,4.428,4.428,0,0,1,2.178-9.6a4.319,4.319,0,0,1,2.346-.661A3.953,3.953,0,0,1,7.7-8.945,5.55,5.55,0,0,1,8.824-5.231v.912H2.243a3.025,3.025,0,0,0,.833,1.973,2.5,2.5,0,0,0,1.838.726A3.063,3.063,0,0,0,7.447-2.876L8.666-1.713a4.072,4.072,0,0,1-1.615,1.4A5.056,5.056,0,0,1,4.785.186Zm-.27-8.629a1.9,1.9,0,0,0-1.5.652,3.377,3.377,0,0,0-.731,1.815H6.59v-.168a2.749,2.749,0,0,0-.605-1.717A1.89,1.89,0,0,0,4.515-8.443Zm8.9-4.077v2.448h1.778V-8.4H13.414v5.622a1.238,1.238,0,0,0,.228.833,1.057,1.057,0,0,0,.814.256,3.484,3.484,0,0,0,.791-.093v1.75a5.571,5.571,0,0,1-1.489.214q-2.606,0-2.606-2.876V-8.4H9.495v-1.676h1.657V-12.52Zm8.778,4.515a5.6,5.6,0,0,0-.922-.074,2.075,2.075,0,0,0-2.094,1.191V0H16.914V-10.072h2.16l.056,1.126A2.549,2.549,0,0,1,21.4-10.258a2.118,2.118,0,0,1,.8.13Zm.67,2.876A5.939,5.939,0,0,1,23.448-7.8,4.283,4.283,0,0,1,25.1-9.62a4.642,4.642,0,0,1,2.439-.638,4.4,4.4,0,0,1,3.309,1.312,5.162,5.162,0,0,1,1.373,3.481l.009.531a5.992,5.992,0,0,1-.572,2.662A4.232,4.232,0,0,1,30.015-.456a4.676,4.676,0,0,1-2.462.642,4.369,4.369,0,0,1-3.412-1.42,5.437,5.437,0,0,1-1.28-3.784Zm2.262.2A4.058,4.058,0,0,0,25.766-2.5a2.088,2.088,0,0,0,1.787.88,2.065,2.065,0,0,0,1.783-.894,4.483,4.483,0,0,0,.638-2.616,4.006,4.006,0,0,0-.656-2.42,2.1,2.1,0,0,0-1.783-.894,2.076,2.076,0,0,0-1.759.88A4.4,4.4,0,0,0,25.124-4.934Z" transform="translate(1044 889.265)" fill="#12263f"/>
    <path id="Trazado_114133" data-name="Trazado 114133" d="M-9.113,0h-2.253V-10.888l-3.323,1.133v-1.9L-9.4-13.6h.289ZM4.431-5.706A7.391,7.391,0,0,1,3.337-1.3,3.863,3.863,0,0,1,.009.186,3.914,3.914,0,0,1-3.3-1.261,7.078,7.078,0,0,1-4.44-5.548V-7.894a7.28,7.28,0,0,1,1.094-4.384A3.9,3.9,0,0,1-.009-13.739a3.921,3.921,0,0,1,3.318,1.424A7.058,7.058,0,0,1,4.431-8.052ZM2.169-8.238a5.735,5.735,0,0,0-.521-2.8,1.779,1.779,0,0,0-1.657-.889,1.778,1.778,0,0,0-1.629.842,5.3,5.3,0,0,0-.549,2.63V-5.38a5.883,5.883,0,0,0,.531,2.83A1.782,1.782,0,0,0,.009-1.62a1.751,1.751,0,0,0,1.61-.861,5.535,5.535,0,0,0,.549-2.695Zm13.1,2.532A7.391,7.391,0,0,1,14.172-1.3,3.863,3.863,0,0,1,10.844.186,3.914,3.914,0,0,1,7.535-1.261a7.078,7.078,0,0,1-1.14-4.287V-7.894a7.28,7.28,0,0,1,1.094-4.384,3.9,3.9,0,0,1,3.337-1.461,3.921,3.921,0,0,1,3.318,1.424,7.058,7.058,0,0,1,1.122,4.263ZM13-8.238a5.735,5.735,0,0,0-.521-2.8,1.779,1.779,0,0,0-1.657-.889,1.778,1.778,0,0,0-1.629.842,5.3,5.3,0,0,0-.549,2.63V-5.38a5.883,5.883,0,0,0,.531,2.83,1.782,1.782,0,0,0,1.666.931,1.751,1.751,0,0,0,1.61-.861A5.535,5.535,0,0,0,13-5.176Z" transform="translate(1218.298 889.265)" fill="#12263f"/>
    <path id="Trazado_114134" data-name="Trazado 114134" d="M-54.618-3.491a1.637,1.637,0,0,0-.628-1.378,7.56,7.56,0,0,0-2.267-.977,10.945,10.945,0,0,1-2.606-1.1,3.478,3.478,0,0,1-1.852-3.035,3.3,3.3,0,0,1,1.336-2.7,5.406,5.406,0,0,1,3.467-1.061,5.857,5.857,0,0,1,2.523.521A4.14,4.14,0,0,1-52.9-11.733,3.808,3.808,0,0,1-52.272-9.6h-2.346a2.124,2.124,0,0,0-.666-1.662,2.747,2.747,0,0,0-1.9-.6,2.869,2.869,0,0,0-1.792.493,1.643,1.643,0,0,0-.638,1.378,1.486,1.486,0,0,0,.689,1.243,7.935,7.935,0,0,0,2.271.968,10.448,10.448,0,0,1,2.541,1.07,4.042,4.042,0,0,1,1.406,1.378,3.588,3.588,0,0,1,.447,1.82,3.225,3.225,0,0,1-1.3,2.695,5.632,5.632,0,0,1-3.523,1,6.621,6.621,0,0,1-2.7-.545,4.542,4.542,0,0,1-1.918-1.5A3.746,3.746,0,0,1-62.39-4.1h2.355a2.192,2.192,0,0,0,.763,1.787,3.343,3.343,0,0,0,2.188.633,2.9,2.9,0,0,0,1.848-.5A1.607,1.607,0,0,0-54.618-3.491ZM-48.009,0h-2.262V-10.072h2.262Zm-2.4-12.687a1.2,1.2,0,0,1,.33-.866,1.248,1.248,0,0,1,.945-.344,1.264,1.264,0,0,1,.949.344,1.191,1.191,0,0,1,.335.866,1.164,1.164,0,0,1-.335.852,1.274,1.274,0,0,1-.949.34,1.258,1.258,0,0,1-.945-.34A1.173,1.173,0,0,1-50.41-12.687ZM-39.9-2.737a1.025,1.025,0,0,0-.5-.922,5.3,5.3,0,0,0-1.652-.559,8.494,8.494,0,0,1-1.927-.614A2.572,2.572,0,0,1-45.672-7.2a2.681,2.681,0,0,1,1.1-2.178,4.342,4.342,0,0,1,2.793-.875,4.518,4.518,0,0,1,2.918.894,2.836,2.836,0,0,1,1.112,2.318h-2.262A1.394,1.394,0,0,0-40.5-8.131a1.855,1.855,0,0,0-1.285-.433A2,2,0,0,0-43-8.219a1.086,1.086,0,0,0-.47.922.917.917,0,0,0,.438.81,6.016,6.016,0,0,0,1.769.582,8.372,8.372,0,0,1,2.09.7,2.959,2.959,0,0,1,1.126.973,2.481,2.481,0,0,1,.368,1.378A2.624,2.624,0,0,1-38.8-.656a4.8,4.8,0,0,1-2.951.842,5.208,5.208,0,0,1-2.206-.447,3.631,3.631,0,0,1-1.508-1.229,2.908,2.908,0,0,1-.54-1.685h2.2a1.594,1.594,0,0,0,.605,1.233,2.351,2.351,0,0,0,1.48.433,2.287,2.287,0,0,0,1.359-.34A1.052,1.052,0,0,0-39.9-2.737Zm7.028-9.783v2.448H-31.1V-8.4h-1.778v5.622a1.238,1.238,0,0,0,.228.833,1.057,1.057,0,0,0,.814.256,3.485,3.485,0,0,0,.791-.093v1.75a5.571,5.571,0,0,1-1.489.214q-2.606,0-2.606-2.876V-8.4h-1.657v-1.676h1.657V-12.52ZM-24.933.186a4.68,4.68,0,0,1-3.486-1.354,4.913,4.913,0,0,1-1.336-3.607v-.279a6.044,6.044,0,0,1,.582-2.695A4.428,4.428,0,0,1-27.539-9.6a4.319,4.319,0,0,1,2.346-.661,3.953,3.953,0,0,1,3.179,1.312,5.55,5.55,0,0,1,1.122,3.714v.912h-6.581a3.025,3.025,0,0,0,.833,1.973A2.5,2.5,0,0,0-24.8-1.62a3.063,3.063,0,0,0,2.532-1.257l1.219,1.164a4.072,4.072,0,0,1-1.615,1.4A5.056,5.056,0,0,1-24.933.186Zm-.27-8.629a1.9,1.9,0,0,0-1.5.652,3.377,3.377,0,0,0-.731,1.815h4.31v-.168a2.749,2.749,0,0,0-.605-1.717A1.89,1.89,0,0,0-25.2-8.443Zm8.191-1.629.065,1.052a3.624,3.624,0,0,1,2.9-1.238,2.784,2.784,0,0,1,2.765,1.545,3.572,3.572,0,0,1,3.09-1.545,3.14,3.14,0,0,1,2.481.922,4.057,4.057,0,0,1,.833,2.718V0H-7.135V-6.553a2,2,0,0,0-.419-1.406,1.834,1.834,0,0,0-1.387-.447,1.883,1.883,0,0,0-1.261.414,2.185,2.185,0,0,0-.684,1.084L-10.877,0h-2.262V-6.628a1.614,1.614,0,0,0-1.815-1.778A1.991,1.991,0,0,0-16.881-7.3V0h-2.262V-10.072ZM3.467,0a3.491,3.491,0,0,1-.261-.94A3.521,3.521,0,0,1,.563.186,3.553,3.553,0,0,1-1.913-.68,2.77,2.77,0,0,1-2.872-2.82a2.86,2.86,0,0,1,1.2-2.471,5.8,5.8,0,0,1,3.421-.861H3.132v-.661a1.764,1.764,0,0,0-.437-1.252,1.734,1.734,0,0,0-1.331-.47A1.992,1.992,0,0,0,.1-8.15,1.2,1.2,0,0,0-.4-7.168H-2.658a2.51,2.51,0,0,1,.549-1.55A3.659,3.659,0,0,1-.614-9.848a5.248,5.248,0,0,1,2.108-.41,4.226,4.226,0,0,1,2.82.889,3.17,3.17,0,0,1,1.08,2.5v4.543A5.148,5.148,0,0,0,5.776-.158V0ZM.982-1.629a2.573,2.573,0,0,0,1.261-.326,2.177,2.177,0,0,0,.889-.875v-1.9H1.913a3.334,3.334,0,0,0-1.89.438A1.417,1.417,0,0,0-.61-3.053,1.322,1.322,0,0,0-.177-2.015,1.676,1.676,0,0,0,.982-1.629ZM15.215,0H12.869V-13.553h2.346ZM19.99-10.072l.065,1.164a3.621,3.621,0,0,1,2.932-1.35q3.146,0,3.2,3.6V0H23.928V-6.525a2.074,2.074,0,0,0-.414-1.42,1.742,1.742,0,0,0-1.354-.461A2.18,2.18,0,0,0,20.12-7.168V0H17.858V-10.072ZM28.1-5.11a5.891,5.891,0,0,1,1.1-3.747,3.54,3.54,0,0,1,2.928-1.4,3.317,3.317,0,0,1,2.709,1.2l.1-1.015h2.039V-.307A4.059,4.059,0,0,1,35.745,2.82a4.7,4.7,0,0,1-3.328,1.145A5.364,5.364,0,0,1,30.253,3.5,3.846,3.846,0,0,1,28.647,2.3L29.717.94a3.233,3.233,0,0,0,2.569,1.238,2.5,2.5,0,0,0,1.778-.61,2.337,2.337,0,0,0,.652-1.792V-.9A3.33,3.33,0,0,1,32.11.186a3.532,3.532,0,0,1-2.89-1.406A6.082,6.082,0,0,1,28.1-5.11Zm2.253.2a4.055,4.055,0,0,0,.619,2.388,1.99,1.99,0,0,0,1.717.87A2.177,2.177,0,0,0,34.716-2.83V-7.261a2.146,2.146,0,0,0-2.011-1.145,2,2,0,0,0-1.736.884A4.54,4.54,0,0,0,30.35-4.915ZM41.707,0H39.445V-14.3h2.262Zm6.9.186a4.68,4.68,0,0,1-3.486-1.354,4.913,4.913,0,0,1-1.336-3.607v-.279a6.044,6.044,0,0,1,.582-2.695A4.428,4.428,0,0,1,46-9.6a4.319,4.319,0,0,1,2.346-.661,3.953,3.953,0,0,1,3.179,1.312,5.55,5.55,0,0,1,1.122,3.714v.912H46.063A3.025,3.025,0,0,0,46.9-2.346a2.5,2.5,0,0,0,1.838.726,3.063,3.063,0,0,0,2.532-1.257l1.219,1.164a4.072,4.072,0,0,1-1.615,1.4A5.056,5.056,0,0,1,48.6.186Zm-.27-8.629a1.9,1.9,0,0,0-1.5.652A3.377,3.377,0,0,0,46.1-5.976h4.31v-.168a2.749,2.749,0,0,0-.605-1.717A1.89,1.89,0,0,0,48.334-8.443Zm.512-5.855h2.578l-2.578,2.82-1.815,0Zm11.2,11.561a1.025,1.025,0,0,0-.5-.922,5.3,5.3,0,0,0-1.652-.559,8.494,8.494,0,0,1-1.927-.614A2.572,2.572,0,0,1,54.273-7.2a2.681,2.681,0,0,1,1.1-2.178,4.342,4.342,0,0,1,2.793-.875,4.518,4.518,0,0,1,2.918.894,2.836,2.836,0,0,1,1.112,2.318H59.933a1.394,1.394,0,0,0-.484-1.084,1.855,1.855,0,0,0-1.285-.433,2,2,0,0,0-1.215.344,1.086,1.086,0,0,0-.47.922.917.917,0,0,0,.438.81,6.016,6.016,0,0,0,1.769.582,8.372,8.372,0,0,1,2.09.7,2.959,2.959,0,0,1,1.126.973,2.481,2.481,0,0,1,.368,1.378,2.624,2.624,0,0,1-1.126,2.2,4.8,4.8,0,0,1-2.951.842,5.208,5.208,0,0,1-2.206-.447,3.631,3.631,0,0,1-1.508-1.229,2.908,2.908,0,0,1-.54-1.685h2.2a1.594,1.594,0,0,0,.605,1.233,2.351,2.351,0,0,0,1.48.433,2.287,2.287,0,0,0,1.359-.34A1.052,1.052,0,0,0,60.045-2.737Z" transform="translate(869.702 987.307)" fill="#12263f"/>
    <path id="Trazado_114135" data-name="Trazado 114135" d="M-34.846,0H-37.1V-10.888l-3.323,1.133v-1.9l5.287-1.945h.289Zm18.422-4.934a6,6,0,0,1-1.061,3.728A3.4,3.4,0,0,1-20.334.186,3.421,3.421,0,0,1-22.987-.9V3.872h-2.262V-10.072h2.085l.093,1.024a3.322,3.322,0,0,1,2.709-1.21,3.433,3.433,0,0,1,2.89,1.373,6.157,6.157,0,0,1,1.047,3.812Zm-2.253-.2a4.2,4.2,0,0,0-.6-2.392A1.952,1.952,0,0,0-21-8.406a2.081,2.081,0,0,0-1.992,1.145v4.468A2.1,2.1,0,0,0-20.977-1.62a1.95,1.95,0,0,0,1.689-.87A4.624,4.624,0,0,0-18.678-5.129ZM-8.41-.987A3.508,3.508,0,0,1-11.24.186a3.127,3.127,0,0,1-2.481-.959,4.079,4.079,0,0,1-.842-2.774v-6.525H-12.3v6.5q0,1.918,1.592,1.918A2.235,2.235,0,0,0-8.485-2.839v-7.233h2.262V0H-8.354Zm6.9.987H-3.775V-14.3h2.262ZM.554-5.11a5.891,5.891,0,0,1,1.1-3.747,3.54,3.54,0,0,1,2.928-1.4,3.317,3.317,0,0,1,2.709,1.2l.1-1.015H9.434V-.307A4.059,4.059,0,0,1,8.2,2.82,4.7,4.7,0,0,1,4.873,3.965,5.364,5.364,0,0,1,2.709,3.5,3.846,3.846,0,0,1,1.1,2.3L2.174.94A3.233,3.233,0,0,0,4.743,2.178a2.5,2.5,0,0,0,1.778-.61A2.337,2.337,0,0,0,7.172-.223V-.9A3.33,3.33,0,0,1,4.566.186a3.532,3.532,0,0,1-2.89-1.406A6.082,6.082,0,0,1,.554-5.11Zm2.253.2a4.055,4.055,0,0,0,.619,2.388,1.99,1.99,0,0,0,1.717.87A2.177,2.177,0,0,0,7.172-2.83V-7.261A2.146,2.146,0,0,0,5.162-8.406a2,2,0,0,0-1.736.884A4.54,4.54,0,0,0,2.807-4.915ZM17.775,0a3.491,3.491,0,0,1-.261-.94A3.521,3.521,0,0,1,14.87.186,3.553,3.553,0,0,1,12.394-.68a2.77,2.77,0,0,1-.959-2.141,2.86,2.86,0,0,1,1.2-2.471,5.8,5.8,0,0,1,3.421-.861h1.387v-.661A1.764,1.764,0,0,0,17-8.066a1.734,1.734,0,0,0-1.331-.47A1.992,1.992,0,0,0,14.4-8.15a1.2,1.2,0,0,0-.493.982H11.65a2.51,2.51,0,0,1,.549-1.55,3.659,3.659,0,0,1,1.494-1.131,5.248,5.248,0,0,1,2.108-.41,4.226,4.226,0,0,1,2.82.889,3.17,3.17,0,0,1,1.08,2.5v4.543a5.148,5.148,0,0,0,.382,2.169V0ZM15.289-1.629a2.573,2.573,0,0,0,1.261-.326,2.177,2.177,0,0,0,.889-.875v-1.9H16.22a3.334,3.334,0,0,0-1.89.438A1.417,1.417,0,0,0,13.7-3.053a1.322,1.322,0,0,0,.433,1.038A1.676,1.676,0,0,0,15.289-1.629ZM21.647-5.11a5.988,5.988,0,0,1,1.08-3.737,3.46,3.46,0,0,1,2.895-1.41,3.287,3.287,0,0,1,2.588,1.117V-14.3h2.262V0H28.424l-.112-1.043A3.334,3.334,0,0,1,25.6.186a3.44,3.44,0,0,1-2.862-1.424A6.207,6.207,0,0,1,21.647-5.11Zm2.262.2a4.192,4.192,0,0,0,.591,2.4,1.918,1.918,0,0,0,1.68.861,2.136,2.136,0,0,0,2.029-1.238V-7.2A2.1,2.1,0,0,0,26.2-8.406a1.932,1.932,0,0,0-1.694.87A4.669,4.669,0,0,0,23.909-4.915ZM38.849,0a3.491,3.491,0,0,1-.261-.94A3.521,3.521,0,0,1,35.945.186,3.553,3.553,0,0,1,33.469-.68,2.77,2.77,0,0,1,32.51-2.82a2.86,2.86,0,0,1,1.2-2.471,5.8,5.8,0,0,1,3.421-.861h1.387v-.661a1.764,1.764,0,0,0-.437-1.252,1.734,1.734,0,0,0-1.331-.47,1.992,1.992,0,0,0-1.266.386,1.2,1.2,0,0,0-.493.982H32.724a2.51,2.51,0,0,1,.549-1.55,3.659,3.659,0,0,1,1.494-1.131,5.248,5.248,0,0,1,2.108-.41,4.226,4.226,0,0,1,2.82.889,3.17,3.17,0,0,1,1.08,2.5v4.543a5.148,5.148,0,0,0,.382,2.169V0ZM36.364-1.629a2.573,2.573,0,0,0,1.261-.326,2.177,2.177,0,0,0,.889-.875v-1.9H37.295a3.334,3.334,0,0,0-1.89.438,1.417,1.417,0,0,0-.633,1.238A1.322,1.322,0,0,0,35.2-2.015,1.676,1.676,0,0,0,36.364-1.629Z" transform="translate(1044 954.626)" fill="#12263f"/>
    <path id="Trazado_114136" data-name="Trazado 114136" d="M-8.787,0H-17.9V-1.555l4.515-4.924A11.242,11.242,0,0,0-11.994-8.3a2.949,2.949,0,0,0,.414-1.466,2.228,2.228,0,0,0-.545-1.564,1.889,1.889,0,0,0-1.466-.6,2.177,2.177,0,0,0-1.7.67A2.636,2.636,0,0,0-15.9-9.42h-2.262A4.433,4.433,0,0,1-17.6-11.65a3.878,3.878,0,0,1,1.61-1.541,5.126,5.126,0,0,1,2.416-.549,4.585,4.585,0,0,1,3.114.991,3.441,3.441,0,0,1,1.14,2.741A4.652,4.652,0,0,1-9.89-7.88a12.1,12.1,0,0,1-1.876,2.527L-15.08-1.806h6.293Zm3.277-2.383a1.292,1.292,0,0,1,.977.358,1.245,1.245,0,0,1,.344.9,1.2,1.2,0,0,1-.344.88A1.312,1.312,0,0,1-5.511.1a1.316,1.316,0,0,1-.959-.344,1.18,1.18,0,0,1-.354-.884,1.245,1.245,0,0,1,.344-.9A1.28,1.28,0,0,1-5.511-2.383Zm4.375-4.338L-.4-13.553H6.879V-11.6H1.48L1.108-8.359A4.185,4.185,0,0,1,3.23-8.9,3.776,3.776,0,0,1,6.241-7.661,4.906,4.906,0,0,1,7.316-4.328,4.516,4.516,0,0,1,6.125-1.038,4.349,4.349,0,0,1,2.858.186,4.554,4.554,0,0,1-.228-.87,3.82,3.82,0,0,1-1.555-3.658H.633A2.389,2.389,0,0,0,1.34-2.146a2.152,2.152,0,0,0,1.508.526,1.944,1.944,0,0,0,1.624-.745,3.214,3.214,0,0,0,.582-2.029,2.84,2.84,0,0,0-.642-1.959,2.246,2.246,0,0,0-1.769-.721A2.942,2.942,0,0,0,1.6-6.912a2.953,2.953,0,0,0-.931.638Zm17.882,1.89h1.685v1.815H16.746V0H14.484V-3.016H8.629L8.564-4.394l5.846-9.16h2.336Zm-5.809,0h3.547v-5.66l-.168.3Z" transform="translate(1218.298 954.626)" fill="#12263f"/>
    <path id="Trazado_114137" data-name="Trazado 114137" d="M-11.193,0h-2.253V-10.888l-3.323,1.133v-1.9l5.287-1.945h.289ZM2.481-4.934A6,6,0,0,1,1.42-1.205,3.4,3.4,0,0,1-1.429.186,3.421,3.421,0,0,1-4.082-.9V3.872H-6.344V-10.072h2.085l.093,1.024a3.322,3.322,0,0,1,2.709-1.21,3.433,3.433,0,0,1,2.89,1.373A6.157,6.157,0,0,1,2.481-5.073Zm-2.253-.2a4.2,4.2,0,0,0-.6-2.392A1.952,1.952,0,0,0-2.09-8.406,2.081,2.081,0,0,0-4.082-7.261v4.468A2.1,2.1,0,0,0-2.071-1.62,1.95,1.95,0,0,0-.382-2.49,4.624,4.624,0,0,0,.228-5.129ZM6.8,0H4.538V-10.072H6.8ZM4.4-12.687a1.2,1.2,0,0,1,.33-.866,1.248,1.248,0,0,1,.945-.344,1.264,1.264,0,0,1,.949.344,1.191,1.191,0,0,1,.335.866,1.164,1.164,0,0,1-.335.852,1.274,1.274,0,0,1-.949.34,1.258,1.258,0,0,1-.945-.34A1.173,1.173,0,0,1,4.4-12.687ZM13.7.186a4.68,4.68,0,0,1-3.486-1.354A4.913,4.913,0,0,1,8.876-4.775v-.279a6.044,6.044,0,0,1,.582-2.695A4.428,4.428,0,0,1,11.091-9.6a4.319,4.319,0,0,1,2.346-.661,3.953,3.953,0,0,1,3.179,1.312,5.55,5.55,0,0,1,1.122,3.714v.912H11.156a3.025,3.025,0,0,0,.833,1.973,2.5,2.5,0,0,0,1.838.726A3.063,3.063,0,0,0,16.36-2.876l1.219,1.164a4.072,4.072,0,0,1-1.615,1.4A5.056,5.056,0,0,1,13.7.186Zm-.27-8.629a1.9,1.9,0,0,0-1.5.652,3.377,3.377,0,0,0-.731,1.815H15.5v-.168A2.749,2.749,0,0,0,14.9-7.861,1.89,1.89,0,0,0,13.428-8.443Z" transform="translate(1044 1020.577)" fill="#12263f"/>
    <path id="Trazado_114138" data-name="Trazado 114138" d="M-20.7-7.81h1.378a2.465,2.465,0,0,0,1.652-.54,1.926,1.926,0,0,0,.61-1.536,2.1,2.1,0,0,0-.507-1.5,2.042,2.042,0,0,0-1.55-.535,2.16,2.16,0,0,0-1.5.526,1.757,1.757,0,0,0-.586,1.373h-2.262a3.424,3.424,0,0,1,.554-1.9,3.721,3.721,0,0,1,1.545-1.336,5.034,5.034,0,0,1,2.22-.479,4.662,4.662,0,0,1,3.188,1.019A3.577,3.577,0,0,1-14.8-9.886a2.88,2.88,0,0,1-.582,1.717,3.648,3.648,0,0,1-1.5,1.215,3.325,3.325,0,0,1,1.7,1.2A3.288,3.288,0,0,1-14.605-3.8a3.64,3.64,0,0,1-1.252,2.9A4.861,4.861,0,0,1-19.148.186a4.824,4.824,0,0,1-3.2-1.043A3.433,3.433,0,0,1-23.6-3.63h2.262a1.892,1.892,0,0,0,.6,1.452,2.277,2.277,0,0,0,1.615.559,2.349,2.349,0,0,0,1.657-.559,2.1,2.1,0,0,0,.605-1.62,2.117,2.117,0,0,0-.633-1.648,2.706,2.706,0,0,0-1.88-.577H-20.7Zm17.053,2.1A7.391,7.391,0,0,1-4.743-1.3,3.863,3.863,0,0,1-8.07.186,3.914,3.914,0,0,1-11.38-1.261a7.078,7.078,0,0,1-1.14-4.287V-7.894a7.28,7.28,0,0,1,1.094-4.384,3.9,3.9,0,0,1,3.337-1.461,3.921,3.921,0,0,1,3.318,1.424A7.058,7.058,0,0,1-3.649-8.052ZM-5.911-8.238a5.735,5.735,0,0,0-.521-2.8,1.779,1.779,0,0,0-1.657-.889,1.778,1.778,0,0,0-1.629.842,5.3,5.3,0,0,0-.549,2.63V-5.38a5.883,5.883,0,0,0,.531,2.83A1.782,1.782,0,0,0-8.07-1.62a1.751,1.751,0,0,0,1.61-.861,5.535,5.535,0,0,0,.549-2.695ZM-.093-2.383a1.292,1.292,0,0,1,.977.358,1.245,1.245,0,0,1,.344.9,1.2,1.2,0,0,1-.344.88A1.312,1.312,0,0,1-.093.1a1.316,1.316,0,0,1-.959-.344,1.18,1.18,0,0,1-.354-.884,1.245,1.245,0,0,1,.344-.9A1.28,1.28,0,0,1-.093-2.383ZM11.328-4.831h1.685v1.815H11.328V0H9.066V-3.016H3.211L3.146-4.394l5.846-9.16h2.336Zm-5.809,0H9.066v-5.66l-.168.3ZM23.048-9.979a3.151,3.151,0,0,1-.512,1.773,3.551,3.551,0,0,1-1.4,1.224,3.868,3.868,0,0,1,1.634,1.35A3.4,3.4,0,0,1,23.346-3.7a3.556,3.556,0,0,1-1.21,2.834A4.75,4.75,0,0,1,18.915.186,4.769,4.769,0,0,1,15.68-.866,3.553,3.553,0,0,1,14.465-3.7a3.444,3.444,0,0,1,.577-1.955,3.707,3.707,0,0,1,1.62-1.331A3.531,3.531,0,0,1,15.28-8.205a3.172,3.172,0,0,1-.507-1.773,3.526,3.526,0,0,1,1.117-2.746,4.315,4.315,0,0,1,3.016-1.015,4.329,4.329,0,0,1,3.025,1.015A3.526,3.526,0,0,1,23.048-9.979ZM21.084-3.807a2.234,2.234,0,0,0-.6-1.624A2.11,2.11,0,0,0,18.9-6.051a2.088,2.088,0,0,0-1.578.614,2.251,2.251,0,0,0-.591,1.629,2.18,2.18,0,0,0,.582,1.592,2.141,2.141,0,0,0,1.606.6,2.148,2.148,0,0,0,1.6-.577A2.187,2.187,0,0,0,21.084-3.807ZM20.8-9.895a2.1,2.1,0,0,0-.512-1.457,1.756,1.756,0,0,0-1.378-.572,1.771,1.771,0,0,0-1.368.545,2.1,2.1,0,0,0-.5,1.485,2.1,2.1,0,0,0,.507,1.48,1.778,1.778,0,0,0,1.373.549,1.778,1.778,0,0,0,1.373-.549A2.1,2.1,0,0,0,20.8-9.895Z" transform="translate(1218.298 1019.988)" fill="#12263f"/>
  </g>
</svg>
