<svg xmlns="http://www.w3.org/2000/svg" width="642" height="402" viewBox="0 0 642 402">
  <g id="_3" data-name="3" transform="translate(-723 -1289.843)">
    <rect id="Imagen_1" data-name="Imagen 1" width="642" height="402" rx="19" transform="translate(723 1289.843)" fill="#fff"/>
    <path id="Trazado_114139" data-name="Trazado 114139" d="M21.554,0A21.554,21.554,0,1,1,0,21.554,21.554,21.554,0,0,1,21.554,0Z" transform="translate(1025.331 1470.729)" opacity="0.2" style="mix-blend-mode: multiply;isolation: isolate"/>
    <path id="Trazado_114140" data-name="Trazado 114140" d="M21.554,0A21.554,21.554,0,1,1,0,21.554,21.554,21.554,0,0,1,21.554,0Z" transform="translate(1184.14 1629.438)" opacity="0.2" style="mix-blend-mode: multiply;isolation: isolate"/>
    <path id="Trazado_114141" data-name="Trazado 114141" d="M21.554,0A21.554,21.554,0,1,1,0,21.554,21.554,21.554,0,0,1,21.554,0Z" transform="translate(1131.052 1579.146)" opacity="0.2" style="mix-blend-mode: multiply;isolation: isolate"/>
    <path id="Trazado_114142" data-name="Trazado 114142" d="M21.554,0A21.554,21.554,0,1,1,0,21.554,21.554,21.554,0,0,1,21.554,0Z" transform="translate(1078.191 1523.596)" opacity="0.2" style="mix-blend-mode: multiply;isolation: isolate"/>
    <path id="Trazado_114143" data-name="Trazado 114143" d="M21.554,0A21.554,21.554,0,1,1,0,21.554,21.554,21.554,0,0,1,21.554,0Z" transform="translate(972.47 1417.862)" opacity="0.2" style="mix-blend-mode: multiply;isolation: isolate"/>
    <path id="Trazado_114144" data-name="Trazado 114144" d="M21.554,0A21.554,21.554,0,1,1,0,21.554,21.554,21.554,0,0,1,21.554,0Z" transform="translate(919.608 1364.996)" opacity="0.2" style="mix-blend-mode: multiply;isolation: isolate"/>
    <path id="Trazado_114145" data-name="Trazado 114145" d="M21.554,0A21.554,21.554,0,1,1,0,21.554,21.554,21.554,0,0,1,21.554,0Z" transform="translate(866.323 1311.872)" opacity="0.2" style="mix-blend-mode: multiply;isolation: isolate"/>
    <path id="Trazado_113841" data-name="Trazado 113841" d="M379.111,378.86H326.523V326.309H273.936V273.757H221.349V221.206H168.762V168.654H116.174V116.1H63.587V63.551H11V11" transform="translate(849.575 1295.843)" fill="none" stroke="#ff9500" stroke-linecap="round" stroke-linejoin="round" stroke-width="4"/>
    <path id="Trazado_114146" data-name="Trazado 114146" d="M21.554,0A21.554,21.554,0,1,1,0,21.554,21.554,21.554,0,0,1,21.554,0Z" transform="translate(1181.984 1628.002)" fill="#076279"/>
    <path id="Trazado_114147" data-name="Trazado 114147" d="M-11.214-8.981l.091,1.054a3.088,3.088,0,0,1,2.565-1.22,2.273,2.273,0,0,1,2.3,1.353,2.989,2.989,0,0,1,2.64-1.353q2.731,0,2.806,3.3V0H-3.619V-5.669a1.712,1.712,0,0,0-.232-1A.989.989,0,0,0-4.7-6.989a1.325,1.325,0,0,0-1.237.739l.008.116V0H-8.732V-5.653a1.8,1.8,0,0,0-.224-1.021.987.987,0,0,0-.855-.315,1.342,1.342,0,0,0-1.229.739V0h-2.8V-8.981Zm14.643,0L3.52-7.927a3.088,3.088,0,0,1,2.565-1.22,2.273,2.273,0,0,1,2.3,1.353,2.989,2.989,0,0,1,2.64-1.353q2.731,0,2.806,3.3V0H11.023V-5.669a1.712,1.712,0,0,0-.232-1,.989.989,0,0,0-.847-.315,1.325,1.325,0,0,0-1.237.739l.008.116V0H5.91V-5.653a1.8,1.8,0,0,0-.224-1.021.987.987,0,0,0-.855-.315A1.342,1.342,0,0,0,3.6-6.25V0H.805V-8.981Z" transform="translate(1203.451 1654.07)" fill="#fff"/>
    <path id="Trazado_114148" data-name="Trazado 114148" d="M21.554,0A21.554,21.554,0,1,1,0,21.554,21.554,21.554,0,0,1,21.554,0Z" transform="translate(1128.787 1574.951)" fill="#076279"/>
    <path id="Trazado_114149" data-name="Trazado 114149" d="M-7.155-1.992a1.244,1.244,0,0,0,.913-.32A1.172,1.172,0,0,0-5.927-3.2H-3.3A3.105,3.105,0,0,1-4.362-.78,3.937,3.937,0,0,1-7.089.166a3.986,3.986,0,0,1-3.088-1.229,4.841,4.841,0,0,1-1.129-3.4v-.116a5.471,5.471,0,0,1,.5-2.4,3.656,3.656,0,0,1,1.448-1.6,4.319,4.319,0,0,1,2.241-.56,3.887,3.887,0,0,1,2.781.971A3.445,3.445,0,0,1-3.3-5.545H-5.927a1.536,1.536,0,0,0-.34-1.071,1.175,1.175,0,0,0-.913-.374q-1.087,0-1.27,1.386a9.781,9.781,0,0,0-.058,1.212,3.842,3.842,0,0,0,.324,1.876A1.121,1.121,0,0,0-7.155-1.992ZM.523-8.981.614-7.927a3.088,3.088,0,0,1,2.565-1.22,2.273,2.273,0,0,1,2.3,1.353,2.989,2.989,0,0,1,2.64-1.353q2.731,0,2.806,3.3V0H8.118V-5.669a1.712,1.712,0,0,0-.232-1,.989.989,0,0,0-.847-.315A1.325,1.325,0,0,0,5.8-6.25l.008.116V0H3V-5.653a1.8,1.8,0,0,0-.224-1.021.987.987,0,0,0-.855-.315A1.342,1.342,0,0,0,.7-6.25V0H-2.1V-8.981Z" transform="translate(1150.127 1601.02)" fill="#fff"/>
    <path id="Trazado_114150" data-name="Trazado 114150" d="M21.554,0A21.554,21.554,0,1,1,0,21.554,21.554,21.554,0,0,1,21.554,0Z" transform="translate(1075.926 1522.085)" fill="#076279"/>
    <path id="Trazado_114151" data-name="Trazado 114151" d="M-11.671-4.557a5.486,5.486,0,0,1,.921-3.362A3.033,3.033,0,0,1-8.176-9.147,2.579,2.579,0,0,1-6.151-8.2V-12.75h2.806V0H-5.86L-6-.963A2.649,2.649,0,0,1-8.193.166a3.027,3.027,0,0,1-2.54-1.229A5.66,5.66,0,0,1-11.671-4.557Zm2.8.174q0,2.391,1.395,2.391a1.377,1.377,0,0,0,1.328-.78v-3.42a1.34,1.34,0,0,0-1.312-.8q-1.295,0-1.4,2.092Zm9.762-4.6L.979-7.927a3.088,3.088,0,0,1,2.565-1.22,2.273,2.273,0,0,1,2.3,1.353,2.989,2.989,0,0,1,2.64-1.353q2.731,0,2.806,3.3V0H8.483V-5.669a1.712,1.712,0,0,0-.232-1A.989.989,0,0,0,7.4-6.989a1.325,1.325,0,0,0-1.237.739l.008.116V0H3.37V-5.653a1.8,1.8,0,0,0-.224-1.021.987.987,0,0,0-.855-.315,1.342,1.342,0,0,0-1.229.739V0h-2.8V-8.981Z" transform="translate(1097.266 1548.153)" fill="#fff"/>
    <path id="Trazado_114152" data-name="Trazado 114152" d="M21.554,0A21.554,21.554,0,1,1,0,21.554,21.554,21.554,0,0,1,21.554,0Z" transform="translate(1023.065 1469.219)" fill="#ff9500"/>
    <path id="Trazado_114153" data-name="Trazado 114153" d="M-3.893-8.981-3.8-7.927a3.088,3.088,0,0,1,2.565-1.22,2.273,2.273,0,0,1,2.3,1.353A2.989,2.989,0,0,1,3.7-9.147q2.731,0,2.806,3.3V0H3.7V-5.669a1.712,1.712,0,0,0-.232-1,.989.989,0,0,0-.847-.315,1.325,1.325,0,0,0-1.237.739l.008.116V0H-1.411V-5.653a1.8,1.8,0,0,0-.224-1.021.987.987,0,0,0-.855-.315,1.342,1.342,0,0,0-1.229.739V0h-2.8V-8.981Z" transform="translate(1044.435 1495.287)" fill="#12263f"/>
    <path id="Trazado_114154" data-name="Trazado 114154" d="M21.554,0A21.554,21.554,0,1,1,0,21.554,21.554,21.554,0,0,1,21.554,0Z" transform="translate(970.204 1416.352)" fill="#aadfed"/>
    <path id="Trazado_114155" data-name="Trazado 114155" d="M-15.23-4.289a5.164,5.164,0,0,1,.867-3.164,2.854,2.854,0,0,1,2.422-1.156,2.428,2.428,0,0,1,1.906.891V-12h2.641V0H-9.762l-.133-.906A2.493,2.493,0,0,1-11.957.156,2.849,2.849,0,0,1-14.348-1,5.327,5.327,0,0,1-15.23-4.289Zm2.633.164q0,2.25,1.313,2.25a1.3,1.3,0,0,0,1.25-.734V-5.828a1.261,1.261,0,0,0-1.234-.75q-1.219,0-1.32,1.969ZM-1.137,0a2.973,2.973,0,0,1-.25-.758A2.448,2.448,0,0,1-3.418.156,3,3,0,0,1-5.449-.566a2.3,2.3,0,0,1-.836-1.816A2.364,2.364,0,0,1-5.27-4.461a5.174,5.174,0,0,1,2.953-.7H-1.5v-.448q0-1.17-1.008-1.17a.824.824,0,0,0-.937.926H-6.082a2.36,2.36,0,0,1,1.043-1.99,4.383,4.383,0,0,1,2.66-.765A3.843,3.843,0,0,1,.176-7.82a2.743,2.743,0,0,1,.961,2.164v3.742A3.832,3.832,0,0,0,1.5-.133V0ZM-2.785-1.719a1.469,1.469,0,0,0,.816-.211A1.322,1.322,0,0,0-1.5-2.406V-3.758H-2.27q-1.375,0-1.375,1.234a.754.754,0,0,0,.242.582A.876.876,0,0,0-2.785-1.719ZM5.082-8.453l.086.992A2.906,2.906,0,0,1,7.582-8.609,2.14,2.14,0,0,1,9.746-7.336,2.813,2.813,0,0,1,12.23-8.609q2.57,0,2.641,3.109V0H12.23V-5.336a1.611,1.611,0,0,0-.219-.945.931.931,0,0,0-.8-.3,1.247,1.247,0,0,0-1.164.7l.008.109V0H7.418V-5.32a1.694,1.694,0,0,0-.211-.961.929.929,0,0,0-.8-.3,1.263,1.263,0,0,0-1.156.7V0H2.613V-8.453Z" transform="translate(991.233 1441.42)" fill="#16303d"/>
    <path id="Trazado_114156" data-name="Trazado 114156" d="M21.554,0A21.554,21.554,0,1,1,0,21.554,21.554,21.554,0,0,1,21.554,0Z" transform="translate(917.343 1363.485)" fill="#aadfed"/>
    <path id="Trazado_114157" data-name="Trazado 114157" d="M-8.6-8.019A2.8,2.8,0,0,1-6.309-9.147a2.792,2.792,0,0,1,2.241.88,3.954,3.954,0,0,1,.772,2.6V0H-6.1V-5.6a1.581,1.581,0,0,0-.291-1.05,1.248,1.248,0,0,0-.988-.336,1.345,1.345,0,0,0-1.22.548V0h-2.8V-12.75h2.8ZM.9-8.981,1-7.927a3.088,3.088,0,0,1,2.565-1.22,2.273,2.273,0,0,1,2.3,1.353A2.989,2.989,0,0,1,8.5-9.147q2.731,0,2.806,3.3V0H8.5V-5.669a1.712,1.712,0,0,0-.232-1,.989.989,0,0,0-.847-.315,1.325,1.325,0,0,0-1.237.739l.008.116V0H3.387V-5.653a1.8,1.8,0,0,0-.224-1.021.987.987,0,0,0-.855-.315,1.342,1.342,0,0,0-1.229.739V0h-2.8V-8.981Z" transform="translate(938.684 1389.555)" fill="#16303d"/>
    <path id="Trazado_114158" data-name="Trazado 114158" d="M21.554,0A21.554,21.554,0,1,1,0,21.554,21.554,21.554,0,0,1,21.554,0Z" transform="translate(864.167 1310.436)" fill="#aadfed"/>
    <path id="Trazado_114159" data-name="Trazado 114159" d="M-7.579-3.345l-.789.789V0h-2.8V-12.758h2.8v6.773l.282-.374,2.108-2.623h3.354L-5.769-5.288-2.416,0h-3.2ZM.755-8.981.847-7.927a3.088,3.088,0,0,1,2.565-1.22,2.273,2.273,0,0,1,2.3,1.353,2.989,2.989,0,0,1,2.64-1.353q2.731,0,2.806,3.3V0H8.351V-5.669a1.712,1.712,0,0,0-.232-1,.989.989,0,0,0-.847-.315,1.325,1.325,0,0,0-1.237.739l.008.116V0H3.237V-5.653a1.8,1.8,0,0,0-.224-1.021.987.987,0,0,0-.855-.315A1.342,1.342,0,0,0,.93-6.25V0h-2.8V-8.981Z" transform="translate(885.508 1336.504)" fill="#16303d"/>
    <path id="Trazado_114160" data-name="Trazado 114160" d="M32.331,0A32.331,32.331,0,1,1,0,32.331,32.331,32.331,0,0,1,32.331,0Z" transform="translate(1107.019 1363.692)" fill="#546e7a"/>
    <path id="Trazado_114161" data-name="Trazado 114161" d="M-9.795-6.508l1.3-2.474h2.905L-7.952-4.607-5.47,0H-8.392L-9.8-2.656-11.189,0h-2.938l2.49-4.607L-14-8.981h2.938ZM1.469,0H-1.336V-8.932l-2.756.805v-2.125l5.3-1.834h.257ZM13.505-4.939a5.771,5.771,0,0,1-1.1,3.777A3.8,3.8,0,0,1,9.305.166,3.821,3.821,0,0,1,6.184-1.17a5.762,5.762,0,0,1-1.1-3.769V-7.147a5.771,5.771,0,0,1,1.1-3.777,3.81,3.81,0,0,1,3.109-1.328A3.812,3.812,0,0,1,12.4-10.916a5.776,5.776,0,0,1,1.1,3.777ZM10.708-7.5a4.311,4.311,0,0,0-.34-1.947,1.138,1.138,0,0,0-1.079-.643,1.111,1.111,0,0,0-1.05.6,4.061,4.061,0,0,0-.353,1.81V-4.6a4.343,4.343,0,0,0,.34,1.98,1.142,1.142,0,0,0,1.079.627,1.127,1.127,0,0,0,1.054-.61,4.146,4.146,0,0,0,.349-1.913Z" transform="translate(1145.254 1392.465)" fill="#fff"/>
    <path id="Trazado_113842" data-name="Trazado 113842" d="M379.009,143.979l.154-6.643a1.078,1.078,0,1,0-2.155-.05l-.1,4.125-22.878-22.878a1.078,1.078,0,0,0-1.524,1.524l22.878,22.879-4.125.1a1.078,1.078,0,0,0,.05,2.155l6.644-.154A1.079,1.079,0,0,0,379.009,143.979Z" transform="translate(766.46 1268.623)" fill="#fff"/>
    <path id="Trazado_114162" data-name="Trazado 114162" d="M32.331,0A32.331,32.331,0,1,1,0,32.331,32.331,32.331,0,0,1,32.331,0Z" transform="translate(917.555 1553.19)" fill="#546e7a"/>
    <path id="Trazado_114163" data-name="Trazado 114163" d="M-2.905,0H-5.711V-8.932l-2.756.805v-2.125l5.3-1.834h.257ZM9.131-4.939a5.771,5.771,0,0,1-1.1,3.777A3.8,3.8,0,0,1,4.931.166,3.821,3.821,0,0,1,1.81-1.17a5.762,5.762,0,0,1-1.1-3.769V-7.147a5.771,5.771,0,0,1,1.1-3.777,3.81,3.81,0,0,1,3.109-1.328,3.812,3.812,0,0,1,3.113,1.336,5.776,5.776,0,0,1,1.1,3.777ZM6.333-7.5a4.311,4.311,0,0,0-.34-1.947,1.138,1.138,0,0,0-1.079-.643,1.111,1.111,0,0,0-1.05.6,4.061,4.061,0,0,0-.353,1.81V-4.6a4.343,4.343,0,0,0,.34,1.98,1.142,1.142,0,0,0,1.079.627A1.127,1.127,0,0,0,5.985-2.6a4.146,4.146,0,0,0,.349-1.913Z" transform="translate(944.987 1597.952)" fill="#fff"/>
    <path id="Trazado_113843" data-name="Trazado 113843" d="M107.855,391.023H101.08a.879.879,0,1,0,0,1.759h6.775a.879.879,0,1,0,0-1.759Z" transform="translate(827.557 1201.7)" fill="#fff"/>
    <path id="Trazado_114164" data-name="Trazado 114164" d="M1.6,0A1.6,1.6,0,1,1,0,1.6,1.6,1.6,0,0,1,1.6,0Z" transform="translate(930.427 1588.556)" fill="#fff"/>
    <path id="Trazado_113844" data-name="Trazado 113844" d="M105.513,394.825a1.6,1.6,0,1,0,1.6,1.6A1.6,1.6,0,0,0,105.513,394.825Z" transform="translate(826.512 1200.63)" fill="#fff"/>
    <path id="Trazado_113845" data-name="Trazado 113845" d="M124.417,357.672l-.154,6.644a1.078,1.078,0,0,0,2.155.05l.1-4.126,22.879,22.879a1.078,1.078,0,0,0,1.524-1.525l-22.878-22.878,4.126-.1a1.078,1.078,0,0,0-.05-2.155l-6.644.154A1.079,1.079,0,0,0,124.417,357.672Z" transform="translate(820.783 1211.429)" fill="#fff"/>
    <path id="Trazado_114165" data-name="Trazado 114165" d="M-9.795-6.508l1.3-2.474h2.905L-7.952-4.607-5.47,0H-8.392L-9.8-2.656-11.189,0h-2.938l2.49-4.607L-14-8.981h2.938ZM1.469,0H-1.336V-8.932l-2.756.805v-2.125l5.3-1.834h.257ZM13.505-4.939a5.771,5.771,0,0,1-1.1,3.777A3.8,3.8,0,0,1,9.305.166,3.821,3.821,0,0,1,6.184-1.17a5.762,5.762,0,0,1-1.1-3.769V-7.147a5.771,5.771,0,0,1,1.1-3.777,3.81,3.81,0,0,1,3.109-1.328A3.812,3.812,0,0,1,12.4-10.916a5.776,5.776,0,0,1,1.1,3.777ZM10.708-7.5a4.311,4.311,0,0,0-.34-1.947,1.138,1.138,0,0,0-1.079-.643,1.111,1.111,0,0,0-1.05.6,4.061,4.061,0,0,0-.353,1.81V-4.6a4.343,4.343,0,0,0,.34,1.98,1.142,1.142,0,0,0,1.079.627,1.127,1.127,0,0,0,1.054-.61,4.146,4.146,0,0,0,.349-1.913Z" transform="translate(952.372 1324.661)" fill="#1e4051"/>
    <path id="Trazado_113846" data-name="Trazado 113846" d="M113.983,48.979a1.436,1.436,0,0,0-2.03-.088l-1.494,1.371a16.807,16.807,0,0,0-.949-5.421,36.345,36.345,0,0,0-8.893-13.571A37.458,37.458,0,0,0,87.946,22.7a1.437,1.437,0,0,0-1.017,2.688A34.562,34.562,0,0,1,98.586,33.3a33.451,33.451,0,0,1,8.2,12.448c.964,2.893,1.04,5.373.276,7.094l-3.976-4.333a1.437,1.437,0,1,0-2.117,1.943l5.215,5.684.014.013a.1.1,0,0,1,.011.014c.016.015.033.025.049.04a1.434,1.434,0,0,0,.924.4h.061a1.442,1.442,0,0,0,.972-.378l5.684-5.216A1.437,1.437,0,0,0,113.983,48.979Z" transform="translate(831.405 1292.576)" fill="#c3ccd1"/>
    <path id="Trazado_114166" data-name="Trazado 114166" d="M-9.795-6.508l1.3-2.474h2.905L-7.952-4.607-5.47,0H-8.392L-9.8-2.656-11.189,0h-2.938l2.49-4.607L-14-8.981h2.938ZM1.469,0H-1.336V-8.932l-2.756.805v-2.125l5.3-1.834h.257ZM13.505-4.939a5.771,5.771,0,0,1-1.1,3.777A3.8,3.8,0,0,1,9.305.166,3.821,3.821,0,0,1,6.184-1.17a5.762,5.762,0,0,1-1.1-3.769V-7.147a5.771,5.771,0,0,1,1.1-3.777,3.81,3.81,0,0,1,3.109-1.328A3.812,3.812,0,0,1,12.4-10.916a5.776,5.776,0,0,1,1.1,3.777ZM10.708-7.5a4.311,4.311,0,0,0-.34-1.947,1.138,1.138,0,0,0-1.079-.643,1.111,1.111,0,0,0-1.05.6,4.061,4.061,0,0,0-.353,1.81V-4.6a4.343,4.343,0,0,0,.34,1.98,1.142,1.142,0,0,0,1.079.627,1.127,1.127,0,0,0,1.054-.61,4.146,4.146,0,0,0,.349-1.913Z" transform="translate(1005.288 1374.955)" fill="#1e4051"/>
    <path id="Trazado_113847" data-name="Trazado 113847" d="M183.983,118.978a1.437,1.437,0,0,0-2.03-.087l-1.494,1.371a16.807,16.807,0,0,0-.949-5.421,36.345,36.345,0,0,0-8.893-13.571A37.447,37.447,0,0,0,157.946,92.7a1.437,1.437,0,0,0-1.017,2.687,34.554,34.554,0,0,1,11.657,7.917,33.451,33.451,0,0,1,8.2,12.448c.964,2.893,1.04,5.373.276,7.094l-3.976-4.333a1.437,1.437,0,1,0-2.117,1.943l5.215,5.684c0,.005.009.008.014.012s.007.009.011.014.033.026.049.04a1.434,1.434,0,0,0,.924.4h.061a1.44,1.44,0,0,0,.972-.379l5.684-5.215A1.438,1.438,0,0,0,183.983,118.978Z" transform="translate(814.321 1272.87)" fill="#c3ccd1"/>
    <path id="Trazado_114167" data-name="Trazado 114167" d="M-9.795-6.508l1.3-2.474h2.905L-7.952-4.607-5.47,0H-8.392L-9.8-2.656-11.189,0h-2.938l2.49-4.607L-14-8.981h2.938ZM1.469,0H-1.336V-8.932l-2.756.805v-2.125l5.3-1.834h.257ZM13.505-4.939a5.771,5.771,0,0,1-1.1,3.777A3.8,3.8,0,0,1,9.305.166,3.821,3.821,0,0,1,6.184-1.17a5.762,5.762,0,0,1-1.1-3.769V-7.147a5.771,5.771,0,0,1,1.1-3.777,3.81,3.81,0,0,1,3.109-1.328A3.812,3.812,0,0,1,12.4-10.916a5.776,5.776,0,0,1,1.1,3.777ZM10.708-7.5a4.311,4.311,0,0,0-.34-1.947,1.138,1.138,0,0,0-1.079-.643,1.111,1.111,0,0,0-1.05.6,4.061,4.061,0,0,0-.353,1.81V-4.6a4.343,4.343,0,0,0,.34,1.98,1.142,1.142,0,0,0,1.079.627,1.127,1.127,0,0,0,1.054-.61,4.146,4.146,0,0,0,.349-1.913Z" transform="translate(1058.204 1430.443)" fill="#1e4051"/>
    <path id="Trazado_113848" data-name="Trazado 113848" d="M253.983,188.979a1.436,1.436,0,0,0-2.03-.088l-1.494,1.371a16.807,16.807,0,0,0-.949-5.421,36.345,36.345,0,0,0-8.893-13.571,37.458,37.458,0,0,0-12.672-8.572,1.437,1.437,0,0,0-1.017,2.688,34.563,34.563,0,0,1,11.657,7.916,33.451,33.451,0,0,1,8.2,12.448c.964,2.893,1.04,5.373.276,7.094l-3.976-4.333a1.437,1.437,0,0,0-2.117,1.943l5.215,5.684c0,.005.009.008.014.012s.007.01.011.014.033.026.049.04a1.434,1.434,0,0,0,.924.4h.061a1.44,1.44,0,0,0,.972-.379l5.684-5.215A1.437,1.437,0,0,0,253.983,188.979Z" transform="translate(797.237 1258.358)" fill="#c3ccd1"/>
    <path id="Trazado_114168" data-name="Trazado 114168" d="M-9.795-6.508l1.3-2.474h2.905L-7.952-4.607-5.47,0H-8.392L-9.8-2.656-11.189,0h-2.938l2.49-4.607L-14-8.981h2.938ZM1.469,0H-1.336V-8.932l-2.756.805v-2.125l5.3-1.834h.257ZM13.505-4.939a5.771,5.771,0,0,1-1.1,3.777A3.8,3.8,0,0,1,9.305.166,3.821,3.821,0,0,1,6.184-1.17a5.762,5.762,0,0,1-1.1-3.769V-7.147a5.771,5.771,0,0,1,1.1-3.777,3.81,3.81,0,0,1,3.109-1.328A3.812,3.812,0,0,1,12.4-10.916a5.776,5.776,0,0,1,1.1,3.777ZM10.708-7.5a4.311,4.311,0,0,0-.34-1.947,1.138,1.138,0,0,0-1.079-.643,1.111,1.111,0,0,0-1.05.6,4.061,4.061,0,0,0-.353,1.81V-4.6a4.343,4.343,0,0,0,.34,1.98,1.142,1.142,0,0,0,1.079.627,1.127,1.127,0,0,0,1.054-.61,4.146,4.146,0,0,0,.349-1.913Z" transform="translate(1111.12 1483.289)" fill="#1e4051"/>
    <path id="Trazado_113849" data-name="Trazado 113849" d="M323.983,258.978a1.437,1.437,0,0,0-2.03-.087l-1.494,1.371a16.808,16.808,0,0,0-.949-5.421,36.345,36.345,0,0,0-8.893-13.571,37.458,37.458,0,0,0-12.672-8.572,1.437,1.437,0,0,0-1.017,2.688,34.552,34.552,0,0,1,11.657,7.916,33.451,33.451,0,0,1,8.2,12.448c.964,2.893,1.04,5.373.276,7.094l-3.976-4.333a1.437,1.437,0,1,0-2.117,1.943l5.215,5.684c0,.005.009.008.014.012s.007.01.011.014.033.026.049.04a1.434,1.434,0,0,0,.924.4h.061a1.44,1.44,0,0,0,.972-.379l5.684-5.215A1.438,1.438,0,0,0,323.983,258.978Z" transform="translate(780.153 1241.204)" fill="#c3ccd1"/>
    <path id="Trazado_114169" data-name="Trazado 114169" d="M-9.795-6.508l1.3-2.474h2.905L-7.952-4.607-5.47,0H-8.392L-9.8-2.656-11.189,0h-2.938l2.49-4.607L-14-8.981h2.938ZM1.469,0H-1.336V-8.932l-2.756.805v-2.125l5.3-1.834h.257ZM13.505-4.939a5.771,5.771,0,0,1-1.1,3.777A3.8,3.8,0,0,1,9.305.166,3.821,3.821,0,0,1,6.184-1.17a5.762,5.762,0,0,1-1.1-3.769V-7.147a5.771,5.771,0,0,1,1.1-3.777,3.81,3.81,0,0,1,3.109-1.328A3.812,3.812,0,0,1,12.4-10.916a5.776,5.776,0,0,1,1.1,3.777ZM10.708-7.5a4.311,4.311,0,0,0-.34-1.947,1.138,1.138,0,0,0-1.079-.643,1.111,1.111,0,0,0-1.05.6,4.061,4.061,0,0,0-.353,1.81V-4.6a4.343,4.343,0,0,0,.34,1.98,1.142,1.142,0,0,0,1.079.627,1.127,1.127,0,0,0,1.054-.61,4.146,4.146,0,0,0,.349-1.913Z" transform="translate(1166.659 1536.134)" fill="#1e4051"/>
    <path id="Trazado_113850" data-name="Trazado 113850" d="M393.983,328.978a1.437,1.437,0,0,0-2.03-.087l-1.494,1.371a16.807,16.807,0,0,0-.949-5.421,36.344,36.344,0,0,0-8.893-13.571,37.458,37.458,0,0,0-12.672-8.572,1.437,1.437,0,0,0-1.017,2.688,34.552,34.552,0,0,1,11.657,7.916,33.451,33.451,0,0,1,8.2,12.448c.964,2.893,1.04,5.373.276,7.094l-3.976-4.333a1.437,1.437,0,1,0-2.117,1.943l5.215,5.684c0,.005.009.008.014.012s.007.01.011.014.033.026.049.04a1.434,1.434,0,0,0,.924.4h.061a1.44,1.44,0,0,0,.972-.379l5.684-5.215A1.438,1.438,0,0,0,393.983,328.978Z" transform="translate(765.691 1224.049)" fill="#c3ccd1"/>
    <path id="Trazado_114170" data-name="Trazado 114170" d="M-9.795-6.508l1.3-2.474h2.905L-7.952-4.607-5.47,0H-8.392L-9.8-2.656-11.189,0h-2.938l2.49-4.607L-14-8.981h2.938ZM1.469,0H-1.336V-8.932l-2.756.805v-2.125l5.3-1.834h.257ZM13.505-4.939a5.771,5.771,0,0,1-1.1,3.777A3.8,3.8,0,0,1,9.305.166,3.821,3.821,0,0,1,6.184-1.17a5.762,5.762,0,0,1-1.1-3.769V-7.147a5.771,5.771,0,0,1,1.1-3.777,3.81,3.81,0,0,1,3.109-1.328A3.812,3.812,0,0,1,12.4-10.916a5.776,5.776,0,0,1,1.1,3.777ZM10.708-7.5a4.311,4.311,0,0,0-.34-1.947,1.138,1.138,0,0,0-1.079-.643,1.111,1.111,0,0,0-1.05.6,4.061,4.061,0,0,0-.353,1.81V-4.6a4.343,4.343,0,0,0,.34,1.98,1.142,1.142,0,0,0,1.079.627,1.127,1.127,0,0,0,1.054-.61,4.146,4.146,0,0,0,.349-1.913Z" transform="translate(1216.952 1588.979)" fill="#1e4051"/>
    <path id="Trazado_113851" data-name="Trazado 113851" d="M463.983,398.978a1.437,1.437,0,0,0-2.03-.087l-1.494,1.371a16.807,16.807,0,0,0-.949-5.421,36.345,36.345,0,0,0-8.893-13.571,37.447,37.447,0,0,0-12.672-8.572,1.437,1.437,0,0,0-1.017,2.687,34.555,34.555,0,0,1,11.657,7.917,33.446,33.446,0,0,1,8.2,12.448c.964,2.893,1.04,5.373.276,7.093l-3.976-4.332a1.437,1.437,0,0,0-2.117,1.943l5.215,5.684c0,.005.009.008.014.012s.007.009.011.014.033.026.049.04a1.434,1.434,0,0,0,.924.4h.061a1.44,1.44,0,0,0,.972-.379l5.684-5.216A1.437,1.437,0,0,0,463.983,398.978Z" transform="translate(745.985 1206.894)" fill="#c3ccd1"/>
    <path id="Trazado_114171" data-name="Trazado 114171" d="M-2.905,0H-5.711V-8.932l-2.756.805v-2.125l5.3-1.834h.257ZM9.131-4.939a5.771,5.771,0,0,1-1.1,3.777A3.8,3.8,0,0,1,4.931.166,3.821,3.821,0,0,1,1.81-1.17a5.762,5.762,0,0,1-1.1-3.769V-7.147a5.771,5.771,0,0,1,1.1-3.777,3.81,3.81,0,0,1,3.109-1.328,3.812,3.812,0,0,1,3.113,1.336,5.776,5.776,0,0,1,1.1,3.777ZM6.333-7.5a4.311,4.311,0,0,0-.34-1.947,1.138,1.138,0,0,0-1.079-.643,1.111,1.111,0,0,0-1.05.6,4.061,4.061,0,0,0-.353,1.81V-4.6a4.343,4.343,0,0,0,.34,1.98,1.142,1.142,0,0,0,1.079.627A1.127,1.127,0,0,0,5.985-2.6a4.146,4.146,0,0,0,.349-1.913Z" transform="translate(1139.791 1665.912)" fill="#1e4051"/>
    <path id="Trazado_113852" data-name="Trazado 113852" d="M365.071,481.488H358.3a.879.879,0,1,0,0,1.759h6.775a.879.879,0,1,0,0-1.759Z" transform="translate(765.146 1179.195)" fill="#1e4051"/>
    <path id="Trazado_114172" data-name="Trazado 114172" d="M1.6,0A1.6,1.6,0,1,1,0,1.6,1.6,1.6,0,0,1,1.6,0Z" transform="translate(1125.231 1656.516)" fill="#1e4051"/>
    <path id="Trazado_113853" data-name="Trazado 113853" d="M362.729,485.29a1.6,1.6,0,1,0,1.6,1.6A1.6,1.6,0,0,0,362.729,485.29Z" transform="translate(764.1 1178.125)" fill="#1e4051"/>
    <path id="Trazado_113854" data-name="Trazado 113854" d="M386.9,447.773a1.436,1.436,0,0,0,2.03.087l1.494-1.37a16.81,16.81,0,0,0,.949,5.421,36.345,36.345,0,0,0,8.893,13.571,37.445,37.445,0,0,0,12.672,8.571,1.437,1.437,0,0,0,1.017-2.687A34.563,34.563,0,0,1,402.3,463.45,33.454,33.454,0,0,1,394.1,451c-.964-2.893-1.04-5.373-.276-7.093l3.976,4.333a1.437,1.437,0,1,0,2.117-1.944l-5.215-5.684s-.009-.007-.014-.012a.168.168,0,0,1-.011-.014c-.016-.015-.033-.025-.049-.04a1.431,1.431,0,0,0-.924-.4h-.061a1.439,1.439,0,0,0-.972.378l-5.684,5.216A1.437,1.437,0,0,0,386.9,447.773Z" transform="translate(756.95 1190.834)" fill="#c3ccd1"/>
    <path id="Trazado_114173" data-name="Trazado 114173" d="M-2.905,0H-5.711V-8.932l-2.756.805v-2.125l5.3-1.834h.257ZM9.131-4.939a5.771,5.771,0,0,1-1.1,3.777A3.8,3.8,0,0,1,4.931.166,3.821,3.821,0,0,1,1.81-1.17a5.762,5.762,0,0,1-1.1-3.769V-7.147a5.771,5.771,0,0,1,1.1-3.777,3.81,3.81,0,0,1,3.109-1.328,3.812,3.812,0,0,1,3.113,1.336,5.776,5.776,0,0,1,1.1,3.777ZM6.333-7.5a4.311,4.311,0,0,0-.34-1.947,1.138,1.138,0,0,0-1.079-.643,1.111,1.111,0,0,0-1.05.6,4.061,4.061,0,0,0-.353,1.81V-4.6a4.343,4.343,0,0,0,.34,1.98,1.142,1.142,0,0,0,1.079.627A1.127,1.127,0,0,0,5.985-2.6a4.146,4.146,0,0,0,.349-1.913Z" transform="translate(1086.878 1612.873)" fill="#1e4051"/>
    <path id="Trazado_113855" data-name="Trazado 113855" d="M295.071,411.488H288.3a.879.879,0,1,0,0,1.758h6.775a.879.879,0,1,0,0-1.758Z" transform="translate(782.233 1196.156)" fill="#1e4051"/>
    <path id="Trazado_114174" data-name="Trazado 114174" d="M1.6,0A1.6,1.6,0,1,1,0,1.6,1.6,1.6,0,0,1,1.6,0Z" transform="translate(1072.319 1603.477)" fill="#1e4051"/>
    <path id="Trazado_113856" data-name="Trazado 113856" d="M292.729,415.289a1.6,1.6,0,1,0,1.6,1.6A1.6,1.6,0,0,0,292.729,415.289Z" transform="translate(781.188 1195.086)" fill="#1e4051"/>
    <path id="Trazado_113857" data-name="Trazado 113857" d="M316.9,377.773a1.437,1.437,0,0,0,2.03.087l1.494-1.371a16.814,16.814,0,0,0,.949,5.422,36.348,36.348,0,0,0,8.893,13.57,37.447,37.447,0,0,0,12.672,8.572,1.437,1.437,0,0,0,1.017-2.687,34.555,34.555,0,0,1-11.657-7.917A33.446,33.446,0,0,1,324.1,381c-.964-2.893-1.04-5.373-.276-7.093l3.976,4.332a1.437,1.437,0,0,0,2.117-1.943l-5.215-5.684-.014-.012a.168.168,0,0,1-.011-.014c-.016-.015-.033-.026-.049-.04a1.432,1.432,0,0,0-.924-.4h-.061a1.439,1.439,0,0,0-.972.378l-5.684,5.216A1.437,1.437,0,0,0,316.9,377.773Z" transform="translate(774.038 1207.795)" fill="#c3ccd1"/>
    <path id="Trazado_114175" data-name="Trazado 114175" d="M-2.905,0H-5.711V-8.932l-2.756.805v-2.125l5.3-1.834h.257ZM9.131-4.939a5.771,5.771,0,0,1-1.1,3.777A3.8,3.8,0,0,1,4.931.166,3.821,3.821,0,0,1,1.81-1.17a5.762,5.762,0,0,1-1.1-3.769V-7.147a5.771,5.771,0,0,1,1.1-3.777,3.81,3.81,0,0,1,3.109-1.328,3.812,3.812,0,0,1,3.113,1.336,5.776,5.776,0,0,1,1.1,3.777ZM6.333-7.5a4.311,4.311,0,0,0-.34-1.947,1.138,1.138,0,0,0-1.079-.643,1.111,1.111,0,0,0-1.05.6,4.061,4.061,0,0,0-.353,1.81V-4.6a4.343,4.343,0,0,0,.34,1.98,1.142,1.142,0,0,0,1.079.627A1.127,1.127,0,0,0,5.985-2.6a4.146,4.146,0,0,0,.349-1.913Z" transform="translate(1033.966 1560.034)" fill="#1e4051"/>
    <path id="Trazado_113858" data-name="Trazado 113858" d="M225.071,341.487H218.3a.879.879,0,1,0,0,1.759h6.775a.879.879,0,0,0,0-1.759Z" transform="translate(799.321 1213.318)" fill="#1e4051"/>
    <path id="Trazado_114176" data-name="Trazado 114176" d="M1.6,0A1.6,1.6,0,1,1,0,1.6,1.6,1.6,0,0,1,1.6,0Z" transform="translate(1019.406 1550.638)" fill="#1e4051"/>
    <path id="Trazado_113859" data-name="Trazado 113859" d="M222.729,345.289a1.6,1.6,0,1,0,1.6,1.6A1.6,1.6,0,0,0,222.729,345.289Z" transform="translate(798.274 1212.247)" fill="#1e4051"/>
    <path id="Trazado_113860" data-name="Trazado 113860" d="M246.9,307.773a1.437,1.437,0,0,0,2.03.087l1.494-1.371a16.808,16.808,0,0,0,.949,5.421,36.344,36.344,0,0,0,8.893,13.571,37.457,37.457,0,0,0,12.672,8.572,1.437,1.437,0,0,0,1.017-2.687,34.565,34.565,0,0,1-11.657-7.917A33.451,33.451,0,0,1,254.1,311c-.964-2.893-1.04-5.373-.276-7.094l3.976,4.333a1.437,1.437,0,1,0,2.117-1.943l-5.215-5.684c0-.005-.009-.008-.014-.012s-.007-.01-.011-.014-.033-.026-.049-.04a1.434,1.434,0,0,0-.924-.4h-.061a1.44,1.44,0,0,0-.972.379l-5.684,5.215A1.438,1.438,0,0,0,246.9,307.773Z" transform="translate(791.125 1224.955)" fill="#c3ccd1"/>
    <path id="Trazado_114177" data-name="Trazado 114177" d="M-2.905,0H-5.711V-8.932l-2.756.805v-2.125l5.3-1.834h.257ZM9.131-4.939a5.771,5.771,0,0,1-1.1,3.777A3.8,3.8,0,0,1,4.931.166,3.821,3.821,0,0,1,1.81-1.17a5.762,5.762,0,0,1-1.1-3.769V-7.147a5.771,5.771,0,0,1,1.1-3.777,3.81,3.81,0,0,1,3.109-1.328,3.812,3.812,0,0,1,3.113,1.336,5.776,5.776,0,0,1,1.1,3.777ZM6.333-7.5a4.311,4.311,0,0,0-.34-1.947,1.138,1.138,0,0,0-1.079-.643,1.111,1.111,0,0,0-1.05.6,4.061,4.061,0,0,0-.353,1.81V-4.6a4.343,4.343,0,0,0,.34,1.98,1.142,1.142,0,0,0,1.079.627A1.127,1.127,0,0,0,5.985-2.6a4.146,4.146,0,0,0,.349-1.913Z" transform="translate(981.054 1507.195)" fill="#1e4051"/>
    <path id="Trazado_113861" data-name="Trazado 113861" d="M155.071,271.488H148.3a.879.879,0,1,0,0,1.758h6.775a.879.879,0,1,0,0-1.758Z" transform="translate(816.409 1230.479)" fill="#1e4051"/>
    <path id="Trazado_114178" data-name="Trazado 114178" d="M1.6,0A1.6,1.6,0,1,1,0,1.6,1.6,1.6,0,0,1,1.6,0Z" transform="translate(966.494 1497.799)" fill="#1e4051"/>
    <path id="Trazado_113862" data-name="Trazado 113862" d="M152.729,275.289a1.6,1.6,0,1,0,1.6,1.6A1.6,1.6,0,0,0,152.729,275.289Z" transform="translate(815.362 1229.408)" fill="#1e4051"/>
    <path id="Trazado_113863" data-name="Trazado 113863" d="M176.9,237.773a1.437,1.437,0,0,0,2.03.087l1.494-1.371a16.815,16.815,0,0,0,.949,5.422,36.348,36.348,0,0,0,8.893,13.57,37.448,37.448,0,0,0,12.672,8.572,1.437,1.437,0,0,0,1.017-2.687,34.555,34.555,0,0,1-11.657-7.917A33.446,33.446,0,0,1,184.1,241c-.964-2.893-1.04-5.373-.276-7.093l3.976,4.332a1.437,1.437,0,1,0,2.117-1.943l-5.215-5.684-.014-.012s-.007-.009-.011-.014-.033-.026-.049-.04a1.432,1.432,0,0,0-.924-.4h-.061a1.439,1.439,0,0,0-.972.378l-5.684,5.216A1.437,1.437,0,0,0,176.9,237.773Z" transform="translate(808.213 1242.116)" fill="#c3ccd1"/>
    <path id="Trazado_114179" data-name="Trazado 114179" d="M-2.905,0H-5.711V-8.932l-2.756.805v-2.125l5.3-1.834h.257ZM9.131-4.939a5.771,5.771,0,0,1-1.1,3.777A3.8,3.8,0,0,1,4.931.166,3.821,3.821,0,0,1,1.81-1.17a5.762,5.762,0,0,1-1.1-3.769V-7.147a5.771,5.771,0,0,1,1.1-3.777,3.81,3.81,0,0,1,3.109-1.328,3.812,3.812,0,0,1,3.113,1.336,5.776,5.776,0,0,1,1.1,3.777ZM6.333-7.5a4.311,4.311,0,0,0-.34-1.947,1.138,1.138,0,0,0-1.079-.643,1.111,1.111,0,0,0-1.05.6,4.061,4.061,0,0,0-.353,1.81V-4.6a4.343,4.343,0,0,0,.34,1.98,1.142,1.142,0,0,0,1.079.627A1.127,1.127,0,0,0,5.985-2.6a4.146,4.146,0,0,0,.349-1.913Z" transform="translate(875.229 1401.518)" fill="#1e4051"/>
    <path id="Trazado_113864" data-name="Trazado 113864" d="M15.071,131.488H8.3a.879.879,0,1,0,0,1.758h6.775a.879.879,0,1,0,0-1.758Z" transform="translate(850.584 1264.801)" fill="#1e4051"/>
    <path id="Trazado_114180" data-name="Trazado 114180" d="M1.6,0A1.6,1.6,0,1,1,0,1.6,1.6,1.6,0,0,1,1.6,0Z" transform="translate(860.669 1392.121)" fill="#1e4051"/>
    <path id="Trazado_113865" data-name="Trazado 113865" d="M12.729,135.289a1.6,1.6,0,1,0,1.6,1.6A1.6,1.6,0,0,0,12.729,135.289Z" transform="translate(849.538 1263.73)" fill="#1e4051"/>
    <path id="Trazado_113866" data-name="Trazado 113866" d="M36.9,97.773a1.437,1.437,0,0,0,2.03.087l1.494-1.371a16.815,16.815,0,0,0,.949,5.422,36.348,36.348,0,0,0,8.893,13.57,37.447,37.447,0,0,0,12.672,8.572,1.437,1.437,0,0,0,1.017-2.687A34.555,34.555,0,0,1,52.3,113.449,33.445,33.445,0,0,1,44.1,101c-.964-2.893-1.04-5.373-.276-7.093L47.8,98.241A1.437,1.437,0,0,0,49.921,96.3l-5.215-5.684-.014-.012s-.007-.009-.011-.014-.033-.026-.049-.04a1.431,1.431,0,0,0-.924-.4h-.061a1.439,1.439,0,0,0-.972.378l-5.684,5.216A1.437,1.437,0,0,0,36.9,97.773Z" transform="translate(842.389 1276.438)" fill="#c3ccd1"/>
    <path id="Trazado_114181" data-name="Trazado 114181" d="M-2.905,0H-5.711V-8.932l-2.756.805v-2.125l5.3-1.834h.257ZM9.131-4.939a5.771,5.771,0,0,1-1.1,3.777A3.8,3.8,0,0,1,4.931.166,3.821,3.821,0,0,1,1.81-1.17a5.762,5.762,0,0,1-1.1-3.769V-7.147a5.771,5.771,0,0,1,1.1-3.777,3.81,3.81,0,0,1,3.109-1.328,3.812,3.812,0,0,1,3.113,1.336,5.776,5.776,0,0,1,1.1,3.777ZM6.333-7.5a4.311,4.311,0,0,0-.34-1.947,1.138,1.138,0,0,0-1.079-.643,1.111,1.111,0,0,0-1.05.6,4.061,4.061,0,0,0-.353,1.81V-4.6a4.343,4.343,0,0,0,.34,1.98,1.142,1.142,0,0,0,1.079.627A1.127,1.127,0,0,0,5.985-2.6a4.146,4.146,0,0,0,.349-1.913Z" transform="translate(925.522 1454.356)" fill="#1e4051"/>
    <path id="Trazado_113867" data-name="Trazado 113867" d="M85.071,201.488H78.3a.879.879,0,1,0,0,1.758h6.775a.879.879,0,1,0,0-1.758Z" transform="translate(830.877 1247.64)" fill="#1e4051"/>
    <path id="Trazado_114182" data-name="Trazado 114182" d="M1.6,0A1.6,1.6,0,1,1,0,1.6,1.6,1.6,0,0,1,1.6,0Z" transform="translate(910.963 1444.96)" fill="#1e4051"/>
    <path id="Trazado_113868" data-name="Trazado 113868" d="M82.729,205.289a1.6,1.6,0,1,0,1.6,1.6A1.6,1.6,0,0,0,82.729,205.289Z" transform="translate(829.831 1246.569)" fill="#1e4051"/>
    <path id="Trazado_113869" data-name="Trazado 113869" d="M106.9,167.773a1.437,1.437,0,0,0,2.03.087l1.494-1.371a16.815,16.815,0,0,0,.949,5.422,36.348,36.348,0,0,0,8.893,13.57,37.447,37.447,0,0,0,12.672,8.572,1.437,1.437,0,1,0,1.017-2.687,34.555,34.555,0,0,1-11.657-7.917A33.445,33.445,0,0,1,114.1,171c-.964-2.893-1.04-5.373-.276-7.093l3.976,4.332a1.437,1.437,0,0,0,2.117-1.943l-5.215-5.684-.014-.012s-.007-.009-.011-.014-.033-.026-.049-.04a1.431,1.431,0,0,0-.924-.4h-.061a1.439,1.439,0,0,0-.972.378l-5.684,5.216A1.437,1.437,0,0,0,106.9,167.773Z" transform="translate(822.682 1259.277)" fill="#c3ccd1"/>
  </g>
</svg>
