<svg xmlns="http://www.w3.org/2000/svg" xmlns:xlink="http://www.w3.org/1999/xlink" width="312.885" height="302.885" viewBox="0 0 312.885 302.885">
  <defs>
    <filter id="Elipse_4833" x="2.166" y="7.166" width="293.553" height="293.553" filterUnits="userSpaceOnUse">
      <feOffset input="SourceAlpha"/>
      <feGaussianBlur stdDeviation="5" result="blur"/>
      <feFlood flood-opacity="0.161"/>
      <feComposite operator="in" in2="blur"/>
      <feComposite in="SourceGraphic"/>
    </filter>
    <filter id="Elipse_4834" x="195.034" y="0" width="117.851" height="117.851" filterUnits="userSpaceOnUse">
      <feOffset dy="10" input="SourceAlpha"/>
      <feGaussianBlur stdDeviation="5" result="blur-2"/>
      <feFlood flood-opacity="0.161"/>
      <feComposite operator="in" in2="blur-2"/>
      <feComposite in="SourceGraphic"/>
    </filter>
  </defs>
  <g id="_6" data-name="6" transform="translate(0 5)">
    <circle id="Elipse_4832" data-name="Elipse 4832" cx="148.943" cy="148.943" r="148.943" fill="#aadfed"/>
    <g transform="matrix(1, 0, 0, 1, 0, -5)" filter="url(#Elipse_4833)">
      <circle id="Elipse_4833-2" data-name="Elipse 4833" cx="131.776" cy="131.776" r="131.776" transform="translate(17.17 22.17)" fill="#fff"/>
    </g>
    <g transform="matrix(1, 0, 0, 1, 0, -5)" filter="url(#Elipse_4834)">
      <circle id="Elipse_4834-2" data-name="Elipse 4834" cx="43.925" cy="43.925" r="43.925" transform="translate(210.03 5)" fill="#fff"/>
    </g>
    <g id="Grupo_81019" data-name="Grupo 81019" transform="translate(31.101 26.405)">
      <g id="Grupo_80997" data-name="Grupo 80997" transform="translate(116.844 28.196)">
        <path id="Trazado_113982" data-name="Trazado 113982" d="M255.951,189.418a1.453,1.453,0,0,1-1.028-2.481l93.012-93.012a1.453,1.453,0,0,1,2.056,2.056l-93.012,93.012A1.45,1.45,0,0,1,255.951,189.418Z" transform="translate(-254.497 -93.5)" fill="red"/>
      </g>
      <g id="Grupo_80998" data-name="Grupo 80998" transform="translate(194.798 7.871)">
        <path id="Trazado_113983" data-name="Trazado 113983" d="M394.38,62.078a3.9,3.9,0,0,1-.359,1.712A2.651,2.651,0,0,1,393,64.937a2.839,2.839,0,0,1-1.506.4,2.874,2.874,0,0,1-1.5-.388,2.645,2.645,0,0,1-1.02-1.11,3.783,3.783,0,0,1-.384-1.657V61.81a3.914,3.914,0,0,1,.356-1.714,2.644,2.644,0,0,1,1.022-1.147,3.026,3.026,0,0,1,3.013,0,2.686,2.686,0,0,1,1.024,1.138,3.807,3.807,0,0,1,.37,1.692Zm-1.621-.277a2.778,2.778,0,0,0-.33-1.5,1.056,1.056,0,0,0-.942-.511q-1.2,0-1.267,1.8l0,.486a2.862,2.862,0,0,0,.322,1.494,1.057,1.057,0,0,0,.959.523,1.043,1.043,0,0,0,.931-.513,2.786,2.786,0,0,0,.332-1.476Z" transform="translate(-388.594 -58.54)" fill="red"/>
        <path id="Trazado_113984" data-name="Trazado 113984" d="M402.418,62.975h-.863v2.339h-1.594V58.7h2.6a2.908,2.908,0,0,1,1.84.521,1.77,1.77,0,0,1,.663,1.475,2.151,2.151,0,0,1-.279,1.143,1.987,1.987,0,0,1-.874.734l1.381,2.671v.068h-1.708Zm-.863-1.227h1.008a.9.9,0,0,0,.684-.24.922.922,0,0,0,.23-.666.936.936,0,0,0-.232-.672.894.894,0,0,0-.681-.243h-1.008Z" transform="translate(-393.353 -58.606)" fill="red"/>
        <path id="Trazado_113985" data-name="Trazado 113985" d="M412.175,65.314h-1.589V58.7h1.589Z" transform="translate(-397.802 -58.606)" fill="red"/>
        <path id="Trazado_113986" data-name="Trazado 113986" d="M420.549,64.428a2.564,2.564,0,0,1-1.077.659,4.662,4.662,0,0,1-1.553.249,2.774,2.774,0,0,1-2.076-.795,3.217,3.217,0,0,1-.831-2.211l0-.573a3.941,3.941,0,0,1,.345-1.705,2.551,2.551,0,0,1,.988-1.122,2.791,2.791,0,0,1,1.487-.393,2.928,2.928,0,0,1,1.919.566,2.393,2.393,0,0,1,.8,1.687h-1.535a1.247,1.247,0,0,0-.355-.79,1.139,1.139,0,0,0-.772-.237,1.041,1.041,0,0,0-.927.509,2.716,2.716,0,0,0-.331,1.453v.4a2.66,2.66,0,0,0,.338,1.488,1.2,1.2,0,0,0,1.065.5,1.342,1.342,0,0,0,.927-.277V62.806h-1.108V61.712h2.7Z" transform="translate(-399.653 -58.537)" fill="red"/>
        <path id="Trazado_113987" data-name="Trazado 113987" d="M430.234,62.507h-2.507v1.581h2.961v1.226h-4.555V58.7H430.7v1.231h-2.97v1.395h2.507Z" transform="translate(-404.311 -58.606)" fill="red"/>
        <path id="Trazado_113988" data-name="Trazado 113988" d="M440.609,65.314h-1.585L436.68,61.2v4.115h-1.594V58.7h1.594l2.339,4.115V58.7h1.589Z" transform="translate(-408.059 -58.606)" fill="red"/>
        <path id="Trazado_113989" data-name="Trazado 113989" d="M454.719,62.546a3.159,3.159,0,0,1-.6,2.066,2.352,2.352,0,0,1-3.4,0,3.157,3.157,0,0,1-.6-2.062V61.338a3.153,3.153,0,0,1,.6-2.067,2.351,2.351,0,0,1,3.4,0,3.161,3.161,0,0,1,.6,2.066Zm-1.531-1.4A2.349,2.349,0,0,0,453,60.078a.622.622,0,0,0-.591-.352.608.608,0,0,0-.574.327,2.219,2.219,0,0,0-.193.99v1.689a2.375,2.375,0,0,0,.186,1.083.625.625,0,0,0,.591.343.616.616,0,0,0,.577-.334,2.267,2.267,0,0,0,.191-1.047Z" transform="translate(-414.349 -58.54)" fill="red"/>
        <path id="Trazado_113990" data-name="Trazado 113990" d="M390.508,82.269v2.243h-1.594V77.9h2.639a3.076,3.076,0,0,1,1.342.28,2.107,2.107,0,0,1,.9.795,2.168,2.168,0,0,1,.32,1.17,1.914,1.914,0,0,1-.692,1.546,2.874,2.874,0,0,1-1.9.579Zm0-1.231h1.045a.984.984,0,0,0,.706-.232.861.861,0,0,0,.243-.654,1.065,1.065,0,0,0-.25-.74.887.887,0,0,0-.681-.281h-1.063Z" transform="translate(-388.728 -66.644)" fill="red"/>
        <path id="Trazado_113991" data-name="Trazado 113991" d="M404.5,77.9v4.329a2.489,2.489,0,0,1-.313,1.274,2.026,2.026,0,0,1-.9.82,3.158,3.158,0,0,1-1.385.282,2.739,2.739,0,0,1-1.9-.627,2.237,2.237,0,0,1-.709-1.717V77.9h1.6v4.392q.027,1.087,1.008,1.085a.977.977,0,0,0,.749-.272,1.275,1.275,0,0,0,.255-.886V77.9Z" transform="translate(-393.072 -66.644)" fill="red"/>
        <path id="Trazado_113992" data-name="Trazado 113992" d="M415.484,84.513H413.9L411.555,80.4v4.115h-1.594V77.9h1.594l2.339,4.115V77.9h1.589Z" transform="translate(-397.54 -66.644)" fill="red"/>
        <path id="Trazado_113993" data-name="Trazado 113993" d="M425.918,79.131h-1.985v5.381h-1.594V79.131h-1.948V77.9h5.527Z" transform="translate(-401.907 -66.644)" fill="red"/>
        <path id="Trazado_113994" data-name="Trazado 113994" d="M436.3,81.277a3.9,3.9,0,0,1-.359,1.713,2.653,2.653,0,0,1-1.02,1.146,2.839,2.839,0,0,1-1.506.4,2.88,2.88,0,0,1-1.5-.388,2.649,2.649,0,0,1-1.02-1.11,3.784,3.784,0,0,1-.384-1.658v-.373a3.919,3.919,0,0,1,.356-1.714,2.653,2.653,0,0,1,1.022-1.147,2.866,2.866,0,0,1,1.514-.4,2.837,2.837,0,0,1,1.5.4,2.7,2.7,0,0,1,1.024,1.138,3.806,3.806,0,0,1,.37,1.692ZM434.681,81a2.782,2.782,0,0,0-.33-1.5,1.057,1.057,0,0,0-.942-.51q-1.2,0-1.267,1.8l0,.486a2.857,2.857,0,0,0,.322,1.495,1.054,1.054,0,0,0,.959.522,1.04,1.04,0,0,0,.931-.513,2.777,2.777,0,0,0,.332-1.476Z" transform="translate(-406.146 -66.579)" fill="red"/>
        <path id="Trazado_113995" data-name="Trazado 113995" d="M451.083,82.205a2.408,2.408,0,0,1-.372,1.219,2.24,2.24,0,0,1-.956.82,3.249,3.249,0,0,1-1.406.291,2.6,2.6,0,0,1-2.053-.849,3.505,3.505,0,0,1-.749-2.4v-.327a4.005,4.005,0,0,1,.338-1.7,2.564,2.564,0,0,1,.974-1.126,2.722,2.722,0,0,1,1.471-.4,2.852,2.852,0,0,1,1.935.634,2.506,2.506,0,0,1,.831,1.746h-1.59a1.185,1.185,0,0,0-.3-.867,1.254,1.254,0,0,0-.872-.263.953.953,0,0,0-.872.445,2.872,2.872,0,0,0-.291,1.422v.467a3.16,3.16,0,0,0,.266,1.513.972.972,0,0,0,.915.454,1.223,1.223,0,0,0,.84-.259,1.1,1.1,0,0,0,.309-.822Z" transform="translate(-412.439 -66.575)" fill="red"/>
        <path id="Trazado_113996" data-name="Trazado 113996" d="M460.468,81.706h-2.507v1.581h2.961v1.226h-4.555V77.9h4.565v1.231h-2.971v1.394h2.507Z" transform="translate(-416.969 -66.644)" fill="red"/>
        <path id="Trazado_113997" data-name="Trazado 113997" d="M467.777,82.174h-.863v2.339H465.32V77.9h2.6a2.9,2.9,0,0,1,1.839.523,1.765,1.765,0,0,1,.663,1.474,2.148,2.148,0,0,1-.28,1.143,1.983,1.983,0,0,1-.874.735l1.381,2.669v.068h-1.707Zm-.863-1.226h1.009a.906.906,0,0,0,.684-.239,1.087,1.087,0,0,0,0-1.338.9.9,0,0,0-.681-.244h-1.009Z" transform="translate(-420.717 -66.644)" fill="red"/>
        <path id="Trazado_113998" data-name="Trazado 113998" d="M481.223,81.277a3.9,3.9,0,0,1-.359,1.713,2.648,2.648,0,0,1-1.019,1.146,2.841,2.841,0,0,1-1.506.4,2.88,2.88,0,0,1-1.5-.388,2.648,2.648,0,0,1-1.02-1.11,3.79,3.79,0,0,1-.384-1.658v-.373a3.92,3.92,0,0,1,.357-1.714,2.654,2.654,0,0,1,1.022-1.147,3.024,3.024,0,0,1,3.013,0,2.7,2.7,0,0,1,1.024,1.138,3.806,3.806,0,0,1,.37,1.692ZM479.6,81a2.781,2.781,0,0,0-.33-1.5,1.057,1.057,0,0,0-.942-.51q-1.2,0-1.267,1.8l0,.486a2.857,2.857,0,0,0,.322,1.495,1.054,1.054,0,0,0,.959.522,1.04,1.04,0,0,0,.931-.513A2.777,2.777,0,0,0,479.6,81.3Z" transform="translate(-424.953 -66.579)" fill="red"/>
      </g>
      <g id="Grupo_80999" data-name="Grupo 80999" transform="translate(110.451 97.955)">
        <path id="Trazado_113999" data-name="Trazado 113999" d="M256.58,216.407H244.953a1.453,1.453,0,1,1,0-2.907H256.58a1.453,1.453,0,1,1,0,2.907Z" transform="translate(-243.5 -213.5)"/>
      </g>
      <g id="Grupo_81000" data-name="Grupo 81000" transform="translate(110.451 144.461)">
        <path id="Trazado_114000" data-name="Trazado 114000" d="M256.58,296.407H244.953a1.453,1.453,0,1,1,0-2.907H256.58a1.453,1.453,0,1,1,0,2.907Z" transform="translate(-243.5 -293.5)"/>
      </g>
      <g id="Grupo_81001" data-name="Grupo 81001" transform="translate(110.451 167.714)">
        <path id="Trazado_114001" data-name="Trazado 114001" d="M256.58,336.407H244.953a1.453,1.453,0,1,1,0-2.907H256.58a1.453,1.453,0,1,1,0,2.907Z" transform="translate(-243.5 -333.5)"/>
      </g>
      <g id="Grupo_81002" data-name="Grupo 81002" transform="translate(110.451 190.967)">
        <path id="Trazado_114002" data-name="Trazado 114002" d="M256.58,376.407H244.953a1.453,1.453,0,1,1,0-2.907H256.58a1.453,1.453,0,1,1,0,2.907Z" transform="translate(-243.5 -373.5)"/>
      </g>
      <g id="Grupo_81003" data-name="Grupo 81003" transform="translate(110.451 214.22)">
        <path id="Trazado_114003" data-name="Trazado 114003" d="M256.58,416.407H244.953a1.453,1.453,0,1,1,0-2.907H256.58a1.453,1.453,0,1,1,0,2.907Z" transform="translate(-243.5 -413.5)"/>
      </g>
      <g id="Grupo_81004" data-name="Grupo 81004" transform="translate(110.451 74.702)">
        <path id="Trazado_114004" data-name="Trazado 114004" d="M256.58,176.407H244.953a1.453,1.453,0,1,1,0-2.907H256.58a1.453,1.453,0,1,1,0,2.907Z" transform="translate(-243.5 -173.5)"/>
      </g>
      <g id="Grupo_81005" data-name="Grupo 81005" transform="translate(110.451 51.449)">
        <path id="Trazado_114005" data-name="Trazado 114005" d="M256.58,136.407H244.953a1.453,1.453,0,0,1,0-2.907H256.58a1.453,1.453,0,1,1,0,2.907Z" transform="translate(-243.5 -133.5)"/>
      </g>
      <g id="Grupo_81006" data-name="Grupo 81006" transform="translate(110.451 28.196)">
        <path id="Trazado_114006" data-name="Trazado 114006" d="M256.58,96.407H244.953a1.453,1.453,0,1,1,0-2.907H256.58a1.453,1.453,0,1,1,0,2.907Z" transform="translate(-243.5 -93.5)"/>
      </g>
      <g id="Grupo_81007" data-name="Grupo 81007" transform="translate(0 121.208)">
        <path id="Trazado_114007" data-name="Trazado 114007" d="M287.483,256.407H54.953a1.453,1.453,0,1,1,0-2.907H287.483a1.453,1.453,0,1,1,0,2.907Z" transform="translate(-53.5 -253.5)" fill="#b3c2c9"/>
      </g>
      <g id="Grupo_81008" data-name="Grupo 81008" transform="translate(113.358 4.943)">
        <path id="Trazado_114008" data-name="Trazado 114008" d="M255.767,62.22a1.454,1.454,0,0,1-1.3-.8L252.86,58.2l-1.607,3.214a1.453,1.453,0,1,1-2.6-1.3L251.56,54.3a1.453,1.453,0,0,1,2.6,0l2.907,5.813a1.454,1.454,0,0,1-1.3,2.1Z" transform="translate(-248.499 -53.5)"/>
      </g>
      <g id="Grupo_81009" data-name="Grupo 81009" transform="translate(226.716 118.3)">
        <path id="Trazado_114009" data-name="Trazado 114009" d="M444.954,257.22a1.454,1.454,0,0,1-.651-2.754l3.214-1.607-3.214-1.607a1.453,1.453,0,0,1,1.3-2.6l5.813,2.907a1.453,1.453,0,0,1,0,2.6l-5.813,2.907A1.451,1.451,0,0,1,444.954,257.22Z" transform="translate(-443.499 -248.499)" fill="#b3c2c9"/>
      </g>
      <text id="X" transform="translate(232.808 139.798)" fill="#b3c2c9" font-size="9" font-family="Roboto-Black, Roboto" font-weight="800"><tspan x="-5.744" y="0">X</tspan></text>
      <text id="Y" transform="translate(101.936 9)" fill="red" font-size="9" font-family="Roboto-Black, Roboto" font-weight="800"><tspan x="-5.651" y="0">Y</tspan></text>
      <text id="_1" data-name="1" transform="translate(100.18 97.115)" font-size="7" font-family="Roboto-Black, Roboto" font-weight="800"><tspan x="-4.054" y="0">1</tspan></text>
      <text id="_-1" data-name="-1" transform="translate(98.785 145.621)" font-size="9" font-family="Roboto-Black, Roboto" font-weight="800"><tspan x="-9.259" y="0">-1</tspan></text>
      <text id="_2" data-name="2" transform="translate(100.18 73.862)" font-size="7" font-family="Roboto-Black, Roboto" font-weight="800"><tspan x="-4.054" y="0">2</tspan></text>
      <text id="_-2" data-name="-2" transform="translate(98.785 168.874)" font-size="9" font-family="Roboto-Black, Roboto" font-weight="800"><tspan x="-9.259" y="0">-2</tspan></text>
      <text id="_3" data-name="3" transform="translate(100.18 50.609)" font-size="7" font-family="Roboto-Black, Roboto" font-weight="800"><tspan x="-4.054" y="0">3</tspan></text>
      <text id="_-3" data-name="-3" transform="translate(98.785 192.127)" font-size="9" font-family="Roboto-Black, Roboto" font-weight="800"><tspan x="-9.259" y="0">-3</tspan></text>
      <text id="_4" data-name="4" transform="translate(100.18 27.356)" font-size="7" font-family="Roboto-Black, Roboto" font-weight="800"><tspan x="-4.054" y="0">4</tspan></text>
      <text id="_-4" data-name="-4" transform="translate(98.785 215.38)" font-size="9" font-family="Roboto-Black, Roboto" font-weight="800"><tspan x="-9.259" y="0">-4</tspan></text>
      <text id="_0" data-name="0" transform="translate(110.697 125.594)" fill="red" font-size="2" font-family="Roboto-Black, Roboto" font-weight="800"><tspan x="-1.158" y="0">0</tspan></text>
      <g id="Grupo_81010" data-name="Grupo 81010" transform="translate(139.518 115.395)">
        <path id="Trazado_114010" data-name="Trazado 114010" d="M294.953,258.033a1.453,1.453,0,0,1-1.453-1.453V244.953a1.453,1.453,0,1,1,2.907,0V256.58A1.453,1.453,0,0,1,294.953,258.033Z" transform="translate(-293.5 -243.5)" fill="#b3c2c9"/>
      </g>
      <g id="Grupo_81011" data-name="Grupo 81011" transform="translate(93.012 115.395)">
        <path id="Trazado_114011" data-name="Trazado 114011" d="M214.953,258.033a1.453,1.453,0,0,1-1.453-1.453V244.953a1.453,1.453,0,1,1,2.907,0V256.58A1.453,1.453,0,0,1,214.953,258.033Z" transform="translate(-213.5 -243.5)" fill="#b3c2c9"/>
      </g>
      <g id="Grupo_81012" data-name="Grupo 81012" transform="translate(69.759 115.395)">
        <path id="Trazado_114012" data-name="Trazado 114012" d="M174.953,258.033a1.453,1.453,0,0,1-1.453-1.453V244.953a1.453,1.453,0,1,1,2.907,0V256.58A1.453,1.453,0,0,1,174.953,258.033Z" transform="translate(-173.5 -243.5)" fill="#b3c2c9"/>
      </g>
      <g id="Grupo_81013" data-name="Grupo 81013" transform="translate(46.506 115.395)">
        <path id="Trazado_114013" data-name="Trazado 114013" d="M134.953,258.033a1.453,1.453,0,0,1-1.453-1.453V244.953a1.453,1.453,0,0,1,2.907,0V256.58A1.453,1.453,0,0,1,134.953,258.033Z" transform="translate(-133.5 -243.5)" fill="#b3c2c9"/>
      </g>
      <g id="Grupo_81014" data-name="Grupo 81014" transform="translate(23.253 115.395)">
        <path id="Trazado_114014" data-name="Trazado 114014" d="M94.953,258.033A1.453,1.453,0,0,1,93.5,256.58V244.953a1.453,1.453,0,1,1,2.907,0V256.58A1.453,1.453,0,0,1,94.953,258.033Z" transform="translate(-93.5 -243.5)" fill="#b3c2c9"/>
      </g>
      <g id="Grupo_81015" data-name="Grupo 81015" transform="translate(162.771 115.395)">
        <path id="Trazado_114015" data-name="Trazado 114015" d="M334.953,258.033a1.453,1.453,0,0,1-1.453-1.453V244.953a1.453,1.453,0,1,1,2.907,0V256.58A1.453,1.453,0,0,1,334.953,258.033Z" transform="translate(-333.5 -243.5)" fill="#b3c2c9"/>
      </g>
      <g id="Grupo_81016" data-name="Grupo 81016" transform="translate(186.023 115.395)">
        <path id="Trazado_114016" data-name="Trazado 114016" d="M374.953,258.033a1.453,1.453,0,0,1-1.453-1.453V244.953a1.453,1.453,0,1,1,2.907,0V256.58A1.453,1.453,0,0,1,374.953,258.033Z" transform="translate(-373.5 -243.5)" fill="#b3c2c9"/>
      </g>
      <g id="Grupo_81017" data-name="Grupo 81017" transform="translate(209.276 115.395)">
        <path id="Trazado_114017" data-name="Trazado 114017" d="M414.953,258.033a1.453,1.453,0,0,1-1.453-1.453V244.953a1.453,1.453,0,1,1,2.907,0V256.58A1.453,1.453,0,0,1,414.953,258.033Z" transform="translate(-413.5 -243.5)" fill="#b3c2c9"/>
      </g>
      <g id="Grupo_81018" data-name="Grupo 81018" transform="translate(116.265 4.943)">
        <path id="Trazado_114018" data-name="Trazado 114018" d="M254.953,288.936a1.453,1.453,0,0,1-1.453-1.453V54.953a1.453,1.453,0,1,1,2.907,0V287.483A1.453,1.453,0,0,1,254.953,288.936Z" transform="translate(-253.5 -53.5)"/>
      </g>
    </g>
  </g>
</svg>
