<svg xmlns="http://www.w3.org/2000/svg" width="620" height="283.36" viewBox="0 0 620 283.36">
  <g id="_5" data-name="5" transform="translate(-180 -6419.64)">
    <rect id="Rectángulo_34230" data-name="Rectángulo 34230" width="620" height="283" transform="translate(180 6419.64)" fill="#255065"/>
    <g id="_5-2" data-name="5" transform="translate(180 6420)">
      <path id="Trazado_114065" data-name="Trazado 114065" d="M82.35,0H98.91c-3.83,8.33-5.49,17.85-3.57,26.9a44.388,44.388,0,0,0,22.95,30.83c11.41,6.38,25.86,6.64,37.72,1.3a44.613,44.613,0,0,0,23.96-25.84A44,44,0,0,0,178.04,0h6.62c.98,2.13,1.72,4.38,2.81,6.46,2.93.51,5.93.45,8.86.98.19,3.38.3,6.76.26,10.15-2.64.42-5.28.81-7.93,1.13-.4,3.49-.82,6.98-1.13,10.48,2.42,1.17,4.89,2.24,7.37,3.29a23.611,23.611,0,0,1-3.27,10.35c-2.55-.6-5.08-1.3-7.61-2.03a62.512,62.512,0,0,0-5.87,8.99c1.78,2.03,3.55,4.07,5.24,6.18-1.88,2.53-3.68,5.36-6.59,6.82-2.98-.1-4.8-3.02-7.03-4.65a60.346,60.346,0,0,0-8.68,5.95c.62,2.55,1.24,5.1,1.8,7.66a31.011,31.011,0,0,1-9.93,3.73,65.738,65.738,0,0,1-2.73-7.1,44.614,44.614,0,0,0-10.46.45c-1.93,2.21-1.37,5.53-2.04,8.23a40.1,40.1,0,0,1-10.37-.66c-.16-2.78-.19-5.57-.2-8.36a65.8,65.8,0,0,0-10.04-3.19,38.864,38.864,0,0,1-4.54,5.82c-3.71-.31-6.62-3.03-9.16-5.5,1.2-2.25,2.77-4.38,3.35-6.89a31.337,31.337,0,0,0-7.07-7.1c-2.74.27-4.81,2.91-7.54,2.88-2.46-2.2-4.94-5.27-4.94-8.7,1.56-2.09,4.18-3.11,6.28-4.59a57.306,57.306,0,0,0-4.37-10.07c-2.66.1-5.32.17-7.98.16a44.577,44.577,0,0,1-.9-10.56q3.99-.6,8-1.05c.45-3.6,1.01-7.19,1.37-10.8-2.75-1.08-5.47-2.22-8.11-3.55C81.78,3.27,82.04,1.63,82.35,0Z" fill="#fff"/>
      <path id="Trazado_114066" data-name="Trazado 114066" d="M132.68,0h8.79a109.242,109.242,0,0,1,10.95,7.97,120.85,120.85,0,0,1-15.31,10.54A166.457,166.457,0,0,1,121.97,7.96C125.54,5.3,129.16,2.71,132.68,0Z" fill="#fff"/>
      <path id="Trazado_114067" data-name="Trazado 114067" d="M188.21,0h29.15c5.48,12.15,13.83,23.29,25.31,30.35,9.03,5.33,19.07,9.48,29.67,9.9,18.96,1.05,38.48-6.44,51.18-20.72C329.05,13.99,332.74,7.04,336,0h14.22c2.96,2.24,6.35,4.22,8.3,7.48,1.57,2.59,1.28,5.73,1.35,8.63-4.37-1.58-8.32-4.08-12.7-5.62a84.323,84.323,0,0,0-5.35,9.38c2.43,3.35,5.53,6.75,5.6,11.14.18,2.22-.83,4.27-1.58,6.29-3.72-2.83-6.59-6.63-10.53-9.19a73.013,73.013,0,0,0-7.81,7.92c1.6,3.41,3.43,7.05,2.82,10.93-.25,2.56-1.9,4.63-3.32,6.65-2.67-3.75-4.73-7.92-7.81-11.36-3.15,1.5-6.25,3.12-9.24,4.92.71,6.04.99,14.86-6.28,16.94a102.356,102.356,0,0,0-3.15-12.9,54.936,54.936,0,0,0-11.06,2.31c-.87,4.04-1.1,8.66-4.17,11.77-1.55,1.77-3.89,2.36-6.02,3.08A91.892,91.892,0,0,0,279,54.39c-3.6-.09-7.21-.13-10.81-.17-1.91,3.55-3.32,7.75-6.82,10.09-2.09,1.47-4.75,1.22-7.16,1.44a113.851,113.851,0,0,0,3.61-12.94,42.643,42.643,0,0,0-10.48-3.67c-2.02,2.33-3.89,4.89-6.48,6.63-2.96,1.8-6.57,1.28-9.84.97,2.33-4.1,5.28-7.86,6.92-12.32a102.512,102.512,0,0,0-8.89-5.86c-4.9,3.58-12.01,7.4-17.48,2.65,2.91-3.21,6.7-5.66,9.08-9.31-1.09-3.49-4.41-5.89-6.72-8.66-4.05,1.24-8.4,3.26-12.64,1.68-2.14-.55-3.59-2.27-4.99-3.84,3.77-2.06,7.66-3.92,11.57-5.69-.37-3.86-2.4-7.22-4.06-10.63-3.38-.16-6.82.13-10.14-.59C191.5,3.31,189.97,1.44,188.21,0Z" fill="#fff"/>
      <path id="Trazado_114068" data-name="Trazado 114068" d="M231.48,0h3.35c4.96,2.8,10.78,1.36,16.17,1.67,5.01-.25,10.44,1.03,15-1.67h23.8c4.64,2.68,10.12,1.43,15.2,1.67,4.98-.24,10.38,1.03,14.92-1.67h3.37c.14,2.42,1.04,5.35-1.03,7.23-1.46,1.93-3.95,2.31-6.2,2.24q-38.565-.12-77.12-.01c-2.26.02-4.79-.27-6.34-2.1-2.03-1.93-1.06-4.92-1.12-7.36m2.65,4.43c.18.47.54,1.39.72,1.85,26.38.51,52.78.02,79.17.25,2.48-.15,5.72.79,7.04-1.98C292.09,4.32,263.11,4.55,234.13,4.43Z" fill="#fff"/>
      <path id="Trazado_114069" data-name="Trazado 114069" d="M386.81,0h14.25c7.55,9.42,16.2,18.22,26.96,23.95a73.591,73.591,0,0,0,47.09,8.66c21.4-2.34,41.15-14.93,53.23-32.61h14.87c3.56,3.11,7.74,5.43,11.09,8.78a41.134,41.134,0,0,1-7.2,10.81c-3.65-2.25-7.19-4.65-10.95-6.69-4.69,5.29-9.74,10.21-14.88,15.05,1.87,3.76,4.87,6.92,6.38,10.83-2.68,3.46-6.97,5.32-10.51,7.82-2.72-3.37-5.14-6.97-7.59-10.54-6.61,2.69-13.16,5.51-19.88,7.93.68,4.11,1.26,8.23,1.96,12.33a26.39,26.39,0,0,1-13.2,2.38c-.84-3.62-1.29-7.34-2.36-10.91-.3-.23-.91-.7-1.21-.94a192.637,192.637,0,0,1-20.81-.13c-1.12,3.96-1.09,8.48-3.2,12.02-4.17.3-8.25-.84-12.25-1.83.25-4.25,1.69-8.44,1.41-12.7-2.33-1.67-5.19-2.29-7.83-3.27a73.809,73.809,0,0,1-11.7-5.49c-2.28,3.4-4.18,7.09-6.96,10.11-4.52-.13-7.84-4.09-11.29-6.6,1.91-3.79,4.26-7.34,6.48-10.96a201.629,201.629,0,0,1-14.92-15.04c-3.75,1.98-7.29,4.32-10.85,6.6a47.658,47.658,0,0,1-7.53-10.67C378.94,5.6,383.11,3.1,386.81,0Z" fill="#fff"/>
      <path id="Trazado_114070" data-name="Trazado 114070" d="M64.75,13.58c1.62-.39,3.39-1.41,4.95-.27,1.3,1.67.38,3.71.02,5.53-3.58-.27-7.05-1.39-10.65-1.49-19.69-.09-39.38.22-59.07-.15V14.56c17-.16,34-.04,51-.06C55.58,14.39,60.33,15.1,64.75,13.58Z" fill="#fff"/>
      <path id="Trazado_114071" data-name="Trazado 114071" d="M122.31,13.41c.65-.15,1.93-.45,2.57-.6,4.17,2.55,7.96,5.66,12.16,8.15,4.66-2.37,8.64-5.82,13.12-8.48.72.8,1.43,1.61,2.14,2.42-3.85,2.61-7.75,5.17-11.51,7.92-1.44.89-3.13,2.63-4.88,1.34-4.57-2.74-8.71-6.17-13.37-8.78C122.48,14.89,122.37,13.9,122.31,13.41Z" fill="#fff"/>
      <path id="Trazado_114072" data-name="Trazado 114072" d="M121.89,20.03c1.34-.33,2.88-1.19,4.09-.06,3.77,2.39,7.26,5.21,11.09,7.51,4.2-2.09,7.65-5.36,11.71-7.68,1.09-.84,2.36-.07,3.51.19-1.37,2.7-4.16,4.07-6.51,5.79a78.572,78.572,0,0,1-8.69,5.62c-2.94-1.83-5.77-3.83-8.62-5.79C126.12,23.95,123.39,22.61,121.89,20.03Z" fill="#fff"/>
      <path id="Trazado_114073" data-name="Trazado 114073" d="M122.29,26.22c.65-.11,1.93-.35,2.57-.46,4.31,2.34,8,5.66,12.23,8.16,4.58-2.39,8.4-5.98,13-8.32a2.447,2.447,0,0,1,1.86,2.22c-4.8,3.52-9.7,6.94-14.77,10.05-4.91-3.13-9.51-6.72-14.62-9.52C122.49,27.82,122.36,26.75,122.29,26.22Z" fill="#fff"/>
      <path id="Trazado_114074" data-name="Trazado 114074" d="M121.86,32.98c1.14-.18,2.37-.99,3.53-.43,4.2,1.98,7.38,5.65,11.68,7.44,4.38-1.51,7.56-5.2,11.66-7.26,1.15-.76,2.47,0,3.66.21-2.29,3.59-6.34,5.32-9.61,7.84-1.86,1.1-3.53,2.94-5.76,3.14-2.14-.57-3.79-2.17-5.61-3.34C128.16,38.13,124.31,36.34,121.86,32.98Z" fill="#fff"/>
      <path id="Trazado_114075" data-name="Trazado 114075" d="M374.37,34.26c5.8-1.35,11.94-1.08,17.82-.42,4.04,3.77-.01,10.16,2.06,14.92,4.19.84,8.49,1.21,12.56,2.6a26.437,26.437,0,0,0,6.81,1.45c1.63-3.22,2.92-6.6,4.38-9.91a3.164,3.164,0,0,1,3.89-2.16,65.405,65.405,0,0,1,11.98,5.4c1.28.94,3.34,1.89,2.84,3.84-.9,4.27-4.38,7.53-5.38,11.75,1.34,1.68,3.5,2.5,5.19,3.81,3.59,2.27,6.3,5.62,9.67,8.17l1.32-.16c3.65-2.58,6.53-6.12,10.47-8.32a42.2,42.2,0,0,1,10.7,12.29c.96,1.4,1.38,3.71-.18,4.88-2.97,2.55-6.36,4.55-9.36,7.07,1.38,3.84,4,7.06,5.57,10.8,1.12,2.31,1.85,4.84,3.38,6.92,4.35-.03,8.4-2.75,12.82-2.38,2.16.73,2.5,3.25,3.11,5.14a88.478,88.478,0,0,1,2.22,11.97,4.06,4.06,0,0,1-3,2.5c-3.55.86-7.18,1.33-10.73,2.15-.2,6.9-.22,13.82.03,20.72,4,.64,8.11.95,11.98,2.23a2.706,2.706,0,0,1,1.55,3.27c-.82,4.8-1.43,9.72-3.08,14.32-.98,2.27-3.76,1.68-5.68,1.3-3.26-.81-6.44-2.09-9.85-2.16a137.151,137.151,0,0,1-8.17,17.82c3.15,2.9,6.94,5.04,9.92,8.11,1.09,2.26-.76,4.35-1.92,6.13a68.921,68.921,0,0,1-7.33,8.66c-.87.92-2.33.76-3.43.48-3.25-1.99-5.6-5.14-8.8-7.2-1.83-.58-3.04,1.21-4.33,2.16a65.373,65.373,0,0,1-12.19,9.25c1.07,4.89,5.89,8.66,5.37,13.87-3.35,2.92-7.63,4.47-11.58,6.38-1.88.66-4.48,2.06-6.09.19-2.33-3.64-3.4-7.94-5.74-11.59a110.621,110.621,0,0,1-18.95,4.13c-1.35,4.86.46,9.91-.75,14.76-6.24,1.2-13.27,2.11-19.21-.61-.19-4.51.37-9.04-.12-13.54l-.59-.51c-6.24-1.25-12.58-2.12-18.63-4.19a76.613,76.613,0,0,0-5.07,10.28,3.233,3.233,0,0,1-4.59,1.94,61.889,61.889,0,0,1-13.99-7.18c-.1-5.12,3.9-8.9,5.55-13.49-5.49-3.83-10.53-8.23-15.76-12.4-3.16,2.25-5.96,4.96-9.06,7.28a3.283,3.283,0,0,1-4.5-.47,57.618,57.618,0,0,1-8.09-9.99c-1.25-1.63-1.31-4.36.55-5.56,2.77-2.41,5.89-4.37,8.86-6.52-2.77-6.09-6.1-11.92-8.75-18.09-4.33.54-8.45,2.4-12.85,2.38-1.63.24-1.94-1.68-2.4-2.78a98.23,98.23,0,0,1-2.97-11.94,4.588,4.588,0,0,1,.9-4.19c4.22-1.4,8.69-1.75,12.97-2.92-.09-6.77-.1-13.55.03-20.33-3.77-.7-7.59-1.17-11.31-2.13a3.486,3.486,0,0,1-2.58-4.45c1-4.79,1.2-10.05,3.83-14.3,4.72-1.64,9.63,1.53,14.41,1.88,2.7-6.17,5.63-12.21,8.76-18.18-3.09-2.36-6.44-4.39-9.27-7.06-1.82-1.43-1.1-4.07.12-5.65a68.227,68.227,0,0,1,7.66-9.3,3.423,3.423,0,0,1,3.4-1.08c4.39,1.24,6.62,6.55,11.06,7.42,3.25-2.34,5.76-5.55,9.09-7.79,1.84-1.49,4.19-2.39,5.73-4.2-1.16-4.15-4.32-7.49-5.19-11.74-.31-2.14,1.83-3.2,3.3-4.22,3.56-2.05,7.23-4.1,11.25-5.1a3.237,3.237,0,0,1,3.63,1.57c1.59,3.53,2.95,7.16,4.79,10.58,6.59-.91,12.83-3.57,19.54-3.93.78-4.85-.02-9.76.4-14.63m-2.08,25.77c-19.46,2.55-37.18,13.65-49.53,28.67-10.18,13.51-16.79,30.23-16.47,47.3-1,27.77,15.35,54.84,39.33,68.42a75.258,75.258,0,0,0,41.42,10.21c10.32.14,20.19-3.43,29.66-7.16a90.214,90.214,0,0,0,23.27-16.53c8.86-9.17,15.05-20.65,18.97-32.73,6.63-23.8,1.38-50.66-14.23-69.9-12.26-15.16-30.28-25.86-49.66-28.51A110.273,110.273,0,0,0,372.29,60.03Z" fill="#fff"/>
      <path id="Trazado_114076" data-name="Trazado 114076" d="M579.37,36.5c3.03-.28,6.38-.53,9.09,1.11,5,3.07,7.26,10.1,4.4,15.36-3.05,6.86-13.05,8.97-18.39,3.52-6.92-5.61-3.94-18.39,4.9-19.99m-1.06,2.64c-6.03,2.67-7.53,11.6-2.22,15.78,5.3,5.22,15.19,1.2,15.72-6.09C593.01,41.77,584.57,35.96,578.31,39.14Z" fill="#fff"/>
      <path id="Trazado_114077" data-name="Trazado 114077" d="M122.47,41.57c-.8-1.61,1.13-1.98,2.31-2.13,4.34,2.31,8.07,5.62,12.28,8.15,4.8-2.38,8.6-6.39,13.57-8.45.4.48,1.19,1.46,1.58,1.95-4.61,4.09-9.94,7.31-15.17,10.54C132.2,48.26,127.11,45.2,122.47,41.57Z" fill="#fff"/>
      <path id="Trazado_114078" data-name="Trazado 114078" d="M580.49,43.51c2.59-.75,6.37.29,6.19,3.57.97,3.75-4.06,6.99-6.93,4.24C576.65,49.49,577.62,45.01,580.49,43.51Z" fill="#fff"/>
      <path id="Trazado_114079" data-name="Trazado 114079" d="M50.39,45.58C58.64,42.05,69,48.07,70.03,56.96c1.69,8.28-5.52,17.13-14.02,16.76-5.93.45-11.46-3.5-13.86-8.77-3-7.35.72-16.56,8.24-19.37m3,1.88a12.445,12.445,0,0,0-9.53,9.57c-1.13,5.58,2.44,11.45,7.69,13.44,6.98,3.02,15.9-2.86,16-10.45C68.42,52.55,60.72,45.7,53.39,47.46Z" fill="#fff"/>
      <path id="Trazado_114080" data-name="Trazado 114080" d="M121.98,47.28c.54-.41,1.63-1.23,2.17-1.65,4.68,2.16,8.26,6.09,12.95,8.18,5.43-1.44,8.82-7.9,14.82-7.65.16,3.14-3.23,4.01-5.25,5.62-3.25,1.91-5.9,4.98-9.57,6.06A82,82,0,0,1,121.98,47.28Z" fill="#fff"/>
      <path id="Trazado_114081" data-name="Trazado 114081" d="M53.3,54.19c3.71-2,8.76,1.58,7.98,5.77-.37,4.22-5.81,6.09-9.01,3.74C49.24,61.35,49.5,55.62,53.3,54.19Z" fill="#fff"/>
      <path id="Trazado_114082" data-name="Trazado 114082" d="M200.57,59.66a60.184,60.184,0,0,1,12.8.03,86.6,86.6,0,0,1,.04,9.8c4.54.78,9.06,1.66,13.54,2.74,1.3-2.83,2.68-5.62,4.21-8.33,4.38.61,8.26,2.87,11.79,5.41a34.56,34.56,0,0,1-3.58,8.81,134.333,134.333,0,0,0,10.47,8.42c2.64-1.73,4.94-4.63,8.14-5.1,3.49,2.23,5.55,6.08,7.62,9.57-2.32,2.37-4.89,4.51-7.16,6.93,1.9,3.67,3.45,7.54,5.75,10.99,3.09.48,6.37-1.17,9.62-.76a38.711,38.711,0,0,1,2.83,12.08,32.274,32.274,0,0,1-9.24,2.34c-.1,4.68-.12,9.36-.01,14.04,3.04.65,6.09,1.28,9.11,2.02a26.967,26.967,0,0,1-2.87,13.19,66.559,66.559,0,0,1-9.41-2.5c-1.69,4.29-4.09,8.29-5.62,12.63,1.91,2.4,4.98,3.57,6.73,6.12-.87,3.83-4,6.87-6.76,9.55-3.86.92-5.99-3.39-8.63-5.41a52.581,52.581,0,0,1-10.73,8.36c.74,3.51,3.73,6.24,3.59,9.97a56.035,56.035,0,0,1-10.89,5.11c-2.51-2.18-3.4-5.44-4.56-8.42-4.68.35-9.12,2.01-13.78,2.49-.04,3.15-.06,6.31-.07,9.46a18.076,18.076,0,0,1-12.93.23c-1.42-3.07-.38-6.56-.71-9.82a116.535,116.535,0,0,1-12.84-2.53c-1.56,2.91-2.86,5.99-4.94,8.59-4.07-1.64-8.98-2.69-11.56-6.57,1.07-2.63,3.18-5.07,3.35-7.94-2.83-3.29-6.59-5.65-9.89-8.44-2.97,1.79-5.42,6.27-9.41,4.75-2.33-2.58-4.25-5.5-6.53-8.13a34.209,34.209,0,0,0-5.68,4.49c1.99,3.77,3.73,7.66,5.71,11.43,3.01-.5,6.01-1.05,8.99-1.71,2.16,3.82,3.46,8.53,2.29,12.84-2.58,1.15-5.43,1.35-8.17,1.9a47.72,47.72,0,0,0-.09,13.45c3.14.56,6.24,1.31,9.33,2.11a27.629,27.629,0,0,1-3.36,12.64c-3.01-.54-5.99-1.2-8.98-1.87-1.93,3.83-3.73,7.73-5.7,11.55,1.95,2.58,6.84,3.81,6.37,7.57a26.194,26.194,0,0,1-6.12,7.94c-3.56,1.03-5.22-2.93-7.89-4.33-2.05-.52-3.23,1.7-4.71,2.68-1.79,1.88-4.58,2.86-5.88,5.1.56,2.84,2.16,5.34,3.32,7.96-3.06,3.3-7.41,5.78-12,5.71-1.15-2.61-2.36-5.19-3.65-7.72a89.55,89.55,0,0,0-13.07,2.85c.01,3.14-.07,6.29-.32,9.43-4.13.06-8.66,1.12-12.53-.55-.8-3.01-.24-6.2-.31-9.29-4.25-.8-8.47-1.68-12.72-2.45a34.036,34.036,0,0,0-3.55,7.64,18.168,18.168,0,0,1-12.11-4.99c-.22-3.44,2.66-5.93,3.58-9.08-3.71-1.95-6.63-5-10.03-7.35-3.29.31-4.82,5.09-8.46,4.49a25.663,25.663,0,0,1-6.58-7.91c-1.27-4.06,5.39-4.46,5.97-7.91-1.41-3.99-3.72-7.64-5.54-11.48a58,58,0,0,1-8.12,1.8c-3.81-2.79-3.51-8.45-3.71-12.73q4.62-.9,9.23-1.92c.01-4.45-.01-8.9.01-13.34-3.05-.65-6.08-1.34-9.09-2.15.08-4.2.7-8.58,2.7-12.32,3.03-.35,6,1.11,8.97,1.62,2.31-3.73,3.87-7.88,6.37-11.5-2.27-2.04-4.8-3.79-6.9-6-.43-2.48,1.85-4.28,3.04-6.19,1.38-1.54,2.64-4.2,5.14-3.61,2.42,1.55,4.52,3.53,6.78,5.28a105.88,105.88,0,0,1,10-8.43c-1.43-2.84-2.97-5.66-3.63-8.8,3.47-2.56,7.36-4.9,11.79-5.07,1.69,2.42,2.07,5.87,4.36,7.76,4.21-.52,8.31-1.66,12.48-2.42-.02-3.34-.33-6.74.5-10.03a94.533,94.533,0,0,1,12.37.17c.24,3.27.16,6.57.64,9.82,4.42.71,8.72,2.15,13.22,2.35a68.517,68.517,0,0,1,3.06-7.6c4.38.06,8.41,2.35,11.75,5,.39,3.28-3.45,6.03-2.69,9.38,2.93,2.4,5.87,4.81,8.89,7.1,3.55.37,5.05-5.02,8.56-4.65,3.3,2.02,4.96,5.85,8,8.23a59.916,59.916,0,0,0,5.39-4.25c-1.66-4.02-3.66-7.88-5.61-11.76-3.16.33-6.25,1.05-9.37,1.58a24.749,24.749,0,0,1-2.98-13.34c3.09-.63,6.18-1.26,9.27-1.93.09-4.62.1-9.24-.07-13.85a56.947,56.947,0,0,1-9.24-1.99,36.663,36.663,0,0,1,2.15-12.49c3.47-.47,6.77.93,10.12,1.56,1.82-4.02,3.61-8.05,5.7-11.94-2.22-2.4-4.82-4.38-7.08-6.72,1.95-3.53,4.12-7.09,7.3-9.65,3.51-.29,5.63,3.61,8.47,5.18a97.449,97.449,0,0,0,10.44-8.57c-1.28-2.72-2.52-5.46-3.8-8.18a19.027,19.027,0,0,1,12.04-5.77q2.34,4,4.45,8.14c4.46-1.07,8.94-2.05,13.47-2.82a72.389,72.389,0,0,1,.05-9.77m-1.28,21.56A68.32,68.32,0,0,0,189.14,84c-20.84,7.5-34.63,30.79-30.9,52.68,2.07,16.66,13.76,31.4,29.05,38.04,8.4,4.01,17.95,4.73,27.09,3.59,15.38-2.49,29.6-12.42,36.31-26.62a47.8,47.8,0,0,0,2.11-39.5c-3.54-8.39-8.68-16.46-16.3-21.71-10.54-7.83-24.21-11.5-37.21-9.26M85.32,152.98a51.164,51.164,0,0,0-27.23,12.11,52.4,52.4,0,0,0-18.11,45.87C42.34,236.6,66.24,258,92,257.48c14.32.27,28.29-6.03,38.3-16.13a55.091,55.091,0,0,0,13.74-27.26c1.55-9.7.8-19.9-3.16-28.96a53.049,53.049,0,0,0-31.25-29.76C101.77,153.15,93.47,151.51,85.32,152.98Z" fill="#fff"/>
      <path id="Trazado_114083" data-name="Trazado 114083" d="M503.57,66.53c2.44-1.45,4.88-4.02,8-3.13,5.78,1.07,11.54,2.26,17.24,3.72,5.7,1.41,11.66,1.88,17.16,4.08-2.07,12.11-5.35,24.01-7.88,36.01-4.56,4.45-10.65,7.05-15.85,10.72.52-9.18,4.57-17.71,5.55-26.83-6.99,4.15-13.89,8.46-20.63,13-1.32.74-2.8,2.06-4.39,1.29-2.36-3.37-4.31-6.99-6.34-10.55,3.96-3.34,8.72-5.51,12.96-8.45,3.57-2.49,7.85-4.12,10.62-7.62-8.75-1.62-17.36-3.87-26.11-5.48C496.5,70.26,500.43,68.91,503.57,66.53Z" fill="#fff"/>
      <path id="Trazado_114084" data-name="Trazado 114084" d="M385.89,88.63a52.493,52.493,0,0,1,25.48,9.02c11.94,8.47,20.19,22.54,20.09,37.37a47.917,47.917,0,0,1-5.32,24.07c-2.11,1.21-5.01.32-7.37.06a19.978,19.978,0,0,1-4.99-9.11c1.42-4.89,3.07-9.86,2.56-15.04-.47-11.47-7.82-22.13-17.97-27.27-4.07-2.16-8.77-2.5-12.92-4.42a47.624,47.624,0,0,0,3.05-6.36C388.12,94.06,386.66,91.43,385.89,88.63Z" fill="#fff"/>
      <path id="Trazado_114085" data-name="Trazado 114085" d="M106.39,90.55c4.84-.73,10.09-.05,14.01,3.09a15.589,15.589,0,0,1,6.42,13.35c1.04,8.92-7.02,17.3-15.79,17.49-8.33.93-16.5-5.36-17.99-13.54-2.25-8.98,4.2-18.89,13.35-20.39m0,3a14.507,14.507,0,0,0-10.86,13.44c-.3,8.06,7.35,15.6,15.5,14.53,8.69-.36,15.39-10.07,12.61-18.31A14.583,14.583,0,0,0,106.39,93.55Z" fill="#fff"/>
      <path id="Trazado_114086" data-name="Trazado 114086" d="M358.22,96.24c5.63-3.9,12.33-5.69,18.97-6.93,1.96,2.41,4.56,5.67,2.98,8.93-1.63,3.02-2.94,7.04-6.68,7.91-9.59,2.79-17.22,10.6-20.55,19.92-2.11,4.7-1.66,9.97-1.56,14.99-.04,3.88,2.14,7.24,3.01,10.92-2.49.36-5.13.11-7.51,1-1.7,2.32-2.99,4.91-4.77,7.19a47.386,47.386,0,0,1-3.3-40.42C342.75,110.22,349.37,101.66,358.22,96.24Z" fill="#fff"/>
      <path id="Trazado_114087" data-name="Trazado 114087" d="M203.32,93c6.79-.84,13.86.77,20.03,3.64,10.22,4.89,17.34,14.93,19.87,25.83a62.873,62.873,0,0,1-.05,15.08c-2.09,8.22-6.65,15.99-13.46,21.17A37.574,37.574,0,0,1,193,163.95c-11.75-4.52-20.36-15.59-22.4-27.93a67.041,67.041,0,0,1,.19-14.02c2.13-10.4,8.82-20.03,18.45-24.77A38.193,38.193,0,0,1,203.32,93m-2.9,6.67c-13.68,2.92-24.85,16.14-24.11,30.33-.42,9.79,5.29,19.04,13,24.72,11.72,8.64,29.76,7.06,39.56-3.79,7.27-7.47,10.51-18.9,7.51-28.97a30.318,30.318,0,0,0-17.77-20.59C212.97,98.68,206.48,99.05,200.42,99.67Z" fill="#fff"/>
      <path id="Trazado_114088" data-name="Trazado 114088" d="M107.32,101.33c2.99-1.04,7.28-.4,8.42,3,2.41,3.93-.98,10.11-5.77,9.44C102.93,115.04,100.77,103.37,107.32,101.33Z" fill="#fff"/>
      <path id="Trazado_114089" data-name="Trazado 114089" d="M202.61,105.24c.01-4,6.28-5.63,7.91-1.83.69,7.8-.3,15.67.41,23.47,4.6,4.28,10.77,6.51,15.46,10.73.68,1.85.11,3.84-.04,5.73-2.35.27-4.98.88-7.02-.71-5.62-3.66-11.39-7.1-16.78-11.08C202.65,122.78,202.48,114.01,202.61,105.24Z" fill="#fff"/>
      <path id="Trazado_114090" data-name="Trazado 114090" d="M349.23,162.28c1.63-3.89,6.59-3.97,10.15-3.57,4.82,4.09,9.97,8.07,16.24,9.63,10.37,2.78,22.37-.01,29.93-7.8a8.965,8.965,0,0,1,3.95-2.5c1.16,2.35,2.39,4.68,3.71,6.95,2.6.47,5.19.97,7.77,1.55-2.49,4.24-6.59,7.16-10.51,9.98-8.98,6.54-20.55,8.65-31.46,7.94-11.9-.72-22.83-7.06-30.87-15.61C345.99,166.92,348.23,164.19,349.23,162.28Z" fill="#fff"/>
      <path id="Trazado_114091" data-name="Trazado 114091" d="M70.66,183.86c5.8-2.44,11.93-4.67,18.3-4.58,6.14.03,12.46-.45,18.36,1.65,7.13,2,13.32,6.17,19.33,10.35a28.982,28.982,0,0,1-5.88,5.4c-2.27-.5-3.93-2.39-5.9-3.54-14.18-9.52-34.17-8.26-47.45,2.33-2.99,3.05-5.56-1.95-7.73-3.64C62.38,188.08,66.69,185.97,70.66,183.86Z" fill="#fff"/>
      <path id="Trazado_114092" data-name="Trazado 114092" d="M66.98,199.9c7.46-7.56,18.66-10.53,29.05-9.75,8.17.28,15.86,4.04,22.17,9.04a19.8,19.8,0,0,1-5.15,5.68c-4.54-2.82-9.15-5.81-14.56-6.59-9.02-2.24-18.12,1.51-25.52,6.47C70.48,203.91,68.87,201.61,66.98,199.9Z" fill="#fff"/>
      <path id="Trazado_114093" data-name="Trazado 114093" d="M243.16,200.28c6.53-1.4,13.26-.78,19.89-.78,2.3.14,5.88.65,6.03,3.56.54,5.75-.97,11.55.12,17.3a161.923,161.923,0,0,1,26.41,5.57c2.91-5.43,4.68-11.39,7.78-16.72a16.617,16.617,0,0,1,8.71,1.77c4.55,2.31,9.43,4.19,13.45,7.4,2.09,1.56,1.16,4.52.2,6.46-2.1,4.08-4.44,8.04-6.22,12.27,6.71,5.93,14.42,10.65,20.73,17.06,4.85-2.59,8.27-7.04,12.78-10.08a4.271,4.271,0,0,1,5.56.35c3.85,3.54,6.8,7.91,9.96,12.05,1.41,2.15,3.5,4.54,2.66,7.31-3.95,4.59-10.09,6.69-13.93,11.36.93,2.81,2.61,5.28,4.05,7.84H335.4a97.486,97.486,0,0,0-37.84-31.79c-27.91-14.05-62.57-12.26-89.66,2.91A107.073,107.073,0,0,0,175.88,283h-25.9a61.268,61.268,0,0,0,4.24-7.8c-3.93-3.6-8.45-6.46-12.52-9.88-1.79-1.25-1.66-3.83-.94-5.64,1.48-3,3.8-5.47,5.8-8.12,2.24-2.71,4.2-5.76,7.08-7.86,2.15-1.19,4.54.06,6.22,1.47,3.71,3.01,7.04,6.5,11.08,9.11,4.5-3.6,8.5-7.82,13.25-11.12,2.54-1.85,5.32-3.38,7.62-5.52-1.28-5.68-5.61-10.12-7.21-15.7a3.6,3.6,0,0,1,1.42-3.9c3.35-2.53,7.32-4.06,11.02-6,3.27-1.51,6.78-3.51,10.52-2.67,4.16,4.57,5.14,11.04,8,16.4,5.69-.57,11.01-2.84,16.62-3.83,3.42-.63,6.84-1.21,10.28-1.71C242.95,213.58,241.53,206.83,243.16,200.28Z" fill="#fff"/>
      <path id="Trazado_114094" data-name="Trazado 114094" d="M75.26,206.61c6.5-4.15,14.44-7.18,22.21-5.34,4.97.75,9.96,2.68,13.29,6.6-1.55,1.69-2.97,3.6-4.97,4.81-3.99-1.08-7.35-4.36-11.76-4.06-5.09-.66-9.55,2.05-13.89,4.25C78.23,211.07,75.19,209.63,75.26,206.61Z" fill="#fff"/>
      <path id="Trazado_114095" data-name="Trazado 114095" d="M82.43,215.83c5.55-5.94,15.05-4.72,21.31-.58a26.659,26.659,0,0,1-5.27,5.18c-2.17.42-4.27-1.02-6.46-.72-1.59.23-3.15.62-4.72.94C85.63,219.08,84,217.48,82.43,215.83Z" fill="#fff"/>
      <path id="Trazado_114096" data-name="Trazado 114096" d="M90.42,222.3c3.08-.52,7.42.6,6.43,4.64.44,3.73-3.79,3.99-6.45,3.8C87.96,228.28,88.19,224.81,90.42,222.3Z" fill="#fff"/>
      <path id="Trazado_114097" data-name="Trazado 114097" d="M467.14,223.28c.59.02,1.75.05,2.33.07.41,2.39.83,4.78,1.23,7.18,1.57.04,3.14.07,4.72.11.84-2.67,1.71-5.33,2.81-7.91,1.64,2.56,1.47,5.63,1.52,8.54,1.36.33,2.72.71,4.12.93,1.77-1.45,2.38-3.84,3.48-5.79.54-.06,1.64-.19,2.19-.26-.07,2.74-.12,5.49.01,8.24,1.26.09,2.52.19,3.79.29a33.046,33.046,0,0,1,4.82-6.09c1.06,2.84.13,5.77-.54,8.58,1.34.6,2.68,1.2,4.03,1.8q2.19-2.7,4.44-5.35c.47.37,1.42,1.1,1.9,1.47-.49,2.46-3.21,5.6-.82,7.76,3.29,3.4,6.42-5.51,9.02-1.94-.92,2.34-2.16,4.54-3.19,6.83,1.23.6,2.3,2.08,3.78,1.91a34.246,34.246,0,0,0,5.29-3.48c.37.47,1.11,1.42,1.48,1.9-1.33,2.01-2.68,4-4.03,6q1.59,1.5,3.21,2.99a35.534,35.534,0,0,1,6.9-3.01v2.65a27.284,27.284,0,0,0-4.34,4.52,12.957,12.957,0,0,0,1.84,3.56,61.719,61.719,0,0,1,8.06-1.69c-.47,2.98-3.34,4.34-5.46,6.05.48,1.27.96,2.54,1.45,3.81,2.57-.21,5.15-.47,7.73-.69-.04.57-.13,1.71-.17,2.28-2.33,1.56-6.66,2.73-5.09,6.35,2.84,1.25,6.29.63,9.17,2.11H524.37c-4.6-14.66-14.39-27.96-28.04-35.34a56.661,56.661,0,0,0-47.02-4.13c-11.48,4.27-21.84,11.86-28.67,22.11-3.82,5.22-6.16,11.28-8.21,17.36H394.15a54.392,54.392,0,0,1,8.6-1.45q.48-1.935.96-3.84a21.954,21.954,0,0,1-7.05-4.82,20.388,20.388,0,0,1,8.48.31c.62-1.3,1.24-2.6,1.86-3.89-1.93-1.88-5.63-3.08-5.3-6.29,2.65.46,5.25,1.13,7.88,1.75.58-1.21,1.16-2.42,1.75-3.62-1.86-2.08-4.24-4.05-4.45-7.05a53.779,53.779,0,0,1,7.3,2.89c.95-.98,1.91-1.95,2.86-2.93-1.56-2.48-4.32-4.85-3.33-8.08,2.24,1.25,4.39,2.65,6.53,4.06,1.21-1.01,2.41-2.02,3.62-3.03-1.27-2.01-2.52-4.01-3.74-6.04.5-.3,1.49-.9,1.99-1.2a42.969,42.969,0,0,0,5.16,3.85c1.66.24,2.61-1.46,3.79-2.32-1.07-2.29-2.06-4.61-2.93-6.98.65-.03,1.96-.08,2.61-.1,1.46,1.57,2.9,3.15,4.36,4.73,1.52-.67,3.03-1.35,4.55-2.03-.9-2.27-1.76-4.55-2.55-6.85,1.04-.28,2.1-.56,3.15-.82q1.245,2.7,2.49,5.42l4.75-.24c0-2.79-.15-5.58-.24-8.36.57.08,1.71.23,2.28.31.9,1.85,1.79,3.7,2.72,5.54,1.4-.1,2.8-.19,4.21-.27.22-2.52.44-5.04.72-7.55.58.12,1.74.35,2.31.47q.78,2.94,1.52,5.9c1.73.04,3.46.06,5.2.09C466.49,228.13,466.78,225.7,467.14,223.28Z" fill="#fff"/>
      <path id="Trazado_114098" data-name="Trazado 114098" d="M460.51,259.52c1.92-5.4,3.86-11.22,8.49-14.93,4.22,3.61,5.77,9.07,7.61,14.09,2.78,7.81,3.82,16.1,4.54,24.32h-3.77c-1.09-4.04-3.46-9.03-8.43-8.74-5.39-.89-7.81,4.67-9.4,8.74h-4.13C457,275.15,457.9,267.13,460.51,259.52Z" fill="#fff"/>
      <path id="Trazado_114099" data-name="Trazado 114099" d="M225.28,256.34c7.06-2.3,14.26-4.61,21.75-4.85,10.86-.26,21.99-.68,32.46,2.71A87.57,87.57,0,0,1,323.72,283H310.75c-20.37-20.65-52.69-27.7-80.03-18.46-11.31,3.71-21.48,10.37-30.13,18.46H187.54C197.71,271.27,210.49,261.43,225.28,256.34Z" fill="#fff"/>
      <path id="Trazado_114100" data-name="Trazado 114100" d="M540.49,255.44c2.85-.37,5.59,1.19,8.47,1.14,23.68.19,47.37-.22,71.04.19v2.65c-23.36.13-46.72.07-70.08.02-3.61-.13-6.72,2.17-10.31,2.24C538.85,259.57,538.06,256.81,540.49,255.44Z" fill="#fff"/>
      <path id="Trazado_114101" data-name="Trazado 114101" d="M88.32,283c2.41-1.6,5.12-2.04,7.44,0Z" fill="#fff"/>
    </g>
  </g>
</svg>
