<svg xmlns="http://www.w3.org/2000/svg" width="642" height="402" viewBox="0 0 642 402">
  <g id="_4" data-name="4" transform="translate(-723 -1902.841)">
    <rect id="Imagen_1" data-name="Imagen 1" width="642" height="402" rx="19" transform="translate(723 1902.841)" fill="#fff" opacity="0.95"/>
    <path id="Trazado_114183" data-name="Trazado 114183" d="M0,0V328.289" transform="translate(926.433 1938.429)" fill="none" stroke="#b3c2c9" stroke-linecap="round" stroke-width="1"/>
    <path id="Trazado_114184" data-name="Trazado 114184" d="M0,0V328.289" transform="translate(956.277 1938.429)" fill="none" stroke="#b3c2c9" stroke-linecap="round" stroke-width="1"/>
    <path id="Trazado_114185" data-name="Trazado 114185" d="M0,0V328.289" transform="translate(986.121 1938.429)" fill="none" stroke="#b3c2c9" stroke-linecap="round" stroke-width="1"/>
    <path id="Trazado_114186" data-name="Trazado 114186" d="M0,0V328.289" transform="translate(1015.966 1938.429)" fill="none" stroke="#b3c2c9" stroke-linecap="round" stroke-width="1"/>
    <path id="Trazado_114187" data-name="Trazado 114187" d="M0,0V328.289" transform="translate(1045.81 1938.429)" fill="none" stroke="#b3c2c9" stroke-linecap="round" stroke-width="1"/>
    <path id="Trazado_114188" data-name="Trazado 114188" d="M0,0V328.289" transform="translate(1075.654 1938.429)" fill="none" stroke="#b3c2c9" stroke-linecap="round" stroke-width="1"/>
    <path id="Trazado_114189" data-name="Trazado 114189" d="M0,0V328.289" transform="translate(1105.499 1938.429)" fill="none" stroke="#b3c2c9" stroke-linecap="round" stroke-width="1"/>
    <path id="Trazado_114190" data-name="Trazado 114190" d="M0,0V328.289" transform="translate(1165.188 1938.429)" fill="none" stroke="#b3c2c9" stroke-linecap="round" stroke-width="1"/>
    <path id="Trazado_114191" data-name="Trazado 114191" d="M0,0V328.289" transform="translate(1195.032 1938.429)" fill="none" stroke="#b3c2c9" stroke-linecap="round" stroke-width="1"/>
    <path id="Trazado_114192" data-name="Trazado 114192" d="M0,0V328.289" transform="translate(1135.343 1938.429)" fill="none" stroke="#b3c2c9" stroke-linecap="round" stroke-width="1"/>
    <path id="Trazado_114193" data-name="Trazado 114193" d="M328.289,0H0" transform="translate(884.65 1956.335)" fill="none" stroke="#b3c2c9" stroke-linecap="round" stroke-width="1"/>
    <path id="Trazado_114194" data-name="Trazado 114194" d="M328.289,0H0" transform="translate(884.65 1986.18)" fill="none" stroke="#b3c2c9" stroke-linecap="round" stroke-width="1"/>
    <path id="Trazado_114195" data-name="Trazado 114195" d="M328.289,0H0" transform="translate(884.65 2016.024)" fill="none" stroke="#b3c2c9" stroke-linecap="round" stroke-width="1"/>
    <path id="Trazado_114196" data-name="Trazado 114196" d="M328.289,0H0" transform="translate(884.65 2045.868)" fill="none" stroke="#b3c2c9" stroke-linecap="round" stroke-width="1"/>
    <path id="Trazado_114197" data-name="Trazado 114197" d="M328.289,0H0" transform="translate(884.65 2075.713)" fill="none" stroke="#b3c2c9" stroke-linecap="round" stroke-width="1"/>
    <path id="Trazado_114198" data-name="Trazado 114198" d="M328.289,0H0" transform="translate(884.65 2105.558)" fill="none" stroke="#b3c2c9" stroke-linecap="round" stroke-width="1"/>
    <path id="Trazado_114199" data-name="Trazado 114199" d="M328.289,0H0" transform="translate(884.65 2135.402)" fill="none" stroke="#b3c2c9" stroke-linecap="round" stroke-width="1"/>
    <path id="Trazado_114200" data-name="Trazado 114200" d="M328.289,0H0" transform="translate(884.65 2165.246)" fill="none" stroke="#b3c2c9" stroke-linecap="round" stroke-width="1"/>
    <path id="Trazado_114201" data-name="Trazado 114201" d="M328.289,0H0" transform="translate(884.65 2195.091)" fill="none" stroke="#b3c2c9" stroke-linecap="round" stroke-width="1"/>
    <path id="Trazado_114202" data-name="Trazado 114202" d="M328.289,0H0" transform="translate(884.65 2224.936)" fill="none" stroke="#b3c2c9" stroke-linecap="round" stroke-width="1"/>
    <path id="Trazado_114203" data-name="Trazado 114203" d="M3.4,0A3.4,3.4,0,1,1,0,3.4,3.4,3.4,0,0,1,3.4,0Z" transform="translate(982.719 2072.311)" fill="#ff9500"/>
    <path id="Trazado_114204" data-name="Trazado 114204" d="M3.4,0A3.4,3.4,0,1,1,0,3.4,3.4,3.4,0,0,1,3.4,0Z" transform="translate(1102.097 2012.622)" fill="#255065"/>
    <path id="Trazado_114205" data-name="Trazado 114205" d="M3.4,0A3.4,3.4,0,1,1,0,3.4,3.4,3.4,0,0,1,3.4,0Z" transform="translate(1131.941 2191.688)" fill="#0ca4ca"/>
    <path id="Trazado_114206" data-name="Trazado 114206" d="M0,0H89.223V178.756H0Z" transform="translate(896.898 2075.713)" fill="none" stroke="#ff9500" stroke-linecap="round" stroke-width="3" stroke-dasharray="5 10"/>
    <path id="Trazado_114207" data-name="Trazado 114207" d="M0,0H238.445V59.378H0Z" transform="translate(896.898 2195.091)" fill="none" stroke="#0ca4ca" stroke-linecap="round" stroke-width="3" stroke-dasharray="5 10"/>
    <path id="Trazado_114208" data-name="Trazado 114208" d="M0,0H208.6V238.445H0Z" transform="translate(896.898 2016.024)" fill="none" stroke="#255065" stroke-linecap="round" stroke-width="3" stroke-dasharray="5 10"/>
    <path id="Trazado_114209" data-name="Trazado 114209" d="M12.248,0H0" transform="translate(884.65 1956.335)" fill="none" stroke="#000" stroke-linecap="round" stroke-width="3"/>
    <path id="Trazado_114210" data-name="Trazado 114210" d="M12.248,0H0" transform="translate(884.65 1986.18)" fill="none" stroke="#000" stroke-linecap="round" stroke-width="3"/>
    <path id="Trazado_114211" data-name="Trazado 114211" d="M12.248,0H0" transform="translate(884.65 2016.023)" fill="none" stroke="#000" stroke-linecap="round" stroke-width="3"/>
    <path id="Trazado_114212" data-name="Trazado 114212" d="M12.248,0H0" transform="translate(884.65 2045.868)" fill="none" stroke="#000" stroke-linecap="round" stroke-width="3"/>
    <path id="Trazado_114213" data-name="Trazado 114213" d="M12.248,0H0" transform="translate(884.65 2075.713)" fill="none" stroke="#000" stroke-linecap="round" stroke-width="3"/>
    <path id="Trazado_114214" data-name="Trazado 114214" d="M12.248,0H0" transform="translate(884.65 2105.557)" fill="none" stroke="#000" stroke-linecap="round" stroke-width="3"/>
    <path id="Trazado_114215" data-name="Trazado 114215" d="M12.248,0H0" transform="translate(884.65 2135.401)" fill="none" stroke="#000" stroke-linecap="round" stroke-width="3"/>
    <path id="Trazado_114216" data-name="Trazado 114216" d="M12.248,0H0" transform="translate(884.65 2165.246)" fill="none" stroke="#000" stroke-linecap="round" stroke-width="3"/>
    <path id="Trazado_114217" data-name="Trazado 114217" d="M12.248,0H0" transform="translate(884.65 2195.09)" fill="none" stroke="#000" stroke-linecap="round" stroke-width="3"/>
    <path id="Trazado_114218" data-name="Trazado 114218" d="M12.248,0H0" transform="translate(884.65 2224.935)" fill="none" stroke="#000" stroke-linecap="round" stroke-width="3"/>
    <path id="Trazado_114219" data-name="Trazado 114219" d="M0,0V12.248" transform="translate(926.433 2254.469)" fill="none" stroke="#000" stroke-linecap="round" stroke-width="3"/>
    <path id="Trazado_114220" data-name="Trazado 114220" d="M0,0V12.248" transform="translate(956.277 2254.469)" fill="none" stroke="#000" stroke-linecap="round" stroke-width="3"/>
    <path id="Trazado_114221" data-name="Trazado 114221" d="M0,0V12.248" transform="translate(986.122 2254.469)" fill="none" stroke="#000" stroke-linecap="round" stroke-width="3"/>
    <path id="Trazado_114222" data-name="Trazado 114222" d="M0,0V12.248" transform="translate(1015.966 2254.469)" fill="none" stroke="#000" stroke-linecap="round" stroke-width="3"/>
    <path id="Trazado_114223" data-name="Trazado 114223" d="M0,0V12.248" transform="translate(1045.811 2254.469)" fill="none" stroke="#000" stroke-linecap="round" stroke-width="3"/>
    <path id="Trazado_114224" data-name="Trazado 114224" d="M0,0V12.248" transform="translate(1075.655 2254.469)" fill="none" stroke="#000" stroke-linecap="round" stroke-width="3"/>
    <path id="Trazado_114225" data-name="Trazado 114225" d="M0,0V12.248" transform="translate(1105.499 2254.469)" fill="none" stroke="#000" stroke-linecap="round" stroke-width="3"/>
    <path id="Trazado_114226" data-name="Trazado 114226" d="M0,0V12.248" transform="translate(1135.344 2254.469)" fill="none" stroke="#000" stroke-linecap="round" stroke-width="3"/>
    <path id="Trazado_114227" data-name="Trazado 114227" d="M0,0V12.248" transform="translate(1165.188 2254.469)" fill="none" stroke="#000" stroke-linecap="round" stroke-width="3"/>
    <path id="Trazado_114228" data-name="Trazado 114228" d="M0,0V12.248" transform="translate(1195.032 2254.469)" fill="none" stroke="#000" stroke-linecap="round" stroke-width="3"/>
    <path id="Trazado_113870" data-name="Trazado 113870" d="M344.866,340.4c.016-.025.027-.051.042-.076a1.692,1.692,0,0,0,.137-.31c.012-.035.023-.069.033-.1a1.542,1.542,0,0,0,0-.846c-.01-.036-.021-.07-.033-.1a1.713,1.713,0,0,0-.137-.31c-.014-.025-.026-.052-.042-.076a1.688,1.688,0,0,0-.261-.316c-.022-.021-.047-.038-.07-.058a1.683,1.683,0,0,0-.285-.2c-.019-.011-.033-.027-.053-.037l-6.8-3.4a1.7,1.7,0,1,0-1.522,3.043l.359.18H16.848V18.407l.18.359a1.7,1.7,0,0,0,3.043-1.521l-3.4-6.8c-.01-.019-.025-.033-.035-.051a1.684,1.684,0,0,0-.2-.289c-.019-.022-.036-.047-.056-.069a1.728,1.728,0,0,0-.317-.262c-.024-.015-.05-.027-.075-.04a1.677,1.677,0,0,0-.311-.138c-.035-.012-.069-.023-.1-.033a1.543,1.543,0,0,0-.846,0c-.036.01-.069.021-.1.033a1.677,1.677,0,0,0-.311.138c-.025.014-.051.025-.075.04a1.731,1.731,0,0,0-.318.263c-.02.021-.037.045-.056.068a1.658,1.658,0,0,0-.2.289c-.01.018-.026.032-.035.051l-3.4,6.8a1.7,1.7,0,0,0,3.043,1.521l.18-.359V339.49a1.7,1.7,0,0,0,1.7,1.7H336.229l-.359.18a1.7,1.7,0,1,0,1.522,3.043l6.8-3.4c.02-.01.034-.026.054-.037a1.7,1.7,0,0,0,.284-.2c.023-.02.048-.037.07-.058A1.716,1.716,0,0,0,344.866,340.4Z" transform="translate(881.441 1915.29)"/>
    <path id="Trazado_114229" data-name="Trazado 114229" d="M-2.878,0H-4.149V-8.429l-2.55.937V-8.641L-3.076-10h.2Z" transform="translate(877.083 2226.836)" fill="#12263f"/>
    <path id="Trazado_114230" data-name="Trazado 114230" d="M-.513,0H-7.034V-.909l3.445-3.828A8.185,8.185,0,0,0-2.533-6.149a2.356,2.356,0,0,0,.291-1.125,1.786,1.786,0,0,0-.472-1.278,1.649,1.649,0,0,0-1.258-.5,1.953,1.953,0,0,0-1.466.537,2.05,2.05,0,0,0-.523,1.494H-7.226A2.936,2.936,0,0,1-6.34-9.242a3.282,3.282,0,0,1,2.369-.848,3.153,3.153,0,0,1,2.194.728A2.483,2.483,0,0,1-.971-7.424q0,1.47-1.873,3.5L-5.51-1.032h5Z" transform="translate(877.083 2196.992)" fill="#12263f"/>
    <path id="Trazado_114231" data-name="Trazado 114231" d="M-5.2-5.592h.95a2.088,2.088,0,0,0,1.408-.472A1.576,1.576,0,0,0-2.324-7.3a1.544,1.544,0,0,0-1.743-1.75,1.813,1.813,0,0,0-1.309.468,1.639,1.639,0,0,0-.489,1.241H-7.13a2.539,2.539,0,0,1,.865-1.965,3.15,3.15,0,0,1,2.2-.783,3.113,3.113,0,0,1,2.208.745,2.692,2.692,0,0,1,.8,2.071,2.185,2.185,0,0,1-.42,1.258,2.538,2.538,0,0,1-1.145.909,2.446,2.446,0,0,1,1.268.861,2.392,2.392,0,0,1,.448,1.47A2.715,2.715,0,0,1-1.784-.649,3.277,3.277,0,0,1-4.061.137,3.363,3.363,0,0,1-6.34-.622a2.517,2.517,0,0,1-.878-2h1.271a1.627,1.627,0,0,0,.513,1.258A1.95,1.95,0,0,0-4.061-.9a1.914,1.914,0,0,0,1.4-.479,1.844,1.844,0,0,0,.485-1.374,1.673,1.673,0,0,0-.533-1.333A2.323,2.323,0,0,0-4.245-4.56H-5.2Z" transform="translate(877.083 2167.147)" fill="#12263f"/>
    <path id="Trazado_114232" data-name="Trazado 114232" d="M-1.7-3.343H-.314v1.032H-1.7V0H-2.967V-2.311H-7.5v-.745l4.457-6.9H-1.7Zm-4.368,0h3.1V-8.224l-.15.273Z" transform="translate(877.083 2137.303)" fill="#12263f"/>
    <path id="Trazado_114233" data-name="Trazado 114233" d="M-6.453-4.99l.506-4.963h5.1v1.169H-4.874l-.3,2.714A3.212,3.212,0,0,1-3.514-6.5a2.746,2.746,0,0,1,2.16.9,3.523,3.523,0,0,1,.8,2.43A3.4,3.4,0,0,1-1.384-.749,3.027,3.027,0,0,1-3.705.137,3.146,3.146,0,0,1-5.858-.595a2.919,2.919,0,0,1-.95-2.023h1.2A2.009,2.009,0,0,0-5-1.33a1.892,1.892,0,0,0,1.3.434,1.706,1.706,0,0,0,1.384-.6,2.515,2.515,0,0,0,.5-1.661,2.308,2.308,0,0,0-.543-1.6,1.849,1.849,0,0,0-1.446-.6A2.085,2.085,0,0,0-5.106-5l-.335.273Z" transform="translate(877.083 2107.459)" fill="#12263f"/>
    <path id="Trazado_114234" data-name="Trazado 114234" d="M-2.071-9.96v1.073H-2.3a3.33,3.33,0,0,0-2.352.875A3.641,3.641,0,0,0-5.667-5.626a2.7,2.7,0,0,1,2.146-.9,2.581,2.581,0,0,1,2.075.916A3.533,3.533,0,0,1-.67-3.247,3.522,3.522,0,0,1-1.507-.786,2.883,2.883,0,0,1-3.753.137,2.841,2.841,0,0,1-6.07-.96a4.348,4.348,0,0,1-.889-2.827v-.485a6.552,6.552,0,0,1,1.172-4.2A4.306,4.306,0,0,1-2.3-9.96ZM-3.732-5.476a2.018,2.018,0,0,0-1.2.39,2.03,2.03,0,0,0-.759.978v.465a3.265,3.265,0,0,0,.554,1.982,1.659,1.659,0,0,0,1.381.752A1.608,1.608,0,0,0-2.41-1.538a2.61,2.61,0,0,0,.489-1.647,2.61,2.61,0,0,0-.5-1.658A1.589,1.589,0,0,0-3.732-5.476Z" transform="translate(877.083 2077.614)" fill="#12263f"/>
    <path id="Trazado_114235" data-name="Trazado 114235" d="M-.608-9.242-4.73,0H-6.057l4.108-8.914H-7.335V-9.953H-.608Z" transform="translate(877.083 2047.77)" fill="#12263f"/>
    <path id="Trazado_114236" data-name="Trazado 114236" d="M-1-7.355a2.311,2.311,0,0,1-.393,1.326,2.674,2.674,0,0,1-1.063.909,2.853,2.853,0,0,1,1.234.978A2.46,2.46,0,0,1-.766-2.687,2.6,2.6,0,0,1-1.637-.629,3.349,3.349,0,0,1-3.931.137a3.334,3.334,0,0,1-2.3-.769A2.613,2.613,0,0,1-7.1-2.687a2.533,2.533,0,0,1,.441-1.456,2.744,2.744,0,0,1,1.22-.984A2.608,2.608,0,0,1-6.48-6.036a2.344,2.344,0,0,1-.383-1.319,2.573,2.573,0,0,1,.807-2,3.026,3.026,0,0,1,2.126-.738,3.029,3.029,0,0,1,2.123.738A2.567,2.567,0,0,1-1-7.355ZM-2.03-2.714a1.834,1.834,0,0,0-.53-1.36A1.879,1.879,0,0,0-3.944-4.6a1.846,1.846,0,0,0-1.371.52,1.855,1.855,0,0,0-.516,1.367,1.767,1.767,0,0,0,.5,1.333,1.929,1.929,0,0,0,1.4.485,1.923,1.923,0,0,0,1.395-.489A1.763,1.763,0,0,0-2.03-2.714Zm-1.9-6.337a1.632,1.632,0,0,0-1.207.461A1.7,1.7,0,0,0-5.6-7.335a1.687,1.687,0,0,0,.455,1.227,1.613,1.613,0,0,0,1.213.468,1.613,1.613,0,0,0,1.213-.468,1.687,1.687,0,0,0,.455-1.227,1.687,1.687,0,0,0-.472-1.237A1.609,1.609,0,0,0-3.931-9.051Z" transform="translate(877.083 2017.926)" fill="#12263f"/>
    <path id="Trazado_114237" data-name="Trazado 114237" d="M-27.214-4.04A10.569,10.569,0,0,1-26.8-7.007a8.618,8.618,0,0,1,1.234-2.584,5.249,5.249,0,0,1,1.7-1.641l.26.834A5.444,5.444,0,0,0-25.242-8.06a10.135,10.135,0,0,0-.7,3.521l-.007.581a10.188,10.188,0,0,0,.964,4.58A5.47,5.47,0,0,0-23.6,2.44l-.26.772a5.418,5.418,0,0,1-1.736-1.7A9.5,9.5,0,0,1-27.214-4.04Zm11.129-5.2L-20.207,0h-1.326l4.108-8.914h-5.387V-9.953h6.727Zm1.524,11.225-.718-.492a3.3,3.3,0,0,0,.67-1.846V-1.5h1.237v.991A3.114,3.114,0,0,1-13.709.875,3.233,3.233,0,0,1-14.561,1.982Zm8.7-9.338a2.311,2.311,0,0,1-.393,1.326,2.674,2.674,0,0,1-1.063.909,2.853,2.853,0,0,1,1.234.978,2.46,2.46,0,0,1,.455,1.456A2.6,2.6,0,0,1-6.5-.629,3.349,3.349,0,0,1-8.8.137a3.334,3.334,0,0,1-2.3-.769,2.613,2.613,0,0,1-.865-2.054,2.533,2.533,0,0,1,.441-1.456,2.744,2.744,0,0,1,1.22-.984,2.608,2.608,0,0,1-1.046-.909,2.344,2.344,0,0,1-.383-1.319,2.573,2.573,0,0,1,.807-2A3.026,3.026,0,0,1-8.8-10.09a3.029,3.029,0,0,1,2.123.738A2.567,2.567,0,0,1-5.865-7.355ZM-6.9-2.714a1.834,1.834,0,0,0-.53-1.36A1.879,1.879,0,0,0-8.812-4.6a1.846,1.846,0,0,0-1.371.52A1.855,1.855,0,0,0-10.7-2.714a1.767,1.767,0,0,0,.5,1.333A1.929,1.929,0,0,0-8.8-.9,1.923,1.923,0,0,0-7.4-1.384,1.763,1.763,0,0,0-6.9-2.714ZM-8.8-9.051A1.632,1.632,0,0,0-10-8.589a1.7,1.7,0,0,0-.461,1.254,1.687,1.687,0,0,0,.455,1.227A1.613,1.613,0,0,0-8.8-5.64a1.613,1.613,0,0,0,1.213-.468A1.687,1.687,0,0,0-7.13-7.335,1.687,1.687,0,0,0-7.6-8.572,1.609,1.609,0,0,0-8.8-9.051ZM-.991-3.972a10.574,10.574,0,0,1-.4,2.922A8.641,8.641,0,0,1-2.615,1.531,5.361,5.361,0,0,1-4.341,3.213l-.267-.772A5.5,5.5,0,0,0-2.916-.065a10.839,10.839,0,0,0,.653-3.77v-.219a11.253,11.253,0,0,0-.3-2.669A9.009,9.009,0,0,0-3.4-8.935a5.108,5.108,0,0,0-1.207-1.524l.267-.772A5.34,5.34,0,0,1-2.622-9.563,8.66,8.66,0,0,1-1.4-6.986,10.818,10.818,0,0,1-.991-3.972Z" transform="translate(1147.004 2017.926)" fill="#12263f"/>
    <path id="Trazado_114238" data-name="Trazado 114238" d="M-27.214-4.04A10.569,10.569,0,0,1-26.8-7.007a8.618,8.618,0,0,1,1.234-2.584,5.249,5.249,0,0,1,1.7-1.641l.26.834A5.444,5.444,0,0,0-25.242-8.06a10.135,10.135,0,0,0-.7,3.521l-.007.581a10.188,10.188,0,0,0,.964,4.58A5.47,5.47,0,0,0-23.6,2.44l-.26.772a5.418,5.418,0,0,1-1.736-1.7A9.5,9.5,0,0,1-27.214-4.04Zm6.542-1.552h.95a2.088,2.088,0,0,0,1.408-.472A1.576,1.576,0,0,0-17.8-7.3a1.544,1.544,0,0,0-1.743-1.75,1.813,1.813,0,0,0-1.309.468,1.639,1.639,0,0,0-.489,1.241h-1.265a2.539,2.539,0,0,1,.865-1.965,3.15,3.15,0,0,1,2.2-.783,3.113,3.113,0,0,1,2.208.745,2.692,2.692,0,0,1,.8,2.071,2.185,2.185,0,0,1-.42,1.258,2.538,2.538,0,0,1-1.145.909,2.446,2.446,0,0,1,1.268.861,2.392,2.392,0,0,1,.448,1.47,2.715,2.715,0,0,1-.875,2.126,3.277,3.277,0,0,1-2.276.786,3.363,3.363,0,0,1-2.28-.759,2.517,2.517,0,0,1-.878-2h1.271a1.627,1.627,0,0,0,.513,1.258A1.95,1.95,0,0,0-19.537-.9a1.914,1.914,0,0,0,1.4-.479,1.844,1.844,0,0,0,.485-1.374,1.673,1.673,0,0,0-.533-1.333,2.323,2.323,0,0,0-1.538-.479h-.95Zm6.111,7.574-.718-.492a3.3,3.3,0,0,0,.67-1.846V-1.5h1.237v.991A3.114,3.114,0,0,1-13.709.875,3.233,3.233,0,0,1-14.561,1.982ZM-6.938-9.96v1.073h-.232a3.33,3.33,0,0,0-2.352.875,3.641,3.641,0,0,0-1.012,2.386,2.7,2.7,0,0,1,2.146-.9,2.581,2.581,0,0,1,2.075.916,3.533,3.533,0,0,1,.776,2.365A3.522,3.522,0,0,1-6.375-.786,2.883,2.883,0,0,1-8.62.137a2.841,2.841,0,0,1-2.317-1.1,4.348,4.348,0,0,1-.889-2.827v-.485a6.552,6.552,0,0,1,1.172-4.2A4.306,4.306,0,0,1-7.164-9.96ZM-8.6-5.476a2.018,2.018,0,0,0-1.2.39,2.03,2.03,0,0,0-.759.978v.465A3.265,3.265,0,0,0-10-1.661,1.659,1.659,0,0,0-8.62-.909a1.608,1.608,0,0,0,1.343-.629,2.61,2.61,0,0,0,.489-1.647,2.61,2.61,0,0,0-.5-1.658A1.589,1.589,0,0,0-8.6-5.476Zm7.608,1.5a10.574,10.574,0,0,1-.4,2.922A8.641,8.641,0,0,1-2.615,1.531,5.361,5.361,0,0,1-4.341,3.213l-.267-.772A5.5,5.5,0,0,0-2.916-.065a10.839,10.839,0,0,0,.653-3.77v-.219a11.253,11.253,0,0,0-.3-2.669A9.009,9.009,0,0,0-3.4-8.935a5.108,5.108,0,0,0-1.207-1.524l.267-.772A5.34,5.34,0,0,1-2.622-9.563,8.66,8.66,0,0,1-1.4-6.986,10.818,10.818,0,0,1-.991-3.972Z" transform="translate(1027.745 2077.614)" fill="#12263f"/>
    <path id="Trazado_114239" data-name="Trazado 114239" d="M-27.214-4.04A10.569,10.569,0,0,1-26.8-7.007a8.618,8.618,0,0,1,1.234-2.584,5.249,5.249,0,0,1,1.7-1.641l.26.834A5.444,5.444,0,0,0-25.242-8.06a10.135,10.135,0,0,0-.7,3.521l-.007.581a10.188,10.188,0,0,0,.964,4.58A5.47,5.47,0,0,0-23.6,2.44l-.26.772a5.418,5.418,0,0,1-1.736-1.7A9.5,9.5,0,0,1-27.214-4.04Zm10.739-3.315a2.311,2.311,0,0,1-.393,1.326,2.674,2.674,0,0,1-1.063.909,2.853,2.853,0,0,1,1.234.978,2.46,2.46,0,0,1,.455,1.456,2.6,2.6,0,0,1-.872,2.058,3.349,3.349,0,0,1-2.293.766,3.334,3.334,0,0,1-2.3-.769,2.613,2.613,0,0,1-.865-2.054,2.533,2.533,0,0,1,.441-1.456,2.744,2.744,0,0,1,1.22-.984,2.608,2.608,0,0,1-1.046-.909,2.344,2.344,0,0,1-.383-1.319,2.573,2.573,0,0,1,.807-2,3.026,3.026,0,0,1,2.126-.738,3.029,3.029,0,0,1,2.123.738A2.567,2.567,0,0,1-16.475-7.355Zm-1.032,4.642a1.834,1.834,0,0,0-.53-1.36A1.879,1.879,0,0,0-19.421-4.6a1.846,1.846,0,0,0-1.371.52,1.855,1.855,0,0,0-.516,1.367,1.767,1.767,0,0,0,.5,1.333,1.929,1.929,0,0,0,1.4.485,1.923,1.923,0,0,0,1.395-.489A1.763,1.763,0,0,0-17.507-2.714Zm-1.9-6.337a1.632,1.632,0,0,0-1.207.461,1.7,1.7,0,0,0-.461,1.254,1.687,1.687,0,0,0,.455,1.227,1.613,1.613,0,0,0,1.213.468,1.613,1.613,0,0,0,1.213-.468,1.687,1.687,0,0,0,.455-1.227,1.687,1.687,0,0,0-.472-1.237A1.609,1.609,0,0,0-19.407-9.051Zm4.847,11.033-.718-.492a3.3,3.3,0,0,0,.67-1.846V-1.5h1.237v.991A3.114,3.114,0,0,1-13.709.875,3.233,3.233,0,0,1-14.561,1.982ZM-5.38,0H-11.9V-.909l3.445-3.828A8.185,8.185,0,0,0-7.4-6.149a2.356,2.356,0,0,0,.291-1.125,1.786,1.786,0,0,0-.472-1.278,1.649,1.649,0,0,0-1.258-.5,1.953,1.953,0,0,0-1.466.537,2.05,2.05,0,0,0-.523,1.494h-1.265a2.936,2.936,0,0,1,.885-2.222,3.282,3.282,0,0,1,2.369-.848,3.153,3.153,0,0,1,2.194.728,2.483,2.483,0,0,1,.807,1.938q0,1.47-1.873,3.5l-2.666,2.892h5ZM-.991-3.972a10.574,10.574,0,0,1-.4,2.922A8.641,8.641,0,0,1-2.615,1.531,5.361,5.361,0,0,1-4.341,3.213l-.267-.772A5.5,5.5,0,0,0-2.916-.065a10.839,10.839,0,0,0,.653-3.77v-.219a11.253,11.253,0,0,0-.3-2.669A9.009,9.009,0,0,0-3.4-8.935a5.108,5.108,0,0,0-1.207-1.524l.267-.772A5.34,5.34,0,0,1-2.622-9.563,8.66,8.66,0,0,1-1.4-6.986,10.818,10.818,0,0,1-.991-3.972Z" transform="translate(1177.041 2196.992)" fill="#12263f"/>
    <path id="Trazado_114240" data-name="Trazado 114240" d="M-2.187-4.375a3.094,3.094,0,0,1-.947.759,2.569,2.569,0,0,1-1.207.287,2.652,2.652,0,0,1-1.5-.424,2.755,2.755,0,0,1-.988-1.193,4.067,4.067,0,0,1-.349-1.7,4.143,4.143,0,0,1,.379-1.8A2.787,2.787,0,0,1-5.722-9.666a3.07,3.07,0,0,1,1.627-.424,2.78,2.78,0,0,1,2.328,1.1A4.815,4.815,0,0,1-.916-5.975v.369A6.434,6.434,0,0,1-2.064-1.364,4.412,4.412,0,0,1-5.53.007h-.246V-1.066h.267A3.482,3.482,0,0,0-3.1-1.882,3.5,3.5,0,0,0-2.187-4.375Zm-1.948,0a1.953,1.953,0,0,0,1.172-.39,2.3,2.3,0,0,0,.783-.964v-.506a3.48,3.48,0,0,0-.54-2.023,1.611,1.611,0,0,0-1.367-.779,1.624,1.624,0,0,0-1.34.639,2.637,2.637,0,0,0-.506,1.685,2.744,2.744,0,0,0,.489,1.678A1.548,1.548,0,0,0-4.136-4.375Z" transform="translate(877.083 1988.081)" fill="#12263f"/>
    <path id="Trazado_114241" data-name="Trazado 114241" d="M-2.187-4.375a3.094,3.094,0,0,1-.947.759,2.569,2.569,0,0,1-1.207.287,2.652,2.652,0,0,1-1.5-.424,2.755,2.755,0,0,1-.988-1.193,4.067,4.067,0,0,1-.349-1.7,4.143,4.143,0,0,1,.379-1.8A2.787,2.787,0,0,1-5.722-9.666a3.07,3.07,0,0,1,1.627-.424,2.78,2.78,0,0,1,2.328,1.1A4.815,4.815,0,0,1-.916-5.975v.369A6.434,6.434,0,0,1-2.064-1.364,4.412,4.412,0,0,1-5.53.007h-.246V-1.066h.267A3.482,3.482,0,0,0-3.1-1.882,3.5,3.5,0,0,0-2.187-4.375Zm-1.948,0a1.953,1.953,0,0,0,1.172-.39,2.3,2.3,0,0,0,.783-.964v-.506a3.48,3.48,0,0,0-.54-2.023,1.611,1.611,0,0,0-1.367-.779,1.624,1.624,0,0,0-1.34.639,2.637,2.637,0,0,0-.506,1.685,2.744,2.744,0,0,0,.489,1.678A1.548,1.548,0,0,0-4.136-4.375Z" transform="translate(1166.789 2280.021)" fill="#12263f"/>
    <path id="Trazado_114242" data-name="Trazado 114242" d="M-10.739,0h-1.271V-8.429l-2.55.937V-8.641L-10.937-10h.2ZM-.793-4.245a5.784,5.784,0,0,1-.759,3.3A2.7,2.7,0,0,1-3.924.137,2.718,2.718,0,0,1-6.282-.919a5.49,5.49,0,0,1-.793-3.155V-5.763a5.655,5.655,0,0,1,.759-3.261A2.719,2.719,0,0,1-3.937-10.09,2.744,2.744,0,0,1-1.572-9.061,5.458,5.458,0,0,1-.793-5.886ZM-2.058-5.975a4.634,4.634,0,0,0-.451-2.341,1.553,1.553,0,0,0-1.429-.735,1.532,1.532,0,0,0-1.415.731A4.525,4.525,0,0,0-5.811-6.07v2.023a4.708,4.708,0,0,0,.468,2.382A1.55,1.55,0,0,0-3.924-.9,1.529,1.529,0,0,0-2.533-1.62,4.538,4.538,0,0,0-2.058-3.9Z" transform="translate(877 1958.236)" fill="#12263f"/>
    <path id="Trazado_114243" data-name="Trazado 114243" d="M-2.878,0H-4.149V-8.429l-2.55.937V-8.641L-3.076-10h.2Z" transform="translate(928.033 2280.011)" fill="#12263f"/>
    <path id="Trazado_114244" data-name="Trazado 114244" d="M-.513,0H-7.034V-.909l3.445-3.828A8.185,8.185,0,0,0-2.533-6.149a2.356,2.356,0,0,0,.291-1.125,1.786,1.786,0,0,0-.472-1.278,1.649,1.649,0,0,0-1.258-.5,1.953,1.953,0,0,0-1.466.537,2.05,2.05,0,0,0-.523,1.494H-7.226A2.936,2.936,0,0,1-6.34-9.242a3.282,3.282,0,0,1,2.369-.848,3.153,3.153,0,0,1,2.194.728A2.483,2.483,0,0,1-.971-7.424q0,1.47-1.873,3.5L-5.51-1.032h5Z" transform="translate(957.878 2280.011)" fill="#12263f"/>
    <path id="Trazado_114245" data-name="Trazado 114245" d="M-5.2-5.592h.95a2.088,2.088,0,0,0,1.408-.472A1.576,1.576,0,0,0-2.324-7.3a1.544,1.544,0,0,0-1.743-1.75,1.813,1.813,0,0,0-1.309.468,1.639,1.639,0,0,0-.489,1.241H-7.13a2.539,2.539,0,0,1,.865-1.965,3.15,3.15,0,0,1,2.2-.783,3.113,3.113,0,0,1,2.208.745,2.692,2.692,0,0,1,.8,2.071,2.185,2.185,0,0,1-.42,1.258,2.538,2.538,0,0,1-1.145.909,2.446,2.446,0,0,1,1.268.861,2.392,2.392,0,0,1,.448,1.47A2.715,2.715,0,0,1-1.784-.649,3.277,3.277,0,0,1-4.061.137,3.363,3.363,0,0,1-6.34-.622a2.517,2.517,0,0,1-.878-2h1.271a1.627,1.627,0,0,0,.513,1.258A1.95,1.95,0,0,0-4.061-.9a1.914,1.914,0,0,0,1.4-.479,1.844,1.844,0,0,0,.485-1.374,1.673,1.673,0,0,0-.533-1.333A2.323,2.323,0,0,0-4.245-4.56H-5.2Z" transform="translate(987.723 2280.011)" fill="#12263f"/>
    <path id="Trazado_114246" data-name="Trazado 114246" d="M-1.7-3.343H-.314v1.032H-1.7V0H-2.967V-2.311H-7.5v-.745l4.457-6.9H-1.7Zm-4.368,0h3.1V-8.224l-.15.273Z" transform="translate(1017.567 2280.011)" fill="#12263f"/>
    <path id="Trazado_114247" data-name="Trazado 114247" d="M-6.453-4.99l.506-4.963h5.1v1.169H-4.874l-.3,2.714A3.212,3.212,0,0,1-3.514-6.5a2.746,2.746,0,0,1,2.16.9,3.523,3.523,0,0,1,.8,2.43A3.4,3.4,0,0,1-1.384-.749,3.027,3.027,0,0,1-3.705.137,3.146,3.146,0,0,1-5.858-.595a2.919,2.919,0,0,1-.95-2.023h1.2A2.009,2.009,0,0,0-5-1.33a1.892,1.892,0,0,0,1.3.434,1.706,1.706,0,0,0,1.384-.6,2.515,2.515,0,0,0,.5-1.661,2.308,2.308,0,0,0-.543-1.6,1.849,1.849,0,0,0-1.446-.6A2.085,2.085,0,0,0-5.106-5l-.335.273Z" transform="translate(1047.411 2280.011)" fill="#12263f"/>
    <path id="Trazado_114248" data-name="Trazado 114248" d="M-2.071-9.96v1.073H-2.3a3.33,3.33,0,0,0-2.352.875A3.641,3.641,0,0,0-5.667-5.626a2.7,2.7,0,0,1,2.146-.9,2.581,2.581,0,0,1,2.075.916A3.533,3.533,0,0,1-.67-3.247,3.522,3.522,0,0,1-1.507-.786,2.883,2.883,0,0,1-3.753.137,2.841,2.841,0,0,1-6.07-.96a4.348,4.348,0,0,1-.889-2.827v-.485a6.552,6.552,0,0,1,1.172-4.2A4.306,4.306,0,0,1-2.3-9.96ZM-3.732-5.476a2.018,2.018,0,0,0-1.2.39,2.03,2.03,0,0,0-.759.978v.465a3.265,3.265,0,0,0,.554,1.982,1.659,1.659,0,0,0,1.381.752A1.608,1.608,0,0,0-2.41-1.538a2.61,2.61,0,0,0,.489-1.647,2.61,2.61,0,0,0-.5-1.658A1.589,1.589,0,0,0-3.732-5.476Z" transform="translate(1077.255 2280.011)" fill="#12263f"/>
    <path id="Trazado_114249" data-name="Trazado 114249" d="M-.608-9.242-4.73,0H-6.057l4.108-8.914H-7.335V-9.953H-.608Z" transform="translate(1107.1 2280.011)" fill="#12263f"/>
    <path id="Trazado_114250" data-name="Trazado 114250" d="M-1-7.355a2.311,2.311,0,0,1-.393,1.326,2.674,2.674,0,0,1-1.063.909,2.853,2.853,0,0,1,1.234.978A2.46,2.46,0,0,1-.766-2.687,2.6,2.6,0,0,1-1.637-.629,3.349,3.349,0,0,1-3.931.137a3.334,3.334,0,0,1-2.3-.769A2.613,2.613,0,0,1-7.1-2.687a2.533,2.533,0,0,1,.441-1.456,2.744,2.744,0,0,1,1.22-.984A2.608,2.608,0,0,1-6.48-6.036a2.344,2.344,0,0,1-.383-1.319,2.573,2.573,0,0,1,.807-2,3.026,3.026,0,0,1,2.126-.738,3.029,3.029,0,0,1,2.123.738A2.567,2.567,0,0,1-1-7.355ZM-2.03-2.714a1.834,1.834,0,0,0-.53-1.36A1.879,1.879,0,0,0-3.944-4.6a1.846,1.846,0,0,0-1.371.52,1.855,1.855,0,0,0-.516,1.367,1.767,1.767,0,0,0,.5,1.333,1.929,1.929,0,0,0,1.4.485,1.923,1.923,0,0,0,1.395-.489A1.763,1.763,0,0,0-2.03-2.714Zm-1.9-6.337a1.632,1.632,0,0,0-1.207.461A1.7,1.7,0,0,0-5.6-7.335a1.687,1.687,0,0,0,.455,1.227,1.613,1.613,0,0,0,1.213.468,1.613,1.613,0,0,0,1.213-.468,1.687,1.687,0,0,0,.455-1.227,1.687,1.687,0,0,0-.472-1.237A1.609,1.609,0,0,0-3.931-9.051Z" transform="translate(1136.944 2280.011)" fill="#12263f"/>
    <path id="Trazado_114251" data-name="Trazado 114251" d="M-.793-4.245a5.784,5.784,0,0,1-.759,3.3A2.7,2.7,0,0,1-3.924.137,2.718,2.718,0,0,1-6.282-.919a5.49,5.49,0,0,1-.793-3.155V-5.763a5.655,5.655,0,0,1,.759-3.261A2.719,2.719,0,0,1-3.937-10.09,2.744,2.744,0,0,1-1.572-9.061,5.458,5.458,0,0,1-.793-5.886ZM-2.058-5.975a4.634,4.634,0,0,0-.451-2.341,1.553,1.553,0,0,0-1.429-.735,1.532,1.532,0,0,0-1.415.731A4.525,4.525,0,0,0-5.811-6.07v2.023a4.708,4.708,0,0,0,.468,2.382A1.55,1.55,0,0,0-3.924-.9,1.529,1.529,0,0,0-2.533-1.62,4.538,4.538,0,0,0-2.058-3.9Z" transform="translate(888.362 2266.232)" fill="#12263f"/>
    <path id="Trazado_114252" data-name="Trazado 114252" d="M-10.739,0h-1.271V-8.429l-2.55.937V-8.641L-10.937-10h.2ZM-.793-4.245a5.784,5.784,0,0,1-.759,3.3A2.7,2.7,0,0,1-3.924.137,2.718,2.718,0,0,1-6.282-.919a5.49,5.49,0,0,1-.793-3.155V-5.763a5.655,5.655,0,0,1,.759-3.261A2.719,2.719,0,0,1-3.937-10.09,2.744,2.744,0,0,1-1.572-9.061,5.458,5.458,0,0,1-.793-5.886ZM-2.058-5.975a4.634,4.634,0,0,0-.451-2.341,1.553,1.553,0,0,0-1.429-.735,1.532,1.532,0,0,0-1.415.731A4.525,4.525,0,0,0-5.811-6.07v2.023a4.708,4.708,0,0,0,.468,2.382A1.55,1.55,0,0,0-3.924-.9,1.529,1.529,0,0,0-2.533-1.62,4.538,4.538,0,0,0-2.058-3.9Z" transform="translate(1198.234 2280.011)" fill="#12263f"/>
    <path id="Trazado_114253" data-name="Trazado 114253" d="M-4.471-6.645l1.627-3.309H-.1L-2.885-5.018-.027,0H-2.8L-4.471-3.37-6.146,0H-8.907l2.851-5.018L-8.832-9.953H-6.1Z" transform="translate(1225.371 2280.231)"/>
    <path id="Trazado_114254" data-name="Trazado 114254" d="M-4.709-6.035l1.963-4.629H.029L-3.406-3.831V0H-6.013V-3.831l-3.428-6.833H-6.68Z" transform="translate(876.788 1937.841)"/>
  </g>
</svg>
