<svg xmlns="http://www.w3.org/2000/svg" xmlns:xlink="http://www.w3.org/1999/xlink" width="464.547" height="428.575" viewBox="0 0 464.547 428.575">
  <defs>
    <clipPath id="clip-path">
      <path id="Trazado_113783" data-name="Trazado 113783" d="M1725-310c-26.445,0-57-10-94.937-9.56-64.252.746-114.822,60.713-157.063,111.56-27.139,32.669,30,63.53,30,131,0,46.491-25.212,76.515-10,102,42.422,71.07,152.446,79.8,223.813,79.8A212.91,212.91,0,0,0,1792.7,90.912c5.357,5.358,8.781,18.089,17.869,18.089C1874,109,1907,80,1922.995,18.568c8.51-32.683,6.476-75.376,7.217-127.169C1931.9-226.446,1837.789-275.81,1725-310Z" fill="none"/>
    </clipPath>
  </defs>
  <g id="Grupo_80630" data-name="Grupo 80630" transform="translate(-907.333 -115)" opacity="0.95">
    <g id="Grupo_80629" data-name="Grupo 80629" transform="translate(-558.354 434.574)">
      <g id="Grupo_80589" data-name="Grupo 80589">
        <g id="Grupo_80588" data-name="Grupo 80588" clip-path="url(#clip-path)">
          <circle id="Elipse_4759" data-name="Elipse 4759" cx="190.483" cy="190.483" r="190.483" transform="translate(1523.157 -276.049)" fill="#0ca4ca"/>
          <g id="Grupo_80439" data-name="Grupo 80439">
            <g id="Grupo_80438" data-name="Grupo 80438">
              <g id="Grupo_80389" data-name="Grupo 80389">
                <path id="Trazado_113675" data-name="Trazado 113675" d="M1861.428-31.526c0-.261,1.217-.472,2.72-.472s2.72.211,2.72.472-1.218.472-2.72.472S1861.428-31.265,1861.428-31.526Z" fill="#dee9f0"/>
              </g>
              <g id="Grupo_80390" data-name="Grupo 80390">
                <path id="Trazado_113676" data-name="Trazado 113676" d="M1850.547-31.526c0-.261,1.217-.472,2.72-.472s2.72.211,2.72.472-1.218.472-2.72.472S1850.547-31.265,1850.547-31.526Z" fill="#dee9f0"/>
              </g>
              <g id="Grupo_80391" data-name="Grupo 80391">
                <path id="Trazado_113677" data-name="Trazado 113677" d="M1839.665-31.526c0-.261,1.218-.472,2.721-.472s2.72.211,2.72.472-1.218.472-2.72.472S1839.665-31.265,1839.665-31.526Z" fill="#dee9f0"/>
              </g>
              <g id="Grupo_80392" data-name="Grupo 80392">
                <path id="Trazado_113678" data-name="Trazado 113678" d="M1828.784-31.526c0-.261,1.218-.472,2.72-.472s2.721.211,2.721.472-1.218.472-2.721.472S1828.784-31.265,1828.784-31.526Z" fill="#dee9f0"/>
              </g>
              <g id="Grupo_80393" data-name="Grupo 80393">
                <path id="Trazado_113679" data-name="Trazado 113679" d="M1817.9-31.526c0-.261,1.218-.472,2.72-.472s2.721.211,2.721.472-1.218.472-2.721.472S1817.9-31.265,1817.9-31.526Z" fill="#dee9f0"/>
              </g>
              <g id="Grupo_80394" data-name="Grupo 80394">
                <path id="Trazado_113680" data-name="Trazado 113680" d="M1807.022-31.526c0-.261,1.218-.472,2.72-.472s2.721.211,2.721.472-1.218.472-2.721.472S1807.022-31.265,1807.022-31.526Z" fill="#dee9f0"/>
              </g>
              <g id="Grupo_80395" data-name="Grupo 80395">
                <path id="Trazado_113681" data-name="Trazado 113681" d="M1796.141-31.526c0-.261,1.218-.472,2.72-.472s2.721.211,2.721.472-1.218.472-2.721.472S1796.141-31.265,1796.141-31.526Z" fill="#dee9f0"/>
              </g>
              <g id="Grupo_80396" data-name="Grupo 80396">
                <path id="Trazado_113682" data-name="Trazado 113682" d="M1785.26-31.526c0-.261,1.218-.472,2.72-.472s2.72.211,2.72.472-1.217.472-2.72.472S1785.26-31.265,1785.26-31.526Z" fill="#dee9f0"/>
              </g>
              <g id="Grupo_80397" data-name="Grupo 80397">
                <path id="Trazado_113683" data-name="Trazado 113683" d="M1774.379-31.526c0-.261,1.218-.472,2.72-.472s2.72.211,2.72.472-1.217.472-2.72.472S1774.379-31.265,1774.379-31.526Z" fill="#dee9f0"/>
              </g>
              <g id="Grupo_80398" data-name="Grupo 80398">
                <path id="Trazado_113684" data-name="Trazado 113684" d="M1763.5-31.526c0-.261,1.218-.472,2.72-.472s2.72.211,2.72.472-1.217.472-2.72.472S1763.5-31.265,1763.5-31.526Z" fill="#dee9f0"/>
              </g>
              <g id="Grupo_80399" data-name="Grupo 80399">
                <path id="Trazado_113685" data-name="Trazado 113685" d="M1752.617-31.526c0-.261,1.218-.472,2.72-.472s2.72.211,2.72.472-1.218.472-2.72.472S1752.617-31.265,1752.617-31.526Z" fill="#dee9f0"/>
              </g>
              <g id="Grupo_80400" data-name="Grupo 80400">
                <path id="Trazado_113686" data-name="Trazado 113686" d="M1741.736-31.526c0-.261,1.218-.472,2.72-.472s2.72.211,2.72.472-1.218.472-2.72.472S1741.736-31.265,1741.736-31.526Z" fill="#dee9f0"/>
              </g>
              <g id="Grupo_80401" data-name="Grupo 80401">
                <path id="Trazado_113687" data-name="Trazado 113687" d="M1733.982-34.654c.261,0,.472,1.218.472,2.72,0,.135,0,.264-.005.408l-.467-.467c1.311.035,2.313.23,2.313.467s-1,.432-2.313.467l-.46.012-.007-.479c0-.144,0-.273-.005-.408C1733.51-33.436,1733.721-34.654,1733.982-34.654Z" fill="#dee9f0"/>
              </g>
              <g id="Grupo_80402" data-name="Grupo 80402">
                <path id="Trazado_113688" data-name="Trazado 113688" d="M1733.982-45.535c.261,0,.472,1.218.472,2.72s-.211,2.721-.472,2.721-.472-1.218-.472-2.721S1733.721-45.535,1733.982-45.535Z" fill="#dee9f0"/>
              </g>
              <g id="Grupo_80403" data-name="Grupo 80403">
                <path id="Trazado_113689" data-name="Trazado 113689" d="M1733.982-56.416c.261,0,.472,1.218.472,2.72s-.211,2.721-.472,2.721-.472-1.218-.472-2.721S1733.721-56.416,1733.982-56.416Z" fill="#dee9f0"/>
              </g>
              <g id="Grupo_80404" data-name="Grupo 80404">
                <path id="Trazado_113690" data-name="Trazado 113690" d="M1733.982-67.3c.261,0,.472,1.218.472,2.72s-.211,2.72-.472,2.72-.472-1.217-.472-2.72S1733.721-67.3,1733.982-67.3Z" fill="#dee9f0"/>
              </g>
              <g id="Grupo_80405" data-name="Grupo 80405">
                <path id="Trazado_113691" data-name="Trazado 113691" d="M1733.982-78.178c.261,0,.472,1.218.472,2.72s-.211,2.72-.472,2.72-.472-1.217-.472-2.72S1733.721-78.178,1733.982-78.178Z" fill="#dee9f0"/>
              </g>
              <g id="Grupo_80406" data-name="Grupo 80406">
                <path id="Trazado_113692" data-name="Trazado 113692" d="M1733.982-89.059c.261,0,.472,1.218.472,2.72s-.211,2.72-.472,2.72-.472-1.217-.472-2.72S1733.721-89.059,1733.982-89.059Z" fill="#dee9f0"/>
              </g>
              <g id="Grupo_80407" data-name="Grupo 80407">
                <path id="Trazado_113693" data-name="Trazado 113693" d="M1733.982-99.94c.261,0,.472,1.218.472,2.72s-.211,2.72-.472,2.72-.472-1.218-.472-2.72S1733.721-99.94,1733.982-99.94Z" fill="#dee9f0"/>
              </g>
              <g id="Grupo_80408" data-name="Grupo 80408">
                <path id="Trazado_113694" data-name="Trazado 113694" d="M1733.982-110.822c.261,0,.472,1.219.472,2.721s-.211,2.72-.472,2.72-.472-1.218-.472-2.72S1733.721-110.822,1733.982-110.822Z" fill="#dee9f0"/>
              </g>
              <g id="Grupo_80409" data-name="Grupo 80409">
                <path id="Trazado_113695" data-name="Trazado 113695" d="M1733.982-121.7c.261,0,.472,1.219.472,2.721s-.211,2.72-.472,2.72-.472-1.218-.472-2.72S1733.721-121.7,1733.982-121.7Z" fill="#dee9f0"/>
              </g>
              <g id="Grupo_80410" data-name="Grupo 80410">
                <path id="Trazado_113696" data-name="Trazado 113696" d="M1733.982-132.584c.261,0,.472,1.218.472,2.72s-.211,2.721-.472,2.721-.472-1.218-.472-2.721S1733.721-132.584,1733.982-132.584Z" fill="#dee9f0"/>
              </g>
              <g id="Grupo_80411" data-name="Grupo 80411">
                <path id="Trazado_113697" data-name="Trazado 113697" d="M1733.982-143.465c.261,0,.472,1.218.472,2.72s-.211,2.721-.472,2.721-.472-1.218-.472-2.721S1733.721-143.465,1733.982-143.465Z" fill="#dee9f0"/>
              </g>
              <g id="Grupo_80412" data-name="Grupo 80412">
                <path id="Trazado_113698" data-name="Trazado 113698" d="M1733.982-154.346c.261,0,.472,1.218.472,2.72s-.211,2.721-.472,2.721-.472-1.218-.472-2.721S1733.721-154.346,1733.982-154.346Z" fill="#dee9f0"/>
              </g>
              <g id="Grupo_80413" data-name="Grupo 80413">
                <path id="Trazado_113699" data-name="Trazado 113699" d="M1734.8-164.412c0,.132-.311.251-.815.337l.337-.337a11.876,11.876,0,0,1,.135,1.9c0,1.5-.211,2.721-.472,2.721s-.472-1.218-.472-2.721a11.99,11.99,0,0,1,.135-1.9l.066-.383.271.046C1734.486-164.663,1734.8-164.544,1734.8-164.412Z" fill="#dee9f0"/>
              </g>
              <g id="Grupo_80414" data-name="Grupo 80414">
                <path id="Trazado_113700" data-name="Trazado 113700" d="M1745.678-164.412c0,.261-1.218.472-2.72.472s-2.721-.211-2.721-.472,1.218-.472,2.721-.472S1745.678-164.673,1745.678-164.412Z" fill="#dee9f0"/>
              </g>
              <g id="Grupo_80415" data-name="Grupo 80415">
                <path id="Trazado_113701" data-name="Trazado 113701" d="M1756.559-164.412c0,.261-1.218.472-2.72.472s-2.72-.211-2.72-.472,1.217-.472,2.72-.472S1756.559-164.673,1756.559-164.412Z" fill="#dee9f0"/>
              </g>
              <g id="Grupo_80416" data-name="Grupo 80416">
                <path id="Trazado_113702" data-name="Trazado 113702" d="M1767.44-164.412c0,.261-1.218.472-2.72.472s-2.72-.211-2.72-.472,1.217-.472,2.72-.472S1767.44-164.673,1767.44-164.412Z" fill="#dee9f0"/>
              </g>
              <g id="Grupo_80417" data-name="Grupo 80417">
                <path id="Trazado_113703" data-name="Trazado 113703" d="M1778.321-164.412c0,.261-1.218.472-2.72.472s-2.72-.211-2.72-.472,1.217-.472,2.72-.472S1778.321-164.673,1778.321-164.412Z" fill="#dee9f0"/>
              </g>
              <g id="Grupo_80418" data-name="Grupo 80418">
                <path id="Trazado_113704" data-name="Trazado 113704" d="M1789.2-164.412c0,.261-1.217.472-2.72.472s-2.72-.211-2.72-.472,1.218-.472,2.72-.472S1789.2-164.673,1789.2-164.412Z" fill="#dee9f0"/>
              </g>
              <g id="Grupo_80419" data-name="Grupo 80419">
                <ellipse id="Elipse_4760" data-name="Elipse 4760" cx="2.72" cy="0.472" rx="2.72" ry="0.472" transform="translate(1794.643 -164.884)" fill="#dee9f0"/>
              </g>
              <g id="Grupo_80420" data-name="Grupo 80420">
                <path id="Trazado_113705" data-name="Trazado 113705" d="M1810.965-164.412c0,.261-1.218.472-2.721.472s-2.72-.211-2.72-.472,1.218-.472,2.72-.472S1810.965-164.673,1810.965-164.412Z" fill="#dee9f0"/>
              </g>
              <g id="Grupo_80421" data-name="Grupo 80421">
                <path id="Trazado_113706" data-name="Trazado 113706" d="M1821.846-164.412c0,.261-1.218.472-2.72.472s-2.721-.211-2.721-.472,1.218-.472,2.721-.472S1821.846-164.673,1821.846-164.412Z" fill="#dee9f0"/>
              </g>
              <g id="Grupo_80422" data-name="Grupo 80422">
                <path id="Trazado_113707" data-name="Trazado 113707" d="M1832.727-164.412c0,.261-1.218.472-2.72.472s-2.721-.211-2.721-.472,1.218-.472,2.721-.472S1832.727-164.673,1832.727-164.412Z" fill="#dee9f0"/>
              </g>
              <g id="Grupo_80423" data-name="Grupo 80423">
                <path id="Trazado_113708" data-name="Trazado 113708" d="M1843.608-164.412c0,.261-1.218.472-2.72.472s-2.721-.211-2.721-.472,1.218-.472,2.721-.472S1843.608-164.673,1843.608-164.412Z" fill="#dee9f0"/>
              </g>
              <g id="Grupo_80424" data-name="Grupo 80424">
                <path id="Trazado_113709" data-name="Trazado 113709" d="M1854.489-164.412c0,.261-1.218.472-2.72.472s-2.721-.211-2.721-.472,1.218-.472,2.721-.472S1854.489-164.673,1854.489-164.412Z" fill="#dee9f0"/>
              </g>
              <g id="Grupo_80425" data-name="Grupo 80425">
                <path id="Trazado_113710" data-name="Trazado 113710" d="M1865.37-164.412c0,.261-1.218.472-2.72.472s-2.72-.211-2.72-.472,1.217-.472,2.72-.472S1865.37-164.673,1865.37-164.412Z" fill="#dee9f0"/>
              </g>
              <g id="Grupo_80426" data-name="Grupo 80426">
                <path id="Trazado_113711" data-name="Trazado 113711" d="M1866.868-155.029c-.261,0-.472-1.218-.472-2.72s.211-2.721.472-2.721.472,1.218.472,2.721S1867.129-155.029,1866.868-155.029Z" fill="#dee9f0"/>
              </g>
              <g id="Grupo_80427" data-name="Grupo 80427">
                <path id="Trazado_113712" data-name="Trazado 113712" d="M1866.868-144.148c-.261,0-.472-1.218-.472-2.72s.211-2.72.472-2.72.472,1.217.472,2.72S1867.129-144.148,1866.868-144.148Z" fill="#dee9f0"/>
              </g>
              <g id="Grupo_80428" data-name="Grupo 80428">
                <path id="Trazado_113713" data-name="Trazado 113713" d="M1866.868-133.267c-.261,0-.472-1.218-.472-2.72s.211-2.72.472-2.72.472,1.217.472,2.72S1867.129-133.267,1866.868-133.267Z" fill="#dee9f0"/>
              </g>
              <g id="Grupo_80429" data-name="Grupo 80429">
                <path id="Trazado_113714" data-name="Trazado 113714" d="M1866.868-122.386c-.261,0-.472-1.218-.472-2.72s.211-2.72.472-2.72.472,1.217.472,2.72S1867.129-122.386,1866.868-122.386Z" fill="#dee9f0"/>
              </g>
              <g id="Grupo_80430" data-name="Grupo 80430">
                <path id="Trazado_113715" data-name="Trazado 113715" d="M1866.868-111.5c-.261,0-.472-1.217-.472-2.72s.211-2.72.472-2.72.472,1.218.472,2.72S1867.129-111.5,1866.868-111.5Z" fill="#dee9f0"/>
              </g>
              <g id="Grupo_80431" data-name="Grupo 80431">
                <path id="Trazado_113716" data-name="Trazado 113716" d="M1866.868-100.624c-.261,0-.472-1.217-.472-2.72s.211-2.72.472-2.72.472,1.218.472,2.72S1867.129-100.624,1866.868-100.624Z" fill="#dee9f0"/>
              </g>
              <g id="Grupo_80432" data-name="Grupo 80432">
                <path id="Trazado_113717" data-name="Trazado 113717" d="M1866.868-89.742c-.261,0-.472-1.218-.472-2.721s.211-2.72.472-2.72.472,1.218.472,2.72S1867.129-89.742,1866.868-89.742Z" fill="#dee9f0"/>
              </g>
              <g id="Grupo_80433" data-name="Grupo 80433">
                <path id="Trazado_113718" data-name="Trazado 113718" d="M1866.868-78.861c-.261,0-.472-1.218-.472-2.72s.211-2.721.472-2.721.472,1.218.472,2.721S1867.129-78.861,1866.868-78.861Z" fill="#dee9f0"/>
              </g>
              <g id="Grupo_80434" data-name="Grupo 80434">
                <path id="Trazado_113719" data-name="Trazado 113719" d="M1866.868-67.98c-.261,0-.472-1.218-.472-2.72s.211-2.721.472-2.721.472,1.218.472,2.721S1867.129-67.98,1866.868-67.98Z" fill="#dee9f0"/>
              </g>
              <g id="Grupo_80435" data-name="Grupo 80435">
                <path id="Trazado_113720" data-name="Trazado 113720" d="M1866.868-57.1c-.261,0-.472-1.218-.472-2.72s.211-2.721.472-2.721.472,1.218.472,2.721S1867.129-57.1,1866.868-57.1Z" fill="#dee9f0"/>
              </g>
              <g id="Grupo_80436" data-name="Grupo 80436">
                <path id="Trazado_113721" data-name="Trazado 113721" d="M1866.868-46.218c-.261,0-.472-1.218-.472-2.72s.211-2.721.472-2.721.472,1.218.472,2.721S1867.129-46.218,1866.868-46.218Z" fill="#dee9f0"/>
              </g>
              <g id="Grupo_80437" data-name="Grupo 80437">
                <path id="Trazado_113722" data-name="Trazado 113722" d="M1866.868-35.337c-.261,0-.472-1.218-.472-2.72s.211-2.72.472-2.72.472,1.217.472,2.72S1867.129-35.337,1866.868-35.337Z" fill="#dee9f0"/>
              </g>
            </g>
            <rect id="Rectángulo_33823" data-name="Rectángulo 33823" width="9.842" height="9.842" transform="translate(1861.947 -37.794)" fill="#dee9f0"/>
            <rect id="Rectángulo_33824" data-name="Rectángulo 33824" width="9.842" height="9.842" transform="translate(1729.061 -36.447)" fill="#dee9f0"/>
            <rect id="Rectángulo_33825" data-name="Rectángulo 33825" width="9.842" height="9.842" transform="translate(1861.947 -170.291)" fill="#dee9f0"/>
            <rect id="Rectángulo_33826" data-name="Rectángulo 33826" width="9.842" height="9.842" transform="translate(1729.061 -169.333)" fill="#dee9f0"/>
          </g>
          <g id="Grupo_80449" data-name="Grupo 80449">
            <g id="Grupo_80448" data-name="Grupo 80448">
              <g id="Grupo_80443" data-name="Grupo 80443">
                <g id="Grupo_80442" data-name="Grupo 80442">
                  <g id="Grupo_80441" data-name="Grupo 80441">
                    <g id="Grupo_80440" data-name="Grupo 80440">
                      <path id="Trazado_113723" data-name="Trazado 113723" d="M1840.656-237.228h-4.747l-10.36-14.438v-9.476s-7.338-.452-6.475,11.957-.07,9.249-.07,9.249-15.581.06-16.876,1.413c-.942.984-1.367,16.461-1.53,24.855-.082,4.225,2.51,8.155,6.44,9.153a6.778,6.778,0,0,0,1.676.226c3.886,0,23.742-3.159,23.742-3.159h8.2Z" fill="#ececec"/>
                    </g>
                  </g>
                </g>
              </g>
              <g id="Grupo_80447" data-name="Grupo 80447">
                <g id="Grupo_80446" data-name="Grupo 80446">
                  <g id="Grupo_80445" data-name="Grupo 80445">
                    <g id="Grupo_80444" data-name="Grupo 80444">
                      <path id="Trazado_113724" data-name="Trazado 113724" d="M1854.247-239.829l-2.92,32.47h-8.13v-31.816Z" fill="#ececec"/>
                    </g>
                  </g>
                </g>
              </g>
            </g>
          </g>
          <g id="Grupo_80587" data-name="Grupo 80587">
            <g id="Grupo_80454" data-name="Grupo 80454">
              <g id="Grupo_80452" data-name="Grupo 80452">
                <path id="Trazado_113725" data-name="Trazado 113725" d="M1658.013-12.859c-1.408-.3-12.925,52.458-11.423,72.975s11.423,91.84,11.423,91.84h47.5l8.564-100.93-1.614,100.93h63.814s14.789-69.368,12.152-90.374-16.681-76.259-16.681-76.259Z" fill="#1a2e35"/>
                <g id="Grupo_80450" data-name="Grupo 80450">
                  <path id="Trazado_113726" data-name="Trazado 113726" d="M1709.294-.711a10.172,10.172,0,0,0-.1,1.973c-.017,1.27,0,3.107.05,5.376.1,4.539.393,10.807.975,17.711s1.354,13.134,2.016,17.625c.331,2.246.624,4.059.855,5.308a10.152,10.152,0,0,0,.428,1.928,10.2,10.2,0,0,0-.145-1.969c-.163-1.4-.372-3.191-.622-5.334-.53-4.5-1.214-10.728-1.8-17.62s-.954-13.141-1.188-17.668c-.114-2.156-.209-3.956-.284-5.363A10.165,10.165,0,0,0,1709.294-.711Z" fill="#546e7a"/>
                </g>
                <g id="Grupo_80451" data-name="Grupo 80451">
                  <path id="Trazado_113727" data-name="Trazado 113727" d="M1700.72,3.556a1.743,1.743,0,0,0-1.052-.016,4.337,4.337,0,0,0-2.469,1.486,4.5,4.5,0,0,0-.938,1.82,3.986,3.986,0,0,0,.17,2.369,4.666,4.666,0,0,0,4.265,2.974,4.591,4.591,0,0,0,4.131-3.149,4.023,4.023,0,0,0,.091-2.374,4.15,4.15,0,0,0-1.041-1.771,3.889,3.889,0,0,0-2.618-1.211c-.7-.008-1.046.18-1.033.212.013.065.379-.02,1.007.073A3.849,3.849,0,0,1,1703.5,5.25a3.467,3.467,0,0,1,.692,3.565,3.968,3.968,0,0,1-3.5,2.639,4.043,4.043,0,0,1-3.626-2.49,3.619,3.619,0,0,1,.544-3.613,4.414,4.414,0,0,1,2.135-1.534A8.76,8.76,0,0,0,1700.72,3.556Z" fill="#546e7a"/>
                </g>
              </g>
              <g id="Grupo_80453" data-name="Grupo 80453">
                <path id="Trazado_113728" data-name="Trazado 113728" d="M1650.946,12.409a4.121,4.121,0,0,0,1.243.473,19.433,19.433,0,0,0,3.568.657,22.736,22.736,0,0,0,11.723-2.059,22.724,22.724,0,0,0,9.018-7.77,19.416,19.416,0,0,0,1.751-3.178,4.2,4.2,0,0,0,.422-1.262c-.124-.058-.818,1.711-2.6,4.14a23.942,23.942,0,0,1-8.908,7.406,23.939,23.939,0,0,1-11.37,2.2C1652.787,12.859,1650.979,12.276,1650.946,12.409Z" fill="#546e7a"/>
              </g>
            </g>
            <path id="Trazado_113729" data-name="Trazado 113729" d="M1759.534-240.573c3.6,13.1,9.047,23.609,14.359,28.878s11,11.441,10.808,18.92c-.075,2.937-1.054,6.053.228,8.7,1.667,3.433,6.11,4.176,9.437,6.046,4.92,2.766,7.664,8.623,7.464,14.264s-3.038,10.974-7.016,14.977c-4.134,4.161-10.681,7.07-15.817,4.237-3.1-1.711-4.867-5.062-6.43-8.24q-12.141-24.69-21.974-50.427" fill="#1a2e35"/>
            <path id="Trazado_113730" data-name="Trazado 113730" d="M1726.415-296.674a34.636,34.636,0,0,0-37.346-8.855,34.639,34.639,0,0,0-21.489,31.8c.092,8.774,3.524,17.968.058,26.028-2.453,5.7-8.126,10.009-8.906,16.167-.906,7.144,5.2,13.623,4.884,20.817-.208,4.7-3.154,8.844-6.542,12.1s-7.326,5.944-10.432,9.472c-8.635,9.808-9.187,25.3-2.661,36.62s19.127,18.422,32.1,19.959,26.2-2.04,37.686-8.273c7.483-4.061,14.51-9.414,18.957-16.673s5.972-16.659,2.458-24.414" fill="#1a2e35"/>
            <g id="Grupo_80461" data-name="Grupo 80461">
              <path id="Trazado_113731" data-name="Trazado 113731" d="M1698.819-187.318s-29.285,8.645-32.137,13.283-12.053,59.026-12.053,59.026l17.988,64.06s-14.868,23.937-15.609,36.033C1690.242,6.526,1727.751.519,1767-16.657l2.784-62.641,3.738-100.061-24.178-8.46Z" fill="#dee9f0"/>
              <g id="Grupo_80455" data-name="Grupo 80455">
                <path id="Trazado_113732" data-name="Trazado 113732" d="M1666.262-38.041a5.9,5.9,0,0,0,1.077-.023l3.077-.208,11.3-.9,37.26-3.252,37.249-3.468,11.282-1.134,3.064-.346a5.982,5.982,0,0,0,1.065-.17,5.8,5.8,0,0,0-1.075.022l-3.075.208-11.3.9-37.271,3.253-37.247,3.468-11.281,1.134-3.064.346A5.909,5.909,0,0,0,1666.262-38.041Z" fill="#ff9500"/>
              </g>
              <g id="Grupo_80456" data-name="Grupo 80456">
                <path id="Trazado_113733" data-name="Trazado 113733" d="M1700.619-108.607c0,.2,12.866.367,28.732.367s28.734-.164,28.734-.367-12.863-.368-28.734-.368S1700.619-108.81,1700.619-108.607Z" fill="#ff9500"/>
              </g>
              <g id="Grupo_80457" data-name="Grupo 80457">
                <path id="Trazado_113734" data-name="Trazado 113734" d="M1661.954-151.587a13.67,13.67,0,0,0,2.28.217l6.225.356c5.256.291,12.514.725,20.52,1.337s15.248,1.293,20.487,1.806l6.206.6a13.54,13.54,0,0,0,2.287.132,13.689,13.689,0,0,0-2.253-.416c-1.456-.223-3.569-.508-6.183-.83-5.229-.646-12.47-1.407-20.488-2.023s-15.287-.965-20.553-1.123c-2.633-.08-4.764-.121-6.238-.123A13.562,13.562,0,0,0,1661.954-151.587Z" fill="#ff9500"/>
              </g>
              <g id="Grupo_80460" data-name="Grupo 80460">
                <path id="Trazado_113735" data-name="Trazado 113735" d="M1666.682-174.035l-29.376,79.722-19.726-39.28-25.775,5.281L1606.647-66.4a26.255,26.255,0,0,0,20.7,22.072h0a26.253,26.253,0,0,0,24.7-8.027l9.231-10.125Z" fill="#dee9f0"/>
                <g id="Grupo_80458" data-name="Grupo 80458">
                  <path id="Trazado_113736" data-name="Trazado 113736" d="M1637.905-43.948a10.433,10.433,0,0,0,.212-2c.092-1.289.183-3.157.261-5.466.158-4.617.221-11,.017-18.053s-.646-13.424-1.074-18.025c-.214-2.3-.414-4.159-.581-5.441a10.488,10.488,0,0,0-.329-1.983,10.582,10.582,0,0,0,.045,2.01c.09,1.427.207,3.259.346,5.455.3,4.6.65,10.968.858,18s.223,13.408.2,18.023c-.011,2.2-.02,4.035-.027,5.466A10.434,10.434,0,0,0,1637.905-43.948Z" fill="#ff9500"/>
                </g>
                <g id="Grupo_80459" data-name="Grupo 80459">
                  <path id="Trazado_113737" data-name="Trazado 113737" d="M1599.928-92.594c.072.19,7.3-2.378,16.134-5.735s15.946-6.233,15.874-6.423-7.3,2.378-16.135,5.736S1599.856-92.783,1599.928-92.594Z" fill="#ff9500"/>
                </g>
              </g>
            </g>
            <path id="Trazado_113738" data-name="Trazado 113738" d="M1585.612-137.428l12.365,9.116,13.732-3.371-3.293-3.651Z" fill="#ffbf9d"/>
            <g id="Grupo_80510" data-name="Grupo 80510">
              <g id="Grupo_80469" data-name="Grupo 80469">
                <g id="Grupo_80465" data-name="Grupo 80465">
                  <g id="Grupo_80463" data-name="Grupo 80463">
                    <path id="Trazado_113739" data-name="Trazado 113739" d="M1540.9-248.383l100.061,43.352-.488,29,11.322,11.861L1613.565-130,1602.4-142.5l-29.75-4.165Z" fill="#fafafa"/>
                    <g id="Grupo_80462" data-name="Grupo 80462">
                      <path id="Trazado_113740" data-name="Trazado 113740" d="M1540.9-248.383l31.43,101.822.063.2.211.03,29.747,4.185-.216-.115c3.533,3.957,7.317,8.193,11.16,12.5l.242.272.272-.243,19.516-17.439q9.53-8.52,18.712-16.73l.281-.251-.26-.272-11.327-11.856.1.252c.162-10.034.319-19.719.469-29l0-.227-.207-.089L1540.9-248.383l99.926,43.662-.2-.316c-.162,9.277-.331,18.962-.507,29l0,.147.1.107,11.317,11.865.021-.523-18.717,16.725-19.511,17.445.513.029c-3.846-4.3-7.633-8.534-11.17-12.488l-.088-.1-.129-.018-29.752-4.144.273.232C1554.111-206.519,1541.794-245.545,1540.9-248.383Z" fill="#1a2e35"/>
                    </g>
                  </g>
                  <path id="Trazado_113741" data-name="Trazado 113741" d="M1581.5-177.359a15.7,15.7,0,0,0,22.164,1.243,15.7,15.7,0,0,0,1.242-22.164,15.7,15.7,0,0,0-22.163-1.243A15.7,15.7,0,0,0,1581.5-177.359Z" fill="#1a2e35"/>
                  <g id="Grupo_80464" data-name="Grupo 80464">
                    <path id="Trazado_113742" data-name="Trazado 113742" d="M1540.9-248.383c-.154.133,11.43,13.8,25.871,30.521s26.276,30.175,26.429,30.042-11.428-13.795-25.873-30.523S1541.052-248.515,1540.9-248.383Z" fill="#1a2e35"/>
                  </g>
                  <path id="Trazado_113743" data-name="Trazado 113743" d="M1849.132,97.35h0a25.02,25.02,0,0,0,2.074-35.222L1663.074-150.747,1625.766-117.4,1813.712,95.264A25.019,25.019,0,0,0,1849.132,97.35Z" fill="#ff9500" style="isolation: isolate"/>
                  <rect id="Rectángulo_33827" data-name="Rectángulo 33827" width="58.845" height="20.445" transform="translate(1608.556 -129.441) rotate(-41.791)" fill="#ff9500"/>
                </g>
                <g id="Grupo_80468" data-name="Grupo 80468">
                  <rect id="Rectángulo_33828" data-name="Rectángulo 33828" width="10.892" height="10.892" transform="matrix(-0.766, 0.642, -0.642, -0.766, 1549.498, -247.169)" fill="#ff9500"/>
                  <g id="Grupo_80467" data-name="Grupo 80467">
                    <g id="Grupo_80466" data-name="Grupo 80466">
                      <path id="Trazado_113744" data-name="Trazado 113744" d="M1472.758-191.926c.36.429,32.288-25.734,71.3-58.43s70.366-59.563,70.006-59.992-32.281,25.728-71.311,58.435C1503.742-219.216,1472.4-192.356,1472.758-191.926Z" fill="#ff9500"/>
                    </g>
                    <path id="Trazado_113745" data-name="Trazado 113745" d="M1471.167-190.593a3.227,3.227,0,0,0,4.547.4,3.228,3.228,0,0,0,.4-4.547,3.228,3.228,0,0,0-4.547-.4A3.227,3.227,0,0,0,1471.167-190.593Z" fill="#ff9500"/>
                    <path id="Trazado_113746" data-name="Trazado 113746" d="M1611.594-308.275a3.229,3.229,0,0,0,4.547.4,3.229,3.229,0,0,0,.4-4.548,3.228,3.228,0,0,0-4.547-.4A3.227,3.227,0,0,0,1611.594-308.275Z" fill="#ff9500"/>
                  </g>
                </g>
                <path id="Trazado_113747" data-name="Trazado 113747" d="M1663.074-150.747,1625.766-117.4l5.032,5.694,34.07-37.01Z" opacity="0.3"/>
                <path id="Trazado_113748" data-name="Trazado 113748" d="M1640.408-157.91v26.683l-5.425,5.588v-27.422Z" fill="#fff" opacity="0.5"/>
              </g>
              <g id="Grupo_80485" data-name="Grupo 80485">
                <g id="Grupo_80472" data-name="Grupo 80472">
                  <g id="Grupo_80471" data-name="Grupo 80471">
                    <g id="Grupo_80470" data-name="Grupo 80470">
                      <path id="Trazado_113749" data-name="Trazado 113749" d="M1595.644-170.357l-13.693,5.47-2.935,11.034,6.6,16.425,24.2,3.52-7.088-7.243.912-6.306s6.75-2.117,6.917-3.15-.837-4.5-1.873-4.664-8.116,2.47-8.116,2.47,8.382-6.634,8.147-7.7-1.135-3.791-2.806-4.094-15.2,6.071-15.2,6.071l-2.2,5.007-1.916-8.007S1598.613-164.893,1595.644-170.357Z" fill="#ffbf9d"/>
                    </g>
                  </g>
                </g>
                <g id="Grupo_80476" data-name="Grupo 80476">
                  <g id="Grupo_80475" data-name="Grupo 80475">
                    <g id="Grupo_80474" data-name="Grupo 80474">
                      <g id="Grupo_80473" data-name="Grupo 80473">
                        <path id="Trazado_113750" data-name="Trazado 113750" d="M1597.366-144.487c-.081.024-.337-.475-.464-1.365a7.3,7.3,0,0,1,.411-3.456,7.332,7.332,0,0,1,1.938-2.891c.675-.593,1.194-.806,1.24-.734.135.163-1.648,1.446-2.515,3.871C1597.054-146.659,1597.574-144.523,1597.366-144.487Z" fill="#ff9a6c"/>
                      </g>
                    </g>
                  </g>
                </g>
                <g id="Grupo_80480" data-name="Grupo 80480">
                  <g id="Grupo_80479" data-name="Grupo 80479">
                    <g id="Grupo_80478" data-name="Grupo 80478">
                      <g id="Grupo_80477" data-name="Grupo 80477">
                        <path id="Trazado_113751" data-name="Trazado 113751" d="M1590.858-146.878a29.769,29.769,0,0,0,.543-3.588,15.6,15.6,0,0,1,.689-3.974,5.873,5.873,0,0,1,1.261-2.12,6.241,6.241,0,0,1,2.237-1.407c3.275-1.188,6.223-2.149,8.382-2.846a18.918,18.918,0,0,1,3.536-.974,18.847,18.847,0,0,1-3.371,1.445c-2.1.814-5.07,1.866-8.282,3.031a5.7,5.7,0,0,0-2.005,1.234,5.356,5.356,0,0,0-1.147,1.864,17.337,17.337,0,0,0-.8,3.8C1591.631-148.135,1590.951-146.82,1590.858-146.878Z" fill="#ff9a6c"/>
                      </g>
                    </g>
                  </g>
                </g>
                <g id="Grupo_80484" data-name="Grupo 80484">
                  <g id="Grupo_80483" data-name="Grupo 80483">
                    <g id="Grupo_80482" data-name="Grupo 80482">
                      <g id="Grupo_80481" data-name="Grupo 80481">
                        <path id="Trazado_113752" data-name="Trazado 113752" d="M1587.717-149.353c-.193-.031-.154-1.24.087-2.7s.592-2.617.785-2.585.153,1.24-.087,2.7S1587.909-149.321,1587.717-149.353Z" fill="#ff9a6c"/>
                      </g>
                    </g>
                  </g>
                </g>
              </g>
              <g id="Grupo_80501" data-name="Grupo 80501">
                <g id="Grupo_80488" data-name="Grupo 80488">
                  <g id="Grupo_80487" data-name="Grupo 80487">
                    <g id="Grupo_80486" data-name="Grupo 80486">
                      <path id="Trazado_113753" data-name="Trazado 113753" d="M1690.445-51.523s-21.96-7.541-22.474-7.785-15.507-7.225-14.231-11.245c0,0-4.277-3.376-2.957-5.273L1656.8-73.3s-8.525-5.516-7.013-10.476c0,0-.885-1.681.028-2.719s5.312,2.1,8.581,4.071l6.326,2.548a13.219,13.219,0,0,0,8.675.42h0a2.731,2.731,0,0,0,1.9-3.218,27.677,27.677,0,0,1,.461-14.81s1.56.552,2.635,3.934c1.382,4.342,5.722,7.685,7.31,10.541.911,1.636,2.357,4.246,3.425,6.175a6.707,6.707,0,0,0,4.145,3.233l-1.506,11.443Z" fill="#ffbf9d"/>
                    </g>
                  </g>
                </g>
                <g id="Grupo_80492" data-name="Grupo 80492">
                  <g id="Grupo_80491" data-name="Grupo 80491">
                    <g id="Grupo_80490" data-name="Grupo 80490">
                      <g id="Grupo_80489" data-name="Grupo 80489">
                        <path id="Trazado_113754" data-name="Trazado 113754" d="M1666.642-72.239a3.351,3.351,0,0,1-.76-.237c-.482-.171-1.167-.449-2-.82a46.271,46.271,0,0,1-6.273-3.414,46.377,46.377,0,0,1-5.671-4.343c-.678-.613-1.211-1.126-1.564-1.5a3.311,3.311,0,0,1-.524-.6,3.425,3.425,0,0,1,.622.5c.381.338.939.82,1.635,1.4a58.718,58.718,0,0,0,5.7,4.232,58.9,58.9,0,0,0,6.183,3.487c.818.4,1.485.712,1.949.923A3.334,3.334,0,0,1,1666.642-72.239Z" fill="#ff9a6c"/>
                      </g>
                    </g>
                  </g>
                </g>
                <g id="Grupo_80496" data-name="Grupo 80496">
                  <g id="Grupo_80495" data-name="Grupo 80495">
                    <g id="Grupo_80494" data-name="Grupo 80494">
                      <g id="Grupo_80493" data-name="Grupo 80493">
                        <path id="Trazado_113755" data-name="Trazado 113755" d="M1666.261-67.867a6.4,6.4,0,0,1-1.616-.532,27.372,27.372,0,0,1-3.66-1.86,36.671,36.671,0,0,1-3.384-2.318,7.239,7.239,0,0,1-1.286-1.111c.07-.095,2.139,1.467,4.858,3.117,1.361.82,2.638,1.484,3.577,1.937A10.194,10.194,0,0,1,1666.261-67.867Z" fill="#ff9a6c"/>
                      </g>
                    </g>
                  </g>
                </g>
                <g id="Grupo_80500" data-name="Grupo 80500">
                  <g id="Grupo_80499" data-name="Grupo 80499">
                    <g id="Grupo_80498" data-name="Grupo 80498">
                      <g id="Grupo_80497" data-name="Grupo 80497">
                        <path id="Trazado_113756" data-name="Trazado 113756" d="M1666.452-62.611a10.645,10.645,0,0,1-2.063-.792,38.709,38.709,0,0,1-4.693-2.537,43.74,43.74,0,0,1-4.32-3.128,11.248,11.248,0,0,1-1.633-1.487,16.045,16.045,0,0,1,1.791,1.285c1.089.812,2.608,1.914,4.357,3.022s3.4,2,4.609,2.613A17.417,17.417,0,0,1,1666.452-62.611Z" fill="#ff9a6c"/>
                      </g>
                    </g>
                  </g>
                </g>
              </g>
              <g id="Grupo_80508" data-name="Grupo 80508">
                <path id="Trazado_113757" data-name="Trazado 113757" d="M1690.445-51.523l81.489,24.511a48.649,48.649,0,0,0,28.384-48.624c-2.56-28.8-5.958-66.682-6.958-76.192-1.667-15.855-19.84-27.531-19.84-27.531-25,1.626-19.454,51.047-19.454,51.047l10.054,56.851L1693.269-74.3Z" fill="#dee9f0"/>
                <g id="Grupo_80502" data-name="Grupo 80502">
                  <path id="Trazado_113758" data-name="Trazado 113758" d="M1764.12-71.461a13.239,13.239,0,0,0-.1-2.272c-.093-1.461-.331-3.565-.631-6.164-.642-5.192-1.744-12.337-3.2-20.181s-2.932-14.92-4.079-20.021c-.573-2.55-1.058-4.61-1.415-6.028a13.057,13.057,0,0,0-.63-2.185,13.857,13.857,0,0,0,.35,2.247c.3,1.56.7,3.606,1.186,6.074,1.016,5.125,2.415,12.207,3.865,20.046s2.637,14.954,3.409,20.118c.35,2.488.64,4.551.862,6.124A13.536,13.536,0,0,0,1764.12-71.461Z" fill="#1a2e35"/>
                </g>
                <g id="Grupo_80503" data-name="Grupo 80503">
                  <path id="Trazado_113759" data-name="Trazado 113759" d="M1693.269-74.3a3.022,3.022,0,0,0,.769.116l2.214.19c1.924.146,4.71.323,8.155.494,6.89.356,16.414.688,26.932.987l26.935.772,8.162.26,2.22.052a3.057,3.057,0,0,0,.778-.032,3.167,3.167,0,0,0-.769-.116l-2.214-.189c-1.924-.147-4.71-.324-8.155-.5-6.89-.355-16.414-.687-26.936-.987l-26.931-.771-8.162-.261-2.221-.052A3.161,3.161,0,0,0,1693.269-74.3Z" fill="#1a2e35"/>
                </g>
                <g id="Grupo_80504" data-name="Grupo 80504">
                  <path id="Trazado_113760" data-name="Trazado 113760" d="M1761.036-93.013a5.963,5.963,0,0,0,1.5-.026l4.059-.3c3.426-.263,8.158-.592,13.392-.813s9.98-.286,13.416-.31l4.07-.039a5.881,5.881,0,0,0,1.5-.1,5.9,5.9,0,0,0-1.489-.186c-.96-.074-2.351-.142-4.072-.195-3.44-.109-8.2-.123-13.451.1s-9.991.633-13.411,1.029c-1.71.2-3.091.382-4.041.536A5.808,5.808,0,0,0,1761.036-93.013Z" fill="#ff9500"/>
                </g>
                <g id="Grupo_80505" data-name="Grupo 80505">
                  <path id="Trazado_113761" data-name="Trazado 113761" d="M1754.066-132.243c.008.2,9.241-.02,20.618-.5s20.6-1.027,20.589-1.23-9.239.019-20.62.5S1754.057-132.446,1754.066-132.243Z" fill="#ff9500"/>
                </g>
                <g id="Grupo_80506" data-name="Grupo 80506">
                  <path id="Trazado_113762" data-name="Trazado 113762" d="M1792.688-45.791a6.028,6.028,0,0,0-.786-1.305c-.54-.817-1.375-1.961-2.454-3.339a83.993,83.993,0,0,0-9.316-10.008,83.894,83.894,0,0,0-10.82-8.362c-1.471-.948-2.687-1.675-3.55-2.138a6.034,6.034,0,0,0-1.371-.663c-.06.1,1.777,1.237,4.631,3.232a107.088,107.088,0,0,1,10.615,8.474,107.035,107.035,0,0,1,9.408,9.793C1791.292-47.448,1792.592-45.722,1792.688-45.791Z" fill="#ff9500"/>
                </g>
                <g id="Grupo_80507" data-name="Grupo 80507">
                  <path id="Trazado_113763" data-name="Trazado 113763" d="M1734.217-38.041c.2.032,1.574-7.62,3.067-17.088s2.541-17.172,2.34-17.2-1.573,7.618-3.067,17.09S1734.016-38.072,1734.217-38.041Z" fill="#ff9500"/>
                </g>
              </g>
              <g id="Grupo_80509" data-name="Grupo 80509" opacity="0.3">
                <path id="Trazado_113764" data-name="Trazado 113764" d="M1772.427-27.012l-91.262-27.7c6.842,9,20.162,17.4,30.211,22.575s20.8,8.837,31.5,12.475c5.818,1.978,11.773,3.979,17.918,3.926s12.137-1.818,15.367-7.046Z"/>
              </g>
            </g>
            <g id="Grupo_80586" data-name="Grupo 80586">
              <path id="Trazado_113765" data-name="Trazado 113765" d="M1756.692-261.615a9.653,9.653,0,0,1,3.364-11.481,10.394,10.394,0,0,1,12.091.619,11.27,11.27,0,0,1,3.462,11.742,11.857,11.857,0,0,1-11.831,8.128,11.858,11.858,0,0,1-10.542-9.743" fill="#1a2e35"/>
              <g id="Grupo_80578" data-name="Grupo 80578">
                <g id="Grupo_80577" data-name="Grupo 80577">
                  <g id="Grupo_80576" data-name="Grupo 80576">
                    <g id="Grupo_80575" data-name="Grupo 80575">
                      <g id="Grupo_80564" data-name="Grupo 80564">
                        <g id="Grupo_80563" data-name="Grupo 80563">
                          <g id="Grupo_80562" data-name="Grupo 80562">
                            <g id="Grupo_80515" data-name="Grupo 80515">
                              <g id="Grupo_80514" data-name="Grupo 80514">
                                <g id="Grupo_80513" data-name="Grupo 80513">
                                  <g id="Grupo_80512" data-name="Grupo 80512">
                                    <g id="Grupo_80511" data-name="Grupo 80511">
                                      <path id="Trazado_113766" data-name="Trazado 113766" d="M1743.055-285.448l.052,6.669,1.414,99.827c.164,11.59-9.67,20.96-22.08,21.041h0c-12.533.082-22.975-9.333-23.334-21.038-.377-12.285-1-25.211-1-25.211s-15.9-2.191-19.748-22.751c-1.914-10.224-1.863-27.076-1.375-40.864a21.813,21.813,0,0,1,23.491-20.992Z" fill="#ffbf9d"/>
                                    </g>
                                  </g>
                                </g>
                              </g>
                            </g>
                            <g id="Grupo_80527" data-name="Grupo 80527">
                              <g id="Grupo_80520" data-name="Grupo 80520">
                                <g id="Grupo_80519" data-name="Grupo 80519">
                                  <g id="Grupo_80518" data-name="Grupo 80518">
                                    <g id="Grupo_80517" data-name="Grupo 80517">
                                      <g id="Grupo_80516" data-name="Grupo 80516">
                                        <path id="Trazado_113767" data-name="Trazado 113767" d="M1683.978-255.757a2.65,2.65,0,0,0,2.627,2.6,2.533,2.533,0,0,0,2.664-2.463,2.649,2.649,0,0,0-2.624-2.6A2.536,2.536,0,0,0,1683.978-255.757Z" fill="#1a2e35"/>
                                      </g>
                                    </g>
                                  </g>
                                </g>
                              </g>
                              <g id="Grupo_80526" data-name="Grupo 80526">
                                <g id="Grupo_80525" data-name="Grupo 80525">
                                  <g id="Grupo_80524" data-name="Grupo 80524">
                                    <g id="Grupo_80523" data-name="Grupo 80523">
                                      <g id="Grupo_80522" data-name="Grupo 80522">
                                        <g id="Grupo_80521" data-name="Grupo 80521">
                                          <path id="Trazado_113768" data-name="Trazado 113768" d="M1680.879-259.116c.338.336,2.3-1.2,5.153-1.275,2.846-.112,4.978,1.3,5.277.939.148-.159-.2-.773-1.132-1.411a7.28,7.28,0,0,0-4.237-1.179,6.981,6.981,0,0,0-4.089,1.446C1680.992-259.9,1680.713-259.267,1680.879-259.116Z" fill="#1a2e35"/>
                                        </g>
                                      </g>
                                    </g>
                                  </g>
                                </g>
                              </g>
                            </g>
                            <g id="Grupo_80539" data-name="Grupo 80539">
                              <g id="Grupo_80532" data-name="Grupo 80532">
                                <g id="Grupo_80531" data-name="Grupo 80531">
                                  <g id="Grupo_80530" data-name="Grupo 80530">
                                    <g id="Grupo_80529" data-name="Grupo 80529">
                                      <g id="Grupo_80528" data-name="Grupo 80528">
                                        <path id="Trazado_113769" data-name="Trazado 113769" d="M1711.867-256.031a2.649,2.649,0,0,0,2.627,2.6,2.533,2.533,0,0,0,2.664-2.462,2.652,2.652,0,0,0-2.625-2.6A2.535,2.535,0,0,0,1711.867-256.031Z" fill="#1a2e35"/>
                                      </g>
                                    </g>
                                  </g>
                                </g>
                              </g>
                              <g id="Grupo_80538" data-name="Grupo 80538">
                                <g id="Grupo_80537" data-name="Grupo 80537">
                                  <g id="Grupo_80536" data-name="Grupo 80536">
                                    <g id="Grupo_80535" data-name="Grupo 80535">
                                      <g id="Grupo_80534" data-name="Grupo 80534">
                                        <g id="Grupo_80533" data-name="Grupo 80533">
                                          <path id="Trazado_113770" data-name="Trazado 113770" d="M1708.906-259.357c.338.336,2.306-1.2,5.154-1.275,2.846-.111,4.978,1.3,5.278.939.146-.158-.2-.772-1.134-1.41a7.268,7.268,0,0,0-4.236-1.18,6.987,6.987,0,0,0-4.09,1.446C1709.022-260.14,1708.741-259.507,1708.906-259.357Z" fill="#1a2e35"/>
                                        </g>
                                      </g>
                                    </g>
                                  </g>
                                </g>
                              </g>
                            </g>
                            <g id="Grupo_80545" data-name="Grupo 80545">
                              <g id="Grupo_80544" data-name="Grupo 80544">
                                <g id="Grupo_80543" data-name="Grupo 80543">
                                  <g id="Grupo_80542" data-name="Grupo 80542">
                                    <g id="Grupo_80541" data-name="Grupo 80541">
                                      <g id="Grupo_80540" data-name="Grupo 80540">
                                        <path id="Trazado_113771" data-name="Trazado 113771" d="M1699.147-237.937c.008-.163-1.772-.42-4.652-.708-.73-.055-1.423-.18-1.559-.674a3.705,3.705,0,0,1,.426-2.17q.954-2.67,2-5.6c2.771-7.972,4.755-14.518,4.433-14.627s-2.83,6.264-5.6,14.236q-1,2.947-1.908,5.632a4.213,4.213,0,0,0-.3,2.866,1.829,1.829,0,0,0,1.226,1.031,4.932,4.932,0,0,0,1.241.137C1697.348-237.739,1699.14-237.775,1699.147-237.937Z" fill="#1a2e35"/>
                                      </g>
                                    </g>
                                  </g>
                                </g>
                              </g>
                            </g>
                            <g id="Grupo_80550" data-name="Grupo 80550">
                              <g id="Grupo_80549" data-name="Grupo 80549">
                                <g id="Grupo_80548" data-name="Grupo 80548">
                                  <g id="Grupo_80547" data-name="Grupo 80547">
                                    <g id="Grupo_80546" data-name="Grupo 80546">
                                      <path id="Trazado_113772" data-name="Trazado 113772" d="M1698.108-204.16a52.548,52.548,0,0,0,27.452-8.14s-6.318,14.371-27.039,13.008Z" fill="#ff9a6c"/>
                                    </g>
                                  </g>
                                </g>
                              </g>
                            </g>
                            <g id="Grupo_80555" data-name="Grupo 80555">
                              <g id="Grupo_80554" data-name="Grupo 80554">
                                <g id="Grupo_80553" data-name="Grupo 80553">
                                  <g id="Grupo_80552" data-name="Grupo 80552">
                                    <g id="Grupo_80551" data-name="Grupo 80551">
                                      <path id="Trazado_113773" data-name="Trazado 113773" d="M1700.541-231.1a5.137,5.137,0,0,1,4.551-2.034,4.688,4.688,0,0,1,3.285,1.648,2.972,2.972,0,0,1,.32,3.39,3.447,3.447,0,0,1-3.71,1.048,10.8,10.8,0,0,1-3.7-2.073,3.175,3.175,0,0,1-.837-.821.955.955,0,0,1-.025-1.061" fill="#ff9a6c"/>
                                    </g>
                                  </g>
                                </g>
                              </g>
                            </g>
                            <g id="Grupo_80561" data-name="Grupo 80561">
                              <g id="Grupo_80560" data-name="Grupo 80560">
                                <g id="Grupo_80559" data-name="Grupo 80559">
                                  <g id="Grupo_80558" data-name="Grupo 80558">
                                    <g id="Grupo_80557" data-name="Grupo 80557">
                                      <g id="Grupo_80556" data-name="Grupo 80556">
                                        <path id="Trazado_113774" data-name="Trazado 113774" d="M1707.588-236.2c-.465-.014-.385,3.079-2.972,5.348s-5.89,2.019-5.9,2.452c-.038.2.751.58,2.144.58a7.705,7.705,0,0,0,4.931-1.872,6.715,6.715,0,0,0,2.294-4.479C1708.165-235.464,1707.8-236.221,1707.588-236.2Z" fill="#1a2e35"/>
                                      </g>
                                    </g>
                                  </g>
                                </g>
                              </g>
                            </g>
                          </g>
                        </g>
                      </g>
                      <g id="Grupo_80569" data-name="Grupo 80569">
                        <g id="Grupo_80568" data-name="Grupo 80568">
                          <g id="Grupo_80567" data-name="Grupo 80567">
                            <g id="Grupo_80566" data-name="Grupo 80566">
                              <g id="Grupo_80565" data-name="Grupo 80565">
                                <path id="Trazado_113775" data-name="Trazado 113775" d="M1707.862-270.505c.3.767,3.138.321,6.492.632,3.361.244,6.084,1.148,6.509.441.189-.338-.3-1.054-1.412-1.774a10.844,10.844,0,0,0-4.859-1.552,10.83,10.83,0,0,0-5.046.735C1708.332-271.495,1707.731-270.869,1707.862-270.505Z" fill="#1a2e35"/>
                              </g>
                            </g>
                          </g>
                        </g>
                      </g>
                      <g id="Grupo_80574" data-name="Grupo 80574">
                        <g id="Grupo_80573" data-name="Grupo 80573">
                          <g id="Grupo_80572" data-name="Grupo 80572">
                            <g id="Grupo_80571" data-name="Grupo 80571">
                              <g id="Grupo_80570" data-name="Grupo 80570">
                                <path id="Trazado_113776" data-name="Trazado 113776" d="M1681.7-267.393c.519.633,2.464-.092,4.824-.189,2.356-.179,4.371.314,4.813-.375.192-.334-.14-.974-1.031-1.562a6.665,6.665,0,0,0-3.951-.953,6.667,6.667,0,0,0-3.813,1.407C1681.725-268.377,1681.469-267.7,1681.7-267.393Z" fill="#1a2e35"/>
                              </g>
                            </g>
                          </g>
                        </g>
                      </g>
                    </g>
                  </g>
                </g>
              </g>
              <g id="Grupo_80580" data-name="Grupo 80580">
                <g id="Grupo_80579" data-name="Grupo 80579">
                  <path id="Trazado_113777" data-name="Trazado 113777" d="M1717.087-291.985c-5.517,7.337.227,17.725,6.583,24.347s14.1,14.313,12.369,23.327c-2.011,10.451-16.306,17.146-14.183,27.575.775,3.807,3.778,7.052,3.792,10.938.025,7.012-9.048,10.419-11.66,16.926-3.579,8.918,6.263,17.813,6.412,27.421.084,5.456-3.005,10.545-3.17,16-.339,11.174,12.877,19.353,23.713,16.6s18.259-13.324,20.62-24.251-1.219-26.288-2.968-37.33l18.774,4.353c3.5-3.333-1.285-6.879-2.073-11.646-1.976-11.95-9.829-22.068-13.568-33.588-3.268-10.07-3.29-20.857-4.718-31.346s-4.68-21.422-12.691-28.343-21.879-7.772-28.359.6" fill="#1a2e35"/>
                </g>
              </g>
              <g id="Grupo_80581" data-name="Grupo 80581">
                <path id="Trazado_113778" data-name="Trazado 113778" d="M1759.189-258.064a32.942,32.942,0,0,1-8.275.246c-5.076-.524-11.945-3.105-17.959-8.13-6.01-5.042-10.173-10.918-13.122-15.121l-3.446-5.047a13.222,13.222,0,0,0-1.327-1.812,13.119,13.119,0,0,0,1.086,1.967c.743,1.239,1.838,3.021,3.256,5.183,2.848,4.287,6.974,10.268,13.083,15.4s13.183,7.682,18.375,8.081a23.028,23.028,0,0,0,6.145-.211,14.094,14.094,0,0,0,1.631-.364A1.73,1.73,0,0,0,1759.189-258.064Z" fill="#546e7a"/>
              </g>
              <g id="Grupo_80582" data-name="Grupo 80582">
                <path id="Trazado_113779" data-name="Trazado 113779" d="M1734.712-255.3a11.278,11.278,0,0,0,3.014,2.1,25.57,25.57,0,0,0,8.429,2.789,25.563,25.563,0,0,0,8.877-.257,11.318,11.318,0,0,0,3.491-1.152c-.039-.12-1.375.3-3.584.64a29.68,29.68,0,0,1-8.677.042,29.684,29.684,0,0,1-8.3-2.526C1735.944-254.622,1734.783-255.4,1734.712-255.3Z" fill="#546e7a"/>
              </g>
              <g id="Grupo_80583" data-name="Grupo 80583">
                <path id="Trazado_113780" data-name="Trazado 113780" d="M1667.594-269.18c-.035.18,3.161.236,6.427-1.724,3.288-1.925,4.773-4.755,4.6-4.81-.181-.14-1.859,2.364-4.973,4.178C1670.561-269.676,1667.559-269.406,1667.594-269.18Z" fill="#546e7a"/>
              </g>
              <g id="Grupo_80584" data-name="Grupo 80584">
                <path id="Trazado_113781" data-name="Trazado 113781" d="M1668.917-262.226c-.049.183,1.762.657,3.94.1,2.184-.535,3.56-1.8,3.43-1.943-.124-.178-1.588.74-3.608,1.23C1670.667-262.319,1668.943-262.442,1668.917-262.226Z" fill="#546e7a"/>
              </g>
              <g id="Grupo_80585" data-name="Grupo 80585">
                <path id="Trazado_113782" data-name="Trazado 113782" d="M1757.634-253.572c.178.048.945-3.013.593-6.845-.327-3.835-1.62-6.714-1.787-6.635-.21.071.74,2.98,1.055,6.7C1757.839-256.636,1757.414-253.6,1757.634-253.572Z" fill="#ff9500"/>
              </g>
            </g>
          </g>
        </g>
      </g>
      <g id="Grupo_80628" data-name="Grupo 80628">
        <g id="Grupo_80593" data-name="Grupo 80593">
          <g id="Grupo_80590" data-name="Grupo 80590">
            <path id="Trazado_113784" data-name="Trazado 113784" d="M1521.99,8.039,1538.2,24.918a2.822,2.822,0,0,0,3.988.126l64.518-61.978a2.822,2.822,0,0,0,.035-3.99L1590.531-57.8a2.821,2.821,0,0,0-3.988-.126L1522.024,4.049A2.823,2.823,0,0,0,1521.99,8.039Z" fill="#f5f5f5"/>
          </g>
          <g id="Grupo_80592" data-name="Grupo 80592">
            <g id="Grupo_80591" data-name="Grupo 80591">
              <path id="Trazado_113785" data-name="Trazado 113785" d="M1521.99,8.039a2.193,2.193,0,0,1-.4-.484,2.843,2.843,0,0,1,0-3.081,9.194,9.194,0,0,1,1.135-1.2l2.936-2.852c4.442-4.292,10.848-10.484,18.759-18.13,7.937-7.644,17.381-16.741,27.867-26.842l8.059-7.753,4.163-4c.718-.675,1.367-1.349,2.151-2.033a3.057,3.057,0,0,1,3.047-.329,3.735,3.735,0,0,1,1.245.957l1.037,1.078,2.085,2.17,4.221,4.392,8.622,8.973a3.127,3.127,0,0,1,.714,3.165,3.221,3.221,0,0,1-.946,1.365l-1.124,1.08-4.46,4.283-8.72,8.372c-5.719,5.486-11.235,10.778-16.49,15.821L1547.95,19.755q-2.986,2.853-5.681,5.43a2.96,2.96,0,0,1-3.533.34,6.931,6.931,0,0,1-1.291-1.192l-1.153-1.207L1528.548,15l-4.88-5.147-1.261-1.347c-.281-.306-.417-.471-.417-.471s.16.142.454.436l1.3,1.313,4.947,5.083,7.8,8.064,1.16,1.2a6.775,6.775,0,0,0,1.236,1.137,2.656,2.656,0,0,0,3.168-.317l5.654-5.452,27.868-26.844,16.47-15.842,8.715-8.377,4.459-4.284,1.124-1.08a2.72,2.72,0,0,0,.82-1.171,2.63,2.63,0,0,0-.6-2.662l-8.62-8.975-4.219-4.394q-1.047-1.091-2.084-2.171l-1.036-1.079a3.225,3.225,0,0,0-1.091-.851,2.576,2.576,0,0,0-2.565.272c-.693.606-1.409,1.336-2.107,1.993l-4.168,4-8.07,7.741-27.94,26.766L1525.8.56l-2.968,2.82a9.259,9.259,0,0,0-1.133,1.162,2.75,2.75,0,0,0-.449,1.239,2.858,2.858,0,0,0,.385,1.748C1521.844,7.881,1522,8.028,1521.99,8.039Z" fill="#1a2e35"/>
            </g>
          </g>
        </g>
        <g id="Grupo_80594" data-name="Grupo 80594">
          <rect id="Rectángulo_33829" data-name="Rectángulo 33829" width="16.35" height="23.84" transform="matrix(0.717, -0.697, 0.697, 0.717, 1575.986, -44.249)" fill="#ff9500"/>
        </g>
        <g id="Grupo_80595" data-name="Grupo 80595">
          <rect id="Rectángulo_33830" data-name="Rectángulo 33830" width="16.35" height="23.84" transform="translate(1537.82 -7.114) rotate(-44.216)" fill="#ff9500"/>
        </g>
        <g id="Grupo_80596" data-name="Grupo 80596">
          <rect id="Rectángulo_33831" data-name="Rectángulo 33831" width="16.35" height="23.84" transform="matrix(0.717, -0.697, 0.697, 0.717, 1550.557, -19.507)" fill="#ff9500"/>
        </g>
        <g id="Grupo_80597" data-name="Grupo 80597">
          <rect id="Rectángulo_33832" data-name="Rectángulo 33832" width="16.35" height="23.84" transform="matrix(0.717, -0.697, 0.697, 0.717, 1563.303, -31.909)" fill="#ff9500"/>
        </g>
        <g id="Grupo_80598" data-name="Grupo 80598" opacity="0.8">
          <rect id="Rectángulo_33833" data-name="Rectángulo 33833" width="16.35" height="23.84" transform="matrix(0.717, -0.697, 0.697, 0.717, 1575.986, -44.249)"/>
        </g>
        <g id="Grupo_80599" data-name="Grupo 80599" opacity="0.5">
          <rect id="Rectángulo_33834" data-name="Rectángulo 33834" width="16.35" height="23.84" transform="translate(1537.82 -7.114) rotate(-44.216)"/>
        </g>
        <g id="Grupo_80600" data-name="Grupo 80600" opacity="0.6">
          <rect id="Rectángulo_33835" data-name="Rectángulo 33835" width="16.35" height="23.84" transform="matrix(0.717, -0.697, 0.697, 0.717, 1550.557, -19.507)"/>
        </g>
        <g id="Grupo_80601" data-name="Grupo 80601" opacity="0.7">
          <rect id="Rectángulo_33836" data-name="Rectángulo 33836" width="16.35" height="23.84" transform="matrix(0.717, -0.697, 0.697, 0.717, 1563.303, -31.909)"/>
        </g>
        <g id="Grupo_80605" data-name="Grupo 80605">
          <g id="Grupo_80602" data-name="Grupo 80602">
            <path id="Trazado_113786" data-name="Trazado 113786" d="M1523.08,5.152l11.325,20.482a2.8,2.8,0,0,0,3.786,1.168l77.176-42.674a2.8,2.8,0,0,0,1.025-3.827l-11.325-20.482a2.8,2.8,0,0,0-3.787-1.167L1524.1,1.325A2.8,2.8,0,0,0,1523.08,5.152Z" fill="#f5f5f5"/>
          </g>
          <g id="Grupo_80604" data-name="Grupo 80604">
            <g id="Grupo_80603" data-name="Grupo 80603">
              <path id="Trazado_113787" data-name="Trazado 113787" d="M1523.08,5.152a2.206,2.206,0,0,1-.265-.564,2.882,2.882,0,0,1,.013-1.818,2.744,2.744,0,0,1,.742-1.137,8.343,8.343,0,0,1,1.386-.863l3.532-1.979,22.542-12.553,33.462-18.563,9.675-5.359,5-2.768,1.264-.7a7.124,7.124,0,0,1,1.353-.658,3.051,3.051,0,0,1,2.934.773,5.091,5.091,0,0,1,.859,1.274l.716,1.294,1.441,2.6q1.447,2.615,2.916,5.271l5.957,10.771a3.131,3.131,0,0,1-.092,3.21,3.115,3.115,0,0,1-1.245,1.078l-1.349.746-5.352,2.958L1598.1-6.049,1578.317,4.875,1544.8,23.346c-2.4,1.309-4.633,2.573-6.834,3.735a2.955,2.955,0,0,1-3.391-.932c-.662-1.005-1.124-1.992-1.668-2.938l-5.335-9.734-3.353-6.161-.862-1.608c-.191-.363-.278-.556-.278-.556s.116.176.323.532l.9,1.584,3.435,6.116,5.407,9.694c.537.924,1.046,1.968,1.657,2.887a2.654,2.654,0,0,0,3.042.826c2.129-1.141,4.407-2.439,6.784-3.75L1578.1,4.477l19.772-10.949,10.461-5.789,5.35-2.959,1.35-.747a2.609,2.609,0,0,0,1.07-.916,2.637,2.637,0,0,0,.073-2.7q-3.015-5.454-5.954-10.771l-2.914-5.273-1.439-2.6-.715-1.295a4.7,4.7,0,0,0-.773-1.163,2.571,2.571,0,0,0-2.466-.656,6.848,6.848,0,0,0-1.251.616l-1.265.7-5,2.761-9.683,5.345L1551.2-13.457,1528.581-1.041,1525.027.9a8.442,8.442,0,0,0-1.375.827,2.646,2.646,0,0,0-.73,1.079,2.877,2.877,0,0,0-.059,1.769C1522.98,4.964,1523.095,5.145,1523.08,5.152Z" fill="#1a2e35"/>
            </g>
          </g>
        </g>
        <g id="Grupo_80606" data-name="Grupo 80606">
          <rect id="Rectángulo_33837" data-name="Rectángulo 33837" width="16.35" height="23.84" transform="matrix(0.872, -0.489, 0.489, 0.872, 1586.531, -29.619)" fill="#ff9500"/>
        </g>
        <g id="Grupo_80607" data-name="Grupo 80607">
          <rect id="Rectángulo_33838" data-name="Rectángulo 33838" width="16.35" height="23.84" transform="translate(1540.083 -3.575) rotate(-29.28)" fill="#ff9500"/>
        </g>
        <g id="Grupo_80608" data-name="Grupo 80608">
          <rect id="Rectángulo_33839" data-name="Rectángulo 33839" width="16.35" height="23.84" transform="matrix(0.872, -0.489, 0.489, 0.872, 1555.584, -12.266)" fill="#ff9500"/>
        </g>
        <g id="Grupo_80609" data-name="Grupo 80609">
          <rect id="Rectángulo_33840" data-name="Rectángulo 33840" width="16.35" height="23.84" transform="translate(1571.096 -20.964) rotate(-29.28)" fill="#ff9500"/>
        </g>
        <g id="Grupo_80610" data-name="Grupo 80610" opacity="0.5">
          <rect id="Rectángulo_33841" data-name="Rectángulo 33841" width="16.35" height="23.84" transform="matrix(0.872, -0.489, 0.489, 0.872, 1586.531, -29.619)"/>
        </g>
        <g id="Grupo_80611" data-name="Grupo 80611" opacity="0.2">
          <rect id="Rectángulo_33842" data-name="Rectángulo 33842" width="16.35" height="23.84" transform="translate(1540.083 -3.575) rotate(-29.28)"/>
        </g>
        <g id="Grupo_80612" data-name="Grupo 80612" opacity="0.3">
          <rect id="Rectángulo_33843" data-name="Rectángulo 33843" width="16.35" height="23.84" transform="matrix(0.872, -0.489, 0.489, 0.872, 1555.584, -12.266)"/>
        </g>
        <g id="Grupo_80613" data-name="Grupo 80613" opacity="0.4">
          <rect id="Rectángulo_33844" data-name="Rectángulo 33844" width="16.35" height="23.84" transform="translate(1571.096 -20.964) rotate(-29.28)"/>
        </g>
        <g id="Grupo_80617" data-name="Grupo 80617">
          <g id="Grupo_80614" data-name="Grupo 80614">
            <path id="Trazado_113788" data-name="Trazado 113788" d="M1520.237,4.968l5,22.865a2.869,2.869,0,0,0,3.43,2.171l90.51-19.779a2.871,2.871,0,0,0,2.211-3.405l-5-22.865a2.872,2.872,0,0,0-3.431-2.171l-90.509,19.78A2.87,2.87,0,0,0,1520.237,4.968Z" fill="#f5f5f5"/>
          </g>
          <g id="Grupo_80616" data-name="Grupo 80616">
            <g id="Grupo_80615" data-name="Grupo 80615">
              <path id="Trazado_113789" data-name="Trazado 113789" d="M1520.237,4.968a2.147,2.147,0,0,1-.089-.642,2.84,2.84,0,0,1,.62-1.78,3.014,3.014,0,0,1,1.114-.864,11.5,11.5,0,0,1,1.64-.428l4.1-.92,26.169-5.8L1592.619-14l11.223-2.461,5.8-1.27,2.941-.645a3.65,3.65,0,0,1,1.6-.087,3.14,3.14,0,0,1,1.465.716,3.071,3.071,0,0,1,.9,1.368c.149.538.23,1.01.348,1.52q.33,1.5.662,3.021.663,3.033,1.337,6.113l2.731,12.491a3.112,3.112,0,0,1-1.146,3.118,3.486,3.486,0,0,1-1.567.654l-1.565.342-6.206,1.355-12.134,2.648-22.941,5-38.85,8.436-7.889,1.706c-.314.065-.611.142-.946.187a3.176,3.176,0,0,1-.979-.052,3.047,3.047,0,0,1-1.633-.954,3.281,3.281,0,0,1-.746-1.662q-.184-.852-.361-1.676c-.943-4.391-1.756-8.175-2.421-11.274-.653-3.084-1.162-5.482-1.511-7.129q-.246-1.206-.38-1.856c-.083-.419-.113-.636-.113-.636s.063.21.162.625c.1.432.243,1.046.429,1.846.369,1.642.908,4.034,1.6,7.109l2.5,11.256q.183.822.371,1.674A2.986,2.986,0,0,0,1525.99,29a2.742,2.742,0,0,0,1.475.852,3.775,3.775,0,0,0,1.8-.144l7.882-1.74,38.827-8.539,22.935-5.027,12.132-2.655,6.206-1.357,1.565-.342a2.99,2.99,0,0,0,1.371-.564,2.616,2.616,0,0,0,.965-2.622l-2.728-12.491q-.672-3.079-1.335-6.114-.33-1.516-.659-3.021c-.113-.49-.211-1.028-.335-1.476a2.6,2.6,0,0,0-.761-1.152,2.749,2.749,0,0,0-2.642-.523l-2.942.642-5.8,1.263-11.227,2.445-38.847,8.435-26.2,5.646-4.114.876a11.6,11.6,0,0,0-1.622.4,2.919,2.919,0,0,0-1.086.813,2.831,2.831,0,0,0-.646,1.718C1520.191,4.751,1520.254,4.965,1520.237,4.968Z" fill="#1a2e35"/>
            </g>
          </g>
        </g>
        <g id="Grupo_80619" data-name="Grupo 80619">
          <g id="Grupo_80618" data-name="Grupo 80618">
            <path id="Trazado_113790" data-name="Trazado 113790" d="M1520.048,5.061c0,.087-1.14.022-3.128.386a16.768,16.768,0,0,0-7.586,3.605,16.17,16.17,0,0,0-5.611,10.81,15.87,15.87,0,0,0,29.581,9.222,16.371,16.371,0,0,0,2.2-8.1q-.021-.749-.04-1.342c-.019-.389-.079-.714-.1-.981a2.668,2.668,0,0,1-.036-.825,2.606,2.606,0,0,1,.232.792c.054.265.146.59.2.983l.132,1.365a16,16,0,0,1-1.979,8.451,16.389,16.389,0,0,1-10.007,7.96,16.521,16.521,0,0,1-15.18-3.245,17.016,17.016,0,0,1-2.889-3.1,16.529,16.529,0,0,1-.881-17.907,16.641,16.641,0,0,1,3.934-4.622,16.357,16.357,0,0,1,7.97-3.446,13.64,13.64,0,0,1,2.368-.115A2.273,2.273,0,0,1,1520.048,5.061Z" fill="#1a2e35"/>
          </g>
        </g>
        <g id="Grupo_80620" data-name="Grupo 80620">
          <path id="Trazado_113791" data-name="Trazado 113791" d="M1537.967,14.241a3.565,3.565,0,1,1-4.243-2.721A3.565,3.565,0,0,1,1537.967,14.241Z" fill="#1a2e35"/>
        </g>
        <g id="Grupo_80621" data-name="Grupo 80621">
          <rect id="Rectángulo_33845" data-name="Rectángulo 33845" width="16.35" height="23.84" transform="matrix(0.977, -0.213, 0.213, 0.977, 1597.646, -11.67)" fill="#ff9500"/>
        </g>
        <g id="Grupo_80622" data-name="Grupo 80622">
          <rect id="Rectángulo_33846" data-name="Rectángulo 33846" width="16.35" height="23.84" transform="translate(1580.358 -7.892) rotate(-12.327)" fill="#ff9500"/>
        </g>
        <g id="Grupo_80623" data-name="Grupo 80623">
          <rect id="Rectángulo_33847" data-name="Rectángulo 33847" width="16.35" height="23.84" transform="translate(1562.984 -4.095) rotate(-12.327)" fill="#ff9500"/>
        </g>
        <g id="Grupo_80624" data-name="Grupo 80624">
          <rect id="Rectángulo_33848" data-name="Rectángulo 33848" width="16.35" height="23.84" transform="matrix(0.977, -0.213, 0.213, 0.977, 1545.623, -0.301)" fill="#ff9500"/>
        </g>
        <g id="Grupo_80625" data-name="Grupo 80625" opacity="0.8">
          <rect id="Rectángulo_33849" data-name="Rectángulo 33849" width="16.35" height="23.84" transform="matrix(0.977, -0.213, 0.213, 0.977, 1545.623, -0.301)" fill="#fff"/>
        </g>
        <g id="Grupo_80626" data-name="Grupo 80626" opacity="0.6">
          <rect id="Rectángulo_33850" data-name="Rectángulo 33850" width="16.35" height="23.84" transform="translate(1562.984 -4.095) rotate(-12.327)" fill="#fff"/>
        </g>
        <g id="Grupo_80627" data-name="Grupo 80627" opacity="0.4">
          <rect id="Rectángulo_33851" data-name="Rectángulo 33851" width="16.35" height="23.84" transform="translate(1580.358 -7.892) rotate(-12.327)" fill="#fff"/>
        </g>
      </g>
    </g>
  </g>
</svg>
